M48
; DRILL file {KiCad (5.1.0-0)} date 2020 February 24, Monday 21:34:07
; FORMAT={-:-/ absolute / inch / decimal}
; #@! TF.CreationDate,2020-02-24T21:34:07+01:00
; #@! TF.GenerationSoftware,Kicad,Pcbnew,(5.1.0-0)
; #@! TF.FileFunction,Plated,1,2,PTH
FMAT,2
INCH
T1C0.0157
T2C0.0300
T3C0.0394
T4C0.0591
T5C0.0787
%
G90
G05
T1
X5.2161Y-4.2854
X5.2587Y-4.8524
X5.2909Y-4.7519
X5.3937Y-3.3791
X5.4768Y-4.578
X5.477Y-4.4062
X5.5323Y-5.6276
X5.6189Y-3.0547
X5.6959Y-5.2985
X5.822Y-3.9642
X5.9031Y-3.6039
X5.9217Y-3.9193
X5.9547Y-4.8796
X6.001Y-2.8104
X6.1465Y-4.3929
T2
X5.498Y-2.3579
X5.498Y-2.4366
X5.498Y-2.5154
X5.498Y-2.5941
X5.9157Y-2.3567
X5.9157Y-2.4354
X5.9157Y-2.5142
X5.9157Y-2.5929
T3
X5.5483Y-2.1381
X5.6483Y-2.1381
X5.7483Y-2.1381
X5.8483Y-2.1381
T4
X5.5288Y-4.2923
T5
X5.7059Y-4.2923
T0
M30
