G04 #@! TF.GenerationSoftware,KiCad,Pcbnew,(5.1.0-0)*
G04 #@! TF.CreationDate,2020-02-24T20:35:34+01:00*
G04 #@! TF.ProjectId,pino_brd_v01,70696e6f-5f62-4726-945f-7630312e6b69,rev?*
G04 #@! TF.SameCoordinates,Original*
G04 #@! TF.FileFunction,Soldermask,Bot*
G04 #@! TF.FilePolarity,Negative*
%FSLAX46Y46*%
G04 Gerber Fmt 4.6, Leading zero omitted, Abs format (unit mm)*
G04 Created by KiCad (PCBNEW (5.1.0-0)) date 2020-02-24 20:35:34*
%MOMM*%
%LPD*%
G04 APERTURE LIST*
%ADD10C,0.100000*%
G04 APERTURE END LIST*
D10*
G36*
X154118162Y-145203878D02*
G01*
X154184347Y-145210397D01*
X154354186Y-145261917D01*
X154510711Y-145345582D01*
X154546449Y-145374912D01*
X154647906Y-145458174D01*
X154731168Y-145559631D01*
X154760498Y-145595369D01*
X154844163Y-145751894D01*
X154895683Y-145921733D01*
X154913079Y-146098360D01*
X154895683Y-146274987D01*
X154844163Y-146444826D01*
X154760498Y-146601351D01*
X154731168Y-146637089D01*
X154647906Y-146738546D01*
X154546449Y-146821808D01*
X154510711Y-146851138D01*
X154354186Y-146934803D01*
X154184347Y-146986323D01*
X154118162Y-146992842D01*
X154051980Y-146999360D01*
X152663460Y-146999360D01*
X152597278Y-146992842D01*
X152531093Y-146986323D01*
X152361254Y-146934803D01*
X152204729Y-146851138D01*
X152168991Y-146821808D01*
X152067534Y-146738546D01*
X151984272Y-146637089D01*
X151954942Y-146601351D01*
X151871277Y-146444826D01*
X151819757Y-146274987D01*
X151802361Y-146098360D01*
X151819757Y-145921733D01*
X151871277Y-145751894D01*
X151954942Y-145595369D01*
X151984272Y-145559631D01*
X152067534Y-145458174D01*
X152168991Y-145374912D01*
X152204729Y-145345582D01*
X152361254Y-145261917D01*
X152531093Y-145210397D01*
X152597278Y-145203878D01*
X152663460Y-145197360D01*
X154051980Y-145197360D01*
X154118162Y-145203878D01*
X154118162Y-145203878D01*
G37*
G36*
X137608162Y-145203878D02*
G01*
X137674347Y-145210397D01*
X137844186Y-145261917D01*
X138000711Y-145345582D01*
X138036449Y-145374912D01*
X138137906Y-145458174D01*
X138221168Y-145559631D01*
X138250498Y-145595369D01*
X138334163Y-145751894D01*
X138385683Y-145921733D01*
X138403079Y-146098360D01*
X138385683Y-146274987D01*
X138334163Y-146444826D01*
X138250498Y-146601351D01*
X138221168Y-146637089D01*
X138137906Y-146738546D01*
X138036449Y-146821808D01*
X138000711Y-146851138D01*
X137844186Y-146934803D01*
X137674347Y-146986323D01*
X137608162Y-146992842D01*
X137541980Y-146999360D01*
X136153460Y-146999360D01*
X136087278Y-146992842D01*
X136021093Y-146986323D01*
X135851254Y-146934803D01*
X135694729Y-146851138D01*
X135658991Y-146821808D01*
X135557534Y-146738546D01*
X135474272Y-146637089D01*
X135444942Y-146601351D01*
X135361277Y-146444826D01*
X135309757Y-146274987D01*
X135292361Y-146098360D01*
X135309757Y-145921733D01*
X135361277Y-145751894D01*
X135444942Y-145595369D01*
X135474272Y-145559631D01*
X135557534Y-145458174D01*
X135658991Y-145374912D01*
X135694729Y-145345582D01*
X135851254Y-145261917D01*
X136021093Y-145210397D01*
X136087278Y-145203878D01*
X136153460Y-145197360D01*
X137541980Y-145197360D01*
X137608162Y-145203878D01*
X137608162Y-145203878D01*
G37*
G36*
X154118163Y-142663879D02*
G01*
X154184347Y-142670397D01*
X154354186Y-142721917D01*
X154510711Y-142805582D01*
X154546449Y-142834912D01*
X154647906Y-142918174D01*
X154731168Y-143019631D01*
X154760498Y-143055369D01*
X154844163Y-143211894D01*
X154895683Y-143381733D01*
X154913079Y-143558360D01*
X154895683Y-143734987D01*
X154844163Y-143904826D01*
X154760498Y-144061351D01*
X154731168Y-144097089D01*
X154647906Y-144198546D01*
X154546449Y-144281808D01*
X154510711Y-144311138D01*
X154354186Y-144394803D01*
X154184347Y-144446323D01*
X154118162Y-144452842D01*
X154051980Y-144459360D01*
X152663460Y-144459360D01*
X152597278Y-144452842D01*
X152531093Y-144446323D01*
X152361254Y-144394803D01*
X152204729Y-144311138D01*
X152168991Y-144281808D01*
X152067534Y-144198546D01*
X151984272Y-144097089D01*
X151954942Y-144061351D01*
X151871277Y-143904826D01*
X151819757Y-143734987D01*
X151802361Y-143558360D01*
X151819757Y-143381733D01*
X151871277Y-143211894D01*
X151954942Y-143055369D01*
X151984272Y-143019631D01*
X152067534Y-142918174D01*
X152168991Y-142834912D01*
X152204729Y-142805582D01*
X152361254Y-142721917D01*
X152531093Y-142670397D01*
X152597277Y-142663879D01*
X152663460Y-142657360D01*
X154051980Y-142657360D01*
X154118163Y-142663879D01*
X154118163Y-142663879D01*
G37*
G36*
X137608163Y-142663879D02*
G01*
X137674347Y-142670397D01*
X137844186Y-142721917D01*
X138000711Y-142805582D01*
X138036449Y-142834912D01*
X138137906Y-142918174D01*
X138221168Y-143019631D01*
X138250498Y-143055369D01*
X138334163Y-143211894D01*
X138385683Y-143381733D01*
X138403079Y-143558360D01*
X138385683Y-143734987D01*
X138334163Y-143904826D01*
X138250498Y-144061351D01*
X138221168Y-144097089D01*
X138137906Y-144198546D01*
X138036449Y-144281808D01*
X138000711Y-144311138D01*
X137844186Y-144394803D01*
X137674347Y-144446323D01*
X137608162Y-144452842D01*
X137541980Y-144459360D01*
X136153460Y-144459360D01*
X136087278Y-144452842D01*
X136021093Y-144446323D01*
X135851254Y-144394803D01*
X135694729Y-144311138D01*
X135658991Y-144281808D01*
X135557534Y-144198546D01*
X135474272Y-144097089D01*
X135444942Y-144061351D01*
X135361277Y-143904826D01*
X135309757Y-143734987D01*
X135292361Y-143558360D01*
X135309757Y-143381733D01*
X135361277Y-143211894D01*
X135444942Y-143055369D01*
X135474272Y-143019631D01*
X135557534Y-142918174D01*
X135658991Y-142834912D01*
X135694729Y-142805582D01*
X135851254Y-142721917D01*
X136021093Y-142670397D01*
X136087277Y-142663879D01*
X136153460Y-142657360D01*
X137541980Y-142657360D01*
X137608163Y-142663879D01*
X137608163Y-142663879D01*
G37*
G36*
X154118162Y-140123878D02*
G01*
X154184347Y-140130397D01*
X154354186Y-140181917D01*
X154510711Y-140265582D01*
X154546449Y-140294912D01*
X154647906Y-140378174D01*
X154731168Y-140479631D01*
X154760498Y-140515369D01*
X154844163Y-140671894D01*
X154895683Y-140841733D01*
X154913079Y-141018360D01*
X154895683Y-141194987D01*
X154844163Y-141364826D01*
X154760498Y-141521351D01*
X154731168Y-141557089D01*
X154647906Y-141658546D01*
X154546449Y-141741808D01*
X154510711Y-141771138D01*
X154354186Y-141854803D01*
X154184347Y-141906323D01*
X154118163Y-141912841D01*
X154051980Y-141919360D01*
X152663460Y-141919360D01*
X152597277Y-141912841D01*
X152531093Y-141906323D01*
X152361254Y-141854803D01*
X152204729Y-141771138D01*
X152168991Y-141741808D01*
X152067534Y-141658546D01*
X151984272Y-141557089D01*
X151954942Y-141521351D01*
X151871277Y-141364826D01*
X151819757Y-141194987D01*
X151802361Y-141018360D01*
X151819757Y-140841733D01*
X151871277Y-140671894D01*
X151954942Y-140515369D01*
X151984272Y-140479631D01*
X152067534Y-140378174D01*
X152168991Y-140294912D01*
X152204729Y-140265582D01*
X152361254Y-140181917D01*
X152531093Y-140130397D01*
X152597278Y-140123878D01*
X152663460Y-140117360D01*
X154051980Y-140117360D01*
X154118162Y-140123878D01*
X154118162Y-140123878D01*
G37*
G36*
X137608162Y-140123878D02*
G01*
X137674347Y-140130397D01*
X137844186Y-140181917D01*
X138000711Y-140265582D01*
X138036449Y-140294912D01*
X138137906Y-140378174D01*
X138221168Y-140479631D01*
X138250498Y-140515369D01*
X138334163Y-140671894D01*
X138385683Y-140841733D01*
X138403079Y-141018360D01*
X138385683Y-141194987D01*
X138334163Y-141364826D01*
X138250498Y-141521351D01*
X138221168Y-141557089D01*
X138137906Y-141658546D01*
X138036449Y-141741808D01*
X138000711Y-141771138D01*
X137844186Y-141854803D01*
X137674347Y-141906323D01*
X137608163Y-141912841D01*
X137541980Y-141919360D01*
X136153460Y-141919360D01*
X136087277Y-141912841D01*
X136021093Y-141906323D01*
X135851254Y-141854803D01*
X135694729Y-141771138D01*
X135658991Y-141741808D01*
X135557534Y-141658546D01*
X135474272Y-141557089D01*
X135444942Y-141521351D01*
X135361277Y-141364826D01*
X135309757Y-141194987D01*
X135292361Y-141018360D01*
X135309757Y-140841733D01*
X135361277Y-140671894D01*
X135444942Y-140515369D01*
X135474272Y-140479631D01*
X135557534Y-140378174D01*
X135658991Y-140294912D01*
X135694729Y-140265582D01*
X135851254Y-140181917D01*
X136021093Y-140130397D01*
X136087278Y-140123878D01*
X136153460Y-140117360D01*
X137541980Y-140117360D01*
X137608162Y-140123878D01*
X137608162Y-140123878D01*
G37*
G36*
X154118162Y-137583878D02*
G01*
X154184347Y-137590397D01*
X154354186Y-137641917D01*
X154510711Y-137725582D01*
X154546449Y-137754912D01*
X154647906Y-137838174D01*
X154731168Y-137939631D01*
X154760498Y-137975369D01*
X154844163Y-138131894D01*
X154895683Y-138301733D01*
X154913079Y-138478360D01*
X154895683Y-138654987D01*
X154844163Y-138824826D01*
X154760498Y-138981351D01*
X154731168Y-139017089D01*
X154647906Y-139118546D01*
X154546449Y-139201808D01*
X154510711Y-139231138D01*
X154354186Y-139314803D01*
X154184347Y-139366323D01*
X154118162Y-139372842D01*
X154051980Y-139379360D01*
X152663460Y-139379360D01*
X152597278Y-139372842D01*
X152531093Y-139366323D01*
X152361254Y-139314803D01*
X152204729Y-139231138D01*
X152168991Y-139201808D01*
X152067534Y-139118546D01*
X151984272Y-139017089D01*
X151954942Y-138981351D01*
X151871277Y-138824826D01*
X151819757Y-138654987D01*
X151802361Y-138478360D01*
X151819757Y-138301733D01*
X151871277Y-138131894D01*
X151954942Y-137975369D01*
X151984272Y-137939631D01*
X152067534Y-137838174D01*
X152168991Y-137754912D01*
X152204729Y-137725582D01*
X152361254Y-137641917D01*
X152531093Y-137590397D01*
X152597278Y-137583878D01*
X152663460Y-137577360D01*
X154051980Y-137577360D01*
X154118162Y-137583878D01*
X154118162Y-137583878D01*
G37*
G36*
X137608162Y-137583878D02*
G01*
X137674347Y-137590397D01*
X137844186Y-137641917D01*
X138000711Y-137725582D01*
X138036449Y-137754912D01*
X138137906Y-137838174D01*
X138221168Y-137939631D01*
X138250498Y-137975369D01*
X138334163Y-138131894D01*
X138385683Y-138301733D01*
X138403079Y-138478360D01*
X138385683Y-138654987D01*
X138334163Y-138824826D01*
X138250498Y-138981351D01*
X138221168Y-139017089D01*
X138137906Y-139118546D01*
X138036449Y-139201808D01*
X138000711Y-139231138D01*
X137844186Y-139314803D01*
X137674347Y-139366323D01*
X137608162Y-139372842D01*
X137541980Y-139379360D01*
X136153460Y-139379360D01*
X136087278Y-139372842D01*
X136021093Y-139366323D01*
X135851254Y-139314803D01*
X135694729Y-139231138D01*
X135658991Y-139201808D01*
X135557534Y-139118546D01*
X135474272Y-139017089D01*
X135444942Y-138981351D01*
X135361277Y-138824826D01*
X135309757Y-138654987D01*
X135292361Y-138478360D01*
X135309757Y-138301733D01*
X135361277Y-138131894D01*
X135444942Y-137975369D01*
X135474272Y-137939631D01*
X135557534Y-137838174D01*
X135658991Y-137754912D01*
X135694729Y-137725582D01*
X135851254Y-137641917D01*
X136021093Y-137590397D01*
X136087278Y-137583878D01*
X136153460Y-137577360D01*
X137541980Y-137577360D01*
X137608162Y-137583878D01*
X137608162Y-137583878D01*
G37*
G36*
X154118163Y-135043879D02*
G01*
X154184347Y-135050397D01*
X154354186Y-135101917D01*
X154510711Y-135185582D01*
X154546449Y-135214912D01*
X154647906Y-135298174D01*
X154731168Y-135399631D01*
X154760498Y-135435369D01*
X154844163Y-135591894D01*
X154895683Y-135761733D01*
X154913079Y-135938360D01*
X154895683Y-136114987D01*
X154844163Y-136284826D01*
X154760498Y-136441351D01*
X154731168Y-136477089D01*
X154647906Y-136578546D01*
X154546449Y-136661808D01*
X154510711Y-136691138D01*
X154354186Y-136774803D01*
X154184347Y-136826323D01*
X154118162Y-136832842D01*
X154051980Y-136839360D01*
X152663460Y-136839360D01*
X152597278Y-136832842D01*
X152531093Y-136826323D01*
X152361254Y-136774803D01*
X152204729Y-136691138D01*
X152168991Y-136661808D01*
X152067534Y-136578546D01*
X151984272Y-136477089D01*
X151954942Y-136441351D01*
X151871277Y-136284826D01*
X151819757Y-136114987D01*
X151802361Y-135938360D01*
X151819757Y-135761733D01*
X151871277Y-135591894D01*
X151954942Y-135435369D01*
X151984272Y-135399631D01*
X152067534Y-135298174D01*
X152168991Y-135214912D01*
X152204729Y-135185582D01*
X152361254Y-135101917D01*
X152531093Y-135050397D01*
X152597277Y-135043879D01*
X152663460Y-135037360D01*
X154051980Y-135037360D01*
X154118163Y-135043879D01*
X154118163Y-135043879D01*
G37*
G36*
X137608163Y-135043879D02*
G01*
X137674347Y-135050397D01*
X137844186Y-135101917D01*
X138000711Y-135185582D01*
X138036449Y-135214912D01*
X138137906Y-135298174D01*
X138221168Y-135399631D01*
X138250498Y-135435369D01*
X138334163Y-135591894D01*
X138385683Y-135761733D01*
X138403079Y-135938360D01*
X138385683Y-136114987D01*
X138334163Y-136284826D01*
X138250498Y-136441351D01*
X138221168Y-136477089D01*
X138137906Y-136578546D01*
X138036449Y-136661808D01*
X138000711Y-136691138D01*
X137844186Y-136774803D01*
X137674347Y-136826323D01*
X137608162Y-136832842D01*
X137541980Y-136839360D01*
X136153460Y-136839360D01*
X136087278Y-136832842D01*
X136021093Y-136826323D01*
X135851254Y-136774803D01*
X135694729Y-136691138D01*
X135658991Y-136661808D01*
X135557534Y-136578546D01*
X135474272Y-136477089D01*
X135444942Y-136441351D01*
X135361277Y-136284826D01*
X135309757Y-136114987D01*
X135292361Y-135938360D01*
X135309757Y-135761733D01*
X135361277Y-135591894D01*
X135444942Y-135435369D01*
X135474272Y-135399631D01*
X135557534Y-135298174D01*
X135658991Y-135214912D01*
X135694729Y-135185582D01*
X135851254Y-135101917D01*
X136021093Y-135050397D01*
X136087277Y-135043879D01*
X136153460Y-135037360D01*
X137541980Y-135037360D01*
X137608163Y-135043879D01*
X137608163Y-135043879D01*
G37*
G36*
X154118163Y-132503879D02*
G01*
X154184347Y-132510397D01*
X154354186Y-132561917D01*
X154510711Y-132645582D01*
X154546449Y-132674912D01*
X154647906Y-132758174D01*
X154731168Y-132859631D01*
X154760498Y-132895369D01*
X154844163Y-133051894D01*
X154895683Y-133221733D01*
X154913079Y-133398360D01*
X154895683Y-133574987D01*
X154844163Y-133744826D01*
X154760498Y-133901351D01*
X154731168Y-133937089D01*
X154647906Y-134038546D01*
X154546449Y-134121808D01*
X154510711Y-134151138D01*
X154354186Y-134234803D01*
X154184347Y-134286323D01*
X154118163Y-134292841D01*
X154051980Y-134299360D01*
X152663460Y-134299360D01*
X152597277Y-134292841D01*
X152531093Y-134286323D01*
X152361254Y-134234803D01*
X152204729Y-134151138D01*
X152168991Y-134121808D01*
X152067534Y-134038546D01*
X151984272Y-133937089D01*
X151954942Y-133901351D01*
X151871277Y-133744826D01*
X151819757Y-133574987D01*
X151802361Y-133398360D01*
X151819757Y-133221733D01*
X151871277Y-133051894D01*
X151954942Y-132895369D01*
X151984272Y-132859631D01*
X152067534Y-132758174D01*
X152168991Y-132674912D01*
X152204729Y-132645582D01*
X152361254Y-132561917D01*
X152531093Y-132510397D01*
X152597277Y-132503879D01*
X152663460Y-132497360D01*
X154051980Y-132497360D01*
X154118163Y-132503879D01*
X154118163Y-132503879D01*
G37*
G36*
X137608163Y-132503879D02*
G01*
X137674347Y-132510397D01*
X137844186Y-132561917D01*
X138000711Y-132645582D01*
X138036449Y-132674912D01*
X138137906Y-132758174D01*
X138221168Y-132859631D01*
X138250498Y-132895369D01*
X138334163Y-133051894D01*
X138385683Y-133221733D01*
X138403079Y-133398360D01*
X138385683Y-133574987D01*
X138334163Y-133744826D01*
X138250498Y-133901351D01*
X138221168Y-133937089D01*
X138137906Y-134038546D01*
X138036449Y-134121808D01*
X138000711Y-134151138D01*
X137844186Y-134234803D01*
X137674347Y-134286323D01*
X137608163Y-134292841D01*
X137541980Y-134299360D01*
X136153460Y-134299360D01*
X136087277Y-134292841D01*
X136021093Y-134286323D01*
X135851254Y-134234803D01*
X135694729Y-134151138D01*
X135658991Y-134121808D01*
X135557534Y-134038546D01*
X135474272Y-133937089D01*
X135444942Y-133901351D01*
X135361277Y-133744826D01*
X135309757Y-133574987D01*
X135292361Y-133398360D01*
X135309757Y-133221733D01*
X135361277Y-133051894D01*
X135444942Y-132895369D01*
X135474272Y-132859631D01*
X135557534Y-132758174D01*
X135658991Y-132674912D01*
X135694729Y-132645582D01*
X135851254Y-132561917D01*
X136021093Y-132510397D01*
X136087277Y-132503879D01*
X136153460Y-132497360D01*
X137541980Y-132497360D01*
X137608163Y-132503879D01*
X137608163Y-132503879D01*
G37*
G36*
X154118163Y-129963879D02*
G01*
X154184347Y-129970397D01*
X154354186Y-130021917D01*
X154510711Y-130105582D01*
X154546449Y-130134912D01*
X154647906Y-130218174D01*
X154731168Y-130319631D01*
X154760498Y-130355369D01*
X154844163Y-130511894D01*
X154895683Y-130681733D01*
X154913079Y-130858360D01*
X154895683Y-131034987D01*
X154844163Y-131204826D01*
X154760498Y-131361351D01*
X154731168Y-131397089D01*
X154647906Y-131498546D01*
X154546449Y-131581808D01*
X154510711Y-131611138D01*
X154354186Y-131694803D01*
X154184347Y-131746323D01*
X154118163Y-131752841D01*
X154051980Y-131759360D01*
X152663460Y-131759360D01*
X152597277Y-131752841D01*
X152531093Y-131746323D01*
X152361254Y-131694803D01*
X152204729Y-131611138D01*
X152168991Y-131581808D01*
X152067534Y-131498546D01*
X151984272Y-131397089D01*
X151954942Y-131361351D01*
X151871277Y-131204826D01*
X151819757Y-131034987D01*
X151802361Y-130858360D01*
X151819757Y-130681733D01*
X151871277Y-130511894D01*
X151954942Y-130355369D01*
X151984272Y-130319631D01*
X152067534Y-130218174D01*
X152168991Y-130134912D01*
X152204729Y-130105582D01*
X152361254Y-130021917D01*
X152531093Y-129970397D01*
X152597277Y-129963879D01*
X152663460Y-129957360D01*
X154051980Y-129957360D01*
X154118163Y-129963879D01*
X154118163Y-129963879D01*
G37*
G36*
X137608163Y-129963879D02*
G01*
X137674347Y-129970397D01*
X137844186Y-130021917D01*
X138000711Y-130105582D01*
X138036449Y-130134912D01*
X138137906Y-130218174D01*
X138221168Y-130319631D01*
X138250498Y-130355369D01*
X138334163Y-130511894D01*
X138385683Y-130681733D01*
X138403079Y-130858360D01*
X138385683Y-131034987D01*
X138334163Y-131204826D01*
X138250498Y-131361351D01*
X138221168Y-131397089D01*
X138137906Y-131498546D01*
X138036449Y-131581808D01*
X138000711Y-131611138D01*
X137844186Y-131694803D01*
X137674347Y-131746323D01*
X137608163Y-131752841D01*
X137541980Y-131759360D01*
X136153460Y-131759360D01*
X136087277Y-131752841D01*
X136021093Y-131746323D01*
X135851254Y-131694803D01*
X135694729Y-131611138D01*
X135658991Y-131581808D01*
X135557534Y-131498546D01*
X135474272Y-131397089D01*
X135444942Y-131361351D01*
X135361277Y-131204826D01*
X135309757Y-131034987D01*
X135292361Y-130858360D01*
X135309757Y-130681733D01*
X135361277Y-130511894D01*
X135444942Y-130355369D01*
X135474272Y-130319631D01*
X135557534Y-130218174D01*
X135658991Y-130134912D01*
X135694729Y-130105582D01*
X135851254Y-130021917D01*
X136021093Y-129970397D01*
X136087277Y-129963879D01*
X136153460Y-129957360D01*
X137541980Y-129957360D01*
X137608163Y-129963879D01*
X137608163Y-129963879D01*
G37*
G36*
X137608162Y-127423878D02*
G01*
X137674347Y-127430397D01*
X137844186Y-127481917D01*
X138000711Y-127565582D01*
X138036449Y-127594912D01*
X138137906Y-127678174D01*
X138221168Y-127779631D01*
X138250498Y-127815369D01*
X138334163Y-127971894D01*
X138385683Y-128141733D01*
X138403079Y-128318360D01*
X138385683Y-128494987D01*
X138334163Y-128664826D01*
X138250498Y-128821351D01*
X138221168Y-128857089D01*
X138137906Y-128958546D01*
X138036449Y-129041808D01*
X138000711Y-129071138D01*
X137844186Y-129154803D01*
X137674347Y-129206323D01*
X137608163Y-129212841D01*
X137541980Y-129219360D01*
X136153460Y-129219360D01*
X136087277Y-129212841D01*
X136021093Y-129206323D01*
X135851254Y-129154803D01*
X135694729Y-129071138D01*
X135658991Y-129041808D01*
X135557534Y-128958546D01*
X135474272Y-128857089D01*
X135444942Y-128821351D01*
X135361277Y-128664826D01*
X135309757Y-128494987D01*
X135292361Y-128318360D01*
X135309757Y-128141733D01*
X135361277Y-127971894D01*
X135444942Y-127815369D01*
X135474272Y-127779631D01*
X135557534Y-127678174D01*
X135658991Y-127594912D01*
X135694729Y-127565582D01*
X135851254Y-127481917D01*
X136021093Y-127430397D01*
X136087278Y-127423878D01*
X136153460Y-127417360D01*
X137541980Y-127417360D01*
X137608162Y-127423878D01*
X137608162Y-127423878D01*
G37*
G36*
X154118162Y-127423878D02*
G01*
X154184347Y-127430397D01*
X154354186Y-127481917D01*
X154510711Y-127565582D01*
X154546449Y-127594912D01*
X154647906Y-127678174D01*
X154731168Y-127779631D01*
X154760498Y-127815369D01*
X154844163Y-127971894D01*
X154895683Y-128141733D01*
X154913079Y-128318360D01*
X154895683Y-128494987D01*
X154844163Y-128664826D01*
X154760498Y-128821351D01*
X154731168Y-128857089D01*
X154647906Y-128958546D01*
X154546449Y-129041808D01*
X154510711Y-129071138D01*
X154354186Y-129154803D01*
X154184347Y-129206323D01*
X154118163Y-129212841D01*
X154051980Y-129219360D01*
X152663460Y-129219360D01*
X152597277Y-129212841D01*
X152531093Y-129206323D01*
X152361254Y-129154803D01*
X152204729Y-129071138D01*
X152168991Y-129041808D01*
X152067534Y-128958546D01*
X151984272Y-128857089D01*
X151954942Y-128821351D01*
X151871277Y-128664826D01*
X151819757Y-128494987D01*
X151802361Y-128318360D01*
X151819757Y-128141733D01*
X151871277Y-127971894D01*
X151954942Y-127815369D01*
X151984272Y-127779631D01*
X152067534Y-127678174D01*
X152168991Y-127594912D01*
X152204729Y-127565582D01*
X152361254Y-127481917D01*
X152531093Y-127430397D01*
X152597278Y-127423878D01*
X152663460Y-127417360D01*
X154051980Y-127417360D01*
X154118162Y-127423878D01*
X154118162Y-127423878D01*
G37*
G36*
X154118162Y-124883878D02*
G01*
X154184347Y-124890397D01*
X154354186Y-124941917D01*
X154510711Y-125025582D01*
X154546449Y-125054912D01*
X154647906Y-125138174D01*
X154731168Y-125239631D01*
X154760498Y-125275369D01*
X154844163Y-125431894D01*
X154895683Y-125601733D01*
X154913079Y-125778360D01*
X154895683Y-125954987D01*
X154844163Y-126124826D01*
X154760498Y-126281351D01*
X154731168Y-126317089D01*
X154647906Y-126418546D01*
X154546449Y-126501808D01*
X154510711Y-126531138D01*
X154354186Y-126614803D01*
X154184347Y-126666323D01*
X154118162Y-126672842D01*
X154051980Y-126679360D01*
X152663460Y-126679360D01*
X152597278Y-126672842D01*
X152531093Y-126666323D01*
X152361254Y-126614803D01*
X152204729Y-126531138D01*
X152168991Y-126501808D01*
X152067534Y-126418546D01*
X151984272Y-126317089D01*
X151954942Y-126281351D01*
X151871277Y-126124826D01*
X151819757Y-125954987D01*
X151802361Y-125778360D01*
X151819757Y-125601733D01*
X151871277Y-125431894D01*
X151954942Y-125275369D01*
X151984272Y-125239631D01*
X152067534Y-125138174D01*
X152168991Y-125054912D01*
X152204729Y-125025582D01*
X152361254Y-124941917D01*
X152531093Y-124890397D01*
X152597278Y-124883878D01*
X152663460Y-124877360D01*
X154051980Y-124877360D01*
X154118162Y-124883878D01*
X154118162Y-124883878D01*
G37*
G36*
X137608162Y-124883878D02*
G01*
X137674347Y-124890397D01*
X137844186Y-124941917D01*
X138000711Y-125025582D01*
X138036449Y-125054912D01*
X138137906Y-125138174D01*
X138221168Y-125239631D01*
X138250498Y-125275369D01*
X138334163Y-125431894D01*
X138385683Y-125601733D01*
X138403079Y-125778360D01*
X138385683Y-125954987D01*
X138334163Y-126124826D01*
X138250498Y-126281351D01*
X138221168Y-126317089D01*
X138137906Y-126418546D01*
X138036449Y-126501808D01*
X138000711Y-126531138D01*
X137844186Y-126614803D01*
X137674347Y-126666323D01*
X137608162Y-126672842D01*
X137541980Y-126679360D01*
X136153460Y-126679360D01*
X136087278Y-126672842D01*
X136021093Y-126666323D01*
X135851254Y-126614803D01*
X135694729Y-126531138D01*
X135658991Y-126501808D01*
X135557534Y-126418546D01*
X135474272Y-126317089D01*
X135444942Y-126281351D01*
X135361277Y-126124826D01*
X135309757Y-125954987D01*
X135292361Y-125778360D01*
X135309757Y-125601733D01*
X135361277Y-125431894D01*
X135444942Y-125275369D01*
X135474272Y-125239631D01*
X135557534Y-125138174D01*
X135658991Y-125054912D01*
X135694729Y-125025582D01*
X135851254Y-124941917D01*
X136021093Y-124890397D01*
X136087278Y-124883878D01*
X136153460Y-124877360D01*
X137541980Y-124877360D01*
X137608162Y-124883878D01*
X137608162Y-124883878D01*
G37*
G36*
X154118162Y-122343878D02*
G01*
X154184347Y-122350397D01*
X154354186Y-122401917D01*
X154510711Y-122485582D01*
X154546449Y-122514912D01*
X154647906Y-122598174D01*
X154731168Y-122699631D01*
X154760498Y-122735369D01*
X154844163Y-122891894D01*
X154895683Y-123061733D01*
X154913079Y-123238360D01*
X154895683Y-123414987D01*
X154844163Y-123584826D01*
X154760498Y-123741351D01*
X154731168Y-123777089D01*
X154647906Y-123878546D01*
X154546449Y-123961808D01*
X154510711Y-123991138D01*
X154354186Y-124074803D01*
X154184347Y-124126323D01*
X154118162Y-124132842D01*
X154051980Y-124139360D01*
X152663460Y-124139360D01*
X152597278Y-124132842D01*
X152531093Y-124126323D01*
X152361254Y-124074803D01*
X152204729Y-123991138D01*
X152168991Y-123961808D01*
X152067534Y-123878546D01*
X151984272Y-123777089D01*
X151954942Y-123741351D01*
X151871277Y-123584826D01*
X151819757Y-123414987D01*
X151802361Y-123238360D01*
X151819757Y-123061733D01*
X151871277Y-122891894D01*
X151954942Y-122735369D01*
X151984272Y-122699631D01*
X152067534Y-122598174D01*
X152168991Y-122514912D01*
X152204729Y-122485582D01*
X152361254Y-122401917D01*
X152531093Y-122350397D01*
X152597278Y-122343878D01*
X152663460Y-122337360D01*
X154051980Y-122337360D01*
X154118162Y-122343878D01*
X154118162Y-122343878D01*
G37*
G36*
X137608162Y-122343878D02*
G01*
X137674347Y-122350397D01*
X137844186Y-122401917D01*
X138000711Y-122485582D01*
X138036449Y-122514912D01*
X138137906Y-122598174D01*
X138221168Y-122699631D01*
X138250498Y-122735369D01*
X138334163Y-122891894D01*
X138385683Y-123061733D01*
X138403079Y-123238360D01*
X138385683Y-123414987D01*
X138334163Y-123584826D01*
X138250498Y-123741351D01*
X138221168Y-123777089D01*
X138137906Y-123878546D01*
X138036449Y-123961808D01*
X138000711Y-123991138D01*
X137844186Y-124074803D01*
X137674347Y-124126323D01*
X137608162Y-124132842D01*
X137541980Y-124139360D01*
X136153460Y-124139360D01*
X136087278Y-124132842D01*
X136021093Y-124126323D01*
X135851254Y-124074803D01*
X135694729Y-123991138D01*
X135658991Y-123961808D01*
X135557534Y-123878546D01*
X135474272Y-123777089D01*
X135444942Y-123741351D01*
X135361277Y-123584826D01*
X135309757Y-123414987D01*
X135292361Y-123238360D01*
X135309757Y-123061733D01*
X135361277Y-122891894D01*
X135444942Y-122735369D01*
X135474272Y-122699631D01*
X135557534Y-122598174D01*
X135658991Y-122514912D01*
X135694729Y-122485582D01*
X135851254Y-122401917D01*
X136021093Y-122350397D01*
X136087278Y-122343878D01*
X136153460Y-122337360D01*
X137541980Y-122337360D01*
X137608162Y-122343878D01*
X137608162Y-122343878D01*
G37*
G36*
X154118163Y-119803879D02*
G01*
X154184347Y-119810397D01*
X154354186Y-119861917D01*
X154510711Y-119945582D01*
X154546449Y-119974912D01*
X154647906Y-120058174D01*
X154731168Y-120159631D01*
X154760498Y-120195369D01*
X154844163Y-120351894D01*
X154895683Y-120521733D01*
X154913079Y-120698360D01*
X154895683Y-120874987D01*
X154844163Y-121044826D01*
X154760498Y-121201351D01*
X154731168Y-121237089D01*
X154647906Y-121338546D01*
X154546449Y-121421808D01*
X154510711Y-121451138D01*
X154354186Y-121534803D01*
X154184347Y-121586323D01*
X154118163Y-121592841D01*
X154051980Y-121599360D01*
X152663460Y-121599360D01*
X152597277Y-121592841D01*
X152531093Y-121586323D01*
X152361254Y-121534803D01*
X152204729Y-121451138D01*
X152168991Y-121421808D01*
X152067534Y-121338546D01*
X151984272Y-121237089D01*
X151954942Y-121201351D01*
X151871277Y-121044826D01*
X151819757Y-120874987D01*
X151802361Y-120698360D01*
X151819757Y-120521733D01*
X151871277Y-120351894D01*
X151954942Y-120195369D01*
X151984272Y-120159631D01*
X152067534Y-120058174D01*
X152168991Y-119974912D01*
X152204729Y-119945582D01*
X152361254Y-119861917D01*
X152531093Y-119810397D01*
X152597277Y-119803879D01*
X152663460Y-119797360D01*
X154051980Y-119797360D01*
X154118163Y-119803879D01*
X154118163Y-119803879D01*
G37*
G36*
X137608163Y-119803879D02*
G01*
X137674347Y-119810397D01*
X137844186Y-119861917D01*
X138000711Y-119945582D01*
X138036449Y-119974912D01*
X138137906Y-120058174D01*
X138221168Y-120159631D01*
X138250498Y-120195369D01*
X138334163Y-120351894D01*
X138385683Y-120521733D01*
X138403079Y-120698360D01*
X138385683Y-120874987D01*
X138334163Y-121044826D01*
X138250498Y-121201351D01*
X138221168Y-121237089D01*
X138137906Y-121338546D01*
X138036449Y-121421808D01*
X138000711Y-121451138D01*
X137844186Y-121534803D01*
X137674347Y-121586323D01*
X137608163Y-121592841D01*
X137541980Y-121599360D01*
X136153460Y-121599360D01*
X136087277Y-121592841D01*
X136021093Y-121586323D01*
X135851254Y-121534803D01*
X135694729Y-121451138D01*
X135658991Y-121421808D01*
X135557534Y-121338546D01*
X135474272Y-121237089D01*
X135444942Y-121201351D01*
X135361277Y-121044826D01*
X135309757Y-120874987D01*
X135292361Y-120698360D01*
X135309757Y-120521733D01*
X135361277Y-120351894D01*
X135444942Y-120195369D01*
X135474272Y-120159631D01*
X135557534Y-120058174D01*
X135658991Y-119974912D01*
X135694729Y-119945582D01*
X135851254Y-119861917D01*
X136021093Y-119810397D01*
X136087277Y-119803879D01*
X136153460Y-119797360D01*
X137541980Y-119797360D01*
X137608163Y-119803879D01*
X137608163Y-119803879D01*
G37*
G36*
X154118162Y-117263878D02*
G01*
X154184347Y-117270397D01*
X154354186Y-117321917D01*
X154510711Y-117405582D01*
X154546449Y-117434912D01*
X154647906Y-117518174D01*
X154731168Y-117619631D01*
X154760498Y-117655369D01*
X154844163Y-117811894D01*
X154895683Y-117981733D01*
X154913079Y-118158360D01*
X154895683Y-118334987D01*
X154844163Y-118504826D01*
X154760498Y-118661351D01*
X154731168Y-118697089D01*
X154647906Y-118798546D01*
X154546449Y-118881808D01*
X154510711Y-118911138D01*
X154354186Y-118994803D01*
X154184347Y-119046323D01*
X154118162Y-119052842D01*
X154051980Y-119059360D01*
X152663460Y-119059360D01*
X152597278Y-119052842D01*
X152531093Y-119046323D01*
X152361254Y-118994803D01*
X152204729Y-118911138D01*
X152168991Y-118881808D01*
X152067534Y-118798546D01*
X151984272Y-118697089D01*
X151954942Y-118661351D01*
X151871277Y-118504826D01*
X151819757Y-118334987D01*
X151802361Y-118158360D01*
X151819757Y-117981733D01*
X151871277Y-117811894D01*
X151954942Y-117655369D01*
X151984272Y-117619631D01*
X152067534Y-117518174D01*
X152168991Y-117434912D01*
X152204729Y-117405582D01*
X152361254Y-117321917D01*
X152531093Y-117270397D01*
X152597278Y-117263878D01*
X152663460Y-117257360D01*
X154051980Y-117257360D01*
X154118162Y-117263878D01*
X154118162Y-117263878D01*
G37*
G36*
X137608162Y-117263878D02*
G01*
X137674347Y-117270397D01*
X137844186Y-117321917D01*
X138000711Y-117405582D01*
X138036449Y-117434912D01*
X138137906Y-117518174D01*
X138221168Y-117619631D01*
X138250498Y-117655369D01*
X138334163Y-117811894D01*
X138385683Y-117981733D01*
X138403079Y-118158360D01*
X138385683Y-118334987D01*
X138334163Y-118504826D01*
X138250498Y-118661351D01*
X138221168Y-118697089D01*
X138137906Y-118798546D01*
X138036449Y-118881808D01*
X138000711Y-118911138D01*
X137844186Y-118994803D01*
X137674347Y-119046323D01*
X137608162Y-119052842D01*
X137541980Y-119059360D01*
X136153460Y-119059360D01*
X136087278Y-119052842D01*
X136021093Y-119046323D01*
X135851254Y-118994803D01*
X135694729Y-118911138D01*
X135658991Y-118881808D01*
X135557534Y-118798546D01*
X135474272Y-118697089D01*
X135444942Y-118661351D01*
X135361277Y-118504826D01*
X135309757Y-118334987D01*
X135292361Y-118158360D01*
X135309757Y-117981733D01*
X135361277Y-117811894D01*
X135444942Y-117655369D01*
X135474272Y-117619631D01*
X135557534Y-117518174D01*
X135658991Y-117434912D01*
X135694729Y-117405582D01*
X135851254Y-117321917D01*
X136021093Y-117270397D01*
X136087278Y-117263878D01*
X136153460Y-117257360D01*
X137541980Y-117257360D01*
X137608162Y-117263878D01*
X137608162Y-117263878D01*
G37*
G36*
X154118162Y-114723878D02*
G01*
X154184347Y-114730397D01*
X154354186Y-114781917D01*
X154510711Y-114865582D01*
X154546449Y-114894912D01*
X154647906Y-114978174D01*
X154731168Y-115079631D01*
X154760498Y-115115369D01*
X154844163Y-115271894D01*
X154895683Y-115441733D01*
X154913079Y-115618360D01*
X154895683Y-115794987D01*
X154844163Y-115964826D01*
X154760498Y-116121351D01*
X154731168Y-116157089D01*
X154647906Y-116258546D01*
X154546449Y-116341808D01*
X154510711Y-116371138D01*
X154354186Y-116454803D01*
X154184347Y-116506323D01*
X154118162Y-116512842D01*
X154051980Y-116519360D01*
X152663460Y-116519360D01*
X152597278Y-116512842D01*
X152531093Y-116506323D01*
X152361254Y-116454803D01*
X152204729Y-116371138D01*
X152168991Y-116341808D01*
X152067534Y-116258546D01*
X151984272Y-116157089D01*
X151954942Y-116121351D01*
X151871277Y-115964826D01*
X151819757Y-115794987D01*
X151802361Y-115618360D01*
X151819757Y-115441733D01*
X151871277Y-115271894D01*
X151954942Y-115115369D01*
X151984272Y-115079631D01*
X152067534Y-114978174D01*
X152168991Y-114894912D01*
X152204729Y-114865582D01*
X152361254Y-114781917D01*
X152531093Y-114730397D01*
X152597278Y-114723878D01*
X152663460Y-114717360D01*
X154051980Y-114717360D01*
X154118162Y-114723878D01*
X154118162Y-114723878D01*
G37*
G36*
X137608162Y-114723878D02*
G01*
X137674347Y-114730397D01*
X137844186Y-114781917D01*
X138000711Y-114865582D01*
X138036449Y-114894912D01*
X138137906Y-114978174D01*
X138221168Y-115079631D01*
X138250498Y-115115369D01*
X138334163Y-115271894D01*
X138385683Y-115441733D01*
X138403079Y-115618360D01*
X138385683Y-115794987D01*
X138334163Y-115964826D01*
X138250498Y-116121351D01*
X138221168Y-116157089D01*
X138137906Y-116258546D01*
X138036449Y-116341808D01*
X138000711Y-116371138D01*
X137844186Y-116454803D01*
X137674347Y-116506323D01*
X137608162Y-116512842D01*
X137541980Y-116519360D01*
X136153460Y-116519360D01*
X136087278Y-116512842D01*
X136021093Y-116506323D01*
X135851254Y-116454803D01*
X135694729Y-116371138D01*
X135658991Y-116341808D01*
X135557534Y-116258546D01*
X135474272Y-116157089D01*
X135444942Y-116121351D01*
X135361277Y-115964826D01*
X135309757Y-115794987D01*
X135292361Y-115618360D01*
X135309757Y-115441733D01*
X135361277Y-115271894D01*
X135444942Y-115115369D01*
X135474272Y-115079631D01*
X135557534Y-114978174D01*
X135658991Y-114894912D01*
X135694729Y-114865582D01*
X135851254Y-114781917D01*
X136021093Y-114730397D01*
X136087278Y-114723878D01*
X136153460Y-114717360D01*
X137541980Y-114717360D01*
X137608162Y-114723878D01*
X137608162Y-114723878D01*
G37*
G36*
X137608163Y-112183879D02*
G01*
X137674347Y-112190397D01*
X137844186Y-112241917D01*
X138000711Y-112325582D01*
X138036449Y-112354912D01*
X138137906Y-112438174D01*
X138221168Y-112539631D01*
X138250498Y-112575369D01*
X138334163Y-112731894D01*
X138385683Y-112901733D01*
X138403079Y-113078360D01*
X138385683Y-113254987D01*
X138334163Y-113424826D01*
X138250498Y-113581351D01*
X138221168Y-113617089D01*
X138137906Y-113718546D01*
X138036449Y-113801808D01*
X138000711Y-113831138D01*
X137844186Y-113914803D01*
X137674347Y-113966323D01*
X137608163Y-113972841D01*
X137541980Y-113979360D01*
X136153460Y-113979360D01*
X136087277Y-113972841D01*
X136021093Y-113966323D01*
X135851254Y-113914803D01*
X135694729Y-113831138D01*
X135658991Y-113801808D01*
X135557534Y-113718546D01*
X135474272Y-113617089D01*
X135444942Y-113581351D01*
X135361277Y-113424826D01*
X135309757Y-113254987D01*
X135292361Y-113078360D01*
X135309757Y-112901733D01*
X135361277Y-112731894D01*
X135444942Y-112575369D01*
X135474272Y-112539631D01*
X135557534Y-112438174D01*
X135658991Y-112354912D01*
X135694729Y-112325582D01*
X135851254Y-112241917D01*
X136021093Y-112190397D01*
X136087277Y-112183879D01*
X136153460Y-112177360D01*
X137541980Y-112177360D01*
X137608163Y-112183879D01*
X137608163Y-112183879D01*
G37*
G36*
X154118163Y-112183879D02*
G01*
X154184347Y-112190397D01*
X154354186Y-112241917D01*
X154510711Y-112325582D01*
X154546449Y-112354912D01*
X154647906Y-112438174D01*
X154731168Y-112539631D01*
X154760498Y-112575369D01*
X154844163Y-112731894D01*
X154895683Y-112901733D01*
X154913079Y-113078360D01*
X154895683Y-113254987D01*
X154844163Y-113424826D01*
X154760498Y-113581351D01*
X154731168Y-113617089D01*
X154647906Y-113718546D01*
X154546449Y-113801808D01*
X154510711Y-113831138D01*
X154354186Y-113914803D01*
X154184347Y-113966323D01*
X154118163Y-113972841D01*
X154051980Y-113979360D01*
X152663460Y-113979360D01*
X152597277Y-113972841D01*
X152531093Y-113966323D01*
X152361254Y-113914803D01*
X152204729Y-113831138D01*
X152168991Y-113801808D01*
X152067534Y-113718546D01*
X151984272Y-113617089D01*
X151954942Y-113581351D01*
X151871277Y-113424826D01*
X151819757Y-113254987D01*
X151802361Y-113078360D01*
X151819757Y-112901733D01*
X151871277Y-112731894D01*
X151954942Y-112575369D01*
X151984272Y-112539631D01*
X152067534Y-112438174D01*
X152168991Y-112354912D01*
X152204729Y-112325582D01*
X152361254Y-112241917D01*
X152531093Y-112190397D01*
X152597277Y-112183879D01*
X152663460Y-112177360D01*
X154051980Y-112177360D01*
X154118163Y-112183879D01*
X154118163Y-112183879D01*
G37*
G36*
X154118163Y-109643879D02*
G01*
X154184347Y-109650397D01*
X154354186Y-109701917D01*
X154510711Y-109785582D01*
X154546449Y-109814912D01*
X154647906Y-109898174D01*
X154731168Y-109999631D01*
X154760498Y-110035369D01*
X154844163Y-110191894D01*
X154895683Y-110361733D01*
X154913079Y-110538360D01*
X154895683Y-110714987D01*
X154844163Y-110884826D01*
X154760498Y-111041351D01*
X154731168Y-111077089D01*
X154647906Y-111178546D01*
X154546449Y-111261808D01*
X154510711Y-111291138D01*
X154354186Y-111374803D01*
X154184347Y-111426323D01*
X154118163Y-111432841D01*
X154051980Y-111439360D01*
X152663460Y-111439360D01*
X152597277Y-111432841D01*
X152531093Y-111426323D01*
X152361254Y-111374803D01*
X152204729Y-111291138D01*
X152168991Y-111261808D01*
X152067534Y-111178546D01*
X151984272Y-111077089D01*
X151954942Y-111041351D01*
X151871277Y-110884826D01*
X151819757Y-110714987D01*
X151802361Y-110538360D01*
X151819757Y-110361733D01*
X151871277Y-110191894D01*
X151954942Y-110035369D01*
X151984272Y-109999631D01*
X152067534Y-109898174D01*
X152168991Y-109814912D01*
X152204729Y-109785582D01*
X152361254Y-109701917D01*
X152531093Y-109650397D01*
X152597277Y-109643879D01*
X152663460Y-109637360D01*
X154051980Y-109637360D01*
X154118163Y-109643879D01*
X154118163Y-109643879D01*
G37*
G36*
X137608163Y-109643879D02*
G01*
X137674347Y-109650397D01*
X137844186Y-109701917D01*
X138000711Y-109785582D01*
X138036449Y-109814912D01*
X138137906Y-109898174D01*
X138221168Y-109999631D01*
X138250498Y-110035369D01*
X138334163Y-110191894D01*
X138385683Y-110361733D01*
X138403079Y-110538360D01*
X138385683Y-110714987D01*
X138334163Y-110884826D01*
X138250498Y-111041351D01*
X138221168Y-111077089D01*
X138137906Y-111178546D01*
X138036449Y-111261808D01*
X138000711Y-111291138D01*
X137844186Y-111374803D01*
X137674347Y-111426323D01*
X137608163Y-111432841D01*
X137541980Y-111439360D01*
X136153460Y-111439360D01*
X136087277Y-111432841D01*
X136021093Y-111426323D01*
X135851254Y-111374803D01*
X135694729Y-111291138D01*
X135658991Y-111261808D01*
X135557534Y-111178546D01*
X135474272Y-111077089D01*
X135444942Y-111041351D01*
X135361277Y-110884826D01*
X135309757Y-110714987D01*
X135292361Y-110538360D01*
X135309757Y-110361733D01*
X135361277Y-110191894D01*
X135444942Y-110035369D01*
X135474272Y-109999631D01*
X135557534Y-109898174D01*
X135658991Y-109814912D01*
X135694729Y-109785582D01*
X135851254Y-109701917D01*
X136021093Y-109650397D01*
X136087277Y-109643879D01*
X136153460Y-109637360D01*
X137541980Y-109637360D01*
X137608163Y-109643879D01*
X137608163Y-109643879D01*
G37*
G36*
X145145255Y-107945016D02*
G01*
X145251610Y-107966171D01*
X145451980Y-108049167D01*
X145632304Y-108169655D01*
X145785665Y-108323016D01*
X145906153Y-108503340D01*
X145989149Y-108703711D01*
X146031460Y-108916420D01*
X146031460Y-109133300D01*
X145989149Y-109346009D01*
X145906153Y-109546380D01*
X145785665Y-109726704D01*
X145632304Y-109880065D01*
X145451980Y-110000553D01*
X145251610Y-110083549D01*
X145145254Y-110104705D01*
X145038900Y-110125860D01*
X144822020Y-110125860D01*
X144715666Y-110104705D01*
X144609310Y-110083549D01*
X144408940Y-110000553D01*
X144228616Y-109880065D01*
X144075255Y-109726704D01*
X143954767Y-109546380D01*
X143871771Y-109346009D01*
X143829460Y-109133300D01*
X143829460Y-108916420D01*
X143871771Y-108703711D01*
X143954767Y-108503340D01*
X144075255Y-108323016D01*
X144228616Y-108169655D01*
X144408940Y-108049167D01*
X144609310Y-107966171D01*
X144715665Y-107945016D01*
X144822020Y-107923860D01*
X145038900Y-107923860D01*
X145145255Y-107945016D01*
X145145255Y-107945016D01*
G37*
G36*
X140678688Y-108206563D02*
G01*
X140833560Y-108270713D01*
X140972941Y-108363845D01*
X141091475Y-108482379D01*
X141184607Y-108621760D01*
X141248757Y-108776632D01*
X141281460Y-108941044D01*
X141281460Y-109108676D01*
X141248757Y-109273088D01*
X141184607Y-109427960D01*
X141091475Y-109567341D01*
X140972941Y-109685875D01*
X140833560Y-109779007D01*
X140678688Y-109843157D01*
X140514276Y-109875860D01*
X140346644Y-109875860D01*
X140182232Y-109843157D01*
X140027360Y-109779007D01*
X139887979Y-109685875D01*
X139769445Y-109567341D01*
X139676313Y-109427960D01*
X139612163Y-109273088D01*
X139579460Y-109108676D01*
X139579460Y-108941044D01*
X139612163Y-108776632D01*
X139676313Y-108621760D01*
X139769445Y-108482379D01*
X139887979Y-108363845D01*
X140027360Y-108270713D01*
X140182232Y-108206563D01*
X140346644Y-108173860D01*
X140514276Y-108173860D01*
X140678688Y-108206563D01*
X140678688Y-108206563D01*
G37*
G36*
X140463000Y-66703000D02*
G01*
X138837000Y-66703000D01*
X138837000Y-65077000D01*
X140463000Y-65077000D01*
X140463000Y-66703000D01*
X140463000Y-66703000D01*
G37*
G36*
X150497142Y-65078242D02*
G01*
X150645101Y-65139529D01*
X150778255Y-65228499D01*
X150891501Y-65341745D01*
X150980471Y-65474899D01*
X151041758Y-65622858D01*
X151073000Y-65779925D01*
X151073000Y-65940075D01*
X151041758Y-66097142D01*
X150980471Y-66245101D01*
X150891501Y-66378255D01*
X150778255Y-66491501D01*
X150645101Y-66580471D01*
X150497142Y-66641758D01*
X150340075Y-66673000D01*
X150179925Y-66673000D01*
X150022858Y-66641758D01*
X149874899Y-66580471D01*
X149741745Y-66491501D01*
X149628499Y-66378255D01*
X149539529Y-66245101D01*
X149478242Y-66097142D01*
X149447000Y-65940075D01*
X149447000Y-65779925D01*
X149478242Y-65622858D01*
X149539529Y-65474899D01*
X149628499Y-65341745D01*
X149741745Y-65228499D01*
X149874899Y-65139529D01*
X150022858Y-65078242D01*
X150179925Y-65047000D01*
X150340075Y-65047000D01*
X150497142Y-65078242D01*
X150497142Y-65078242D01*
G37*
G36*
X139887142Y-63108242D02*
G01*
X140035101Y-63169529D01*
X140168255Y-63258499D01*
X140281501Y-63371745D01*
X140370471Y-63504899D01*
X140431758Y-63652858D01*
X140463000Y-63809925D01*
X140463000Y-63970075D01*
X140431758Y-64127142D01*
X140370471Y-64275101D01*
X140281501Y-64408255D01*
X140168255Y-64521501D01*
X140035101Y-64610471D01*
X139887142Y-64671758D01*
X139730075Y-64703000D01*
X139569925Y-64703000D01*
X139412858Y-64671758D01*
X139264899Y-64610471D01*
X139131745Y-64521501D01*
X139018499Y-64408255D01*
X138929529Y-64275101D01*
X138868242Y-64127142D01*
X138837000Y-63970075D01*
X138837000Y-63809925D01*
X138868242Y-63652858D01*
X138929529Y-63504899D01*
X139018499Y-63371745D01*
X139131745Y-63258499D01*
X139264899Y-63169529D01*
X139412858Y-63108242D01*
X139569925Y-63077000D01*
X139730075Y-63077000D01*
X139887142Y-63108242D01*
X139887142Y-63108242D01*
G37*
G36*
X150497142Y-63078242D02*
G01*
X150645101Y-63139529D01*
X150778255Y-63228499D01*
X150891501Y-63341745D01*
X150980471Y-63474899D01*
X151041758Y-63622858D01*
X151073000Y-63779925D01*
X151073000Y-63940075D01*
X151041758Y-64097142D01*
X150980471Y-64245101D01*
X150891501Y-64378255D01*
X150778255Y-64491501D01*
X150645101Y-64580471D01*
X150497142Y-64641758D01*
X150340075Y-64673000D01*
X150179925Y-64673000D01*
X150022858Y-64641758D01*
X149874899Y-64580471D01*
X149741745Y-64491501D01*
X149628499Y-64378255D01*
X149539529Y-64245101D01*
X149478242Y-64097142D01*
X149447000Y-63940075D01*
X149447000Y-63779925D01*
X149478242Y-63622858D01*
X149539529Y-63474899D01*
X149628499Y-63341745D01*
X149741745Y-63228499D01*
X149874899Y-63139529D01*
X150022858Y-63078242D01*
X150179925Y-63047000D01*
X150340075Y-63047000D01*
X150497142Y-63078242D01*
X150497142Y-63078242D01*
G37*
G36*
X139887142Y-61108242D02*
G01*
X140035101Y-61169529D01*
X140168255Y-61258499D01*
X140281501Y-61371745D01*
X140370471Y-61504899D01*
X140431758Y-61652858D01*
X140463000Y-61809925D01*
X140463000Y-61970075D01*
X140431758Y-62127142D01*
X140370471Y-62275101D01*
X140281501Y-62408255D01*
X140168255Y-62521501D01*
X140035101Y-62610471D01*
X139887142Y-62671758D01*
X139730075Y-62703000D01*
X139569925Y-62703000D01*
X139412858Y-62671758D01*
X139264899Y-62610471D01*
X139131745Y-62521501D01*
X139018499Y-62408255D01*
X138929529Y-62275101D01*
X138868242Y-62127142D01*
X138837000Y-61970075D01*
X138837000Y-61809925D01*
X138868242Y-61652858D01*
X138929529Y-61504899D01*
X139018499Y-61371745D01*
X139131745Y-61258499D01*
X139264899Y-61169529D01*
X139412858Y-61108242D01*
X139569925Y-61077000D01*
X139730075Y-61077000D01*
X139887142Y-61108242D01*
X139887142Y-61108242D01*
G37*
G36*
X150497142Y-61078242D02*
G01*
X150645101Y-61139529D01*
X150778255Y-61228499D01*
X150891501Y-61341745D01*
X150980471Y-61474899D01*
X151041758Y-61622858D01*
X151073000Y-61779925D01*
X151073000Y-61940075D01*
X151041758Y-62097142D01*
X150980471Y-62245101D01*
X150891501Y-62378255D01*
X150778255Y-62491501D01*
X150645101Y-62580471D01*
X150497142Y-62641758D01*
X150340075Y-62673000D01*
X150179925Y-62673000D01*
X150022858Y-62641758D01*
X149874899Y-62580471D01*
X149741745Y-62491501D01*
X149628499Y-62378255D01*
X149539529Y-62245101D01*
X149478242Y-62097142D01*
X149447000Y-61940075D01*
X149447000Y-61779925D01*
X149478242Y-61622858D01*
X149539529Y-61474899D01*
X149628499Y-61341745D01*
X149741745Y-61228499D01*
X149874899Y-61139529D01*
X150022858Y-61078242D01*
X150179925Y-61047000D01*
X150340075Y-61047000D01*
X150497142Y-61078242D01*
X150497142Y-61078242D01*
G37*
G36*
X139887142Y-59108242D02*
G01*
X140035101Y-59169529D01*
X140168255Y-59258499D01*
X140281501Y-59371745D01*
X140370471Y-59504899D01*
X140431758Y-59652858D01*
X140463000Y-59809925D01*
X140463000Y-59970075D01*
X140431758Y-60127142D01*
X140370471Y-60275101D01*
X140281501Y-60408255D01*
X140168255Y-60521501D01*
X140035101Y-60610471D01*
X139887142Y-60671758D01*
X139730075Y-60703000D01*
X139569925Y-60703000D01*
X139412858Y-60671758D01*
X139264899Y-60610471D01*
X139131745Y-60521501D01*
X139018499Y-60408255D01*
X138929529Y-60275101D01*
X138868242Y-60127142D01*
X138837000Y-59970075D01*
X138837000Y-59809925D01*
X138868242Y-59652858D01*
X138929529Y-59504899D01*
X139018499Y-59371745D01*
X139131745Y-59258499D01*
X139264899Y-59169529D01*
X139412858Y-59108242D01*
X139569925Y-59077000D01*
X139730075Y-59077000D01*
X139887142Y-59108242D01*
X139887142Y-59108242D01*
G37*
G36*
X151073000Y-60673000D02*
G01*
X149447000Y-60673000D01*
X149447000Y-59047000D01*
X151073000Y-59047000D01*
X151073000Y-60673000D01*
X151073000Y-60673000D01*
G37*
G36*
X141827960Y-55208840D02*
G01*
X140025960Y-55208840D01*
X140025960Y-53406840D01*
X141827960Y-53406840D01*
X141827960Y-55208840D01*
X141827960Y-55208840D01*
G37*
G36*
X143577403Y-53413359D02*
G01*
X143643587Y-53419877D01*
X143813426Y-53471397D01*
X143969951Y-53555062D01*
X144005689Y-53584392D01*
X144107146Y-53667654D01*
X144190408Y-53769111D01*
X144219738Y-53804849D01*
X144303403Y-53961374D01*
X144354923Y-54131213D01*
X144372319Y-54307840D01*
X144354923Y-54484467D01*
X144303403Y-54654306D01*
X144219738Y-54810831D01*
X144190408Y-54846569D01*
X144107146Y-54948026D01*
X144005689Y-55031288D01*
X143969951Y-55060618D01*
X143813426Y-55144283D01*
X143643587Y-55195803D01*
X143577403Y-55202321D01*
X143511220Y-55208840D01*
X143422700Y-55208840D01*
X143356517Y-55202321D01*
X143290333Y-55195803D01*
X143120494Y-55144283D01*
X142963969Y-55060618D01*
X142928231Y-55031288D01*
X142826774Y-54948026D01*
X142743512Y-54846569D01*
X142714182Y-54810831D01*
X142630517Y-54654306D01*
X142578997Y-54484467D01*
X142561601Y-54307840D01*
X142578997Y-54131213D01*
X142630517Y-53961374D01*
X142714182Y-53804849D01*
X142743512Y-53769111D01*
X142826774Y-53667654D01*
X142928231Y-53584392D01*
X142963969Y-53555062D01*
X143120494Y-53471397D01*
X143290333Y-53419877D01*
X143356517Y-53413359D01*
X143422700Y-53406840D01*
X143511220Y-53406840D01*
X143577403Y-53413359D01*
X143577403Y-53413359D01*
G37*
G36*
X146117403Y-53413359D02*
G01*
X146183587Y-53419877D01*
X146353426Y-53471397D01*
X146509951Y-53555062D01*
X146545689Y-53584392D01*
X146647146Y-53667654D01*
X146730408Y-53769111D01*
X146759738Y-53804849D01*
X146843403Y-53961374D01*
X146894923Y-54131213D01*
X146912319Y-54307840D01*
X146894923Y-54484467D01*
X146843403Y-54654306D01*
X146759738Y-54810831D01*
X146730408Y-54846569D01*
X146647146Y-54948026D01*
X146545689Y-55031288D01*
X146509951Y-55060618D01*
X146353426Y-55144283D01*
X146183587Y-55195803D01*
X146117403Y-55202321D01*
X146051220Y-55208840D01*
X145962700Y-55208840D01*
X145896517Y-55202321D01*
X145830333Y-55195803D01*
X145660494Y-55144283D01*
X145503969Y-55060618D01*
X145468231Y-55031288D01*
X145366774Y-54948026D01*
X145283512Y-54846569D01*
X145254182Y-54810831D01*
X145170517Y-54654306D01*
X145118997Y-54484467D01*
X145101601Y-54307840D01*
X145118997Y-54131213D01*
X145170517Y-53961374D01*
X145254182Y-53804849D01*
X145283512Y-53769111D01*
X145366774Y-53667654D01*
X145468231Y-53584392D01*
X145503969Y-53555062D01*
X145660494Y-53471397D01*
X145830333Y-53419877D01*
X145896517Y-53413359D01*
X145962700Y-53406840D01*
X146051220Y-53406840D01*
X146117403Y-53413359D01*
X146117403Y-53413359D01*
G37*
G36*
X148657403Y-53413359D02*
G01*
X148723587Y-53419877D01*
X148893426Y-53471397D01*
X149049951Y-53555062D01*
X149085689Y-53584392D01*
X149187146Y-53667654D01*
X149270408Y-53769111D01*
X149299738Y-53804849D01*
X149383403Y-53961374D01*
X149434923Y-54131213D01*
X149452319Y-54307840D01*
X149434923Y-54484467D01*
X149383403Y-54654306D01*
X149299738Y-54810831D01*
X149270408Y-54846569D01*
X149187146Y-54948026D01*
X149085689Y-55031288D01*
X149049951Y-55060618D01*
X148893426Y-55144283D01*
X148723587Y-55195803D01*
X148657403Y-55202321D01*
X148591220Y-55208840D01*
X148502700Y-55208840D01*
X148436517Y-55202321D01*
X148370333Y-55195803D01*
X148200494Y-55144283D01*
X148043969Y-55060618D01*
X148008231Y-55031288D01*
X147906774Y-54948026D01*
X147823512Y-54846569D01*
X147794182Y-54810831D01*
X147710517Y-54654306D01*
X147658997Y-54484467D01*
X147641601Y-54307840D01*
X147658997Y-54131213D01*
X147710517Y-53961374D01*
X147794182Y-53804849D01*
X147823512Y-53769111D01*
X147906774Y-53667654D01*
X148008231Y-53584392D01*
X148043969Y-53555062D01*
X148200494Y-53471397D01*
X148370333Y-53419877D01*
X148436517Y-53413359D01*
X148502700Y-53406840D01*
X148591220Y-53406840D01*
X148657403Y-53413359D01*
X148657403Y-53413359D01*
G37*
M02*
