G04 #@! TF.GenerationSoftware,KiCad,Pcbnew,(5.1.0-0)*
G04 #@! TF.CreationDate,2020-02-24T20:35:34+01:00*
G04 #@! TF.ProjectId,pino_brd_v01,70696e6f-5f62-4726-945f-7630312e6b69,rev?*
G04 #@! TF.SameCoordinates,Original*
G04 #@! TF.FileFunction,Copper,L1,Top*
G04 #@! TF.FilePolarity,Positive*
%FSLAX46Y46*%
G04 Gerber Fmt 4.6, Leading zero omitted, Abs format (unit mm)*
G04 Created by KiCad (PCBNEW (5.1.0-0)) date 2020-02-24 20:35:34*
%MOMM*%
%LPD*%
G04 APERTURE LIST*
%ADD10R,2.000000X1.600000*%
%ADD11R,3.500000X3.000000*%
%ADD12R,2.500000X2.000000*%
%ADD13C,2.100000*%
%ADD14C,1.600000*%
%ADD15C,0.600000*%
%ADD16C,0.100000*%
%ADD17R,1.000000X0.600000*%
%ADD18R,0.600000X1.000000*%
%ADD19R,1.400000X2.700000*%
%ADD20C,0.975000*%
%ADD21C,1.524000*%
%ADD22R,1.524000X1.524000*%
%ADD23R,1.700000X1.700000*%
%ADD24O,1.700000X1.700000*%
%ADD25R,2.750000X1.000000*%
%ADD26R,0.800000X0.900000*%
%ADD27C,0.800000*%
%ADD28C,0.500000*%
%ADD29C,0.250000*%
%ADD30C,0.254000*%
G04 APERTURE END LIST*
D10*
X152255460Y-106599860D03*
X152255460Y-111599860D03*
X137505460Y-111574860D03*
X137505460Y-109074860D03*
X137505460Y-106549860D03*
D11*
X145030460Y-102424860D03*
X145030460Y-115724860D03*
D12*
X152880460Y-114024860D03*
X152880460Y-104124860D03*
X137180460Y-104124860D03*
X137180460Y-113999860D03*
D13*
X144930460Y-109024860D03*
D14*
X140430460Y-109024860D03*
D15*
X154046015Y-78035570D03*
D16*
G36*
X153904594Y-78601255D02*
G01*
X153480330Y-78176991D01*
X154187436Y-77469885D01*
X154611700Y-77894149D01*
X153904594Y-78601255D01*
X153904594Y-78601255D01*
G37*
D15*
X153126776Y-77116331D03*
D16*
G36*
X152985355Y-77682016D02*
G01*
X152561091Y-77257752D01*
X153268197Y-76550646D01*
X153692461Y-76974910D01*
X152985355Y-77682016D01*
X152985355Y-77682016D01*
G37*
D15*
X152631802Y-79449783D03*
D16*
G36*
X152490381Y-80015468D02*
G01*
X152066117Y-79591204D01*
X152773223Y-78884098D01*
X153197487Y-79308362D01*
X152490381Y-80015468D01*
X152490381Y-80015468D01*
G37*
D15*
X151712563Y-78530544D03*
D16*
G36*
X151571142Y-79096229D02*
G01*
X151146878Y-78671965D01*
X151853984Y-77964859D01*
X152278248Y-78389123D01*
X151571142Y-79096229D01*
X151571142Y-79096229D01*
G37*
D17*
X157136387Y-86847241D03*
X157136387Y-85547241D03*
X155136387Y-86847241D03*
X155136387Y-85547241D03*
D15*
X153090817Y-95263256D03*
D16*
G36*
X152525132Y-95121835D02*
G01*
X152949396Y-94697571D01*
X153656502Y-95404677D01*
X153232238Y-95828941D01*
X152525132Y-95121835D01*
X152525132Y-95121835D01*
G37*
D15*
X154010056Y-94344017D03*
D16*
G36*
X153444371Y-94202596D02*
G01*
X153868635Y-93778332D01*
X154575741Y-94485438D01*
X154151477Y-94909702D01*
X153444371Y-94202596D01*
X153444371Y-94202596D01*
G37*
D15*
X151676604Y-93849043D03*
D16*
G36*
X151110919Y-93707622D02*
G01*
X151535183Y-93283358D01*
X152242289Y-93990464D01*
X151818025Y-94414728D01*
X151110919Y-93707622D01*
X151110919Y-93707622D01*
G37*
D15*
X152595843Y-92929804D03*
D16*
G36*
X152030158Y-92788383D02*
G01*
X152454422Y-92364119D01*
X153161528Y-93071225D01*
X152737264Y-93495489D01*
X152030158Y-92788383D01*
X152030158Y-92788383D01*
G37*
D18*
X144279146Y-98353628D03*
X145579146Y-98353628D03*
X144279146Y-96353628D03*
X145579146Y-96353628D03*
D15*
X135863131Y-94308058D03*
D16*
G36*
X136004552Y-93742373D02*
G01*
X136428816Y-94166637D01*
X135721710Y-94873743D01*
X135297446Y-94449479D01*
X136004552Y-93742373D01*
X136004552Y-93742373D01*
G37*
D15*
X136782370Y-95227297D03*
D16*
G36*
X136923791Y-94661612D02*
G01*
X137348055Y-95085876D01*
X136640949Y-95792982D01*
X136216685Y-95368718D01*
X136923791Y-94661612D01*
X136923791Y-94661612D01*
G37*
D15*
X137277344Y-92893845D03*
D16*
G36*
X137418765Y-92328160D02*
G01*
X137843029Y-92752424D01*
X137135923Y-93459530D01*
X136711659Y-93035266D01*
X137418765Y-92328160D01*
X137418765Y-92328160D01*
G37*
D15*
X138196583Y-93813084D03*
D16*
G36*
X138338004Y-93247399D02*
G01*
X138762268Y-93671663D01*
X138055162Y-94378769D01*
X137630898Y-93954505D01*
X138338004Y-93247399D01*
X138338004Y-93247399D01*
G37*
D17*
X132772759Y-85496387D03*
X132772759Y-86796387D03*
X134772759Y-85496387D03*
X134772759Y-86796387D03*
D19*
X142409680Y-137108120D03*
X144909680Y-137108120D03*
X147409680Y-137108120D03*
X147409680Y-142908120D03*
X144909680Y-142908120D03*
X142409680Y-142908120D03*
D16*
G36*
X148546159Y-76174943D02*
G01*
X148569820Y-76178453D01*
X148593024Y-76184265D01*
X148615546Y-76192323D01*
X149458586Y-76541522D01*
X149480210Y-76551750D01*
X149500727Y-76564047D01*
X149519940Y-76578297D01*
X149537664Y-76594361D01*
X149553728Y-76612085D01*
X149567978Y-76631298D01*
X149580275Y-76651815D01*
X149590503Y-76673439D01*
X149598561Y-76695961D01*
X149604373Y-76719165D01*
X149607883Y-76742826D01*
X149609057Y-76766718D01*
X149607883Y-76790610D01*
X149604373Y-76814271D01*
X149598561Y-76837475D01*
X149590503Y-76859997D01*
X149403945Y-77310388D01*
X149393717Y-77332012D01*
X149381420Y-77352529D01*
X149367170Y-77371742D01*
X149351106Y-77389466D01*
X149333382Y-77405530D01*
X149314169Y-77419780D01*
X149293652Y-77432077D01*
X149272028Y-77442305D01*
X149249506Y-77450363D01*
X149226302Y-77456175D01*
X149202641Y-77459685D01*
X149178749Y-77460859D01*
X149154857Y-77459685D01*
X149131196Y-77456175D01*
X149107992Y-77450363D01*
X149085470Y-77442305D01*
X148242430Y-77093106D01*
X148220806Y-77082878D01*
X148200289Y-77070581D01*
X148181076Y-77056331D01*
X148163352Y-77040267D01*
X148147288Y-77022543D01*
X148133038Y-77003330D01*
X148120741Y-76982813D01*
X148110513Y-76961189D01*
X148102455Y-76938667D01*
X148096643Y-76915463D01*
X148093133Y-76891802D01*
X148091959Y-76867910D01*
X148093133Y-76844018D01*
X148096643Y-76820357D01*
X148102455Y-76797153D01*
X148110513Y-76774631D01*
X148297071Y-76324240D01*
X148307299Y-76302616D01*
X148319596Y-76282099D01*
X148333846Y-76262886D01*
X148349910Y-76245162D01*
X148367634Y-76229098D01*
X148386847Y-76214848D01*
X148407364Y-76202551D01*
X148428988Y-76192323D01*
X148451510Y-76184265D01*
X148474714Y-76178453D01*
X148498375Y-76174943D01*
X148522267Y-76173769D01*
X148546159Y-76174943D01*
X148546159Y-76174943D01*
G37*
D20*
X148850508Y-76817314D03*
D16*
G36*
X149263691Y-74442669D02*
G01*
X149287352Y-74446179D01*
X149310556Y-74451991D01*
X149333078Y-74460049D01*
X150176118Y-74809248D01*
X150197742Y-74819476D01*
X150218259Y-74831773D01*
X150237472Y-74846023D01*
X150255196Y-74862087D01*
X150271260Y-74879811D01*
X150285510Y-74899024D01*
X150297807Y-74919541D01*
X150308035Y-74941165D01*
X150316093Y-74963687D01*
X150321905Y-74986891D01*
X150325415Y-75010552D01*
X150326589Y-75034444D01*
X150325415Y-75058336D01*
X150321905Y-75081997D01*
X150316093Y-75105201D01*
X150308035Y-75127723D01*
X150121477Y-75578114D01*
X150111249Y-75599738D01*
X150098952Y-75620255D01*
X150084702Y-75639468D01*
X150068638Y-75657192D01*
X150050914Y-75673256D01*
X150031701Y-75687506D01*
X150011184Y-75699803D01*
X149989560Y-75710031D01*
X149967038Y-75718089D01*
X149943834Y-75723901D01*
X149920173Y-75727411D01*
X149896281Y-75728585D01*
X149872389Y-75727411D01*
X149848728Y-75723901D01*
X149825524Y-75718089D01*
X149803002Y-75710031D01*
X148959962Y-75360832D01*
X148938338Y-75350604D01*
X148917821Y-75338307D01*
X148898608Y-75324057D01*
X148880884Y-75307993D01*
X148864820Y-75290269D01*
X148850570Y-75271056D01*
X148838273Y-75250539D01*
X148828045Y-75228915D01*
X148819987Y-75206393D01*
X148814175Y-75183189D01*
X148810665Y-75159528D01*
X148809491Y-75135636D01*
X148810665Y-75111744D01*
X148814175Y-75088083D01*
X148819987Y-75064879D01*
X148828045Y-75042357D01*
X149014603Y-74591966D01*
X149024831Y-74570342D01*
X149037128Y-74549825D01*
X149051378Y-74530612D01*
X149067442Y-74512888D01*
X149085166Y-74496824D01*
X149104379Y-74482574D01*
X149124896Y-74470277D01*
X149146520Y-74460049D01*
X149169042Y-74451991D01*
X149192246Y-74446179D01*
X149215907Y-74442669D01*
X149239799Y-74441495D01*
X149263691Y-74442669D01*
X149263691Y-74442669D01*
G37*
D20*
X149568040Y-75085040D03*
D16*
G36*
X154417728Y-81541265D02*
G01*
X154441389Y-81544775D01*
X154464593Y-81550587D01*
X154487115Y-81558645D01*
X154508739Y-81568873D01*
X154529256Y-81581170D01*
X154548469Y-81595420D01*
X154566193Y-81611484D01*
X154582257Y-81629208D01*
X154596507Y-81648421D01*
X154608804Y-81668938D01*
X154619032Y-81690562D01*
X154968231Y-82533602D01*
X154976289Y-82556124D01*
X154982101Y-82579328D01*
X154985611Y-82602989D01*
X154986785Y-82626881D01*
X154985611Y-82650773D01*
X154982101Y-82674434D01*
X154976289Y-82697638D01*
X154968231Y-82720160D01*
X154958003Y-82741784D01*
X154945706Y-82762301D01*
X154931456Y-82781514D01*
X154915392Y-82799238D01*
X154897668Y-82815302D01*
X154878455Y-82829552D01*
X154857938Y-82841849D01*
X154836314Y-82852077D01*
X154385923Y-83038635D01*
X154363401Y-83046693D01*
X154340197Y-83052505D01*
X154316536Y-83056015D01*
X154292644Y-83057189D01*
X154268752Y-83056015D01*
X154245091Y-83052505D01*
X154221887Y-83046693D01*
X154199365Y-83038635D01*
X154177741Y-83028407D01*
X154157224Y-83016110D01*
X154138011Y-83001860D01*
X154120287Y-82985796D01*
X154104223Y-82968072D01*
X154089973Y-82948859D01*
X154077676Y-82928342D01*
X154067448Y-82906718D01*
X153718249Y-82063678D01*
X153710191Y-82041156D01*
X153704379Y-82017952D01*
X153700869Y-81994291D01*
X153699695Y-81970399D01*
X153700869Y-81946507D01*
X153704379Y-81922846D01*
X153710191Y-81899642D01*
X153718249Y-81877120D01*
X153728477Y-81855496D01*
X153740774Y-81834979D01*
X153755024Y-81815766D01*
X153771088Y-81798042D01*
X153788812Y-81781978D01*
X153808025Y-81767728D01*
X153828542Y-81755431D01*
X153850166Y-81745203D01*
X154300557Y-81558645D01*
X154323079Y-81550587D01*
X154346283Y-81544775D01*
X154369944Y-81541265D01*
X154393836Y-81540091D01*
X154417728Y-81541265D01*
X154417728Y-81541265D01*
G37*
D20*
X154343240Y-82298640D03*
D16*
G36*
X156150002Y-80823733D02*
G01*
X156173663Y-80827243D01*
X156196867Y-80833055D01*
X156219389Y-80841113D01*
X156241013Y-80851341D01*
X156261530Y-80863638D01*
X156280743Y-80877888D01*
X156298467Y-80893952D01*
X156314531Y-80911676D01*
X156328781Y-80930889D01*
X156341078Y-80951406D01*
X156351306Y-80973030D01*
X156700505Y-81816070D01*
X156708563Y-81838592D01*
X156714375Y-81861796D01*
X156717885Y-81885457D01*
X156719059Y-81909349D01*
X156717885Y-81933241D01*
X156714375Y-81956902D01*
X156708563Y-81980106D01*
X156700505Y-82002628D01*
X156690277Y-82024252D01*
X156677980Y-82044769D01*
X156663730Y-82063982D01*
X156647666Y-82081706D01*
X156629942Y-82097770D01*
X156610729Y-82112020D01*
X156590212Y-82124317D01*
X156568588Y-82134545D01*
X156118197Y-82321103D01*
X156095675Y-82329161D01*
X156072471Y-82334973D01*
X156048810Y-82338483D01*
X156024918Y-82339657D01*
X156001026Y-82338483D01*
X155977365Y-82334973D01*
X155954161Y-82329161D01*
X155931639Y-82321103D01*
X155910015Y-82310875D01*
X155889498Y-82298578D01*
X155870285Y-82284328D01*
X155852561Y-82268264D01*
X155836497Y-82250540D01*
X155822247Y-82231327D01*
X155809950Y-82210810D01*
X155799722Y-82189186D01*
X155450523Y-81346146D01*
X155442465Y-81323624D01*
X155436653Y-81300420D01*
X155433143Y-81276759D01*
X155431969Y-81252867D01*
X155433143Y-81228975D01*
X155436653Y-81205314D01*
X155442465Y-81182110D01*
X155450523Y-81159588D01*
X155460751Y-81137964D01*
X155473048Y-81117447D01*
X155487298Y-81098234D01*
X155503362Y-81080510D01*
X155521086Y-81064446D01*
X155540299Y-81050196D01*
X155560816Y-81037899D01*
X155582440Y-81027671D01*
X156032831Y-80841113D01*
X156055353Y-80833055D01*
X156078557Y-80827243D01*
X156102218Y-80823733D01*
X156126110Y-80822559D01*
X156150002Y-80823733D01*
X156150002Y-80823733D01*
G37*
D20*
X156075514Y-81581108D03*
D16*
G36*
X156046273Y-90002631D02*
G01*
X156069934Y-90006141D01*
X156093138Y-90011953D01*
X156115660Y-90020011D01*
X156566051Y-90206569D01*
X156587675Y-90216797D01*
X156608192Y-90229094D01*
X156627405Y-90243344D01*
X156645129Y-90259408D01*
X156661193Y-90277132D01*
X156675443Y-90296345D01*
X156687740Y-90316862D01*
X156697968Y-90338486D01*
X156706026Y-90361008D01*
X156711838Y-90384212D01*
X156715348Y-90407873D01*
X156716522Y-90431765D01*
X156715348Y-90455657D01*
X156711838Y-90479318D01*
X156706026Y-90502522D01*
X156697968Y-90525044D01*
X156348769Y-91368084D01*
X156338541Y-91389708D01*
X156326244Y-91410225D01*
X156311994Y-91429438D01*
X156295930Y-91447162D01*
X156278206Y-91463226D01*
X156258993Y-91477476D01*
X156238476Y-91489773D01*
X156216852Y-91500001D01*
X156194330Y-91508059D01*
X156171126Y-91513871D01*
X156147465Y-91517381D01*
X156123573Y-91518555D01*
X156099681Y-91517381D01*
X156076020Y-91513871D01*
X156052816Y-91508059D01*
X156030294Y-91500001D01*
X155579903Y-91313443D01*
X155558279Y-91303215D01*
X155537762Y-91290918D01*
X155518549Y-91276668D01*
X155500825Y-91260604D01*
X155484761Y-91242880D01*
X155470511Y-91223667D01*
X155458214Y-91203150D01*
X155447986Y-91181526D01*
X155439928Y-91159004D01*
X155434116Y-91135800D01*
X155430606Y-91112139D01*
X155429432Y-91088247D01*
X155430606Y-91064355D01*
X155434116Y-91040694D01*
X155439928Y-91017490D01*
X155447986Y-90994968D01*
X155797185Y-90151928D01*
X155807413Y-90130304D01*
X155819710Y-90109787D01*
X155833960Y-90090574D01*
X155850024Y-90072850D01*
X155867748Y-90056786D01*
X155886961Y-90042536D01*
X155907478Y-90030239D01*
X155929102Y-90020011D01*
X155951624Y-90011953D01*
X155974828Y-90006141D01*
X155998489Y-90002631D01*
X156022381Y-90001457D01*
X156046273Y-90002631D01*
X156046273Y-90002631D01*
G37*
D20*
X156072977Y-90760006D03*
D16*
G36*
X154313999Y-89285099D02*
G01*
X154337660Y-89288609D01*
X154360864Y-89294421D01*
X154383386Y-89302479D01*
X154833777Y-89489037D01*
X154855401Y-89499265D01*
X154875918Y-89511562D01*
X154895131Y-89525812D01*
X154912855Y-89541876D01*
X154928919Y-89559600D01*
X154943169Y-89578813D01*
X154955466Y-89599330D01*
X154965694Y-89620954D01*
X154973752Y-89643476D01*
X154979564Y-89666680D01*
X154983074Y-89690341D01*
X154984248Y-89714233D01*
X154983074Y-89738125D01*
X154979564Y-89761786D01*
X154973752Y-89784990D01*
X154965694Y-89807512D01*
X154616495Y-90650552D01*
X154606267Y-90672176D01*
X154593970Y-90692693D01*
X154579720Y-90711906D01*
X154563656Y-90729630D01*
X154545932Y-90745694D01*
X154526719Y-90759944D01*
X154506202Y-90772241D01*
X154484578Y-90782469D01*
X154462056Y-90790527D01*
X154438852Y-90796339D01*
X154415191Y-90799849D01*
X154391299Y-90801023D01*
X154367407Y-90799849D01*
X154343746Y-90796339D01*
X154320542Y-90790527D01*
X154298020Y-90782469D01*
X153847629Y-90595911D01*
X153826005Y-90585683D01*
X153805488Y-90573386D01*
X153786275Y-90559136D01*
X153768551Y-90543072D01*
X153752487Y-90525348D01*
X153738237Y-90506135D01*
X153725940Y-90485618D01*
X153715712Y-90463994D01*
X153707654Y-90441472D01*
X153701842Y-90418268D01*
X153698332Y-90394607D01*
X153697158Y-90370715D01*
X153698332Y-90346823D01*
X153701842Y-90323162D01*
X153707654Y-90299958D01*
X153715712Y-90277436D01*
X154064911Y-89434396D01*
X154075139Y-89412772D01*
X154087436Y-89392255D01*
X154101686Y-89373042D01*
X154117750Y-89355318D01*
X154135474Y-89339254D01*
X154154687Y-89325004D01*
X154175204Y-89312707D01*
X154196828Y-89302479D01*
X154219350Y-89294421D01*
X154242554Y-89288609D01*
X154266215Y-89285099D01*
X154290107Y-89283925D01*
X154313999Y-89285099D01*
X154313999Y-89285099D01*
G37*
D20*
X154340703Y-90042474D03*
D16*
G36*
X149945573Y-96616869D02*
G01*
X149969234Y-96620379D01*
X149992438Y-96626191D01*
X150014960Y-96634249D01*
X150036584Y-96644477D01*
X150057101Y-96656774D01*
X150076314Y-96671024D01*
X150094038Y-96687088D01*
X150110102Y-96704812D01*
X150124352Y-96724025D01*
X150136649Y-96744542D01*
X150146877Y-96766166D01*
X150333435Y-97216557D01*
X150341493Y-97239079D01*
X150347305Y-97262283D01*
X150350815Y-97285944D01*
X150351989Y-97309836D01*
X150350815Y-97333728D01*
X150347305Y-97357389D01*
X150341493Y-97380593D01*
X150333435Y-97403115D01*
X150323207Y-97424739D01*
X150310910Y-97445256D01*
X150296660Y-97464469D01*
X150280596Y-97482193D01*
X150262872Y-97498257D01*
X150243659Y-97512507D01*
X150223142Y-97524804D01*
X150201518Y-97535032D01*
X149358478Y-97884231D01*
X149335956Y-97892289D01*
X149312752Y-97898101D01*
X149289091Y-97901611D01*
X149265199Y-97902785D01*
X149241307Y-97901611D01*
X149217646Y-97898101D01*
X149194442Y-97892289D01*
X149171920Y-97884231D01*
X149150296Y-97874003D01*
X149129779Y-97861706D01*
X149110566Y-97847456D01*
X149092842Y-97831392D01*
X149076778Y-97813668D01*
X149062528Y-97794455D01*
X149050231Y-97773938D01*
X149040003Y-97752314D01*
X148853445Y-97301923D01*
X148845387Y-97279401D01*
X148839575Y-97256197D01*
X148836065Y-97232536D01*
X148834891Y-97208644D01*
X148836065Y-97184752D01*
X148839575Y-97161091D01*
X148845387Y-97137887D01*
X148853445Y-97115365D01*
X148863673Y-97093741D01*
X148875970Y-97073224D01*
X148890220Y-97054011D01*
X148906284Y-97036287D01*
X148924008Y-97020223D01*
X148943221Y-97005973D01*
X148963738Y-96993676D01*
X148985362Y-96983448D01*
X149828402Y-96634249D01*
X149850924Y-96626191D01*
X149874128Y-96620379D01*
X149897789Y-96616869D01*
X149921681Y-96615695D01*
X149945573Y-96616869D01*
X149945573Y-96616869D01*
G37*
D20*
X149593440Y-97259240D03*
D16*
G36*
X149228041Y-94884595D02*
G01*
X149251702Y-94888105D01*
X149274906Y-94893917D01*
X149297428Y-94901975D01*
X149319052Y-94912203D01*
X149339569Y-94924500D01*
X149358782Y-94938750D01*
X149376506Y-94954814D01*
X149392570Y-94972538D01*
X149406820Y-94991751D01*
X149419117Y-95012268D01*
X149429345Y-95033892D01*
X149615903Y-95484283D01*
X149623961Y-95506805D01*
X149629773Y-95530009D01*
X149633283Y-95553670D01*
X149634457Y-95577562D01*
X149633283Y-95601454D01*
X149629773Y-95625115D01*
X149623961Y-95648319D01*
X149615903Y-95670841D01*
X149605675Y-95692465D01*
X149593378Y-95712982D01*
X149579128Y-95732195D01*
X149563064Y-95749919D01*
X149545340Y-95765983D01*
X149526127Y-95780233D01*
X149505610Y-95792530D01*
X149483986Y-95802758D01*
X148640946Y-96151957D01*
X148618424Y-96160015D01*
X148595220Y-96165827D01*
X148571559Y-96169337D01*
X148547667Y-96170511D01*
X148523775Y-96169337D01*
X148500114Y-96165827D01*
X148476910Y-96160015D01*
X148454388Y-96151957D01*
X148432764Y-96141729D01*
X148412247Y-96129432D01*
X148393034Y-96115182D01*
X148375310Y-96099118D01*
X148359246Y-96081394D01*
X148344996Y-96062181D01*
X148332699Y-96041664D01*
X148322471Y-96020040D01*
X148135913Y-95569649D01*
X148127855Y-95547127D01*
X148122043Y-95523923D01*
X148118533Y-95500262D01*
X148117359Y-95476370D01*
X148118533Y-95452478D01*
X148122043Y-95428817D01*
X148127855Y-95405613D01*
X148135913Y-95383091D01*
X148146141Y-95361467D01*
X148158438Y-95340950D01*
X148172688Y-95321737D01*
X148188752Y-95304013D01*
X148206476Y-95287949D01*
X148225689Y-95273699D01*
X148246206Y-95261402D01*
X148267830Y-95251174D01*
X149110870Y-94901975D01*
X149133392Y-94893917D01*
X149156596Y-94888105D01*
X149180257Y-94884595D01*
X149204149Y-94883421D01*
X149228041Y-94884595D01*
X149228041Y-94884595D01*
G37*
D20*
X148875908Y-95526966D03*
D16*
G36*
X140103887Y-96612983D02*
G01*
X140127518Y-96616700D01*
X140150670Y-96622714D01*
X140173121Y-96630969D01*
X141013082Y-96987511D01*
X141034615Y-96997927D01*
X141055025Y-97010403D01*
X141074113Y-97024819D01*
X141091696Y-97041037D01*
X141107604Y-97058901D01*
X141121686Y-97078237D01*
X141133804Y-97098861D01*
X141143842Y-97120574D01*
X141151704Y-97143165D01*
X141157313Y-97166419D01*
X141160617Y-97190110D01*
X141161582Y-97214011D01*
X141160200Y-97237892D01*
X141156483Y-97261522D01*
X141150469Y-97284674D01*
X141142214Y-97307125D01*
X140951733Y-97755871D01*
X140941318Y-97777404D01*
X140928841Y-97797814D01*
X140914425Y-97816902D01*
X140898207Y-97834485D01*
X140880343Y-97850393D01*
X140861007Y-97864475D01*
X140840383Y-97876593D01*
X140818671Y-97886631D01*
X140796079Y-97894493D01*
X140772825Y-97900102D01*
X140749134Y-97903406D01*
X140725233Y-97904371D01*
X140701353Y-97902989D01*
X140677722Y-97899272D01*
X140654570Y-97893258D01*
X140632119Y-97885003D01*
X139792158Y-97528461D01*
X139770625Y-97518045D01*
X139750215Y-97505569D01*
X139731127Y-97491153D01*
X139713544Y-97474935D01*
X139697636Y-97457071D01*
X139683554Y-97437735D01*
X139671436Y-97417111D01*
X139661398Y-97395398D01*
X139653536Y-97372807D01*
X139647927Y-97349553D01*
X139644623Y-97325862D01*
X139643658Y-97301961D01*
X139645040Y-97278080D01*
X139648757Y-97254450D01*
X139654771Y-97231298D01*
X139663026Y-97208847D01*
X139853507Y-96760101D01*
X139863922Y-96738568D01*
X139876399Y-96718158D01*
X139890815Y-96699070D01*
X139907033Y-96681487D01*
X139924897Y-96665579D01*
X139944233Y-96651497D01*
X139964857Y-96639379D01*
X139986569Y-96629341D01*
X140009161Y-96621479D01*
X140032415Y-96615870D01*
X140056106Y-96612566D01*
X140080007Y-96611601D01*
X140103887Y-96612983D01*
X140103887Y-96612983D01*
G37*
D20*
X140402620Y-97257986D03*
D16*
G36*
X140836507Y-94887037D02*
G01*
X140860138Y-94890754D01*
X140883290Y-94896768D01*
X140905741Y-94905023D01*
X141745702Y-95261565D01*
X141767235Y-95271981D01*
X141787645Y-95284457D01*
X141806733Y-95298873D01*
X141824316Y-95315091D01*
X141840224Y-95332955D01*
X141854306Y-95352291D01*
X141866424Y-95372915D01*
X141876462Y-95394628D01*
X141884324Y-95417219D01*
X141889933Y-95440473D01*
X141893237Y-95464164D01*
X141894202Y-95488065D01*
X141892820Y-95511946D01*
X141889103Y-95535576D01*
X141883089Y-95558728D01*
X141874834Y-95581179D01*
X141684353Y-96029925D01*
X141673938Y-96051458D01*
X141661461Y-96071868D01*
X141647045Y-96090956D01*
X141630827Y-96108539D01*
X141612963Y-96124447D01*
X141593627Y-96138529D01*
X141573003Y-96150647D01*
X141551291Y-96160685D01*
X141528699Y-96168547D01*
X141505445Y-96174156D01*
X141481754Y-96177460D01*
X141457853Y-96178425D01*
X141433973Y-96177043D01*
X141410342Y-96173326D01*
X141387190Y-96167312D01*
X141364739Y-96159057D01*
X140524778Y-95802515D01*
X140503245Y-95792099D01*
X140482835Y-95779623D01*
X140463747Y-95765207D01*
X140446164Y-95748989D01*
X140430256Y-95731125D01*
X140416174Y-95711789D01*
X140404056Y-95691165D01*
X140394018Y-95669452D01*
X140386156Y-95646861D01*
X140380547Y-95623607D01*
X140377243Y-95599916D01*
X140376278Y-95576015D01*
X140377660Y-95552134D01*
X140381377Y-95528504D01*
X140387391Y-95505352D01*
X140395646Y-95482901D01*
X140586127Y-95034155D01*
X140596542Y-95012622D01*
X140609019Y-94992212D01*
X140623435Y-94973124D01*
X140639653Y-94955541D01*
X140657517Y-94939633D01*
X140676853Y-94925551D01*
X140697477Y-94913433D01*
X140719189Y-94903395D01*
X140741781Y-94895533D01*
X140765035Y-94889924D01*
X140788726Y-94886620D01*
X140812627Y-94885655D01*
X140836507Y-94887037D01*
X140836507Y-94887037D01*
G37*
D20*
X141135240Y-95532040D03*
D16*
G36*
X133993591Y-90002631D02*
G01*
X134017252Y-90006141D01*
X134040456Y-90011953D01*
X134062978Y-90020011D01*
X134084602Y-90030239D01*
X134105119Y-90042536D01*
X134124332Y-90056786D01*
X134142056Y-90072850D01*
X134158120Y-90090574D01*
X134172370Y-90109787D01*
X134184667Y-90130304D01*
X134194895Y-90151928D01*
X134544094Y-90994968D01*
X134552152Y-91017490D01*
X134557964Y-91040694D01*
X134561474Y-91064355D01*
X134562648Y-91088247D01*
X134561474Y-91112139D01*
X134557964Y-91135800D01*
X134552152Y-91159004D01*
X134544094Y-91181526D01*
X134533866Y-91203150D01*
X134521569Y-91223667D01*
X134507319Y-91242880D01*
X134491255Y-91260604D01*
X134473531Y-91276668D01*
X134454318Y-91290918D01*
X134433801Y-91303215D01*
X134412177Y-91313443D01*
X133961786Y-91500001D01*
X133939264Y-91508059D01*
X133916060Y-91513871D01*
X133892399Y-91517381D01*
X133868507Y-91518555D01*
X133844615Y-91517381D01*
X133820954Y-91513871D01*
X133797750Y-91508059D01*
X133775228Y-91500001D01*
X133753604Y-91489773D01*
X133733087Y-91477476D01*
X133713874Y-91463226D01*
X133696150Y-91447162D01*
X133680086Y-91429438D01*
X133665836Y-91410225D01*
X133653539Y-91389708D01*
X133643311Y-91368084D01*
X133294112Y-90525044D01*
X133286054Y-90502522D01*
X133280242Y-90479318D01*
X133276732Y-90455657D01*
X133275558Y-90431765D01*
X133276732Y-90407873D01*
X133280242Y-90384212D01*
X133286054Y-90361008D01*
X133294112Y-90338486D01*
X133304340Y-90316862D01*
X133316637Y-90296345D01*
X133330887Y-90277132D01*
X133346951Y-90259408D01*
X133364675Y-90243344D01*
X133383888Y-90229094D01*
X133404405Y-90216797D01*
X133426029Y-90206569D01*
X133876420Y-90020011D01*
X133898942Y-90011953D01*
X133922146Y-90006141D01*
X133945807Y-90002631D01*
X133969699Y-90001457D01*
X133993591Y-90002631D01*
X133993591Y-90002631D01*
G37*
D20*
X133919103Y-90760006D03*
D16*
G36*
X135725865Y-89285099D02*
G01*
X135749526Y-89288609D01*
X135772730Y-89294421D01*
X135795252Y-89302479D01*
X135816876Y-89312707D01*
X135837393Y-89325004D01*
X135856606Y-89339254D01*
X135874330Y-89355318D01*
X135890394Y-89373042D01*
X135904644Y-89392255D01*
X135916941Y-89412772D01*
X135927169Y-89434396D01*
X136276368Y-90277436D01*
X136284426Y-90299958D01*
X136290238Y-90323162D01*
X136293748Y-90346823D01*
X136294922Y-90370715D01*
X136293748Y-90394607D01*
X136290238Y-90418268D01*
X136284426Y-90441472D01*
X136276368Y-90463994D01*
X136266140Y-90485618D01*
X136253843Y-90506135D01*
X136239593Y-90525348D01*
X136223529Y-90543072D01*
X136205805Y-90559136D01*
X136186592Y-90573386D01*
X136166075Y-90585683D01*
X136144451Y-90595911D01*
X135694060Y-90782469D01*
X135671538Y-90790527D01*
X135648334Y-90796339D01*
X135624673Y-90799849D01*
X135600781Y-90801023D01*
X135576889Y-90799849D01*
X135553228Y-90796339D01*
X135530024Y-90790527D01*
X135507502Y-90782469D01*
X135485878Y-90772241D01*
X135465361Y-90759944D01*
X135446148Y-90745694D01*
X135428424Y-90729630D01*
X135412360Y-90711906D01*
X135398110Y-90692693D01*
X135385813Y-90672176D01*
X135375585Y-90650552D01*
X135026386Y-89807512D01*
X135018328Y-89784990D01*
X135012516Y-89761786D01*
X135009006Y-89738125D01*
X135007832Y-89714233D01*
X135009006Y-89690341D01*
X135012516Y-89666680D01*
X135018328Y-89643476D01*
X135026386Y-89620954D01*
X135036614Y-89599330D01*
X135048911Y-89578813D01*
X135063161Y-89559600D01*
X135079225Y-89541876D01*
X135096949Y-89525812D01*
X135116162Y-89511562D01*
X135136679Y-89499265D01*
X135158303Y-89489037D01*
X135608694Y-89302479D01*
X135631216Y-89294421D01*
X135654420Y-89288609D01*
X135678081Y-89285099D01*
X135701973Y-89283925D01*
X135725865Y-89285099D01*
X135725865Y-89285099D01*
G37*
D20*
X135651377Y-90042474D03*
D16*
G36*
X135622136Y-81541265D02*
G01*
X135645797Y-81544775D01*
X135669001Y-81550587D01*
X135691523Y-81558645D01*
X136141914Y-81745203D01*
X136163538Y-81755431D01*
X136184055Y-81767728D01*
X136203268Y-81781978D01*
X136220992Y-81798042D01*
X136237056Y-81815766D01*
X136251306Y-81834979D01*
X136263603Y-81855496D01*
X136273831Y-81877120D01*
X136281889Y-81899642D01*
X136287701Y-81922846D01*
X136291211Y-81946507D01*
X136292385Y-81970399D01*
X136291211Y-81994291D01*
X136287701Y-82017952D01*
X136281889Y-82041156D01*
X136273831Y-82063678D01*
X135924632Y-82906718D01*
X135914404Y-82928342D01*
X135902107Y-82948859D01*
X135887857Y-82968072D01*
X135871793Y-82985796D01*
X135854069Y-83001860D01*
X135834856Y-83016110D01*
X135814339Y-83028407D01*
X135792715Y-83038635D01*
X135770193Y-83046693D01*
X135746989Y-83052505D01*
X135723328Y-83056015D01*
X135699436Y-83057189D01*
X135675544Y-83056015D01*
X135651883Y-83052505D01*
X135628679Y-83046693D01*
X135606157Y-83038635D01*
X135155766Y-82852077D01*
X135134142Y-82841849D01*
X135113625Y-82829552D01*
X135094412Y-82815302D01*
X135076688Y-82799238D01*
X135060624Y-82781514D01*
X135046374Y-82762301D01*
X135034077Y-82741784D01*
X135023849Y-82720160D01*
X135015791Y-82697638D01*
X135009979Y-82674434D01*
X135006469Y-82650773D01*
X135005295Y-82626881D01*
X135006469Y-82602989D01*
X135009979Y-82579328D01*
X135015791Y-82556124D01*
X135023849Y-82533602D01*
X135373048Y-81690562D01*
X135383276Y-81668938D01*
X135395573Y-81648421D01*
X135409823Y-81629208D01*
X135425887Y-81611484D01*
X135443611Y-81595420D01*
X135462824Y-81581170D01*
X135483341Y-81568873D01*
X135504965Y-81558645D01*
X135527487Y-81550587D01*
X135550691Y-81544775D01*
X135574352Y-81541265D01*
X135598244Y-81540091D01*
X135622136Y-81541265D01*
X135622136Y-81541265D01*
G37*
D20*
X135648840Y-82298640D03*
D16*
G36*
X133889862Y-80823733D02*
G01*
X133913523Y-80827243D01*
X133936727Y-80833055D01*
X133959249Y-80841113D01*
X134409640Y-81027671D01*
X134431264Y-81037899D01*
X134451781Y-81050196D01*
X134470994Y-81064446D01*
X134488718Y-81080510D01*
X134504782Y-81098234D01*
X134519032Y-81117447D01*
X134531329Y-81137964D01*
X134541557Y-81159588D01*
X134549615Y-81182110D01*
X134555427Y-81205314D01*
X134558937Y-81228975D01*
X134560111Y-81252867D01*
X134558937Y-81276759D01*
X134555427Y-81300420D01*
X134549615Y-81323624D01*
X134541557Y-81346146D01*
X134192358Y-82189186D01*
X134182130Y-82210810D01*
X134169833Y-82231327D01*
X134155583Y-82250540D01*
X134139519Y-82268264D01*
X134121795Y-82284328D01*
X134102582Y-82298578D01*
X134082065Y-82310875D01*
X134060441Y-82321103D01*
X134037919Y-82329161D01*
X134014715Y-82334973D01*
X133991054Y-82338483D01*
X133967162Y-82339657D01*
X133943270Y-82338483D01*
X133919609Y-82334973D01*
X133896405Y-82329161D01*
X133873883Y-82321103D01*
X133423492Y-82134545D01*
X133401868Y-82124317D01*
X133381351Y-82112020D01*
X133362138Y-82097770D01*
X133344414Y-82081706D01*
X133328350Y-82063982D01*
X133314100Y-82044769D01*
X133301803Y-82024252D01*
X133291575Y-82002628D01*
X133283517Y-81980106D01*
X133277705Y-81956902D01*
X133274195Y-81933241D01*
X133273021Y-81909349D01*
X133274195Y-81885457D01*
X133277705Y-81861796D01*
X133283517Y-81838592D01*
X133291575Y-81816070D01*
X133640774Y-80973030D01*
X133651002Y-80951406D01*
X133663299Y-80930889D01*
X133677549Y-80911676D01*
X133693613Y-80893952D01*
X133711337Y-80877888D01*
X133730550Y-80863638D01*
X133751067Y-80851341D01*
X133772691Y-80841113D01*
X133795213Y-80833055D01*
X133818417Y-80827243D01*
X133842078Y-80823733D01*
X133865970Y-80822559D01*
X133889862Y-80823733D01*
X133889862Y-80823733D01*
G37*
D20*
X133916566Y-81581108D03*
D16*
G36*
X141461973Y-76169869D02*
G01*
X141485634Y-76173379D01*
X141508838Y-76179191D01*
X141531360Y-76187249D01*
X141552984Y-76197477D01*
X141573501Y-76209774D01*
X141592714Y-76224024D01*
X141610438Y-76240088D01*
X141626502Y-76257812D01*
X141640752Y-76277025D01*
X141653049Y-76297542D01*
X141663277Y-76319166D01*
X141849835Y-76769557D01*
X141857893Y-76792079D01*
X141863705Y-76815283D01*
X141867215Y-76838944D01*
X141868389Y-76862836D01*
X141867215Y-76886728D01*
X141863705Y-76910389D01*
X141857893Y-76933593D01*
X141849835Y-76956115D01*
X141839607Y-76977739D01*
X141827310Y-76998256D01*
X141813060Y-77017469D01*
X141796996Y-77035193D01*
X141779272Y-77051257D01*
X141760059Y-77065507D01*
X141739542Y-77077804D01*
X141717918Y-77088032D01*
X140874878Y-77437231D01*
X140852356Y-77445289D01*
X140829152Y-77451101D01*
X140805491Y-77454611D01*
X140781599Y-77455785D01*
X140757707Y-77454611D01*
X140734046Y-77451101D01*
X140710842Y-77445289D01*
X140688320Y-77437231D01*
X140666696Y-77427003D01*
X140646179Y-77414706D01*
X140626966Y-77400456D01*
X140609242Y-77384392D01*
X140593178Y-77366668D01*
X140578928Y-77347455D01*
X140566631Y-77326938D01*
X140556403Y-77305314D01*
X140369845Y-76854923D01*
X140361787Y-76832401D01*
X140355975Y-76809197D01*
X140352465Y-76785536D01*
X140351291Y-76761644D01*
X140352465Y-76737752D01*
X140355975Y-76714091D01*
X140361787Y-76690887D01*
X140369845Y-76668365D01*
X140380073Y-76646741D01*
X140392370Y-76626224D01*
X140406620Y-76607011D01*
X140422684Y-76589287D01*
X140440408Y-76573223D01*
X140459621Y-76558973D01*
X140480138Y-76546676D01*
X140501762Y-76536448D01*
X141344802Y-76187249D01*
X141367324Y-76179191D01*
X141390528Y-76173379D01*
X141414189Y-76169869D01*
X141438081Y-76168695D01*
X141461973Y-76169869D01*
X141461973Y-76169869D01*
G37*
D20*
X141109840Y-76812240D03*
D16*
G36*
X140744441Y-74437595D02*
G01*
X140768102Y-74441105D01*
X140791306Y-74446917D01*
X140813828Y-74454975D01*
X140835452Y-74465203D01*
X140855969Y-74477500D01*
X140875182Y-74491750D01*
X140892906Y-74507814D01*
X140908970Y-74525538D01*
X140923220Y-74544751D01*
X140935517Y-74565268D01*
X140945745Y-74586892D01*
X141132303Y-75037283D01*
X141140361Y-75059805D01*
X141146173Y-75083009D01*
X141149683Y-75106670D01*
X141150857Y-75130562D01*
X141149683Y-75154454D01*
X141146173Y-75178115D01*
X141140361Y-75201319D01*
X141132303Y-75223841D01*
X141122075Y-75245465D01*
X141109778Y-75265982D01*
X141095528Y-75285195D01*
X141079464Y-75302919D01*
X141061740Y-75318983D01*
X141042527Y-75333233D01*
X141022010Y-75345530D01*
X141000386Y-75355758D01*
X140157346Y-75704957D01*
X140134824Y-75713015D01*
X140111620Y-75718827D01*
X140087959Y-75722337D01*
X140064067Y-75723511D01*
X140040175Y-75722337D01*
X140016514Y-75718827D01*
X139993310Y-75713015D01*
X139970788Y-75704957D01*
X139949164Y-75694729D01*
X139928647Y-75682432D01*
X139909434Y-75668182D01*
X139891710Y-75652118D01*
X139875646Y-75634394D01*
X139861396Y-75615181D01*
X139849099Y-75594664D01*
X139838871Y-75573040D01*
X139652313Y-75122649D01*
X139644255Y-75100127D01*
X139638443Y-75076923D01*
X139634933Y-75053262D01*
X139633759Y-75029370D01*
X139634933Y-75005478D01*
X139638443Y-74981817D01*
X139644255Y-74958613D01*
X139652313Y-74936091D01*
X139662541Y-74914467D01*
X139674838Y-74893950D01*
X139689088Y-74874737D01*
X139705152Y-74857013D01*
X139722876Y-74840949D01*
X139742089Y-74826699D01*
X139762606Y-74814402D01*
X139784230Y-74804174D01*
X140627270Y-74454975D01*
X140649792Y-74446917D01*
X140672996Y-74441105D01*
X140696657Y-74437595D01*
X140720549Y-74436421D01*
X140744441Y-74437595D01*
X140744441Y-74437595D01*
G37*
D20*
X140392308Y-75079966D03*
D21*
X150260000Y-65860000D03*
X150260000Y-63860000D03*
X150260000Y-61860000D03*
D22*
X150260000Y-59860000D03*
D21*
X139650000Y-59890000D03*
X139650000Y-61890000D03*
X139650000Y-63890000D03*
D22*
X139650000Y-65890000D03*
D16*
G36*
X152699942Y-141608994D02*
G01*
X152723603Y-141612504D01*
X152746807Y-141618316D01*
X152769329Y-141626374D01*
X152790953Y-141636602D01*
X152811470Y-141648899D01*
X152830683Y-141663149D01*
X152848407Y-141679213D01*
X152864471Y-141696937D01*
X152878721Y-141716150D01*
X152891018Y-141736667D01*
X152901246Y-141758291D01*
X152909304Y-141780813D01*
X152915116Y-141804017D01*
X152918626Y-141827678D01*
X152919800Y-141851570D01*
X152919800Y-142339070D01*
X152918626Y-142362962D01*
X152915116Y-142386623D01*
X152909304Y-142409827D01*
X152901246Y-142432349D01*
X152891018Y-142453973D01*
X152878721Y-142474490D01*
X152864471Y-142493703D01*
X152848407Y-142511427D01*
X152830683Y-142527491D01*
X152811470Y-142541741D01*
X152790953Y-142554038D01*
X152769329Y-142564266D01*
X152746807Y-142572324D01*
X152723603Y-142578136D01*
X152699942Y-142581646D01*
X152676050Y-142582820D01*
X151763550Y-142582820D01*
X151739658Y-142581646D01*
X151715997Y-142578136D01*
X151692793Y-142572324D01*
X151670271Y-142564266D01*
X151648647Y-142554038D01*
X151628130Y-142541741D01*
X151608917Y-142527491D01*
X151591193Y-142511427D01*
X151575129Y-142493703D01*
X151560879Y-142474490D01*
X151548582Y-142453973D01*
X151538354Y-142432349D01*
X151530296Y-142409827D01*
X151524484Y-142386623D01*
X151520974Y-142362962D01*
X151519800Y-142339070D01*
X151519800Y-141851570D01*
X151520974Y-141827678D01*
X151524484Y-141804017D01*
X151530296Y-141780813D01*
X151538354Y-141758291D01*
X151548582Y-141736667D01*
X151560879Y-141716150D01*
X151575129Y-141696937D01*
X151591193Y-141679213D01*
X151608917Y-141663149D01*
X151628130Y-141648899D01*
X151648647Y-141636602D01*
X151670271Y-141626374D01*
X151692793Y-141618316D01*
X151715997Y-141612504D01*
X151739658Y-141608994D01*
X151763550Y-141607820D01*
X152676050Y-141607820D01*
X152699942Y-141608994D01*
X152699942Y-141608994D01*
G37*
D20*
X152219800Y-142095320D03*
D16*
G36*
X152699942Y-143483994D02*
G01*
X152723603Y-143487504D01*
X152746807Y-143493316D01*
X152769329Y-143501374D01*
X152790953Y-143511602D01*
X152811470Y-143523899D01*
X152830683Y-143538149D01*
X152848407Y-143554213D01*
X152864471Y-143571937D01*
X152878721Y-143591150D01*
X152891018Y-143611667D01*
X152901246Y-143633291D01*
X152909304Y-143655813D01*
X152915116Y-143679017D01*
X152918626Y-143702678D01*
X152919800Y-143726570D01*
X152919800Y-144214070D01*
X152918626Y-144237962D01*
X152915116Y-144261623D01*
X152909304Y-144284827D01*
X152901246Y-144307349D01*
X152891018Y-144328973D01*
X152878721Y-144349490D01*
X152864471Y-144368703D01*
X152848407Y-144386427D01*
X152830683Y-144402491D01*
X152811470Y-144416741D01*
X152790953Y-144429038D01*
X152769329Y-144439266D01*
X152746807Y-144447324D01*
X152723603Y-144453136D01*
X152699942Y-144456646D01*
X152676050Y-144457820D01*
X151763550Y-144457820D01*
X151739658Y-144456646D01*
X151715997Y-144453136D01*
X151692793Y-144447324D01*
X151670271Y-144439266D01*
X151648647Y-144429038D01*
X151628130Y-144416741D01*
X151608917Y-144402491D01*
X151591193Y-144386427D01*
X151575129Y-144368703D01*
X151560879Y-144349490D01*
X151548582Y-144328973D01*
X151538354Y-144307349D01*
X151530296Y-144284827D01*
X151524484Y-144261623D01*
X151520974Y-144237962D01*
X151519800Y-144214070D01*
X151519800Y-143726570D01*
X151520974Y-143702678D01*
X151524484Y-143679017D01*
X151530296Y-143655813D01*
X151538354Y-143633291D01*
X151548582Y-143611667D01*
X151560879Y-143591150D01*
X151575129Y-143571937D01*
X151591193Y-143554213D01*
X151608917Y-143538149D01*
X151628130Y-143523899D01*
X151648647Y-143511602D01*
X151670271Y-143501374D01*
X151692793Y-143493316D01*
X151715997Y-143487504D01*
X151739658Y-143483994D01*
X151763550Y-143482820D01*
X152676050Y-143482820D01*
X152699942Y-143483994D01*
X152699942Y-143483994D01*
G37*
D20*
X152219800Y-143970320D03*
D23*
X140926960Y-54307840D03*
D24*
X143466960Y-54307840D03*
X146006960Y-54307840D03*
X148546960Y-54307840D03*
D25*
X142110960Y-128469240D03*
X147870960Y-128469240D03*
X147870960Y-124469240D03*
X142110960Y-124469240D03*
D26*
X145935840Y-69946620D03*
X144035840Y-69946620D03*
X144985840Y-71946620D03*
D16*
G36*
X141413042Y-69499254D02*
G01*
X141436703Y-69502764D01*
X141459907Y-69508576D01*
X141482429Y-69516634D01*
X141504053Y-69526862D01*
X141524570Y-69539159D01*
X141543783Y-69553409D01*
X141561507Y-69569473D01*
X141577571Y-69587197D01*
X141591821Y-69606410D01*
X141604118Y-69626927D01*
X141614346Y-69648551D01*
X141622404Y-69671073D01*
X141628216Y-69694277D01*
X141631726Y-69717938D01*
X141632900Y-69741830D01*
X141632900Y-70654330D01*
X141631726Y-70678222D01*
X141628216Y-70701883D01*
X141622404Y-70725087D01*
X141614346Y-70747609D01*
X141604118Y-70769233D01*
X141591821Y-70789750D01*
X141577571Y-70808963D01*
X141561507Y-70826687D01*
X141543783Y-70842751D01*
X141524570Y-70857001D01*
X141504053Y-70869298D01*
X141482429Y-70879526D01*
X141459907Y-70887584D01*
X141436703Y-70893396D01*
X141413042Y-70896906D01*
X141389150Y-70898080D01*
X140901650Y-70898080D01*
X140877758Y-70896906D01*
X140854097Y-70893396D01*
X140830893Y-70887584D01*
X140808371Y-70879526D01*
X140786747Y-70869298D01*
X140766230Y-70857001D01*
X140747017Y-70842751D01*
X140729293Y-70826687D01*
X140713229Y-70808963D01*
X140698979Y-70789750D01*
X140686682Y-70769233D01*
X140676454Y-70747609D01*
X140668396Y-70725087D01*
X140662584Y-70701883D01*
X140659074Y-70678222D01*
X140657900Y-70654330D01*
X140657900Y-69741830D01*
X140659074Y-69717938D01*
X140662584Y-69694277D01*
X140668396Y-69671073D01*
X140676454Y-69648551D01*
X140686682Y-69626927D01*
X140698979Y-69606410D01*
X140713229Y-69587197D01*
X140729293Y-69569473D01*
X140747017Y-69553409D01*
X140766230Y-69539159D01*
X140786747Y-69526862D01*
X140808371Y-69516634D01*
X140830893Y-69508576D01*
X140854097Y-69502764D01*
X140877758Y-69499254D01*
X140901650Y-69498080D01*
X141389150Y-69498080D01*
X141413042Y-69499254D01*
X141413042Y-69499254D01*
G37*
D20*
X141145400Y-70198080D03*
D16*
G36*
X139538042Y-69499254D02*
G01*
X139561703Y-69502764D01*
X139584907Y-69508576D01*
X139607429Y-69516634D01*
X139629053Y-69526862D01*
X139649570Y-69539159D01*
X139668783Y-69553409D01*
X139686507Y-69569473D01*
X139702571Y-69587197D01*
X139716821Y-69606410D01*
X139729118Y-69626927D01*
X139739346Y-69648551D01*
X139747404Y-69671073D01*
X139753216Y-69694277D01*
X139756726Y-69717938D01*
X139757900Y-69741830D01*
X139757900Y-70654330D01*
X139756726Y-70678222D01*
X139753216Y-70701883D01*
X139747404Y-70725087D01*
X139739346Y-70747609D01*
X139729118Y-70769233D01*
X139716821Y-70789750D01*
X139702571Y-70808963D01*
X139686507Y-70826687D01*
X139668783Y-70842751D01*
X139649570Y-70857001D01*
X139629053Y-70869298D01*
X139607429Y-70879526D01*
X139584907Y-70887584D01*
X139561703Y-70893396D01*
X139538042Y-70896906D01*
X139514150Y-70898080D01*
X139026650Y-70898080D01*
X139002758Y-70896906D01*
X138979097Y-70893396D01*
X138955893Y-70887584D01*
X138933371Y-70879526D01*
X138911747Y-70869298D01*
X138891230Y-70857001D01*
X138872017Y-70842751D01*
X138854293Y-70826687D01*
X138838229Y-70808963D01*
X138823979Y-70789750D01*
X138811682Y-70769233D01*
X138801454Y-70747609D01*
X138793396Y-70725087D01*
X138787584Y-70701883D01*
X138784074Y-70678222D01*
X138782900Y-70654330D01*
X138782900Y-69741830D01*
X138784074Y-69717938D01*
X138787584Y-69694277D01*
X138793396Y-69671073D01*
X138801454Y-69648551D01*
X138811682Y-69626927D01*
X138823979Y-69606410D01*
X138838229Y-69587197D01*
X138854293Y-69569473D01*
X138872017Y-69553409D01*
X138891230Y-69539159D01*
X138911747Y-69526862D01*
X138933371Y-69516634D01*
X138955893Y-69508576D01*
X138979097Y-69502764D01*
X139002758Y-69499254D01*
X139026650Y-69498080D01*
X139514150Y-69498080D01*
X139538042Y-69499254D01*
X139538042Y-69499254D01*
G37*
D20*
X139270400Y-70198080D03*
D16*
G36*
X150946142Y-69527194D02*
G01*
X150969803Y-69530704D01*
X150993007Y-69536516D01*
X151015529Y-69544574D01*
X151037153Y-69554802D01*
X151057670Y-69567099D01*
X151076883Y-69581349D01*
X151094607Y-69597413D01*
X151110671Y-69615137D01*
X151124921Y-69634350D01*
X151137218Y-69654867D01*
X151147446Y-69676491D01*
X151155504Y-69699013D01*
X151161316Y-69722217D01*
X151164826Y-69745878D01*
X151166000Y-69769770D01*
X151166000Y-70682270D01*
X151164826Y-70706162D01*
X151161316Y-70729823D01*
X151155504Y-70753027D01*
X151147446Y-70775549D01*
X151137218Y-70797173D01*
X151124921Y-70817690D01*
X151110671Y-70836903D01*
X151094607Y-70854627D01*
X151076883Y-70870691D01*
X151057670Y-70884941D01*
X151037153Y-70897238D01*
X151015529Y-70907466D01*
X150993007Y-70915524D01*
X150969803Y-70921336D01*
X150946142Y-70924846D01*
X150922250Y-70926020D01*
X150434750Y-70926020D01*
X150410858Y-70924846D01*
X150387197Y-70921336D01*
X150363993Y-70915524D01*
X150341471Y-70907466D01*
X150319847Y-70897238D01*
X150299330Y-70884941D01*
X150280117Y-70870691D01*
X150262393Y-70854627D01*
X150246329Y-70836903D01*
X150232079Y-70817690D01*
X150219782Y-70797173D01*
X150209554Y-70775549D01*
X150201496Y-70753027D01*
X150195684Y-70729823D01*
X150192174Y-70706162D01*
X150191000Y-70682270D01*
X150191000Y-69769770D01*
X150192174Y-69745878D01*
X150195684Y-69722217D01*
X150201496Y-69699013D01*
X150209554Y-69676491D01*
X150219782Y-69654867D01*
X150232079Y-69634350D01*
X150246329Y-69615137D01*
X150262393Y-69597413D01*
X150280117Y-69581349D01*
X150299330Y-69567099D01*
X150319847Y-69554802D01*
X150341471Y-69544574D01*
X150363993Y-69536516D01*
X150387197Y-69530704D01*
X150410858Y-69527194D01*
X150434750Y-69526020D01*
X150922250Y-69526020D01*
X150946142Y-69527194D01*
X150946142Y-69527194D01*
G37*
D20*
X150678500Y-70226020D03*
D16*
G36*
X149071142Y-69527194D02*
G01*
X149094803Y-69530704D01*
X149118007Y-69536516D01*
X149140529Y-69544574D01*
X149162153Y-69554802D01*
X149182670Y-69567099D01*
X149201883Y-69581349D01*
X149219607Y-69597413D01*
X149235671Y-69615137D01*
X149249921Y-69634350D01*
X149262218Y-69654867D01*
X149272446Y-69676491D01*
X149280504Y-69699013D01*
X149286316Y-69722217D01*
X149289826Y-69745878D01*
X149291000Y-69769770D01*
X149291000Y-70682270D01*
X149289826Y-70706162D01*
X149286316Y-70729823D01*
X149280504Y-70753027D01*
X149272446Y-70775549D01*
X149262218Y-70797173D01*
X149249921Y-70817690D01*
X149235671Y-70836903D01*
X149219607Y-70854627D01*
X149201883Y-70870691D01*
X149182670Y-70884941D01*
X149162153Y-70897238D01*
X149140529Y-70907466D01*
X149118007Y-70915524D01*
X149094803Y-70921336D01*
X149071142Y-70924846D01*
X149047250Y-70926020D01*
X148559750Y-70926020D01*
X148535858Y-70924846D01*
X148512197Y-70921336D01*
X148488993Y-70915524D01*
X148466471Y-70907466D01*
X148444847Y-70897238D01*
X148424330Y-70884941D01*
X148405117Y-70870691D01*
X148387393Y-70854627D01*
X148371329Y-70836903D01*
X148357079Y-70817690D01*
X148344782Y-70797173D01*
X148334554Y-70775549D01*
X148326496Y-70753027D01*
X148320684Y-70729823D01*
X148317174Y-70706162D01*
X148316000Y-70682270D01*
X148316000Y-69769770D01*
X148317174Y-69745878D01*
X148320684Y-69722217D01*
X148326496Y-69699013D01*
X148334554Y-69676491D01*
X148344782Y-69654867D01*
X148357079Y-69634350D01*
X148371329Y-69615137D01*
X148387393Y-69597413D01*
X148405117Y-69581349D01*
X148424330Y-69567099D01*
X148444847Y-69554802D01*
X148466471Y-69544574D01*
X148488993Y-69536516D01*
X148512197Y-69530704D01*
X148535858Y-69527194D01*
X148559750Y-69526020D01*
X149047250Y-69526020D01*
X149071142Y-69527194D01*
X149071142Y-69527194D01*
G37*
D20*
X148803500Y-70226020D03*
D18*
X144330000Y-75990000D03*
X145630000Y-75990000D03*
X144330000Y-73990000D03*
X145630000Y-73990000D03*
D15*
X136832513Y-77093274D03*
D16*
G36*
X137398198Y-77234695D02*
G01*
X136973934Y-77658959D01*
X136266828Y-76951853D01*
X136691092Y-76527589D01*
X137398198Y-77234695D01*
X137398198Y-77234695D01*
G37*
D15*
X135913274Y-78012513D03*
D16*
G36*
X136478959Y-78153934D02*
G01*
X136054695Y-78578198D01*
X135347589Y-77871092D01*
X135771853Y-77446828D01*
X136478959Y-78153934D01*
X136478959Y-78153934D01*
G37*
D15*
X138246726Y-78507487D03*
D16*
G36*
X138812411Y-78648908D02*
G01*
X138388147Y-79073172D01*
X137681041Y-78366066D01*
X138105305Y-77941802D01*
X138812411Y-78648908D01*
X138812411Y-78648908D01*
G37*
D15*
X137327487Y-79426726D03*
D16*
G36*
X137893172Y-79568147D02*
G01*
X137468908Y-79992411D01*
X136761802Y-79285305D01*
X137186066Y-78861041D01*
X137893172Y-79568147D01*
X137893172Y-79568147D01*
G37*
D27*
X139110000Y-116280000D03*
X142720000Y-77590000D03*
X149940000Y-91540000D03*
X150410000Y-99550000D03*
X137000000Y-85830000D03*
X132490000Y-108850000D03*
X139114990Y-111917904D03*
X140520000Y-142940000D03*
X147880000Y-100690000D03*
X144676000Y-134582000D03*
X134389000Y-120698360D03*
X133570000Y-123250000D03*
X156120000Y-111580000D03*
X151249520Y-123941940D03*
X152425540Y-71384260D03*
D28*
X142448263Y-99303629D02*
X141004355Y-97859721D01*
X132772759Y-86796387D02*
X132572759Y-86796387D01*
X150678500Y-70226020D02*
X150678500Y-73974580D01*
X132772759Y-89613662D02*
X132772759Y-87596387D01*
X156676097Y-90156886D02*
X156072977Y-90760006D01*
X141004355Y-97859721D02*
X140402620Y-97257986D01*
X157136387Y-82641981D02*
X157136387Y-84747241D01*
X156075514Y-80728167D02*
X156075514Y-81581108D01*
X152438351Y-97259240D02*
X150446381Y-97259240D01*
X135489011Y-77093258D02*
X137502303Y-75079966D01*
X157136387Y-84747241D02*
X157136387Y-85547241D01*
X132772759Y-87596387D02*
X132772759Y-86796387D01*
X156075514Y-81581108D02*
X157136387Y-82641981D01*
X133919103Y-90760006D02*
X132772759Y-89613662D01*
X139539367Y-75079966D02*
X140392308Y-75079966D01*
X150678500Y-73974580D02*
X149568040Y-75085040D01*
X135489011Y-77588250D02*
X135489011Y-77093258D01*
X131822758Y-83674916D02*
X133313446Y-82184228D01*
X156075514Y-78721551D02*
X156075514Y-80728167D01*
X153551039Y-76692068D02*
X154046031Y-76692068D01*
X132572759Y-86796387D02*
X131822758Y-86046386D01*
X154046031Y-76692068D02*
X156075514Y-78721551D01*
X145579146Y-98553628D02*
X144829145Y-99303629D01*
X158086388Y-88746595D02*
X156676097Y-90156886D01*
X135913274Y-78012513D02*
X135489011Y-77588250D01*
X144829145Y-99303629D02*
X142448263Y-99303629D01*
X157136387Y-85547241D02*
X157336387Y-85547241D01*
X131822758Y-86046386D02*
X131822758Y-83674916D01*
X157336387Y-85547241D02*
X158086388Y-86297242D01*
X137502303Y-75079966D02*
X139539367Y-75079966D01*
X133916566Y-80009221D02*
X135913274Y-78012513D01*
X133916566Y-81581108D02*
X133916566Y-80009221D01*
X133313446Y-82184228D02*
X133916566Y-81581108D01*
X153126776Y-77116331D02*
X153551039Y-76692068D01*
X150446381Y-97259240D02*
X149593440Y-97259240D01*
X154434319Y-95263272D02*
X152438351Y-97259240D01*
X154010056Y-94344017D02*
X154434319Y-94768280D01*
X154434319Y-94768280D02*
X154434319Y-95263272D01*
X156072977Y-90760006D02*
X156072977Y-92281096D01*
X156072977Y-92281096D02*
X154010056Y-94344017D01*
X145579146Y-98353628D02*
X145579146Y-98553628D01*
X158086388Y-86297242D02*
X158086388Y-88746595D01*
X148499052Y-98353628D02*
X146379146Y-98353628D01*
X138813059Y-97257986D02*
X136782370Y-95227297D01*
X143240034Y-75079966D02*
X144330000Y-73990000D01*
X149593440Y-97259240D02*
X148499052Y-98353628D01*
X149568040Y-75085040D02*
X151095485Y-75085040D01*
X140402620Y-97257986D02*
X138813059Y-97257986D01*
X146379146Y-98353628D02*
X145579146Y-98353628D01*
X133919103Y-91612947D02*
X133919103Y-90760006D01*
X140392308Y-75079966D02*
X143240034Y-75079966D01*
X136782370Y-95227297D02*
X136358107Y-95651560D01*
X135863115Y-95651560D02*
X133919103Y-93707548D01*
X136358107Y-95651560D02*
X135863115Y-95651560D01*
X133919103Y-93707548D02*
X133919103Y-91612947D01*
X151095485Y-75085040D02*
X153126776Y-77116331D01*
X142448263Y-112941737D02*
X142448263Y-99303629D01*
X139110000Y-116280000D02*
X142448263Y-112941737D01*
D29*
X147409680Y-138708120D02*
X147409680Y-142908120D01*
X147409680Y-137108120D02*
X147409680Y-138708120D01*
X148471880Y-143970320D02*
X147409680Y-142908120D01*
X152219800Y-143970320D02*
X148471880Y-143970320D01*
X139768720Y-66002000D02*
X139651880Y-65885160D01*
X141942240Y-76812240D02*
X142720000Y-77590000D01*
X141109840Y-76812240D02*
X141942240Y-76812240D01*
X141001961Y-53132839D02*
X140926960Y-53207840D01*
X144030961Y-53132839D02*
X141001961Y-53132839D01*
X140926960Y-53207840D02*
X140926960Y-54307840D01*
X144641961Y-53743839D02*
X144030961Y-53132839D01*
X144641961Y-58022840D02*
X144641961Y-53743839D01*
X146479120Y-59860000D02*
X144641961Y-58022840D01*
X150260000Y-59860000D02*
X146479120Y-59860000D01*
X151676604Y-93276604D02*
X149940000Y-91540000D01*
X151676604Y-93849043D02*
X151676604Y-93276604D01*
X150809999Y-99949999D02*
X150999999Y-99949999D01*
X150410000Y-99550000D02*
X150809999Y-99949999D01*
X136666387Y-85496387D02*
X137000000Y-85830000D01*
X134772759Y-85496387D02*
X136666387Y-85496387D01*
X147409680Y-137108120D02*
X147409680Y-128930520D01*
X147409680Y-128930520D02*
X147870960Y-128469240D01*
X147409680Y-143558120D02*
X147409680Y-142908120D01*
X146384679Y-144583121D02*
X147409680Y-143558120D01*
X143949679Y-144583121D02*
X146384679Y-144583121D01*
X143884679Y-144518121D02*
X143949679Y-144583121D01*
X143884679Y-130992959D02*
X143884679Y-144518121D01*
X142110960Y-129219240D02*
X143884679Y-130992959D01*
X142110960Y-128469240D02*
X142110960Y-129219240D01*
X139114990Y-111352219D02*
X139114990Y-111917904D01*
X139114990Y-110679430D02*
X139114990Y-111352219D01*
X137510080Y-109074520D02*
X139114990Y-110679430D01*
X139826637Y-69641843D02*
X139270400Y-70198080D01*
X140296861Y-69171619D02*
X139826637Y-69641843D01*
X145210839Y-69171619D02*
X140296861Y-69171619D01*
X145935840Y-69896620D02*
X145210839Y-69171619D01*
X145935840Y-69946620D02*
X145935840Y-69896620D01*
X145935840Y-66184160D02*
X150260000Y-61860000D01*
X145935840Y-69946620D02*
X145935840Y-66184160D01*
X142377800Y-142940000D02*
X142409680Y-142908120D01*
X140520000Y-142940000D02*
X142377800Y-142940000D01*
X142409680Y-141308120D02*
X142409680Y-137108120D01*
X142409680Y-142908120D02*
X142409680Y-141308120D01*
X147880000Y-102424400D02*
X147880000Y-100690000D01*
X140737001Y-68731479D02*
X140296861Y-69171619D01*
X140737001Y-64977001D02*
X140737001Y-68731479D01*
X139650000Y-63890000D02*
X140737001Y-64977001D01*
X150260000Y-61860000D02*
X147842709Y-61860000D01*
X147842709Y-61860000D02*
X143466960Y-57484251D01*
X143466960Y-57484251D02*
X143466960Y-55509921D01*
X143466960Y-55509921D02*
X143466960Y-54307840D01*
X142409680Y-135508120D02*
X142409680Y-137108120D01*
X140410959Y-133509399D02*
X142409680Y-135508120D01*
X140410959Y-116509359D02*
X140410959Y-133509399D01*
X147880000Y-109040318D02*
X140410959Y-116509359D01*
X147880000Y-100690000D02*
X147880000Y-109040318D01*
X144909680Y-137108120D02*
X144909680Y-142908120D01*
X144676000Y-136874440D02*
X144909680Y-137108120D01*
X144676000Y-134582000D02*
X144676000Y-136874440D01*
X144909680Y-128970518D02*
X144909680Y-135508120D01*
X152219800Y-130358078D02*
X149505961Y-127644239D01*
X152219800Y-142095320D02*
X152219800Y-130358078D01*
X149505961Y-127644239D02*
X146235959Y-127644239D01*
X146235959Y-127644239D02*
X144909680Y-128970518D01*
X144909680Y-135508120D02*
X144909680Y-137108120D01*
X134239380Y-120548740D02*
X134389000Y-120698360D01*
X137510080Y-106549520D02*
X137310080Y-106549520D01*
X133570000Y-110625318D02*
X133570000Y-123250000D01*
X133570000Y-110285320D02*
X133570000Y-110625318D01*
X137305460Y-106549860D02*
X133570000Y-110285320D01*
X137505460Y-106549860D02*
X137305460Y-106549860D01*
X134389000Y-120132675D02*
X134389000Y-120698360D01*
X134389000Y-113441320D02*
X134389000Y-120132675D01*
X136255460Y-111574860D02*
X134389000Y-113441320D01*
X137505460Y-111574860D02*
X136255460Y-111574860D01*
X152275320Y-111580000D02*
X152255460Y-111599860D01*
X156120000Y-111580000D02*
X152275320Y-111580000D01*
X142110960Y-124469240D02*
X147870960Y-124469240D01*
X151314780Y-124469240D02*
X152285840Y-125440300D01*
X151249520Y-124244200D02*
X151024480Y-124469240D01*
X151249520Y-123941940D02*
X151249520Y-124244200D01*
X151024480Y-124469240D02*
X151314780Y-124469240D01*
X147870960Y-124469240D02*
X151024480Y-124469240D01*
X145630000Y-72590780D02*
X144985840Y-71946620D01*
X145630000Y-73990000D02*
X145630000Y-72590780D01*
X145630000Y-73399520D02*
X145630000Y-73990000D01*
X148803500Y-70226020D02*
X145630000Y-73399520D01*
X143784380Y-70198080D02*
X144035840Y-69946620D01*
X141145400Y-70198080D02*
X143784380Y-70198080D01*
X152425540Y-70468710D02*
X152425540Y-71384260D01*
X144760841Y-70721621D02*
X146595841Y-70721621D01*
X146595841Y-70721621D02*
X148116452Y-69201010D01*
X148116452Y-69201010D02*
X151157840Y-69201010D01*
X151157840Y-69201010D02*
X152425540Y-70468710D01*
X144035840Y-69996620D02*
X144760841Y-70721621D01*
X144035840Y-69946620D02*
X144035840Y-69996620D01*
X152879273Y-78035570D02*
X153521751Y-78035570D01*
X152423703Y-77580000D02*
X152879273Y-78035570D01*
X150982938Y-77580000D02*
X152423703Y-77580000D01*
X149251697Y-75848759D02*
X150982938Y-77580000D01*
X148962015Y-75848759D02*
X149251697Y-75848759D01*
X144955001Y-75164999D02*
X148278255Y-75164999D01*
X153521751Y-78035570D02*
X154046015Y-78035570D01*
X144330000Y-75790000D02*
X144955001Y-75164999D01*
X148278255Y-75164999D02*
X148962015Y-75848759D01*
X144330000Y-75990000D02*
X144330000Y-75790000D01*
X152879305Y-78530544D02*
X152236827Y-78530544D01*
X155106959Y-80758198D02*
X152879305Y-78530544D01*
X155961388Y-85757244D02*
X155961388Y-82836726D01*
X157011388Y-86172242D02*
X156376386Y-86172242D01*
X157136387Y-86847241D02*
X157136387Y-86297241D01*
X155106959Y-81982297D02*
X155106959Y-80758198D01*
X155961388Y-82836726D02*
X155106959Y-81982297D01*
X156376386Y-86172242D02*
X155961388Y-85757244D01*
X157136387Y-86297241D02*
X157011388Y-86172242D01*
X152236827Y-78530544D02*
X151712563Y-78530544D01*
X153090817Y-95263256D02*
X153090817Y-93601572D01*
X155961388Y-86393655D02*
X155136387Y-85568654D01*
X154920000Y-90832921D02*
X155309258Y-90443663D01*
X155309258Y-90443663D02*
X155309258Y-88059372D01*
X153090817Y-93601572D02*
X154920000Y-91772389D01*
X155309258Y-88059372D02*
X155961388Y-87407242D01*
X154920000Y-91772389D02*
X154920000Y-90832921D01*
X155961388Y-87407242D02*
X155961388Y-86393655D01*
X155136387Y-85568654D02*
X155136387Y-85547241D01*
X152595843Y-93454068D02*
X152595843Y-92929804D01*
X151952651Y-94739738D02*
X152595843Y-94096546D01*
X151032880Y-94739738D02*
X151952651Y-94739738D01*
X149277097Y-96495521D02*
X151032880Y-94739738D01*
X148987415Y-96495521D02*
X149277097Y-96495521D01*
X144954145Y-97593627D02*
X145369143Y-97178629D01*
X144954145Y-98228629D02*
X144954145Y-97593627D01*
X144829146Y-98353628D02*
X144954145Y-98228629D01*
X144279146Y-98353628D02*
X144829146Y-98353628D01*
X152595843Y-94096546D02*
X152595843Y-93454068D01*
X145369143Y-97178629D02*
X148304307Y-97178629D01*
X148304307Y-97178629D02*
X148987415Y-96495521D01*
X140740974Y-96503435D02*
X143043951Y-96503435D01*
X140387539Y-96150000D02*
X140740974Y-96503435D01*
X139366757Y-96150000D02*
X140387539Y-96150000D01*
X143719145Y-97178629D02*
X144732732Y-97178629D01*
X144732732Y-97178629D02*
X145557733Y-96353628D01*
X145557733Y-96353628D02*
X145579146Y-96353628D01*
X137524815Y-94308058D02*
X139366757Y-96150000D01*
X143043951Y-96503435D02*
X143719145Y-97178629D01*
X135863131Y-94308058D02*
X137524815Y-94308058D01*
X137672319Y-93813084D02*
X138196583Y-93813084D01*
X137029841Y-93813084D02*
X137672319Y-93813084D01*
X134887658Y-91670901D02*
X137029841Y-93813084D01*
X134887658Y-90358817D02*
X134887658Y-91670901D01*
X132772759Y-85496387D02*
X132772759Y-86046387D01*
X132897758Y-86171386D02*
X133532760Y-86171386D01*
X132772759Y-86046387D02*
X132897758Y-86171386D01*
X133947758Y-89418917D02*
X134887658Y-90358817D01*
X133947758Y-86586384D02*
X133947758Y-89418917D01*
X133532760Y-86171386D02*
X133947758Y-86586384D01*
X134772759Y-86774974D02*
X134772759Y-86796387D01*
X134680285Y-81897451D02*
X134680285Y-84203859D01*
X133947758Y-84936386D02*
X133947758Y-85949973D01*
X134680285Y-84203859D02*
X133947758Y-84936386D01*
X133947758Y-85949973D02*
X134772759Y-86774974D01*
X136832513Y-77093274D02*
X136832513Y-78754958D01*
X136832513Y-78754958D02*
X135570000Y-80017471D01*
X135570000Y-81007736D02*
X134680285Y-81897451D01*
X135570000Y-80017471D02*
X135570000Y-81007736D01*
D30*
G36*
X131646947Y-87220869D02*
G01*
X131683257Y-87340567D01*
X131742222Y-87450881D01*
X131821574Y-87547572D01*
X131887759Y-87601888D01*
X131887759Y-87639863D01*
X131887760Y-87639873D01*
X131887759Y-89570193D01*
X131883478Y-89613662D01*
X131887759Y-89657131D01*
X131887759Y-89657138D01*
X131892650Y-89706798D01*
X131900564Y-89787152D01*
X131909489Y-89816573D01*
X131951170Y-89953974D01*
X132033348Y-90107720D01*
X132143942Y-90242479D01*
X132177715Y-90270196D01*
X132724317Y-90816799D01*
X133034103Y-91564687D01*
X133034103Y-91656423D01*
X133034104Y-91656433D01*
X133034103Y-93664079D01*
X133029822Y-93707548D01*
X133034103Y-93751017D01*
X133034103Y-93751024D01*
X133043664Y-93848102D01*
X133046908Y-93881038D01*
X133050785Y-93893818D01*
X133097514Y-94047860D01*
X133179692Y-94201606D01*
X133290286Y-94336365D01*
X133324059Y-94364082D01*
X135206585Y-96246609D01*
X135234298Y-96280377D01*
X135268066Y-96308090D01*
X135268068Y-96308092D01*
X135278557Y-96316700D01*
X135369056Y-96390971D01*
X135522802Y-96473149D01*
X135689625Y-96523755D01*
X135819638Y-96536560D01*
X135819648Y-96536560D01*
X135863114Y-96540841D01*
X135906580Y-96536560D01*
X136314638Y-96536560D01*
X136358107Y-96540841D01*
X136401576Y-96536560D01*
X136401584Y-96536560D01*
X136531597Y-96523755D01*
X136698420Y-96473149D01*
X136749397Y-96445902D01*
X138156529Y-97853035D01*
X138184242Y-97886803D01*
X138218010Y-97914516D01*
X138218012Y-97914518D01*
X138251872Y-97942306D01*
X138319000Y-97997397D01*
X138472746Y-98079575D01*
X138588962Y-98114829D01*
X138639568Y-98130181D01*
X138652301Y-98131435D01*
X138769582Y-98142986D01*
X138769590Y-98142986D01*
X138813059Y-98147267D01*
X138856528Y-98142986D01*
X139606867Y-98142986D01*
X140352575Y-98459520D01*
X140409308Y-98516253D01*
X140409313Y-98516257D01*
X141563264Y-99670209D01*
X141563263Y-108137289D01*
X141545097Y-108110101D01*
X141345219Y-107910223D01*
X141110187Y-107753180D01*
X140849034Y-107645007D01*
X140571795Y-107589860D01*
X140289125Y-107589860D01*
X140011886Y-107645007D01*
X139750733Y-107753180D01*
X139515701Y-107910223D01*
X139315823Y-108110101D01*
X139158780Y-108345133D01*
X139142883Y-108383512D01*
X139143532Y-108274860D01*
X139131272Y-108150378D01*
X139094962Y-108030680D01*
X139035997Y-107920366D01*
X138956645Y-107823675D01*
X138942858Y-107812360D01*
X138956645Y-107801045D01*
X139035997Y-107704354D01*
X139094962Y-107594040D01*
X139131272Y-107474342D01*
X139143532Y-107349860D01*
X139143532Y-105749860D01*
X139131272Y-105625378D01*
X139094962Y-105505680D01*
X139035997Y-105395366D01*
X139017765Y-105373150D01*
X139019962Y-105369040D01*
X139056272Y-105249342D01*
X139068532Y-105124860D01*
X139068532Y-103124860D01*
X139056272Y-103000378D01*
X139019962Y-102880680D01*
X138960997Y-102770366D01*
X138881645Y-102673675D01*
X138784954Y-102594323D01*
X138674640Y-102535358D01*
X138554942Y-102499048D01*
X138430460Y-102486788D01*
X135930460Y-102486788D01*
X135805978Y-102499048D01*
X135686280Y-102535358D01*
X135575966Y-102594323D01*
X135479275Y-102673675D01*
X135399923Y-102770366D01*
X135340958Y-102880680D01*
X135304648Y-103000378D01*
X135292388Y-103124860D01*
X135292388Y-105124860D01*
X135304648Y-105249342D01*
X135340958Y-105369040D01*
X135399923Y-105479354D01*
X135479275Y-105576045D01*
X135575966Y-105655397D01*
X135686280Y-105714362D01*
X135805978Y-105750672D01*
X135867388Y-105756720D01*
X135867388Y-106913130D01*
X133059003Y-109721516D01*
X133029999Y-109745319D01*
X132993888Y-109789321D01*
X132935026Y-109861044D01*
X132865913Y-109990344D01*
X132864454Y-109993074D01*
X132820997Y-110136335D01*
X132810000Y-110247988D01*
X132810000Y-110247998D01*
X132806324Y-110285320D01*
X132810000Y-110322642D01*
X132810000Y-110587986D01*
X132810001Y-122546288D01*
X132766063Y-122590226D01*
X132652795Y-122759744D01*
X132574774Y-122948102D01*
X132535000Y-123148061D01*
X132535000Y-123351939D01*
X132574774Y-123551898D01*
X132652795Y-123740256D01*
X132766063Y-123909774D01*
X132910226Y-124053937D01*
X133079744Y-124167205D01*
X133268102Y-124245226D01*
X133468061Y-124285000D01*
X133671939Y-124285000D01*
X133871898Y-124245226D01*
X134060256Y-124167205D01*
X134229774Y-124053937D01*
X134373937Y-123909774D01*
X134487205Y-123740256D01*
X134565226Y-123551898D01*
X134605000Y-123351939D01*
X134605000Y-123148061D01*
X134565226Y-122948102D01*
X134487205Y-122759744D01*
X134373937Y-122590226D01*
X134330000Y-122546289D01*
X134330000Y-121733360D01*
X134490939Y-121733360D01*
X134690898Y-121693586D01*
X134879256Y-121615565D01*
X135048774Y-121502297D01*
X135192937Y-121358134D01*
X135306205Y-121188616D01*
X135384226Y-121000258D01*
X135424000Y-120800299D01*
X135424000Y-120596421D01*
X135384226Y-120396462D01*
X135306205Y-120208104D01*
X135192937Y-120038586D01*
X135149000Y-119994649D01*
X135149000Y-113756121D01*
X135292388Y-113612733D01*
X135292388Y-114999860D01*
X135304648Y-115124342D01*
X135340958Y-115244040D01*
X135399923Y-115354354D01*
X135479275Y-115451045D01*
X135575966Y-115530397D01*
X135686280Y-115589362D01*
X135805978Y-115625672D01*
X135930460Y-115637932D01*
X138294232Y-115637932D01*
X138192795Y-115789744D01*
X138114774Y-115978102D01*
X138075000Y-116178061D01*
X138075000Y-116381939D01*
X138114774Y-116581898D01*
X138192795Y-116770256D01*
X138306063Y-116939774D01*
X138450226Y-117083937D01*
X138619744Y-117197205D01*
X138808102Y-117275226D01*
X139008061Y-117315000D01*
X139211939Y-117315000D01*
X139411898Y-117275226D01*
X139600256Y-117197205D01*
X139650959Y-117163326D01*
X139650960Y-133472066D01*
X139647283Y-133509399D01*
X139650960Y-133546732D01*
X139661957Y-133658385D01*
X139675139Y-133701841D01*
X139705413Y-133801645D01*
X139775985Y-133933675D01*
X139847160Y-134020401D01*
X139870959Y-134049400D01*
X139899957Y-134073198D01*
X141202240Y-135375482D01*
X141179143Y-135403626D01*
X141120178Y-135513940D01*
X141083868Y-135633638D01*
X141071608Y-135758120D01*
X141071608Y-138458120D01*
X141083868Y-138582602D01*
X141120178Y-138702300D01*
X141179143Y-138812614D01*
X141258495Y-138909305D01*
X141355186Y-138988657D01*
X141465500Y-139047622D01*
X141585198Y-139083932D01*
X141649681Y-139090283D01*
X141649680Y-140925957D01*
X141585198Y-140932308D01*
X141465500Y-140968618D01*
X141355186Y-141027583D01*
X141258495Y-141106935D01*
X141179143Y-141203626D01*
X141120178Y-141313940D01*
X141083868Y-141433638D01*
X141071608Y-141558120D01*
X141071608Y-142063789D01*
X141010256Y-142022795D01*
X140821898Y-141944774D01*
X140621939Y-141905000D01*
X140418061Y-141905000D01*
X140218102Y-141944774D01*
X140029744Y-142022795D01*
X139860226Y-142136063D01*
X139716063Y-142280226D01*
X139602795Y-142449744D01*
X139524774Y-142638102D01*
X139485000Y-142838061D01*
X139485000Y-143041939D01*
X139524774Y-143241898D01*
X139602795Y-143430256D01*
X139716063Y-143599774D01*
X139860226Y-143743937D01*
X140029744Y-143857205D01*
X140218102Y-143935226D01*
X140418061Y-143975000D01*
X140621939Y-143975000D01*
X140821898Y-143935226D01*
X141010256Y-143857205D01*
X141071608Y-143816211D01*
X141071608Y-144258120D01*
X141083868Y-144382602D01*
X141120178Y-144502300D01*
X141179143Y-144612614D01*
X141258495Y-144709305D01*
X141355186Y-144788657D01*
X141465500Y-144847622D01*
X141585198Y-144883932D01*
X141709680Y-144896192D01*
X143109680Y-144896192D01*
X143234162Y-144883932D01*
X143353860Y-144847622D01*
X143464174Y-144788657D01*
X143560865Y-144709305D01*
X143640217Y-144612614D01*
X143659680Y-144576202D01*
X143679143Y-144612614D01*
X143758495Y-144709305D01*
X143855186Y-144788657D01*
X143965500Y-144847622D01*
X144085198Y-144883932D01*
X144209680Y-144896192D01*
X145609680Y-144896192D01*
X145734162Y-144883932D01*
X145853860Y-144847622D01*
X145964174Y-144788657D01*
X146060865Y-144709305D01*
X146140217Y-144612614D01*
X146159680Y-144576202D01*
X146179143Y-144612614D01*
X146258495Y-144709305D01*
X146355186Y-144788657D01*
X146465500Y-144847622D01*
X146585198Y-144883932D01*
X146709680Y-144896192D01*
X147123930Y-144893120D01*
X147282680Y-144734370D01*
X147282680Y-143035120D01*
X147536680Y-143035120D01*
X147536680Y-144734370D01*
X147695430Y-144893120D01*
X148109680Y-144896192D01*
X148234162Y-144883932D01*
X148353860Y-144847622D01*
X148464174Y-144788657D01*
X148560865Y-144709305D01*
X148640217Y-144612614D01*
X148699182Y-144502300D01*
X148712674Y-144457820D01*
X150881728Y-144457820D01*
X150893988Y-144582302D01*
X150930298Y-144702000D01*
X150989263Y-144812314D01*
X151068615Y-144909005D01*
X151165306Y-144988357D01*
X151275620Y-145047322D01*
X151395318Y-145083632D01*
X151519800Y-145095892D01*
X151934050Y-145092820D01*
X152092800Y-144934070D01*
X152092800Y-144097320D01*
X152346800Y-144097320D01*
X152346800Y-144934070D01*
X152505550Y-145092820D01*
X152919800Y-145095892D01*
X153044282Y-145083632D01*
X153163980Y-145047322D01*
X153274294Y-144988357D01*
X153370985Y-144909005D01*
X153450337Y-144812314D01*
X153509302Y-144702000D01*
X153545612Y-144582302D01*
X153557872Y-144457820D01*
X153554800Y-144256070D01*
X153396050Y-144097320D01*
X152346800Y-144097320D01*
X152092800Y-144097320D01*
X151043550Y-144097320D01*
X150884800Y-144256070D01*
X150881728Y-144457820D01*
X148712674Y-144457820D01*
X148735492Y-144382602D01*
X148747752Y-144258120D01*
X148744680Y-143193870D01*
X148585930Y-143035120D01*
X147536680Y-143035120D01*
X147282680Y-143035120D01*
X147262680Y-143035120D01*
X147262680Y-142781120D01*
X147282680Y-142781120D01*
X147282680Y-141081870D01*
X147536680Y-141081870D01*
X147536680Y-142781120D01*
X148585930Y-142781120D01*
X148744680Y-142622370D01*
X148747752Y-141558120D01*
X148735492Y-141433638D01*
X148699182Y-141313940D01*
X148640217Y-141203626D01*
X148560865Y-141106935D01*
X148464174Y-141027583D01*
X148353860Y-140968618D01*
X148234162Y-140932308D01*
X148109680Y-140920048D01*
X147695430Y-140923120D01*
X147536680Y-141081870D01*
X147282680Y-141081870D01*
X147123930Y-140923120D01*
X146709680Y-140920048D01*
X146585198Y-140932308D01*
X146465500Y-140968618D01*
X146355186Y-141027583D01*
X146258495Y-141106935D01*
X146179143Y-141203626D01*
X146159680Y-141240038D01*
X146140217Y-141203626D01*
X146060865Y-141106935D01*
X145964174Y-141027583D01*
X145853860Y-140968618D01*
X145734162Y-140932308D01*
X145669680Y-140925957D01*
X145669680Y-139090283D01*
X145734162Y-139083932D01*
X145853860Y-139047622D01*
X145964174Y-138988657D01*
X146060865Y-138909305D01*
X146140217Y-138812614D01*
X146159680Y-138776202D01*
X146179143Y-138812614D01*
X146258495Y-138909305D01*
X146355186Y-138988657D01*
X146465500Y-139047622D01*
X146585198Y-139083932D01*
X146709680Y-139096192D01*
X147123930Y-139093120D01*
X147282680Y-138934370D01*
X147282680Y-137235120D01*
X147536680Y-137235120D01*
X147536680Y-138934370D01*
X147695430Y-139093120D01*
X148109680Y-139096192D01*
X148234162Y-139083932D01*
X148353860Y-139047622D01*
X148464174Y-138988657D01*
X148560865Y-138909305D01*
X148640217Y-138812614D01*
X148699182Y-138702300D01*
X148735492Y-138582602D01*
X148747752Y-138458120D01*
X148744680Y-137393870D01*
X148585930Y-137235120D01*
X147536680Y-137235120D01*
X147282680Y-137235120D01*
X147262680Y-137235120D01*
X147262680Y-136981120D01*
X147282680Y-136981120D01*
X147282680Y-135281870D01*
X147536680Y-135281870D01*
X147536680Y-136981120D01*
X148585930Y-136981120D01*
X148744680Y-136822370D01*
X148747752Y-135758120D01*
X148735492Y-135633638D01*
X148699182Y-135513940D01*
X148640217Y-135403626D01*
X148560865Y-135306935D01*
X148464174Y-135227583D01*
X148353860Y-135168618D01*
X148234162Y-135132308D01*
X148109680Y-135120048D01*
X147695430Y-135123120D01*
X147536680Y-135281870D01*
X147282680Y-135281870D01*
X147123930Y-135123120D01*
X146709680Y-135120048D01*
X146585198Y-135132308D01*
X146465500Y-135168618D01*
X146355186Y-135227583D01*
X146258495Y-135306935D01*
X146179143Y-135403626D01*
X146159680Y-135440038D01*
X146140217Y-135403626D01*
X146060865Y-135306935D01*
X145964174Y-135227583D01*
X145853860Y-135168618D01*
X145734162Y-135132308D01*
X145669680Y-135125957D01*
X145669680Y-134887630D01*
X145671226Y-134883898D01*
X145711000Y-134683939D01*
X145711000Y-134480061D01*
X145671226Y-134280102D01*
X145669680Y-134276370D01*
X145669680Y-129285319D01*
X145869353Y-129085647D01*
X145870148Y-129093722D01*
X145906458Y-129213420D01*
X145965423Y-129323734D01*
X146044775Y-129420425D01*
X146141466Y-129499777D01*
X146251780Y-129558742D01*
X146371478Y-129595052D01*
X146495960Y-129607312D01*
X147585210Y-129604240D01*
X147743960Y-129445490D01*
X147743960Y-128596240D01*
X147723960Y-128596240D01*
X147723960Y-128404239D01*
X148017960Y-128404239D01*
X148017960Y-128596240D01*
X147997960Y-128596240D01*
X147997960Y-129445490D01*
X148156710Y-129604240D01*
X149245960Y-129607312D01*
X149370442Y-129595052D01*
X149490140Y-129558742D01*
X149600454Y-129499777D01*
X149697145Y-129420425D01*
X149776497Y-129323734D01*
X149835462Y-129213420D01*
X149871772Y-129093722D01*
X149872567Y-129085647D01*
X151459801Y-130672881D01*
X151459800Y-141026647D01*
X151426091Y-141036873D01*
X151273636Y-141118362D01*
X151140008Y-141228028D01*
X151030342Y-141361656D01*
X150948853Y-141514111D01*
X150898672Y-141679535D01*
X150881728Y-141851570D01*
X150881728Y-142339070D01*
X150898672Y-142511105D01*
X150948853Y-142676529D01*
X151030342Y-142828984D01*
X151140008Y-142962612D01*
X151146364Y-142967828D01*
X151068615Y-143031635D01*
X150989263Y-143128326D01*
X150930298Y-143238640D01*
X150893988Y-143358338D01*
X150881728Y-143482820D01*
X150884800Y-143684570D01*
X151043550Y-143843320D01*
X152092800Y-143843320D01*
X152092800Y-143823320D01*
X152346800Y-143823320D01*
X152346800Y-143843320D01*
X153396050Y-143843320D01*
X153554800Y-143684570D01*
X153557872Y-143482820D01*
X153545612Y-143358338D01*
X153509302Y-143238640D01*
X153450337Y-143128326D01*
X153370985Y-143031635D01*
X153293236Y-142967828D01*
X153299592Y-142962612D01*
X153409258Y-142828984D01*
X153490747Y-142676529D01*
X153540928Y-142511105D01*
X153557872Y-142339070D01*
X153557872Y-141851570D01*
X153540928Y-141679535D01*
X153490747Y-141514111D01*
X153409258Y-141361656D01*
X153299592Y-141228028D01*
X153165964Y-141118362D01*
X153013509Y-141036873D01*
X152979800Y-141026647D01*
X152979800Y-130395401D01*
X152983476Y-130358078D01*
X152979800Y-130320755D01*
X152979800Y-130320745D01*
X152968803Y-130209092D01*
X152925346Y-130065831D01*
X152854774Y-129933801D01*
X152783599Y-129847075D01*
X152759801Y-129818077D01*
X152730803Y-129794279D01*
X150069765Y-127133242D01*
X150045962Y-127104238D01*
X149930237Y-127009265D01*
X149798208Y-126938693D01*
X149654947Y-126895236D01*
X149543294Y-126884239D01*
X149543283Y-126884239D01*
X149505961Y-126880563D01*
X149468639Y-126884239D01*
X146273284Y-126884239D01*
X146235959Y-126880563D01*
X146198634Y-126884239D01*
X146198626Y-126884239D01*
X146086973Y-126895236D01*
X145943712Y-126938693D01*
X145811683Y-127009265D01*
X145695958Y-127104238D01*
X145672160Y-127133236D01*
X144398683Y-128406714D01*
X144369679Y-128430517D01*
X144314551Y-128497692D01*
X144274706Y-128546242D01*
X144204135Y-128678271D01*
X144204134Y-128678272D01*
X144160677Y-128821533D01*
X144149680Y-128933186D01*
X144149680Y-128933196D01*
X144146004Y-128970518D01*
X144149680Y-129007841D01*
X144149681Y-133688892D01*
X144016226Y-133778063D01*
X143872063Y-133922226D01*
X143758795Y-134091744D01*
X143680774Y-134280102D01*
X143641000Y-134480061D01*
X143641000Y-134683939D01*
X143680774Y-134883898D01*
X143758795Y-135072256D01*
X143860635Y-135224670D01*
X143855186Y-135227583D01*
X143758495Y-135306935D01*
X143679143Y-135403626D01*
X143659680Y-135440038D01*
X143640217Y-135403626D01*
X143560865Y-135306935D01*
X143464174Y-135227583D01*
X143353860Y-135168618D01*
X143234162Y-135132308D01*
X143109680Y-135120048D01*
X143064006Y-135120048D01*
X143044654Y-135083844D01*
X142949681Y-134968119D01*
X142920684Y-134944322D01*
X141170959Y-133194598D01*
X141170959Y-129606085D01*
X141825210Y-129604240D01*
X141983960Y-129445490D01*
X141983960Y-128596240D01*
X142237960Y-128596240D01*
X142237960Y-129445490D01*
X142396710Y-129604240D01*
X143485960Y-129607312D01*
X143610442Y-129595052D01*
X143730140Y-129558742D01*
X143840454Y-129499777D01*
X143937145Y-129420425D01*
X144016497Y-129323734D01*
X144075462Y-129213420D01*
X144111772Y-129093722D01*
X144124032Y-128969240D01*
X144120960Y-128754990D01*
X143962210Y-128596240D01*
X142237960Y-128596240D01*
X141983960Y-128596240D01*
X141963960Y-128596240D01*
X141963960Y-128342240D01*
X141983960Y-128342240D01*
X141983960Y-127492990D01*
X142237960Y-127492990D01*
X142237960Y-128342240D01*
X143962210Y-128342240D01*
X144120960Y-128183490D01*
X144124032Y-127969240D01*
X144111772Y-127844758D01*
X144075462Y-127725060D01*
X144016497Y-127614746D01*
X143937145Y-127518055D01*
X143840454Y-127438703D01*
X143730140Y-127379738D01*
X143610442Y-127343428D01*
X143485960Y-127331168D01*
X142396710Y-127334240D01*
X142237960Y-127492990D01*
X141983960Y-127492990D01*
X141825210Y-127334240D01*
X141170959Y-127332395D01*
X141170959Y-125607312D01*
X143485960Y-125607312D01*
X143610442Y-125595052D01*
X143730140Y-125558742D01*
X143840454Y-125499777D01*
X143937145Y-125420425D01*
X144016497Y-125323734D01*
X144067006Y-125229240D01*
X145914914Y-125229240D01*
X145965423Y-125323734D01*
X146044775Y-125420425D01*
X146141466Y-125499777D01*
X146251780Y-125558742D01*
X146371478Y-125595052D01*
X146495960Y-125607312D01*
X149245960Y-125607312D01*
X149370442Y-125595052D01*
X149490140Y-125558742D01*
X149600454Y-125499777D01*
X149697145Y-125420425D01*
X149776497Y-125323734D01*
X149827006Y-125229240D01*
X150987158Y-125229240D01*
X151001380Y-125230641D01*
X151774837Y-126004099D01*
X151861563Y-126075273D01*
X151993593Y-126145846D01*
X152136853Y-126189302D01*
X152285839Y-126203976D01*
X152434825Y-126189302D01*
X152578086Y-126145846D01*
X152710115Y-126075273D01*
X152825841Y-125980301D01*
X152920813Y-125864575D01*
X152991386Y-125732546D01*
X153034842Y-125589285D01*
X153049516Y-125440299D01*
X153034842Y-125291313D01*
X152991386Y-125148053D01*
X152920813Y-125016023D01*
X152849639Y-124929297D01*
X152221148Y-124300807D01*
X152244746Y-124243838D01*
X152284520Y-124043879D01*
X152284520Y-123840001D01*
X152244746Y-123640042D01*
X152166725Y-123451684D01*
X152053457Y-123282166D01*
X151909294Y-123138003D01*
X151739776Y-123024735D01*
X151551418Y-122946714D01*
X151351459Y-122906940D01*
X151147581Y-122906940D01*
X150947622Y-122946714D01*
X150759264Y-123024735D01*
X150589746Y-123138003D01*
X150445583Y-123282166D01*
X150332315Y-123451684D01*
X150254294Y-123640042D01*
X150240530Y-123709240D01*
X149827006Y-123709240D01*
X149776497Y-123614746D01*
X149697145Y-123518055D01*
X149600454Y-123438703D01*
X149490140Y-123379738D01*
X149370442Y-123343428D01*
X149245960Y-123331168D01*
X146495960Y-123331168D01*
X146371478Y-123343428D01*
X146251780Y-123379738D01*
X146141466Y-123438703D01*
X146044775Y-123518055D01*
X145965423Y-123614746D01*
X145914914Y-123709240D01*
X144067006Y-123709240D01*
X144016497Y-123614746D01*
X143937145Y-123518055D01*
X143840454Y-123438703D01*
X143730140Y-123379738D01*
X143610442Y-123343428D01*
X143485960Y-123331168D01*
X141170959Y-123331168D01*
X141170959Y-116824160D01*
X142642388Y-115352731D01*
X142642388Y-117224860D01*
X142654648Y-117349342D01*
X142690958Y-117469040D01*
X142749923Y-117579354D01*
X142829275Y-117676045D01*
X142925966Y-117755397D01*
X143036280Y-117814362D01*
X143155978Y-117850672D01*
X143280460Y-117862932D01*
X146780460Y-117862932D01*
X146904942Y-117850672D01*
X147024640Y-117814362D01*
X147134954Y-117755397D01*
X147231645Y-117676045D01*
X147310997Y-117579354D01*
X147369962Y-117469040D01*
X147406272Y-117349342D01*
X147418532Y-117224860D01*
X147418532Y-114224860D01*
X147406272Y-114100378D01*
X147369962Y-113980680D01*
X147310997Y-113870366D01*
X147231645Y-113773675D01*
X147134954Y-113694323D01*
X147024640Y-113635358D01*
X146904942Y-113599048D01*
X146780460Y-113586788D01*
X144408331Y-113586788D01*
X147195259Y-110799860D01*
X150617388Y-110799860D01*
X150617388Y-112399860D01*
X150629648Y-112524342D01*
X150665958Y-112644040D01*
X150724923Y-112754354D01*
X150804275Y-112851045D01*
X150900966Y-112930397D01*
X150996654Y-112981544D01*
X150992388Y-113024860D01*
X150992388Y-115024860D01*
X151004648Y-115149342D01*
X151040958Y-115269040D01*
X151099923Y-115379354D01*
X151179275Y-115476045D01*
X151275966Y-115555397D01*
X151386280Y-115614362D01*
X151505978Y-115650672D01*
X151630460Y-115662932D01*
X154130460Y-115662932D01*
X154254942Y-115650672D01*
X154374640Y-115614362D01*
X154484954Y-115555397D01*
X154581645Y-115476045D01*
X154660997Y-115379354D01*
X154719962Y-115269040D01*
X154756272Y-115149342D01*
X154768532Y-115024860D01*
X154768532Y-113024860D01*
X154756272Y-112900378D01*
X154719962Y-112780680D01*
X154660997Y-112670366D01*
X154581645Y-112573675D01*
X154484954Y-112494323D01*
X154374640Y-112435358D01*
X154254942Y-112399048D01*
X154130460Y-112386788D01*
X153893532Y-112386788D01*
X153893532Y-112340000D01*
X155416289Y-112340000D01*
X155460226Y-112383937D01*
X155629744Y-112497205D01*
X155818102Y-112575226D01*
X156018061Y-112615000D01*
X156221939Y-112615000D01*
X156421898Y-112575226D01*
X156610256Y-112497205D01*
X156779774Y-112383937D01*
X156923937Y-112239774D01*
X157037205Y-112070256D01*
X157115226Y-111881898D01*
X157155000Y-111681939D01*
X157155000Y-111478061D01*
X157115226Y-111278102D01*
X157037205Y-111089744D01*
X156923937Y-110920226D01*
X156779774Y-110776063D01*
X156610256Y-110662795D01*
X156421898Y-110584774D01*
X156221939Y-110545000D01*
X156018061Y-110545000D01*
X155818102Y-110584774D01*
X155629744Y-110662795D01*
X155460226Y-110776063D01*
X155416289Y-110820000D01*
X153893532Y-110820000D01*
X153893532Y-110799860D01*
X153881272Y-110675378D01*
X153844962Y-110555680D01*
X153785997Y-110445366D01*
X153706645Y-110348675D01*
X153609954Y-110269323D01*
X153499640Y-110210358D01*
X153379942Y-110174048D01*
X153255460Y-110161788D01*
X151255460Y-110161788D01*
X151130978Y-110174048D01*
X151011280Y-110210358D01*
X150900966Y-110269323D01*
X150804275Y-110348675D01*
X150724923Y-110445366D01*
X150665958Y-110555680D01*
X150629648Y-110675378D01*
X150617388Y-110799860D01*
X147195259Y-110799860D01*
X148391003Y-109604117D01*
X148420001Y-109580319D01*
X148446332Y-109548235D01*
X148514974Y-109464595D01*
X148585546Y-109332565D01*
X148625194Y-109201860D01*
X148629003Y-109189304D01*
X148640000Y-109077651D01*
X148640000Y-109077642D01*
X148643676Y-109040319D01*
X148640000Y-109002996D01*
X148640000Y-107399860D01*
X150617388Y-107399860D01*
X150629648Y-107524342D01*
X150665958Y-107644040D01*
X150724923Y-107754354D01*
X150804275Y-107851045D01*
X150900966Y-107930397D01*
X151011280Y-107989362D01*
X151130978Y-108025672D01*
X151255460Y-108037932D01*
X151969710Y-108034860D01*
X152128460Y-107876110D01*
X152128460Y-106726860D01*
X152382460Y-106726860D01*
X152382460Y-107876110D01*
X152541210Y-108034860D01*
X153255460Y-108037932D01*
X153379942Y-108025672D01*
X153499640Y-107989362D01*
X153609954Y-107930397D01*
X153706645Y-107851045D01*
X153785997Y-107754354D01*
X153844962Y-107644040D01*
X153881272Y-107524342D01*
X153893532Y-107399860D01*
X153890460Y-106885610D01*
X153731710Y-106726860D01*
X152382460Y-106726860D01*
X152128460Y-106726860D01*
X150779210Y-106726860D01*
X150620460Y-106885610D01*
X150617388Y-107399860D01*
X148640000Y-107399860D01*
X148640000Y-105799860D01*
X150617388Y-105799860D01*
X150620460Y-106314110D01*
X150779210Y-106472860D01*
X152128460Y-106472860D01*
X152128460Y-106452860D01*
X152382460Y-106452860D01*
X152382460Y-106472860D01*
X153731710Y-106472860D01*
X153890460Y-106314110D01*
X153893532Y-105799860D01*
X153889895Y-105762932D01*
X154130460Y-105762932D01*
X154254942Y-105750672D01*
X154374640Y-105714362D01*
X154484954Y-105655397D01*
X154581645Y-105576045D01*
X154660997Y-105479354D01*
X154719962Y-105369040D01*
X154756272Y-105249342D01*
X154768532Y-105124860D01*
X154768532Y-103124860D01*
X154756272Y-103000378D01*
X154719962Y-102880680D01*
X154660997Y-102770366D01*
X154581645Y-102673675D01*
X154484954Y-102594323D01*
X154374640Y-102535358D01*
X154254942Y-102499048D01*
X154130460Y-102486788D01*
X151630460Y-102486788D01*
X151505978Y-102499048D01*
X151386280Y-102535358D01*
X151275966Y-102594323D01*
X151179275Y-102673675D01*
X151099923Y-102770366D01*
X151040958Y-102880680D01*
X151004648Y-103000378D01*
X150992388Y-103124860D01*
X150992388Y-105124860D01*
X151001332Y-105215675D01*
X150900966Y-105269323D01*
X150804275Y-105348675D01*
X150724923Y-105445366D01*
X150665958Y-105555680D01*
X150629648Y-105675378D01*
X150617388Y-105799860D01*
X148640000Y-105799860D01*
X148640000Y-101393711D01*
X148683937Y-101349774D01*
X148797205Y-101180256D01*
X148875226Y-100991898D01*
X148915000Y-100791939D01*
X148915000Y-100588061D01*
X148875226Y-100388102D01*
X148797205Y-100199744D01*
X148683937Y-100030226D01*
X148539774Y-99886063D01*
X148370256Y-99772795D01*
X148181898Y-99694774D01*
X147981939Y-99655000D01*
X147778061Y-99655000D01*
X147578102Y-99694774D01*
X147389744Y-99772795D01*
X147220226Y-99886063D01*
X147076063Y-100030226D01*
X146962795Y-100199744D01*
X146919795Y-100303554D01*
X146904942Y-100299048D01*
X146780460Y-100286788D01*
X143333263Y-100286788D01*
X143333263Y-100188629D01*
X144785676Y-100188629D01*
X144829145Y-100192910D01*
X144872614Y-100188629D01*
X144872622Y-100188629D01*
X145002635Y-100175824D01*
X145169458Y-100125218D01*
X145323204Y-100043040D01*
X145457962Y-99932446D01*
X145485679Y-99898673D01*
X145894128Y-99490224D01*
X146003628Y-99479440D01*
X146123326Y-99443130D01*
X146233640Y-99384165D01*
X146330331Y-99304813D01*
X146384647Y-99238628D01*
X148455583Y-99238628D01*
X148499052Y-99242909D01*
X148542521Y-99238628D01*
X148542529Y-99238628D01*
X148672542Y-99225823D01*
X148839365Y-99175217D01*
X148993111Y-99093039D01*
X149127869Y-98982445D01*
X149155586Y-98948672D01*
X149650233Y-98454026D01*
X150398121Y-98144240D01*
X152394882Y-98144240D01*
X152438351Y-98148521D01*
X152481820Y-98144240D01*
X152481828Y-98144240D01*
X152611841Y-98131435D01*
X152778664Y-98080829D01*
X152932410Y-97998651D01*
X153067168Y-97888057D01*
X153094885Y-97854284D01*
X155029368Y-95919802D01*
X155063136Y-95892089D01*
X155091315Y-95857754D01*
X155173729Y-95757332D01*
X155175279Y-95754433D01*
X155255908Y-95603585D01*
X155306514Y-95436762D01*
X155319319Y-95306749D01*
X155319319Y-95306739D01*
X155323600Y-95263273D01*
X155319319Y-95219806D01*
X155319319Y-94811745D01*
X155323600Y-94768279D01*
X155319319Y-94724813D01*
X155319319Y-94724803D01*
X155306514Y-94594790D01*
X155255908Y-94427967D01*
X155228661Y-94376990D01*
X156668026Y-92937626D01*
X156701794Y-92909913D01*
X156748856Y-92852569D01*
X156812388Y-92775155D01*
X156857695Y-92690391D01*
X156894566Y-92621409D01*
X156945172Y-92454586D01*
X156957977Y-92324573D01*
X156957977Y-92324565D01*
X156962258Y-92281096D01*
X156957977Y-92237627D01*
X156957977Y-91564687D01*
X157267763Y-90816799D01*
X157332629Y-90751933D01*
X157332633Y-90751928D01*
X158275001Y-89809561D01*
X158275000Y-146515354D01*
X158131759Y-146263204D01*
X157837813Y-145922664D01*
X157483321Y-145645704D01*
X157081785Y-145442874D01*
X156648499Y-145321898D01*
X156199968Y-145287386D01*
X155753275Y-145340650D01*
X155325435Y-145479664D01*
X154932745Y-145699131D01*
X154590162Y-145990692D01*
X154310734Y-146343243D01*
X154105105Y-146743353D01*
X153981108Y-147175783D01*
X153943465Y-147624063D01*
X153993610Y-148071116D01*
X154129633Y-148499916D01*
X154346353Y-148894129D01*
X154635516Y-149238740D01*
X154986107Y-149520622D01*
X155224020Y-149645000D01*
X134721302Y-149645000D01*
X135012460Y-149487572D01*
X135359081Y-149200822D01*
X135643403Y-148852208D01*
X135854599Y-148455007D01*
X135984622Y-148024350D01*
X136028520Y-147576640D01*
X136027621Y-147512281D01*
X135971239Y-147065971D01*
X135829242Y-146639112D01*
X135607039Y-146247964D01*
X135313093Y-145907424D01*
X134958601Y-145630464D01*
X134557065Y-145427634D01*
X134123779Y-145306658D01*
X133675248Y-145272146D01*
X133228555Y-145325410D01*
X132800715Y-145464424D01*
X132408025Y-145683891D01*
X132065442Y-145975452D01*
X131786014Y-146328003D01*
X131645000Y-146602386D01*
X131645000Y-87201100D01*
X131646947Y-87220869D01*
X131646947Y-87220869D01*
G37*
X131646947Y-87220869D02*
X131683257Y-87340567D01*
X131742222Y-87450881D01*
X131821574Y-87547572D01*
X131887759Y-87601888D01*
X131887759Y-87639863D01*
X131887760Y-87639873D01*
X131887759Y-89570193D01*
X131883478Y-89613662D01*
X131887759Y-89657131D01*
X131887759Y-89657138D01*
X131892650Y-89706798D01*
X131900564Y-89787152D01*
X131909489Y-89816573D01*
X131951170Y-89953974D01*
X132033348Y-90107720D01*
X132143942Y-90242479D01*
X132177715Y-90270196D01*
X132724317Y-90816799D01*
X133034103Y-91564687D01*
X133034103Y-91656423D01*
X133034104Y-91656433D01*
X133034103Y-93664079D01*
X133029822Y-93707548D01*
X133034103Y-93751017D01*
X133034103Y-93751024D01*
X133043664Y-93848102D01*
X133046908Y-93881038D01*
X133050785Y-93893818D01*
X133097514Y-94047860D01*
X133179692Y-94201606D01*
X133290286Y-94336365D01*
X133324059Y-94364082D01*
X135206585Y-96246609D01*
X135234298Y-96280377D01*
X135268066Y-96308090D01*
X135268068Y-96308092D01*
X135278557Y-96316700D01*
X135369056Y-96390971D01*
X135522802Y-96473149D01*
X135689625Y-96523755D01*
X135819638Y-96536560D01*
X135819648Y-96536560D01*
X135863114Y-96540841D01*
X135906580Y-96536560D01*
X136314638Y-96536560D01*
X136358107Y-96540841D01*
X136401576Y-96536560D01*
X136401584Y-96536560D01*
X136531597Y-96523755D01*
X136698420Y-96473149D01*
X136749397Y-96445902D01*
X138156529Y-97853035D01*
X138184242Y-97886803D01*
X138218010Y-97914516D01*
X138218012Y-97914518D01*
X138251872Y-97942306D01*
X138319000Y-97997397D01*
X138472746Y-98079575D01*
X138588962Y-98114829D01*
X138639568Y-98130181D01*
X138652301Y-98131435D01*
X138769582Y-98142986D01*
X138769590Y-98142986D01*
X138813059Y-98147267D01*
X138856528Y-98142986D01*
X139606867Y-98142986D01*
X140352575Y-98459520D01*
X140409308Y-98516253D01*
X140409313Y-98516257D01*
X141563264Y-99670209D01*
X141563263Y-108137289D01*
X141545097Y-108110101D01*
X141345219Y-107910223D01*
X141110187Y-107753180D01*
X140849034Y-107645007D01*
X140571795Y-107589860D01*
X140289125Y-107589860D01*
X140011886Y-107645007D01*
X139750733Y-107753180D01*
X139515701Y-107910223D01*
X139315823Y-108110101D01*
X139158780Y-108345133D01*
X139142883Y-108383512D01*
X139143532Y-108274860D01*
X139131272Y-108150378D01*
X139094962Y-108030680D01*
X139035997Y-107920366D01*
X138956645Y-107823675D01*
X138942858Y-107812360D01*
X138956645Y-107801045D01*
X139035997Y-107704354D01*
X139094962Y-107594040D01*
X139131272Y-107474342D01*
X139143532Y-107349860D01*
X139143532Y-105749860D01*
X139131272Y-105625378D01*
X139094962Y-105505680D01*
X139035997Y-105395366D01*
X139017765Y-105373150D01*
X139019962Y-105369040D01*
X139056272Y-105249342D01*
X139068532Y-105124860D01*
X139068532Y-103124860D01*
X139056272Y-103000378D01*
X139019962Y-102880680D01*
X138960997Y-102770366D01*
X138881645Y-102673675D01*
X138784954Y-102594323D01*
X138674640Y-102535358D01*
X138554942Y-102499048D01*
X138430460Y-102486788D01*
X135930460Y-102486788D01*
X135805978Y-102499048D01*
X135686280Y-102535358D01*
X135575966Y-102594323D01*
X135479275Y-102673675D01*
X135399923Y-102770366D01*
X135340958Y-102880680D01*
X135304648Y-103000378D01*
X135292388Y-103124860D01*
X135292388Y-105124860D01*
X135304648Y-105249342D01*
X135340958Y-105369040D01*
X135399923Y-105479354D01*
X135479275Y-105576045D01*
X135575966Y-105655397D01*
X135686280Y-105714362D01*
X135805978Y-105750672D01*
X135867388Y-105756720D01*
X135867388Y-106913130D01*
X133059003Y-109721516D01*
X133029999Y-109745319D01*
X132993888Y-109789321D01*
X132935026Y-109861044D01*
X132865913Y-109990344D01*
X132864454Y-109993074D01*
X132820997Y-110136335D01*
X132810000Y-110247988D01*
X132810000Y-110247998D01*
X132806324Y-110285320D01*
X132810000Y-110322642D01*
X132810000Y-110587986D01*
X132810001Y-122546288D01*
X132766063Y-122590226D01*
X132652795Y-122759744D01*
X132574774Y-122948102D01*
X132535000Y-123148061D01*
X132535000Y-123351939D01*
X132574774Y-123551898D01*
X132652795Y-123740256D01*
X132766063Y-123909774D01*
X132910226Y-124053937D01*
X133079744Y-124167205D01*
X133268102Y-124245226D01*
X133468061Y-124285000D01*
X133671939Y-124285000D01*
X133871898Y-124245226D01*
X134060256Y-124167205D01*
X134229774Y-124053937D01*
X134373937Y-123909774D01*
X134487205Y-123740256D01*
X134565226Y-123551898D01*
X134605000Y-123351939D01*
X134605000Y-123148061D01*
X134565226Y-122948102D01*
X134487205Y-122759744D01*
X134373937Y-122590226D01*
X134330000Y-122546289D01*
X134330000Y-121733360D01*
X134490939Y-121733360D01*
X134690898Y-121693586D01*
X134879256Y-121615565D01*
X135048774Y-121502297D01*
X135192937Y-121358134D01*
X135306205Y-121188616D01*
X135384226Y-121000258D01*
X135424000Y-120800299D01*
X135424000Y-120596421D01*
X135384226Y-120396462D01*
X135306205Y-120208104D01*
X135192937Y-120038586D01*
X135149000Y-119994649D01*
X135149000Y-113756121D01*
X135292388Y-113612733D01*
X135292388Y-114999860D01*
X135304648Y-115124342D01*
X135340958Y-115244040D01*
X135399923Y-115354354D01*
X135479275Y-115451045D01*
X135575966Y-115530397D01*
X135686280Y-115589362D01*
X135805978Y-115625672D01*
X135930460Y-115637932D01*
X138294232Y-115637932D01*
X138192795Y-115789744D01*
X138114774Y-115978102D01*
X138075000Y-116178061D01*
X138075000Y-116381939D01*
X138114774Y-116581898D01*
X138192795Y-116770256D01*
X138306063Y-116939774D01*
X138450226Y-117083937D01*
X138619744Y-117197205D01*
X138808102Y-117275226D01*
X139008061Y-117315000D01*
X139211939Y-117315000D01*
X139411898Y-117275226D01*
X139600256Y-117197205D01*
X139650959Y-117163326D01*
X139650960Y-133472066D01*
X139647283Y-133509399D01*
X139650960Y-133546732D01*
X139661957Y-133658385D01*
X139675139Y-133701841D01*
X139705413Y-133801645D01*
X139775985Y-133933675D01*
X139847160Y-134020401D01*
X139870959Y-134049400D01*
X139899957Y-134073198D01*
X141202240Y-135375482D01*
X141179143Y-135403626D01*
X141120178Y-135513940D01*
X141083868Y-135633638D01*
X141071608Y-135758120D01*
X141071608Y-138458120D01*
X141083868Y-138582602D01*
X141120178Y-138702300D01*
X141179143Y-138812614D01*
X141258495Y-138909305D01*
X141355186Y-138988657D01*
X141465500Y-139047622D01*
X141585198Y-139083932D01*
X141649681Y-139090283D01*
X141649680Y-140925957D01*
X141585198Y-140932308D01*
X141465500Y-140968618D01*
X141355186Y-141027583D01*
X141258495Y-141106935D01*
X141179143Y-141203626D01*
X141120178Y-141313940D01*
X141083868Y-141433638D01*
X141071608Y-141558120D01*
X141071608Y-142063789D01*
X141010256Y-142022795D01*
X140821898Y-141944774D01*
X140621939Y-141905000D01*
X140418061Y-141905000D01*
X140218102Y-141944774D01*
X140029744Y-142022795D01*
X139860226Y-142136063D01*
X139716063Y-142280226D01*
X139602795Y-142449744D01*
X139524774Y-142638102D01*
X139485000Y-142838061D01*
X139485000Y-143041939D01*
X139524774Y-143241898D01*
X139602795Y-143430256D01*
X139716063Y-143599774D01*
X139860226Y-143743937D01*
X140029744Y-143857205D01*
X140218102Y-143935226D01*
X140418061Y-143975000D01*
X140621939Y-143975000D01*
X140821898Y-143935226D01*
X141010256Y-143857205D01*
X141071608Y-143816211D01*
X141071608Y-144258120D01*
X141083868Y-144382602D01*
X141120178Y-144502300D01*
X141179143Y-144612614D01*
X141258495Y-144709305D01*
X141355186Y-144788657D01*
X141465500Y-144847622D01*
X141585198Y-144883932D01*
X141709680Y-144896192D01*
X143109680Y-144896192D01*
X143234162Y-144883932D01*
X143353860Y-144847622D01*
X143464174Y-144788657D01*
X143560865Y-144709305D01*
X143640217Y-144612614D01*
X143659680Y-144576202D01*
X143679143Y-144612614D01*
X143758495Y-144709305D01*
X143855186Y-144788657D01*
X143965500Y-144847622D01*
X144085198Y-144883932D01*
X144209680Y-144896192D01*
X145609680Y-144896192D01*
X145734162Y-144883932D01*
X145853860Y-144847622D01*
X145964174Y-144788657D01*
X146060865Y-144709305D01*
X146140217Y-144612614D01*
X146159680Y-144576202D01*
X146179143Y-144612614D01*
X146258495Y-144709305D01*
X146355186Y-144788657D01*
X146465500Y-144847622D01*
X146585198Y-144883932D01*
X146709680Y-144896192D01*
X147123930Y-144893120D01*
X147282680Y-144734370D01*
X147282680Y-143035120D01*
X147536680Y-143035120D01*
X147536680Y-144734370D01*
X147695430Y-144893120D01*
X148109680Y-144896192D01*
X148234162Y-144883932D01*
X148353860Y-144847622D01*
X148464174Y-144788657D01*
X148560865Y-144709305D01*
X148640217Y-144612614D01*
X148699182Y-144502300D01*
X148712674Y-144457820D01*
X150881728Y-144457820D01*
X150893988Y-144582302D01*
X150930298Y-144702000D01*
X150989263Y-144812314D01*
X151068615Y-144909005D01*
X151165306Y-144988357D01*
X151275620Y-145047322D01*
X151395318Y-145083632D01*
X151519800Y-145095892D01*
X151934050Y-145092820D01*
X152092800Y-144934070D01*
X152092800Y-144097320D01*
X152346800Y-144097320D01*
X152346800Y-144934070D01*
X152505550Y-145092820D01*
X152919800Y-145095892D01*
X153044282Y-145083632D01*
X153163980Y-145047322D01*
X153274294Y-144988357D01*
X153370985Y-144909005D01*
X153450337Y-144812314D01*
X153509302Y-144702000D01*
X153545612Y-144582302D01*
X153557872Y-144457820D01*
X153554800Y-144256070D01*
X153396050Y-144097320D01*
X152346800Y-144097320D01*
X152092800Y-144097320D01*
X151043550Y-144097320D01*
X150884800Y-144256070D01*
X150881728Y-144457820D01*
X148712674Y-144457820D01*
X148735492Y-144382602D01*
X148747752Y-144258120D01*
X148744680Y-143193870D01*
X148585930Y-143035120D01*
X147536680Y-143035120D01*
X147282680Y-143035120D01*
X147262680Y-143035120D01*
X147262680Y-142781120D01*
X147282680Y-142781120D01*
X147282680Y-141081870D01*
X147536680Y-141081870D01*
X147536680Y-142781120D01*
X148585930Y-142781120D01*
X148744680Y-142622370D01*
X148747752Y-141558120D01*
X148735492Y-141433638D01*
X148699182Y-141313940D01*
X148640217Y-141203626D01*
X148560865Y-141106935D01*
X148464174Y-141027583D01*
X148353860Y-140968618D01*
X148234162Y-140932308D01*
X148109680Y-140920048D01*
X147695430Y-140923120D01*
X147536680Y-141081870D01*
X147282680Y-141081870D01*
X147123930Y-140923120D01*
X146709680Y-140920048D01*
X146585198Y-140932308D01*
X146465500Y-140968618D01*
X146355186Y-141027583D01*
X146258495Y-141106935D01*
X146179143Y-141203626D01*
X146159680Y-141240038D01*
X146140217Y-141203626D01*
X146060865Y-141106935D01*
X145964174Y-141027583D01*
X145853860Y-140968618D01*
X145734162Y-140932308D01*
X145669680Y-140925957D01*
X145669680Y-139090283D01*
X145734162Y-139083932D01*
X145853860Y-139047622D01*
X145964174Y-138988657D01*
X146060865Y-138909305D01*
X146140217Y-138812614D01*
X146159680Y-138776202D01*
X146179143Y-138812614D01*
X146258495Y-138909305D01*
X146355186Y-138988657D01*
X146465500Y-139047622D01*
X146585198Y-139083932D01*
X146709680Y-139096192D01*
X147123930Y-139093120D01*
X147282680Y-138934370D01*
X147282680Y-137235120D01*
X147536680Y-137235120D01*
X147536680Y-138934370D01*
X147695430Y-139093120D01*
X148109680Y-139096192D01*
X148234162Y-139083932D01*
X148353860Y-139047622D01*
X148464174Y-138988657D01*
X148560865Y-138909305D01*
X148640217Y-138812614D01*
X148699182Y-138702300D01*
X148735492Y-138582602D01*
X148747752Y-138458120D01*
X148744680Y-137393870D01*
X148585930Y-137235120D01*
X147536680Y-137235120D01*
X147282680Y-137235120D01*
X147262680Y-137235120D01*
X147262680Y-136981120D01*
X147282680Y-136981120D01*
X147282680Y-135281870D01*
X147536680Y-135281870D01*
X147536680Y-136981120D01*
X148585930Y-136981120D01*
X148744680Y-136822370D01*
X148747752Y-135758120D01*
X148735492Y-135633638D01*
X148699182Y-135513940D01*
X148640217Y-135403626D01*
X148560865Y-135306935D01*
X148464174Y-135227583D01*
X148353860Y-135168618D01*
X148234162Y-135132308D01*
X148109680Y-135120048D01*
X147695430Y-135123120D01*
X147536680Y-135281870D01*
X147282680Y-135281870D01*
X147123930Y-135123120D01*
X146709680Y-135120048D01*
X146585198Y-135132308D01*
X146465500Y-135168618D01*
X146355186Y-135227583D01*
X146258495Y-135306935D01*
X146179143Y-135403626D01*
X146159680Y-135440038D01*
X146140217Y-135403626D01*
X146060865Y-135306935D01*
X145964174Y-135227583D01*
X145853860Y-135168618D01*
X145734162Y-135132308D01*
X145669680Y-135125957D01*
X145669680Y-134887630D01*
X145671226Y-134883898D01*
X145711000Y-134683939D01*
X145711000Y-134480061D01*
X145671226Y-134280102D01*
X145669680Y-134276370D01*
X145669680Y-129285319D01*
X145869353Y-129085647D01*
X145870148Y-129093722D01*
X145906458Y-129213420D01*
X145965423Y-129323734D01*
X146044775Y-129420425D01*
X146141466Y-129499777D01*
X146251780Y-129558742D01*
X146371478Y-129595052D01*
X146495960Y-129607312D01*
X147585210Y-129604240D01*
X147743960Y-129445490D01*
X147743960Y-128596240D01*
X147723960Y-128596240D01*
X147723960Y-128404239D01*
X148017960Y-128404239D01*
X148017960Y-128596240D01*
X147997960Y-128596240D01*
X147997960Y-129445490D01*
X148156710Y-129604240D01*
X149245960Y-129607312D01*
X149370442Y-129595052D01*
X149490140Y-129558742D01*
X149600454Y-129499777D01*
X149697145Y-129420425D01*
X149776497Y-129323734D01*
X149835462Y-129213420D01*
X149871772Y-129093722D01*
X149872567Y-129085647D01*
X151459801Y-130672881D01*
X151459800Y-141026647D01*
X151426091Y-141036873D01*
X151273636Y-141118362D01*
X151140008Y-141228028D01*
X151030342Y-141361656D01*
X150948853Y-141514111D01*
X150898672Y-141679535D01*
X150881728Y-141851570D01*
X150881728Y-142339070D01*
X150898672Y-142511105D01*
X150948853Y-142676529D01*
X151030342Y-142828984D01*
X151140008Y-142962612D01*
X151146364Y-142967828D01*
X151068615Y-143031635D01*
X150989263Y-143128326D01*
X150930298Y-143238640D01*
X150893988Y-143358338D01*
X150881728Y-143482820D01*
X150884800Y-143684570D01*
X151043550Y-143843320D01*
X152092800Y-143843320D01*
X152092800Y-143823320D01*
X152346800Y-143823320D01*
X152346800Y-143843320D01*
X153396050Y-143843320D01*
X153554800Y-143684570D01*
X153557872Y-143482820D01*
X153545612Y-143358338D01*
X153509302Y-143238640D01*
X153450337Y-143128326D01*
X153370985Y-143031635D01*
X153293236Y-142967828D01*
X153299592Y-142962612D01*
X153409258Y-142828984D01*
X153490747Y-142676529D01*
X153540928Y-142511105D01*
X153557872Y-142339070D01*
X153557872Y-141851570D01*
X153540928Y-141679535D01*
X153490747Y-141514111D01*
X153409258Y-141361656D01*
X153299592Y-141228028D01*
X153165964Y-141118362D01*
X153013509Y-141036873D01*
X152979800Y-141026647D01*
X152979800Y-130395401D01*
X152983476Y-130358078D01*
X152979800Y-130320755D01*
X152979800Y-130320745D01*
X152968803Y-130209092D01*
X152925346Y-130065831D01*
X152854774Y-129933801D01*
X152783599Y-129847075D01*
X152759801Y-129818077D01*
X152730803Y-129794279D01*
X150069765Y-127133242D01*
X150045962Y-127104238D01*
X149930237Y-127009265D01*
X149798208Y-126938693D01*
X149654947Y-126895236D01*
X149543294Y-126884239D01*
X149543283Y-126884239D01*
X149505961Y-126880563D01*
X149468639Y-126884239D01*
X146273284Y-126884239D01*
X146235959Y-126880563D01*
X146198634Y-126884239D01*
X146198626Y-126884239D01*
X146086973Y-126895236D01*
X145943712Y-126938693D01*
X145811683Y-127009265D01*
X145695958Y-127104238D01*
X145672160Y-127133236D01*
X144398683Y-128406714D01*
X144369679Y-128430517D01*
X144314551Y-128497692D01*
X144274706Y-128546242D01*
X144204135Y-128678271D01*
X144204134Y-128678272D01*
X144160677Y-128821533D01*
X144149680Y-128933186D01*
X144149680Y-128933196D01*
X144146004Y-128970518D01*
X144149680Y-129007841D01*
X144149681Y-133688892D01*
X144016226Y-133778063D01*
X143872063Y-133922226D01*
X143758795Y-134091744D01*
X143680774Y-134280102D01*
X143641000Y-134480061D01*
X143641000Y-134683939D01*
X143680774Y-134883898D01*
X143758795Y-135072256D01*
X143860635Y-135224670D01*
X143855186Y-135227583D01*
X143758495Y-135306935D01*
X143679143Y-135403626D01*
X143659680Y-135440038D01*
X143640217Y-135403626D01*
X143560865Y-135306935D01*
X143464174Y-135227583D01*
X143353860Y-135168618D01*
X143234162Y-135132308D01*
X143109680Y-135120048D01*
X143064006Y-135120048D01*
X143044654Y-135083844D01*
X142949681Y-134968119D01*
X142920684Y-134944322D01*
X141170959Y-133194598D01*
X141170959Y-129606085D01*
X141825210Y-129604240D01*
X141983960Y-129445490D01*
X141983960Y-128596240D01*
X142237960Y-128596240D01*
X142237960Y-129445490D01*
X142396710Y-129604240D01*
X143485960Y-129607312D01*
X143610442Y-129595052D01*
X143730140Y-129558742D01*
X143840454Y-129499777D01*
X143937145Y-129420425D01*
X144016497Y-129323734D01*
X144075462Y-129213420D01*
X144111772Y-129093722D01*
X144124032Y-128969240D01*
X144120960Y-128754990D01*
X143962210Y-128596240D01*
X142237960Y-128596240D01*
X141983960Y-128596240D01*
X141963960Y-128596240D01*
X141963960Y-128342240D01*
X141983960Y-128342240D01*
X141983960Y-127492990D01*
X142237960Y-127492990D01*
X142237960Y-128342240D01*
X143962210Y-128342240D01*
X144120960Y-128183490D01*
X144124032Y-127969240D01*
X144111772Y-127844758D01*
X144075462Y-127725060D01*
X144016497Y-127614746D01*
X143937145Y-127518055D01*
X143840454Y-127438703D01*
X143730140Y-127379738D01*
X143610442Y-127343428D01*
X143485960Y-127331168D01*
X142396710Y-127334240D01*
X142237960Y-127492990D01*
X141983960Y-127492990D01*
X141825210Y-127334240D01*
X141170959Y-127332395D01*
X141170959Y-125607312D01*
X143485960Y-125607312D01*
X143610442Y-125595052D01*
X143730140Y-125558742D01*
X143840454Y-125499777D01*
X143937145Y-125420425D01*
X144016497Y-125323734D01*
X144067006Y-125229240D01*
X145914914Y-125229240D01*
X145965423Y-125323734D01*
X146044775Y-125420425D01*
X146141466Y-125499777D01*
X146251780Y-125558742D01*
X146371478Y-125595052D01*
X146495960Y-125607312D01*
X149245960Y-125607312D01*
X149370442Y-125595052D01*
X149490140Y-125558742D01*
X149600454Y-125499777D01*
X149697145Y-125420425D01*
X149776497Y-125323734D01*
X149827006Y-125229240D01*
X150987158Y-125229240D01*
X151001380Y-125230641D01*
X151774837Y-126004099D01*
X151861563Y-126075273D01*
X151993593Y-126145846D01*
X152136853Y-126189302D01*
X152285839Y-126203976D01*
X152434825Y-126189302D01*
X152578086Y-126145846D01*
X152710115Y-126075273D01*
X152825841Y-125980301D01*
X152920813Y-125864575D01*
X152991386Y-125732546D01*
X153034842Y-125589285D01*
X153049516Y-125440299D01*
X153034842Y-125291313D01*
X152991386Y-125148053D01*
X152920813Y-125016023D01*
X152849639Y-124929297D01*
X152221148Y-124300807D01*
X152244746Y-124243838D01*
X152284520Y-124043879D01*
X152284520Y-123840001D01*
X152244746Y-123640042D01*
X152166725Y-123451684D01*
X152053457Y-123282166D01*
X151909294Y-123138003D01*
X151739776Y-123024735D01*
X151551418Y-122946714D01*
X151351459Y-122906940D01*
X151147581Y-122906940D01*
X150947622Y-122946714D01*
X150759264Y-123024735D01*
X150589746Y-123138003D01*
X150445583Y-123282166D01*
X150332315Y-123451684D01*
X150254294Y-123640042D01*
X150240530Y-123709240D01*
X149827006Y-123709240D01*
X149776497Y-123614746D01*
X149697145Y-123518055D01*
X149600454Y-123438703D01*
X149490140Y-123379738D01*
X149370442Y-123343428D01*
X149245960Y-123331168D01*
X146495960Y-123331168D01*
X146371478Y-123343428D01*
X146251780Y-123379738D01*
X146141466Y-123438703D01*
X146044775Y-123518055D01*
X145965423Y-123614746D01*
X145914914Y-123709240D01*
X144067006Y-123709240D01*
X144016497Y-123614746D01*
X143937145Y-123518055D01*
X143840454Y-123438703D01*
X143730140Y-123379738D01*
X143610442Y-123343428D01*
X143485960Y-123331168D01*
X141170959Y-123331168D01*
X141170959Y-116824160D01*
X142642388Y-115352731D01*
X142642388Y-117224860D01*
X142654648Y-117349342D01*
X142690958Y-117469040D01*
X142749923Y-117579354D01*
X142829275Y-117676045D01*
X142925966Y-117755397D01*
X143036280Y-117814362D01*
X143155978Y-117850672D01*
X143280460Y-117862932D01*
X146780460Y-117862932D01*
X146904942Y-117850672D01*
X147024640Y-117814362D01*
X147134954Y-117755397D01*
X147231645Y-117676045D01*
X147310997Y-117579354D01*
X147369962Y-117469040D01*
X147406272Y-117349342D01*
X147418532Y-117224860D01*
X147418532Y-114224860D01*
X147406272Y-114100378D01*
X147369962Y-113980680D01*
X147310997Y-113870366D01*
X147231645Y-113773675D01*
X147134954Y-113694323D01*
X147024640Y-113635358D01*
X146904942Y-113599048D01*
X146780460Y-113586788D01*
X144408331Y-113586788D01*
X147195259Y-110799860D01*
X150617388Y-110799860D01*
X150617388Y-112399860D01*
X150629648Y-112524342D01*
X150665958Y-112644040D01*
X150724923Y-112754354D01*
X150804275Y-112851045D01*
X150900966Y-112930397D01*
X150996654Y-112981544D01*
X150992388Y-113024860D01*
X150992388Y-115024860D01*
X151004648Y-115149342D01*
X151040958Y-115269040D01*
X151099923Y-115379354D01*
X151179275Y-115476045D01*
X151275966Y-115555397D01*
X151386280Y-115614362D01*
X151505978Y-115650672D01*
X151630460Y-115662932D01*
X154130460Y-115662932D01*
X154254942Y-115650672D01*
X154374640Y-115614362D01*
X154484954Y-115555397D01*
X154581645Y-115476045D01*
X154660997Y-115379354D01*
X154719962Y-115269040D01*
X154756272Y-115149342D01*
X154768532Y-115024860D01*
X154768532Y-113024860D01*
X154756272Y-112900378D01*
X154719962Y-112780680D01*
X154660997Y-112670366D01*
X154581645Y-112573675D01*
X154484954Y-112494323D01*
X154374640Y-112435358D01*
X154254942Y-112399048D01*
X154130460Y-112386788D01*
X153893532Y-112386788D01*
X153893532Y-112340000D01*
X155416289Y-112340000D01*
X155460226Y-112383937D01*
X155629744Y-112497205D01*
X155818102Y-112575226D01*
X156018061Y-112615000D01*
X156221939Y-112615000D01*
X156421898Y-112575226D01*
X156610256Y-112497205D01*
X156779774Y-112383937D01*
X156923937Y-112239774D01*
X157037205Y-112070256D01*
X157115226Y-111881898D01*
X157155000Y-111681939D01*
X157155000Y-111478061D01*
X157115226Y-111278102D01*
X157037205Y-111089744D01*
X156923937Y-110920226D01*
X156779774Y-110776063D01*
X156610256Y-110662795D01*
X156421898Y-110584774D01*
X156221939Y-110545000D01*
X156018061Y-110545000D01*
X155818102Y-110584774D01*
X155629744Y-110662795D01*
X155460226Y-110776063D01*
X155416289Y-110820000D01*
X153893532Y-110820000D01*
X153893532Y-110799860D01*
X153881272Y-110675378D01*
X153844962Y-110555680D01*
X153785997Y-110445366D01*
X153706645Y-110348675D01*
X153609954Y-110269323D01*
X153499640Y-110210358D01*
X153379942Y-110174048D01*
X153255460Y-110161788D01*
X151255460Y-110161788D01*
X151130978Y-110174048D01*
X151011280Y-110210358D01*
X150900966Y-110269323D01*
X150804275Y-110348675D01*
X150724923Y-110445366D01*
X150665958Y-110555680D01*
X150629648Y-110675378D01*
X150617388Y-110799860D01*
X147195259Y-110799860D01*
X148391003Y-109604117D01*
X148420001Y-109580319D01*
X148446332Y-109548235D01*
X148514974Y-109464595D01*
X148585546Y-109332565D01*
X148625194Y-109201860D01*
X148629003Y-109189304D01*
X148640000Y-109077651D01*
X148640000Y-109077642D01*
X148643676Y-109040319D01*
X148640000Y-109002996D01*
X148640000Y-107399860D01*
X150617388Y-107399860D01*
X150629648Y-107524342D01*
X150665958Y-107644040D01*
X150724923Y-107754354D01*
X150804275Y-107851045D01*
X150900966Y-107930397D01*
X151011280Y-107989362D01*
X151130978Y-108025672D01*
X151255460Y-108037932D01*
X151969710Y-108034860D01*
X152128460Y-107876110D01*
X152128460Y-106726860D01*
X152382460Y-106726860D01*
X152382460Y-107876110D01*
X152541210Y-108034860D01*
X153255460Y-108037932D01*
X153379942Y-108025672D01*
X153499640Y-107989362D01*
X153609954Y-107930397D01*
X153706645Y-107851045D01*
X153785997Y-107754354D01*
X153844962Y-107644040D01*
X153881272Y-107524342D01*
X153893532Y-107399860D01*
X153890460Y-106885610D01*
X153731710Y-106726860D01*
X152382460Y-106726860D01*
X152128460Y-106726860D01*
X150779210Y-106726860D01*
X150620460Y-106885610D01*
X150617388Y-107399860D01*
X148640000Y-107399860D01*
X148640000Y-105799860D01*
X150617388Y-105799860D01*
X150620460Y-106314110D01*
X150779210Y-106472860D01*
X152128460Y-106472860D01*
X152128460Y-106452860D01*
X152382460Y-106452860D01*
X152382460Y-106472860D01*
X153731710Y-106472860D01*
X153890460Y-106314110D01*
X153893532Y-105799860D01*
X153889895Y-105762932D01*
X154130460Y-105762932D01*
X154254942Y-105750672D01*
X154374640Y-105714362D01*
X154484954Y-105655397D01*
X154581645Y-105576045D01*
X154660997Y-105479354D01*
X154719962Y-105369040D01*
X154756272Y-105249342D01*
X154768532Y-105124860D01*
X154768532Y-103124860D01*
X154756272Y-103000378D01*
X154719962Y-102880680D01*
X154660997Y-102770366D01*
X154581645Y-102673675D01*
X154484954Y-102594323D01*
X154374640Y-102535358D01*
X154254942Y-102499048D01*
X154130460Y-102486788D01*
X151630460Y-102486788D01*
X151505978Y-102499048D01*
X151386280Y-102535358D01*
X151275966Y-102594323D01*
X151179275Y-102673675D01*
X151099923Y-102770366D01*
X151040958Y-102880680D01*
X151004648Y-103000378D01*
X150992388Y-103124860D01*
X150992388Y-105124860D01*
X151001332Y-105215675D01*
X150900966Y-105269323D01*
X150804275Y-105348675D01*
X150724923Y-105445366D01*
X150665958Y-105555680D01*
X150629648Y-105675378D01*
X150617388Y-105799860D01*
X148640000Y-105799860D01*
X148640000Y-101393711D01*
X148683937Y-101349774D01*
X148797205Y-101180256D01*
X148875226Y-100991898D01*
X148915000Y-100791939D01*
X148915000Y-100588061D01*
X148875226Y-100388102D01*
X148797205Y-100199744D01*
X148683937Y-100030226D01*
X148539774Y-99886063D01*
X148370256Y-99772795D01*
X148181898Y-99694774D01*
X147981939Y-99655000D01*
X147778061Y-99655000D01*
X147578102Y-99694774D01*
X147389744Y-99772795D01*
X147220226Y-99886063D01*
X147076063Y-100030226D01*
X146962795Y-100199744D01*
X146919795Y-100303554D01*
X146904942Y-100299048D01*
X146780460Y-100286788D01*
X143333263Y-100286788D01*
X143333263Y-100188629D01*
X144785676Y-100188629D01*
X144829145Y-100192910D01*
X144872614Y-100188629D01*
X144872622Y-100188629D01*
X145002635Y-100175824D01*
X145169458Y-100125218D01*
X145323204Y-100043040D01*
X145457962Y-99932446D01*
X145485679Y-99898673D01*
X145894128Y-99490224D01*
X146003628Y-99479440D01*
X146123326Y-99443130D01*
X146233640Y-99384165D01*
X146330331Y-99304813D01*
X146384647Y-99238628D01*
X148455583Y-99238628D01*
X148499052Y-99242909D01*
X148542521Y-99238628D01*
X148542529Y-99238628D01*
X148672542Y-99225823D01*
X148839365Y-99175217D01*
X148993111Y-99093039D01*
X149127869Y-98982445D01*
X149155586Y-98948672D01*
X149650233Y-98454026D01*
X150398121Y-98144240D01*
X152394882Y-98144240D01*
X152438351Y-98148521D01*
X152481820Y-98144240D01*
X152481828Y-98144240D01*
X152611841Y-98131435D01*
X152778664Y-98080829D01*
X152932410Y-97998651D01*
X153067168Y-97888057D01*
X153094885Y-97854284D01*
X155029368Y-95919802D01*
X155063136Y-95892089D01*
X155091315Y-95857754D01*
X155173729Y-95757332D01*
X155175279Y-95754433D01*
X155255908Y-95603585D01*
X155306514Y-95436762D01*
X155319319Y-95306749D01*
X155319319Y-95306739D01*
X155323600Y-95263273D01*
X155319319Y-95219806D01*
X155319319Y-94811745D01*
X155323600Y-94768279D01*
X155319319Y-94724813D01*
X155319319Y-94724803D01*
X155306514Y-94594790D01*
X155255908Y-94427967D01*
X155228661Y-94376990D01*
X156668026Y-92937626D01*
X156701794Y-92909913D01*
X156748856Y-92852569D01*
X156812388Y-92775155D01*
X156857695Y-92690391D01*
X156894566Y-92621409D01*
X156945172Y-92454586D01*
X156957977Y-92324573D01*
X156957977Y-92324565D01*
X156962258Y-92281096D01*
X156957977Y-92237627D01*
X156957977Y-91564687D01*
X157267763Y-90816799D01*
X157332629Y-90751933D01*
X157332633Y-90751928D01*
X158275001Y-89809561D01*
X158275000Y-146515354D01*
X158131759Y-146263204D01*
X157837813Y-145922664D01*
X157483321Y-145645704D01*
X157081785Y-145442874D01*
X156648499Y-145321898D01*
X156199968Y-145287386D01*
X155753275Y-145340650D01*
X155325435Y-145479664D01*
X154932745Y-145699131D01*
X154590162Y-145990692D01*
X154310734Y-146343243D01*
X154105105Y-146743353D01*
X153981108Y-147175783D01*
X153943465Y-147624063D01*
X153993610Y-148071116D01*
X154129633Y-148499916D01*
X154346353Y-148894129D01*
X154635516Y-149238740D01*
X154986107Y-149520622D01*
X155224020Y-149645000D01*
X134721302Y-149645000D01*
X135012460Y-149487572D01*
X135359081Y-149200822D01*
X135643403Y-148852208D01*
X135854599Y-148455007D01*
X135984622Y-148024350D01*
X136028520Y-147576640D01*
X136027621Y-147512281D01*
X135971239Y-147065971D01*
X135829242Y-146639112D01*
X135607039Y-146247964D01*
X135313093Y-145907424D01*
X134958601Y-145630464D01*
X134557065Y-145427634D01*
X134123779Y-145306658D01*
X133675248Y-145272146D01*
X133228555Y-145325410D01*
X132800715Y-145464424D01*
X132408025Y-145683891D01*
X132065442Y-145975452D01*
X131786014Y-146328003D01*
X131645000Y-146602386D01*
X131645000Y-87201100D01*
X131646947Y-87220869D01*
G36*
X139158780Y-109704587D02*
G01*
X139315823Y-109939619D01*
X139515701Y-110139497D01*
X139750733Y-110296540D01*
X140011886Y-110404713D01*
X140289125Y-110459860D01*
X140571795Y-110459860D01*
X140849034Y-110404713D01*
X141110187Y-110296540D01*
X141345219Y-110139497D01*
X141545097Y-109939619D01*
X141563263Y-109912431D01*
X141563263Y-112575158D01*
X139060881Y-115077540D01*
X139068532Y-114999860D01*
X139068532Y-112999860D01*
X139056272Y-112875378D01*
X139019962Y-112755680D01*
X139017765Y-112751570D01*
X139035997Y-112729354D01*
X139094962Y-112619040D01*
X139131272Y-112499342D01*
X139143532Y-112374860D01*
X139143532Y-110774860D01*
X139131272Y-110650378D01*
X139094962Y-110530680D01*
X139035997Y-110420366D01*
X138957618Y-110324860D01*
X139035997Y-110229354D01*
X139094962Y-110119040D01*
X139131272Y-109999342D01*
X139143532Y-109874860D01*
X139142277Y-109664745D01*
X139158780Y-109704587D01*
X139158780Y-109704587D01*
G37*
X139158780Y-109704587D02*
X139315823Y-109939619D01*
X139515701Y-110139497D01*
X139750733Y-110296540D01*
X140011886Y-110404713D01*
X140289125Y-110459860D01*
X140571795Y-110459860D01*
X140849034Y-110404713D01*
X141110187Y-110296540D01*
X141345219Y-110139497D01*
X141545097Y-109939619D01*
X141563263Y-109912431D01*
X141563263Y-112575158D01*
X139060881Y-115077540D01*
X139068532Y-114999860D01*
X139068532Y-112999860D01*
X139056272Y-112875378D01*
X139019962Y-112755680D01*
X139017765Y-112751570D01*
X139035997Y-112729354D01*
X139094962Y-112619040D01*
X139131272Y-112499342D01*
X139143532Y-112374860D01*
X139143532Y-110774860D01*
X139131272Y-110650378D01*
X139094962Y-110530680D01*
X139035997Y-110420366D01*
X138957618Y-110324860D01*
X139035997Y-110229354D01*
X139094962Y-110119040D01*
X139131272Y-109999342D01*
X139143532Y-109874860D01*
X139142277Y-109664745D01*
X139158780Y-109704587D01*
G36*
X136029210Y-108947860D02*
G01*
X137378460Y-108947860D01*
X137378460Y-108927860D01*
X137632460Y-108927860D01*
X137632460Y-108947860D01*
X137652460Y-108947860D01*
X137652460Y-109201860D01*
X137632460Y-109201860D01*
X137632460Y-109221860D01*
X137378460Y-109221860D01*
X137378460Y-109201860D01*
X136029210Y-109201860D01*
X135870460Y-109360610D01*
X135867388Y-109874860D01*
X135879648Y-109999342D01*
X135915958Y-110119040D01*
X135974923Y-110229354D01*
X136053302Y-110324860D01*
X135974923Y-110420366D01*
X135915958Y-110530680D01*
X135879648Y-110650378D01*
X135867388Y-110774860D01*
X135867388Y-110920534D01*
X135831183Y-110939886D01*
X135747543Y-111008528D01*
X135715459Y-111034859D01*
X135691661Y-111063857D01*
X134330000Y-112425519D01*
X134330000Y-110600121D01*
X136005736Y-108924386D01*
X136029210Y-108947860D01*
X136029210Y-108947860D01*
G37*
X136029210Y-108947860D02*
X137378460Y-108947860D01*
X137378460Y-108927860D01*
X137632460Y-108927860D01*
X137632460Y-108947860D01*
X137652460Y-108947860D01*
X137652460Y-109201860D01*
X137632460Y-109201860D01*
X137632460Y-109221860D01*
X137378460Y-109221860D01*
X137378460Y-109201860D01*
X136029210Y-109201860D01*
X135870460Y-109360610D01*
X135867388Y-109874860D01*
X135879648Y-109999342D01*
X135915958Y-110119040D01*
X135974923Y-110229354D01*
X136053302Y-110324860D01*
X135974923Y-110420366D01*
X135915958Y-110530680D01*
X135879648Y-110650378D01*
X135867388Y-110774860D01*
X135867388Y-110920534D01*
X135831183Y-110939886D01*
X135747543Y-111008528D01*
X135715459Y-111034859D01*
X135691661Y-111063857D01*
X134330000Y-112425519D01*
X134330000Y-110600121D01*
X136005736Y-108924386D01*
X136029210Y-108947860D01*
G36*
X147726481Y-76042433D02*
G01*
X147812395Y-76249850D01*
X148781776Y-76651381D01*
X148789430Y-76632903D01*
X149024095Y-76730104D01*
X149016441Y-76748582D01*
X149034919Y-76756236D01*
X148937718Y-76990901D01*
X148919240Y-76983247D01*
X148599030Y-77756304D01*
X148684944Y-77963721D01*
X149066486Y-78125085D01*
X149186184Y-78161396D01*
X149310666Y-78173656D01*
X149435148Y-78161395D01*
X149554845Y-78125085D01*
X149665159Y-78066121D01*
X149761851Y-77986769D01*
X149841203Y-77890078D01*
X149900167Y-77779763D01*
X149959146Y-77631009D01*
X150419138Y-78091002D01*
X150442937Y-78120001D01*
X150523361Y-78186003D01*
X150558662Y-78214974D01*
X150657223Y-78267656D01*
X150616341Y-78317471D01*
X150557376Y-78427785D01*
X150521066Y-78547483D01*
X150508806Y-78671965D01*
X150521066Y-78796447D01*
X150557376Y-78916145D01*
X150616341Y-79026459D01*
X150695693Y-79123150D01*
X151119957Y-79547414D01*
X151216648Y-79626766D01*
X151326962Y-79685731D01*
X151441784Y-79720562D01*
X151476614Y-79835384D01*
X151535579Y-79945698D01*
X151614932Y-80042389D01*
X151627180Y-80050293D01*
X151851686Y-80050293D01*
X152452197Y-79449783D01*
X152438055Y-79435641D01*
X152573827Y-79299868D01*
X154189579Y-80915621D01*
X154096356Y-80955909D01*
X154010441Y-81163326D01*
X154344510Y-81969839D01*
X154343283Y-81982297D01*
X154346959Y-82019619D01*
X154346959Y-82019629D01*
X154357956Y-82131282D01*
X154393000Y-82246807D01*
X154401413Y-82274543D01*
X154471985Y-82406573D01*
X154493974Y-82433366D01*
X154566958Y-82522298D01*
X154576635Y-82530240D01*
X154910704Y-83336753D01*
X155118121Y-83422667D01*
X155201389Y-83389653D01*
X155201388Y-84609169D01*
X154636387Y-84609169D01*
X154511905Y-84621429D01*
X154392207Y-84657739D01*
X154281893Y-84716704D01*
X154185202Y-84796056D01*
X154105850Y-84892747D01*
X154046885Y-85003061D01*
X154010575Y-85122759D01*
X153998315Y-85247241D01*
X153998315Y-85847241D01*
X154010575Y-85971723D01*
X154046885Y-86091421D01*
X154103448Y-86197241D01*
X154046885Y-86303061D01*
X154010575Y-86422759D01*
X153998315Y-86547241D01*
X154001387Y-86561491D01*
X154160137Y-86720241D01*
X155009387Y-86720241D01*
X155009387Y-86700241D01*
X155193173Y-86700241D01*
X155201389Y-86708457D01*
X155201388Y-86994241D01*
X155009387Y-86994241D01*
X155009387Y-86974241D01*
X154160137Y-86974241D01*
X154001387Y-87132991D01*
X153998315Y-87147241D01*
X154010575Y-87271723D01*
X154046885Y-87391421D01*
X154105850Y-87501735D01*
X154185202Y-87598426D01*
X154281893Y-87677778D01*
X154392207Y-87736743D01*
X154511905Y-87773053D01*
X154599303Y-87781661D01*
X154583071Y-87835174D01*
X154561427Y-87906528D01*
X154560256Y-87910387D01*
X154545582Y-88059372D01*
X154549259Y-88096704D01*
X154549259Y-88683179D01*
X154402370Y-88619698D01*
X154282672Y-88583388D01*
X154158190Y-88571128D01*
X154033708Y-88583389D01*
X153914011Y-88619699D01*
X153803697Y-88678663D01*
X153707005Y-88758015D01*
X153627652Y-88854706D01*
X153568688Y-88965021D01*
X153413000Y-89348913D01*
X153498915Y-89556330D01*
X154271971Y-89876541D01*
X154279625Y-89858063D01*
X154514290Y-89955264D01*
X154506636Y-89973742D01*
X154525114Y-89981396D01*
X154427913Y-90216061D01*
X154409435Y-90208407D01*
X154368751Y-90306627D01*
X154356202Y-90321918D01*
X154356201Y-90321919D01*
X154285026Y-90408645D01*
X154214454Y-90540675D01*
X154195306Y-90603800D01*
X154170998Y-90683935D01*
X154164301Y-90751933D01*
X154158062Y-90815275D01*
X154007904Y-91177788D01*
X154093819Y-91385205D01*
X154160000Y-91413807D01*
X154160000Y-91457586D01*
X153305130Y-92312457D01*
X152905607Y-91912934D01*
X152808916Y-91833582D01*
X152698602Y-91774617D01*
X152578904Y-91738307D01*
X152454422Y-91726047D01*
X152329940Y-91738307D01*
X152210242Y-91774617D01*
X152099928Y-91833582D01*
X152003237Y-91912934D01*
X151578973Y-92337198D01*
X151499621Y-92433889D01*
X151440656Y-92544203D01*
X151405825Y-92659025D01*
X151291003Y-92693855D01*
X151180689Y-92752820D01*
X151083998Y-92832173D01*
X151076094Y-92844421D01*
X151076094Y-93068927D01*
X151676604Y-93669438D01*
X151690747Y-93655296D01*
X151826519Y-93791068D01*
X151637850Y-93979738D01*
X151599409Y-93979738D01*
X151482857Y-93863186D01*
X151496999Y-93849043D01*
X150896488Y-93248533D01*
X150671982Y-93248533D01*
X150659734Y-93256437D01*
X150580381Y-93353128D01*
X150521416Y-93463442D01*
X150485107Y-93583140D01*
X150472847Y-93707622D01*
X150485107Y-93832103D01*
X150521416Y-93951801D01*
X150580381Y-94062115D01*
X150613315Y-94102245D01*
X150608603Y-94104764D01*
X150528353Y-94170624D01*
X150492879Y-94199737D01*
X150469081Y-94228735D01*
X149984546Y-94713271D01*
X149925567Y-94564517D01*
X149866603Y-94454202D01*
X149787251Y-94357511D01*
X149690559Y-94278159D01*
X149580245Y-94219195D01*
X149460548Y-94182885D01*
X149336066Y-94170624D01*
X149211584Y-94182884D01*
X149091886Y-94219195D01*
X148710344Y-94380559D01*
X148624430Y-94587976D01*
X148944640Y-95361033D01*
X148963118Y-95353379D01*
X149060319Y-95588044D01*
X149041841Y-95595698D01*
X149049495Y-95614176D01*
X148814830Y-95711377D01*
X148807176Y-95692899D01*
X147837795Y-96094430D01*
X147751881Y-96301847D01*
X147798183Y-96418629D01*
X146517218Y-96418629D01*
X146517218Y-95853628D01*
X146504958Y-95729146D01*
X146468648Y-95609448D01*
X146409683Y-95499134D01*
X146330331Y-95402443D01*
X146259670Y-95344453D01*
X147404562Y-95344453D01*
X147416822Y-95468935D01*
X147453132Y-95588633D01*
X147533177Y-95773850D01*
X147740594Y-95859765D01*
X148709975Y-95458234D01*
X148389764Y-94685178D01*
X148182347Y-94599263D01*
X147798455Y-94754951D01*
X147688140Y-94813915D01*
X147591449Y-94893268D01*
X147512097Y-94989960D01*
X147453133Y-95100274D01*
X147416823Y-95219971D01*
X147404562Y-95344453D01*
X146259670Y-95344453D01*
X146233640Y-95323091D01*
X146123326Y-95264126D01*
X146003628Y-95227816D01*
X145879146Y-95215556D01*
X145279146Y-95215556D01*
X145154664Y-95227816D01*
X145034966Y-95264126D01*
X144929146Y-95320689D01*
X144823326Y-95264126D01*
X144703628Y-95227816D01*
X144579146Y-95215556D01*
X144564896Y-95218628D01*
X144406146Y-95377378D01*
X144406146Y-96226628D01*
X144426146Y-96226628D01*
X144426146Y-96410414D01*
X144417931Y-96418629D01*
X144132146Y-96418629D01*
X144132146Y-96226628D01*
X144152146Y-96226628D01*
X144152146Y-95377378D01*
X143993396Y-95218628D01*
X143979146Y-95215556D01*
X143854664Y-95227816D01*
X143734966Y-95264126D01*
X143624652Y-95323091D01*
X143527961Y-95402443D01*
X143448609Y-95499134D01*
X143389644Y-95609448D01*
X143353334Y-95729146D01*
X143346045Y-95803153D01*
X143336198Y-95797889D01*
X143192937Y-95754432D01*
X143081284Y-95743435D01*
X143081273Y-95743435D01*
X143043951Y-95739759D01*
X143006629Y-95743435D01*
X142496653Y-95743435D01*
X142557423Y-95606120D01*
X142594777Y-95486744D01*
X142608123Y-95362374D01*
X142596949Y-95237790D01*
X142561685Y-95117780D01*
X142503686Y-95006956D01*
X142425180Y-94909575D01*
X142329185Y-94829382D01*
X142219389Y-94769457D01*
X141836870Y-94610425D01*
X141628711Y-94694526D01*
X141301767Y-95464759D01*
X141320177Y-95472574D01*
X141220932Y-95706382D01*
X141202521Y-95698567D01*
X141194706Y-95716977D01*
X140960898Y-95617731D01*
X140968713Y-95599321D01*
X140856479Y-95551680D01*
X140811815Y-95515026D01*
X140679786Y-95444454D01*
X140536525Y-95400997D01*
X140490905Y-95396504D01*
X140002873Y-95189347D01*
X139794715Y-95273448D01*
X139743134Y-95390000D01*
X139681559Y-95390000D01*
X139038939Y-94747380D01*
X140018017Y-94747380D01*
X140102119Y-94955538D01*
X141067959Y-95365513D01*
X141394903Y-94595281D01*
X141310801Y-94387122D01*
X140930683Y-94222434D01*
X140811306Y-94185080D01*
X140686936Y-94171734D01*
X140562352Y-94182908D01*
X140442342Y-94218172D01*
X140331518Y-94276171D01*
X140234137Y-94354676D01*
X140153944Y-94450672D01*
X140094020Y-94560468D01*
X140018017Y-94747380D01*
X139038939Y-94747380D01*
X138813930Y-94522371D01*
X139213453Y-94122848D01*
X139292805Y-94026157D01*
X139351770Y-93915843D01*
X139388080Y-93796145D01*
X139400340Y-93671663D01*
X139388080Y-93547181D01*
X139351770Y-93427483D01*
X139292805Y-93317169D01*
X139213453Y-93220478D01*
X138789189Y-92796214D01*
X138692498Y-92716862D01*
X138582184Y-92657897D01*
X138467362Y-92623066D01*
X138432532Y-92508244D01*
X138373567Y-92397930D01*
X138294214Y-92301239D01*
X138281966Y-92293335D01*
X138057460Y-92293335D01*
X137456949Y-92893845D01*
X137471092Y-92907988D01*
X137335319Y-93043760D01*
X136322203Y-92030644D01*
X136818255Y-92030644D01*
X136818255Y-92255151D01*
X137277344Y-92714240D01*
X137877854Y-92113729D01*
X137877854Y-91889223D01*
X137869950Y-91876975D01*
X137773259Y-91797622D01*
X137662945Y-91738657D01*
X137543247Y-91702348D01*
X137418765Y-91690088D01*
X137294284Y-91702348D01*
X137174586Y-91738657D01*
X137064272Y-91797622D01*
X136967580Y-91876975D01*
X136818255Y-92030644D01*
X136322203Y-92030644D01*
X135743602Y-91452044D01*
X135898261Y-91385205D01*
X135984176Y-91177788D01*
X135650107Y-90371274D01*
X135651334Y-90358816D01*
X135647658Y-90321493D01*
X135647658Y-90321484D01*
X135636661Y-90209831D01*
X135606744Y-90111206D01*
X135817310Y-90111206D01*
X136218841Y-91080587D01*
X136426258Y-91166501D01*
X136613826Y-91092133D01*
X136724141Y-91033169D01*
X136820832Y-90953817D01*
X136900184Y-90857125D01*
X136959148Y-90746811D01*
X136995458Y-90627114D01*
X137007719Y-90502632D01*
X136995459Y-90378150D01*
X136959148Y-90258452D01*
X136797784Y-89876910D01*
X136590367Y-89790996D01*
X135817310Y-90111206D01*
X135606744Y-90111206D01*
X135593204Y-90066570D01*
X135522632Y-89934541D01*
X135427659Y-89818816D01*
X135417982Y-89810874D01*
X135083913Y-89004361D01*
X134876496Y-88918447D01*
X134707758Y-88985349D01*
X134707758Y-88907160D01*
X135318578Y-88907160D01*
X135720109Y-89876541D01*
X136493165Y-89556330D01*
X136579080Y-89348913D01*
X136423392Y-88965021D01*
X136364428Y-88854706D01*
X136285075Y-88758015D01*
X136188383Y-88678663D01*
X136078069Y-88619699D01*
X135958372Y-88583389D01*
X135833890Y-88571128D01*
X135709408Y-88583388D01*
X135589710Y-88619698D01*
X135404493Y-88699743D01*
X135318578Y-88907160D01*
X134707758Y-88907160D01*
X134707758Y-87734459D01*
X135272759Y-87734459D01*
X135397241Y-87722199D01*
X135516939Y-87685889D01*
X135627253Y-87626924D01*
X135723944Y-87547572D01*
X135803296Y-87450881D01*
X135862261Y-87340567D01*
X135898571Y-87220869D01*
X135910831Y-87096387D01*
X135910831Y-86496387D01*
X135898571Y-86371905D01*
X135862261Y-86252207D01*
X135805698Y-86146387D01*
X135862261Y-86040567D01*
X135898571Y-85920869D01*
X135909447Y-85810437D01*
X139210929Y-85810437D01*
X139237713Y-86833259D01*
X139445199Y-87835174D01*
X139826830Y-88784511D01*
X140370543Y-89651264D01*
X141059152Y-90408035D01*
X141870890Y-91030903D01*
X142780099Y-91500181D01*
X143758041Y-91801035D01*
X144773804Y-91923956D01*
X145795281Y-91865058D01*
X146790184Y-91626203D01*
X147727065Y-91214941D01*
X148576312Y-90644271D01*
X148722472Y-90502632D01*
X152984361Y-90502632D01*
X152996622Y-90627114D01*
X153032932Y-90746811D01*
X153091896Y-90857125D01*
X153171248Y-90953817D01*
X153267939Y-91033169D01*
X153378254Y-91092133D01*
X153565822Y-91166501D01*
X153773239Y-91080587D01*
X154174770Y-90111206D01*
X153401713Y-89790996D01*
X153194296Y-89876910D01*
X153032932Y-90258452D01*
X152996621Y-90378150D01*
X152984361Y-90502632D01*
X148722472Y-90502632D01*
X149311080Y-89932232D01*
X149908143Y-89101329D01*
X150348631Y-88177828D01*
X150618619Y-87190919D01*
X150709573Y-86171796D01*
X150701686Y-85870603D01*
X150557520Y-84857637D01*
X150236251Y-83886210D01*
X149750844Y-82992201D01*
X153415537Y-82992201D01*
X153571225Y-83376093D01*
X153630189Y-83486408D01*
X153709542Y-83583099D01*
X153806234Y-83662451D01*
X153916548Y-83721415D01*
X154036245Y-83757725D01*
X154160727Y-83769986D01*
X154285209Y-83757726D01*
X154404907Y-83721416D01*
X154590124Y-83641371D01*
X154676039Y-83433954D01*
X154274508Y-82464573D01*
X153501452Y-82784784D01*
X153415537Y-82992201D01*
X149750844Y-82992201D01*
X149748035Y-82987028D01*
X149108303Y-82188512D01*
X148707057Y-81838482D01*
X152986898Y-81838482D01*
X152999158Y-81962964D01*
X153035469Y-82082662D01*
X153196833Y-82464204D01*
X153404250Y-82550118D01*
X154177307Y-82229908D01*
X153775776Y-81260527D01*
X153568359Y-81174613D01*
X153380791Y-81248981D01*
X153270476Y-81307945D01*
X153173785Y-81387297D01*
X153094433Y-81483989D01*
X153035469Y-81594303D01*
X152999159Y-81714000D01*
X152986898Y-81838482D01*
X148707057Y-81838482D01*
X148337277Y-81515903D01*
X147459328Y-80990461D01*
X146502207Y-80628795D01*
X145496166Y-80442337D01*
X144473007Y-80436980D01*
X143465069Y-80612893D01*
X142504213Y-80964516D01*
X141620810Y-81480736D01*
X140842783Y-82145233D01*
X140194724Y-82937006D01*
X139697119Y-83831027D01*
X139365695Y-84799036D01*
X139210929Y-85810437D01*
X135909447Y-85810437D01*
X135910831Y-85796387D01*
X135907759Y-85782137D01*
X135749009Y-85623387D01*
X134899759Y-85623387D01*
X134899759Y-85643387D01*
X134715973Y-85643387D01*
X134707758Y-85635172D01*
X134707758Y-85349387D01*
X134899759Y-85349387D01*
X134899759Y-85369387D01*
X135749009Y-85369387D01*
X135907759Y-85210637D01*
X135910831Y-85196387D01*
X135898571Y-85071905D01*
X135862261Y-84952207D01*
X135803296Y-84841893D01*
X135723944Y-84745202D01*
X135627253Y-84665850D01*
X135516939Y-84606885D01*
X135397241Y-84570575D01*
X135348587Y-84565783D01*
X135385831Y-84496106D01*
X135429288Y-84352845D01*
X135440285Y-84241192D01*
X135443962Y-84203859D01*
X135440285Y-84166526D01*
X135440285Y-83657936D01*
X135587173Y-83721416D01*
X135706871Y-83757726D01*
X135831353Y-83769986D01*
X135955835Y-83757725D01*
X136075532Y-83721415D01*
X136185846Y-83662451D01*
X136282538Y-83583099D01*
X136361891Y-83486408D01*
X136420855Y-83376093D01*
X136576543Y-82992201D01*
X136490628Y-82784784D01*
X135717572Y-82464573D01*
X135709918Y-82483051D01*
X135475253Y-82385850D01*
X135482907Y-82367372D01*
X135464429Y-82359718D01*
X135561630Y-82125053D01*
X135580108Y-82132707D01*
X135587762Y-82114229D01*
X135822427Y-82211430D01*
X135814773Y-82229908D01*
X136587830Y-82550118D01*
X136795247Y-82464204D01*
X136956611Y-82082662D01*
X136992922Y-81962964D01*
X137005182Y-81838482D01*
X136992921Y-81714000D01*
X136956611Y-81594303D01*
X136897647Y-81483989D01*
X136818295Y-81387297D01*
X136721604Y-81307945D01*
X136611289Y-81248981D01*
X136423721Y-81174613D01*
X136297748Y-81226792D01*
X136319003Y-81156722D01*
X136330000Y-81045069D01*
X136330000Y-81045059D01*
X136333676Y-81007737D01*
X136330000Y-80970414D01*
X136330000Y-80332272D01*
X136618200Y-80044073D01*
X137017723Y-80443596D01*
X137114414Y-80522948D01*
X137224728Y-80581913D01*
X137344426Y-80618223D01*
X137468908Y-80630483D01*
X137593390Y-80618223D01*
X137713088Y-80581913D01*
X137823402Y-80522948D01*
X137920093Y-80443596D01*
X138133790Y-80229899D01*
X152031292Y-80229899D01*
X152031292Y-80454405D01*
X152039196Y-80466653D01*
X152135887Y-80546006D01*
X152246201Y-80604971D01*
X152365899Y-80641280D01*
X152490381Y-80653540D01*
X152614862Y-80641280D01*
X152734560Y-80604971D01*
X152844874Y-80546006D01*
X152941566Y-80466653D01*
X153090891Y-80312984D01*
X153090891Y-80088477D01*
X152631802Y-79629388D01*
X152031292Y-80229899D01*
X138133790Y-80229899D01*
X138344357Y-80019332D01*
X138423709Y-79922641D01*
X138482674Y-79812327D01*
X138517505Y-79697505D01*
X138632327Y-79662675D01*
X138742641Y-79603710D01*
X138839332Y-79524357D01*
X138847236Y-79512109D01*
X138847236Y-79287603D01*
X138246726Y-78687092D01*
X138232584Y-78701235D01*
X138052979Y-78521630D01*
X138067121Y-78507487D01*
X138426331Y-78507487D01*
X139026842Y-79107997D01*
X139251348Y-79107997D01*
X139263596Y-79100093D01*
X139342949Y-79003402D01*
X139401914Y-78893088D01*
X139438223Y-78773390D01*
X139450483Y-78648908D01*
X139438223Y-78524427D01*
X139401914Y-78404729D01*
X139342949Y-78294415D01*
X139263596Y-78197723D01*
X139109927Y-78048398D01*
X138885420Y-78048398D01*
X138426331Y-78507487D01*
X138067121Y-78507487D01*
X138052978Y-78493345D01*
X138232584Y-78313739D01*
X138246726Y-78327882D01*
X138705815Y-77868793D01*
X138705815Y-77644286D01*
X138650266Y-77587121D01*
X139985813Y-77587121D01*
X140060181Y-77774689D01*
X140119145Y-77885004D01*
X140198497Y-77981695D01*
X140295189Y-78061047D01*
X140405503Y-78120011D01*
X140525200Y-78156321D01*
X140649682Y-78168582D01*
X140774164Y-78156322D01*
X140893862Y-78120011D01*
X141275404Y-77958647D01*
X141361318Y-77751230D01*
X141041108Y-76978173D01*
X140071727Y-77379704D01*
X139985813Y-77587121D01*
X138650266Y-77587121D01*
X138556490Y-77490617D01*
X138459798Y-77411264D01*
X138349484Y-77352299D01*
X138229786Y-77315990D01*
X138105305Y-77303730D01*
X138028728Y-77311272D01*
X138036270Y-77234695D01*
X138024010Y-77110213D01*
X137987700Y-76990515D01*
X137928735Y-76880201D01*
X137849383Y-76783510D01*
X137449860Y-76383987D01*
X137868882Y-75964966D01*
X139328342Y-75964966D01*
X139330859Y-75969675D01*
X139440525Y-76103304D01*
X139574153Y-76212969D01*
X139726609Y-76294458D01*
X139734478Y-76296845D01*
X139687065Y-76385548D01*
X139650755Y-76505245D01*
X139638494Y-76629727D01*
X139650754Y-76754209D01*
X139687064Y-76873907D01*
X139767109Y-77059124D01*
X139974526Y-77145039D01*
X140612039Y-76880972D01*
X141275773Y-76880972D01*
X141595984Y-77654028D01*
X141803401Y-77739943D01*
X142187293Y-77584255D01*
X142297608Y-77525291D01*
X142394299Y-77445938D01*
X142473651Y-77349246D01*
X142532615Y-77238932D01*
X142568925Y-77119235D01*
X142581186Y-76994753D01*
X142568926Y-76870271D01*
X142532616Y-76750573D01*
X142452571Y-76565356D01*
X142245154Y-76479441D01*
X141275773Y-76880972D01*
X140612039Y-76880972D01*
X140943907Y-76743508D01*
X140936253Y-76725030D01*
X141170918Y-76627829D01*
X141178572Y-76646307D01*
X142147953Y-76244776D01*
X142233867Y-76037359D01*
X142205164Y-75964966D01*
X143196565Y-75964966D01*
X143240034Y-75969247D01*
X143283503Y-75964966D01*
X143283511Y-75964966D01*
X143391928Y-75954288D01*
X143391928Y-76490000D01*
X143404188Y-76614482D01*
X143440498Y-76734180D01*
X143499463Y-76844494D01*
X143578815Y-76941185D01*
X143675506Y-77020537D01*
X143785820Y-77079502D01*
X143905518Y-77115812D01*
X144030000Y-77128072D01*
X144630000Y-77128072D01*
X144754482Y-77115812D01*
X144874180Y-77079502D01*
X144980000Y-77022939D01*
X145085820Y-77079502D01*
X145205518Y-77115812D01*
X145330000Y-77128072D01*
X145344250Y-77125000D01*
X145503000Y-76966250D01*
X145503000Y-76117000D01*
X145757000Y-76117000D01*
X145757000Y-76966250D01*
X145915750Y-77125000D01*
X145930000Y-77128072D01*
X146054482Y-77115812D01*
X146174180Y-77079502D01*
X146284494Y-77020537D01*
X146309729Y-76999827D01*
X147379162Y-76999827D01*
X147391423Y-77124309D01*
X147427733Y-77244006D01*
X147486697Y-77354320D01*
X147566049Y-77451012D01*
X147662740Y-77530365D01*
X147773055Y-77589329D01*
X148156947Y-77745017D01*
X148364364Y-77659102D01*
X148684575Y-76886046D01*
X147715194Y-76484515D01*
X147507777Y-76570430D01*
X147427732Y-76755647D01*
X147391422Y-76875345D01*
X147379162Y-76999827D01*
X146309729Y-76999827D01*
X146381185Y-76941185D01*
X146460537Y-76844494D01*
X146519502Y-76734180D01*
X146555812Y-76614482D01*
X146568072Y-76490000D01*
X146565000Y-76275750D01*
X146406250Y-76117000D01*
X145757000Y-76117000D01*
X145503000Y-76117000D01*
X145483000Y-76117000D01*
X145483000Y-75924999D01*
X147773042Y-75924999D01*
X147726481Y-76042433D01*
X147726481Y-76042433D01*
G37*
X147726481Y-76042433D02*
X147812395Y-76249850D01*
X148781776Y-76651381D01*
X148789430Y-76632903D01*
X149024095Y-76730104D01*
X149016441Y-76748582D01*
X149034919Y-76756236D01*
X148937718Y-76990901D01*
X148919240Y-76983247D01*
X148599030Y-77756304D01*
X148684944Y-77963721D01*
X149066486Y-78125085D01*
X149186184Y-78161396D01*
X149310666Y-78173656D01*
X149435148Y-78161395D01*
X149554845Y-78125085D01*
X149665159Y-78066121D01*
X149761851Y-77986769D01*
X149841203Y-77890078D01*
X149900167Y-77779763D01*
X149959146Y-77631009D01*
X150419138Y-78091002D01*
X150442937Y-78120001D01*
X150523361Y-78186003D01*
X150558662Y-78214974D01*
X150657223Y-78267656D01*
X150616341Y-78317471D01*
X150557376Y-78427785D01*
X150521066Y-78547483D01*
X150508806Y-78671965D01*
X150521066Y-78796447D01*
X150557376Y-78916145D01*
X150616341Y-79026459D01*
X150695693Y-79123150D01*
X151119957Y-79547414D01*
X151216648Y-79626766D01*
X151326962Y-79685731D01*
X151441784Y-79720562D01*
X151476614Y-79835384D01*
X151535579Y-79945698D01*
X151614932Y-80042389D01*
X151627180Y-80050293D01*
X151851686Y-80050293D01*
X152452197Y-79449783D01*
X152438055Y-79435641D01*
X152573827Y-79299868D01*
X154189579Y-80915621D01*
X154096356Y-80955909D01*
X154010441Y-81163326D01*
X154344510Y-81969839D01*
X154343283Y-81982297D01*
X154346959Y-82019619D01*
X154346959Y-82019629D01*
X154357956Y-82131282D01*
X154393000Y-82246807D01*
X154401413Y-82274543D01*
X154471985Y-82406573D01*
X154493974Y-82433366D01*
X154566958Y-82522298D01*
X154576635Y-82530240D01*
X154910704Y-83336753D01*
X155118121Y-83422667D01*
X155201389Y-83389653D01*
X155201388Y-84609169D01*
X154636387Y-84609169D01*
X154511905Y-84621429D01*
X154392207Y-84657739D01*
X154281893Y-84716704D01*
X154185202Y-84796056D01*
X154105850Y-84892747D01*
X154046885Y-85003061D01*
X154010575Y-85122759D01*
X153998315Y-85247241D01*
X153998315Y-85847241D01*
X154010575Y-85971723D01*
X154046885Y-86091421D01*
X154103448Y-86197241D01*
X154046885Y-86303061D01*
X154010575Y-86422759D01*
X153998315Y-86547241D01*
X154001387Y-86561491D01*
X154160137Y-86720241D01*
X155009387Y-86720241D01*
X155009387Y-86700241D01*
X155193173Y-86700241D01*
X155201389Y-86708457D01*
X155201388Y-86994241D01*
X155009387Y-86994241D01*
X155009387Y-86974241D01*
X154160137Y-86974241D01*
X154001387Y-87132991D01*
X153998315Y-87147241D01*
X154010575Y-87271723D01*
X154046885Y-87391421D01*
X154105850Y-87501735D01*
X154185202Y-87598426D01*
X154281893Y-87677778D01*
X154392207Y-87736743D01*
X154511905Y-87773053D01*
X154599303Y-87781661D01*
X154583071Y-87835174D01*
X154561427Y-87906528D01*
X154560256Y-87910387D01*
X154545582Y-88059372D01*
X154549259Y-88096704D01*
X154549259Y-88683179D01*
X154402370Y-88619698D01*
X154282672Y-88583388D01*
X154158190Y-88571128D01*
X154033708Y-88583389D01*
X153914011Y-88619699D01*
X153803697Y-88678663D01*
X153707005Y-88758015D01*
X153627652Y-88854706D01*
X153568688Y-88965021D01*
X153413000Y-89348913D01*
X153498915Y-89556330D01*
X154271971Y-89876541D01*
X154279625Y-89858063D01*
X154514290Y-89955264D01*
X154506636Y-89973742D01*
X154525114Y-89981396D01*
X154427913Y-90216061D01*
X154409435Y-90208407D01*
X154368751Y-90306627D01*
X154356202Y-90321918D01*
X154356201Y-90321919D01*
X154285026Y-90408645D01*
X154214454Y-90540675D01*
X154195306Y-90603800D01*
X154170998Y-90683935D01*
X154164301Y-90751933D01*
X154158062Y-90815275D01*
X154007904Y-91177788D01*
X154093819Y-91385205D01*
X154160000Y-91413807D01*
X154160000Y-91457586D01*
X153305130Y-92312457D01*
X152905607Y-91912934D01*
X152808916Y-91833582D01*
X152698602Y-91774617D01*
X152578904Y-91738307D01*
X152454422Y-91726047D01*
X152329940Y-91738307D01*
X152210242Y-91774617D01*
X152099928Y-91833582D01*
X152003237Y-91912934D01*
X151578973Y-92337198D01*
X151499621Y-92433889D01*
X151440656Y-92544203D01*
X151405825Y-92659025D01*
X151291003Y-92693855D01*
X151180689Y-92752820D01*
X151083998Y-92832173D01*
X151076094Y-92844421D01*
X151076094Y-93068927D01*
X151676604Y-93669438D01*
X151690747Y-93655296D01*
X151826519Y-93791068D01*
X151637850Y-93979738D01*
X151599409Y-93979738D01*
X151482857Y-93863186D01*
X151496999Y-93849043D01*
X150896488Y-93248533D01*
X150671982Y-93248533D01*
X150659734Y-93256437D01*
X150580381Y-93353128D01*
X150521416Y-93463442D01*
X150485107Y-93583140D01*
X150472847Y-93707622D01*
X150485107Y-93832103D01*
X150521416Y-93951801D01*
X150580381Y-94062115D01*
X150613315Y-94102245D01*
X150608603Y-94104764D01*
X150528353Y-94170624D01*
X150492879Y-94199737D01*
X150469081Y-94228735D01*
X149984546Y-94713271D01*
X149925567Y-94564517D01*
X149866603Y-94454202D01*
X149787251Y-94357511D01*
X149690559Y-94278159D01*
X149580245Y-94219195D01*
X149460548Y-94182885D01*
X149336066Y-94170624D01*
X149211584Y-94182884D01*
X149091886Y-94219195D01*
X148710344Y-94380559D01*
X148624430Y-94587976D01*
X148944640Y-95361033D01*
X148963118Y-95353379D01*
X149060319Y-95588044D01*
X149041841Y-95595698D01*
X149049495Y-95614176D01*
X148814830Y-95711377D01*
X148807176Y-95692899D01*
X147837795Y-96094430D01*
X147751881Y-96301847D01*
X147798183Y-96418629D01*
X146517218Y-96418629D01*
X146517218Y-95853628D01*
X146504958Y-95729146D01*
X146468648Y-95609448D01*
X146409683Y-95499134D01*
X146330331Y-95402443D01*
X146259670Y-95344453D01*
X147404562Y-95344453D01*
X147416822Y-95468935D01*
X147453132Y-95588633D01*
X147533177Y-95773850D01*
X147740594Y-95859765D01*
X148709975Y-95458234D01*
X148389764Y-94685178D01*
X148182347Y-94599263D01*
X147798455Y-94754951D01*
X147688140Y-94813915D01*
X147591449Y-94893268D01*
X147512097Y-94989960D01*
X147453133Y-95100274D01*
X147416823Y-95219971D01*
X147404562Y-95344453D01*
X146259670Y-95344453D01*
X146233640Y-95323091D01*
X146123326Y-95264126D01*
X146003628Y-95227816D01*
X145879146Y-95215556D01*
X145279146Y-95215556D01*
X145154664Y-95227816D01*
X145034966Y-95264126D01*
X144929146Y-95320689D01*
X144823326Y-95264126D01*
X144703628Y-95227816D01*
X144579146Y-95215556D01*
X144564896Y-95218628D01*
X144406146Y-95377378D01*
X144406146Y-96226628D01*
X144426146Y-96226628D01*
X144426146Y-96410414D01*
X144417931Y-96418629D01*
X144132146Y-96418629D01*
X144132146Y-96226628D01*
X144152146Y-96226628D01*
X144152146Y-95377378D01*
X143993396Y-95218628D01*
X143979146Y-95215556D01*
X143854664Y-95227816D01*
X143734966Y-95264126D01*
X143624652Y-95323091D01*
X143527961Y-95402443D01*
X143448609Y-95499134D01*
X143389644Y-95609448D01*
X143353334Y-95729146D01*
X143346045Y-95803153D01*
X143336198Y-95797889D01*
X143192937Y-95754432D01*
X143081284Y-95743435D01*
X143081273Y-95743435D01*
X143043951Y-95739759D01*
X143006629Y-95743435D01*
X142496653Y-95743435D01*
X142557423Y-95606120D01*
X142594777Y-95486744D01*
X142608123Y-95362374D01*
X142596949Y-95237790D01*
X142561685Y-95117780D01*
X142503686Y-95006956D01*
X142425180Y-94909575D01*
X142329185Y-94829382D01*
X142219389Y-94769457D01*
X141836870Y-94610425D01*
X141628711Y-94694526D01*
X141301767Y-95464759D01*
X141320177Y-95472574D01*
X141220932Y-95706382D01*
X141202521Y-95698567D01*
X141194706Y-95716977D01*
X140960898Y-95617731D01*
X140968713Y-95599321D01*
X140856479Y-95551680D01*
X140811815Y-95515026D01*
X140679786Y-95444454D01*
X140536525Y-95400997D01*
X140490905Y-95396504D01*
X140002873Y-95189347D01*
X139794715Y-95273448D01*
X139743134Y-95390000D01*
X139681559Y-95390000D01*
X139038939Y-94747380D01*
X140018017Y-94747380D01*
X140102119Y-94955538D01*
X141067959Y-95365513D01*
X141394903Y-94595281D01*
X141310801Y-94387122D01*
X140930683Y-94222434D01*
X140811306Y-94185080D01*
X140686936Y-94171734D01*
X140562352Y-94182908D01*
X140442342Y-94218172D01*
X140331518Y-94276171D01*
X140234137Y-94354676D01*
X140153944Y-94450672D01*
X140094020Y-94560468D01*
X140018017Y-94747380D01*
X139038939Y-94747380D01*
X138813930Y-94522371D01*
X139213453Y-94122848D01*
X139292805Y-94026157D01*
X139351770Y-93915843D01*
X139388080Y-93796145D01*
X139400340Y-93671663D01*
X139388080Y-93547181D01*
X139351770Y-93427483D01*
X139292805Y-93317169D01*
X139213453Y-93220478D01*
X138789189Y-92796214D01*
X138692498Y-92716862D01*
X138582184Y-92657897D01*
X138467362Y-92623066D01*
X138432532Y-92508244D01*
X138373567Y-92397930D01*
X138294214Y-92301239D01*
X138281966Y-92293335D01*
X138057460Y-92293335D01*
X137456949Y-92893845D01*
X137471092Y-92907988D01*
X137335319Y-93043760D01*
X136322203Y-92030644D01*
X136818255Y-92030644D01*
X136818255Y-92255151D01*
X137277344Y-92714240D01*
X137877854Y-92113729D01*
X137877854Y-91889223D01*
X137869950Y-91876975D01*
X137773259Y-91797622D01*
X137662945Y-91738657D01*
X137543247Y-91702348D01*
X137418765Y-91690088D01*
X137294284Y-91702348D01*
X137174586Y-91738657D01*
X137064272Y-91797622D01*
X136967580Y-91876975D01*
X136818255Y-92030644D01*
X136322203Y-92030644D01*
X135743602Y-91452044D01*
X135898261Y-91385205D01*
X135984176Y-91177788D01*
X135650107Y-90371274D01*
X135651334Y-90358816D01*
X135647658Y-90321493D01*
X135647658Y-90321484D01*
X135636661Y-90209831D01*
X135606744Y-90111206D01*
X135817310Y-90111206D01*
X136218841Y-91080587D01*
X136426258Y-91166501D01*
X136613826Y-91092133D01*
X136724141Y-91033169D01*
X136820832Y-90953817D01*
X136900184Y-90857125D01*
X136959148Y-90746811D01*
X136995458Y-90627114D01*
X137007719Y-90502632D01*
X136995459Y-90378150D01*
X136959148Y-90258452D01*
X136797784Y-89876910D01*
X136590367Y-89790996D01*
X135817310Y-90111206D01*
X135606744Y-90111206D01*
X135593204Y-90066570D01*
X135522632Y-89934541D01*
X135427659Y-89818816D01*
X135417982Y-89810874D01*
X135083913Y-89004361D01*
X134876496Y-88918447D01*
X134707758Y-88985349D01*
X134707758Y-88907160D01*
X135318578Y-88907160D01*
X135720109Y-89876541D01*
X136493165Y-89556330D01*
X136579080Y-89348913D01*
X136423392Y-88965021D01*
X136364428Y-88854706D01*
X136285075Y-88758015D01*
X136188383Y-88678663D01*
X136078069Y-88619699D01*
X135958372Y-88583389D01*
X135833890Y-88571128D01*
X135709408Y-88583388D01*
X135589710Y-88619698D01*
X135404493Y-88699743D01*
X135318578Y-88907160D01*
X134707758Y-88907160D01*
X134707758Y-87734459D01*
X135272759Y-87734459D01*
X135397241Y-87722199D01*
X135516939Y-87685889D01*
X135627253Y-87626924D01*
X135723944Y-87547572D01*
X135803296Y-87450881D01*
X135862261Y-87340567D01*
X135898571Y-87220869D01*
X135910831Y-87096387D01*
X135910831Y-86496387D01*
X135898571Y-86371905D01*
X135862261Y-86252207D01*
X135805698Y-86146387D01*
X135862261Y-86040567D01*
X135898571Y-85920869D01*
X135909447Y-85810437D01*
X139210929Y-85810437D01*
X139237713Y-86833259D01*
X139445199Y-87835174D01*
X139826830Y-88784511D01*
X140370543Y-89651264D01*
X141059152Y-90408035D01*
X141870890Y-91030903D01*
X142780099Y-91500181D01*
X143758041Y-91801035D01*
X144773804Y-91923956D01*
X145795281Y-91865058D01*
X146790184Y-91626203D01*
X147727065Y-91214941D01*
X148576312Y-90644271D01*
X148722472Y-90502632D01*
X152984361Y-90502632D01*
X152996622Y-90627114D01*
X153032932Y-90746811D01*
X153091896Y-90857125D01*
X153171248Y-90953817D01*
X153267939Y-91033169D01*
X153378254Y-91092133D01*
X153565822Y-91166501D01*
X153773239Y-91080587D01*
X154174770Y-90111206D01*
X153401713Y-89790996D01*
X153194296Y-89876910D01*
X153032932Y-90258452D01*
X152996621Y-90378150D01*
X152984361Y-90502632D01*
X148722472Y-90502632D01*
X149311080Y-89932232D01*
X149908143Y-89101329D01*
X150348631Y-88177828D01*
X150618619Y-87190919D01*
X150709573Y-86171796D01*
X150701686Y-85870603D01*
X150557520Y-84857637D01*
X150236251Y-83886210D01*
X149750844Y-82992201D01*
X153415537Y-82992201D01*
X153571225Y-83376093D01*
X153630189Y-83486408D01*
X153709542Y-83583099D01*
X153806234Y-83662451D01*
X153916548Y-83721415D01*
X154036245Y-83757725D01*
X154160727Y-83769986D01*
X154285209Y-83757726D01*
X154404907Y-83721416D01*
X154590124Y-83641371D01*
X154676039Y-83433954D01*
X154274508Y-82464573D01*
X153501452Y-82784784D01*
X153415537Y-82992201D01*
X149750844Y-82992201D01*
X149748035Y-82987028D01*
X149108303Y-82188512D01*
X148707057Y-81838482D01*
X152986898Y-81838482D01*
X152999158Y-81962964D01*
X153035469Y-82082662D01*
X153196833Y-82464204D01*
X153404250Y-82550118D01*
X154177307Y-82229908D01*
X153775776Y-81260527D01*
X153568359Y-81174613D01*
X153380791Y-81248981D01*
X153270476Y-81307945D01*
X153173785Y-81387297D01*
X153094433Y-81483989D01*
X153035469Y-81594303D01*
X152999159Y-81714000D01*
X152986898Y-81838482D01*
X148707057Y-81838482D01*
X148337277Y-81515903D01*
X147459328Y-80990461D01*
X146502207Y-80628795D01*
X145496166Y-80442337D01*
X144473007Y-80436980D01*
X143465069Y-80612893D01*
X142504213Y-80964516D01*
X141620810Y-81480736D01*
X140842783Y-82145233D01*
X140194724Y-82937006D01*
X139697119Y-83831027D01*
X139365695Y-84799036D01*
X139210929Y-85810437D01*
X135909447Y-85810437D01*
X135910831Y-85796387D01*
X135907759Y-85782137D01*
X135749009Y-85623387D01*
X134899759Y-85623387D01*
X134899759Y-85643387D01*
X134715973Y-85643387D01*
X134707758Y-85635172D01*
X134707758Y-85349387D01*
X134899759Y-85349387D01*
X134899759Y-85369387D01*
X135749009Y-85369387D01*
X135907759Y-85210637D01*
X135910831Y-85196387D01*
X135898571Y-85071905D01*
X135862261Y-84952207D01*
X135803296Y-84841893D01*
X135723944Y-84745202D01*
X135627253Y-84665850D01*
X135516939Y-84606885D01*
X135397241Y-84570575D01*
X135348587Y-84565783D01*
X135385831Y-84496106D01*
X135429288Y-84352845D01*
X135440285Y-84241192D01*
X135443962Y-84203859D01*
X135440285Y-84166526D01*
X135440285Y-83657936D01*
X135587173Y-83721416D01*
X135706871Y-83757726D01*
X135831353Y-83769986D01*
X135955835Y-83757725D01*
X136075532Y-83721415D01*
X136185846Y-83662451D01*
X136282538Y-83583099D01*
X136361891Y-83486408D01*
X136420855Y-83376093D01*
X136576543Y-82992201D01*
X136490628Y-82784784D01*
X135717572Y-82464573D01*
X135709918Y-82483051D01*
X135475253Y-82385850D01*
X135482907Y-82367372D01*
X135464429Y-82359718D01*
X135561630Y-82125053D01*
X135580108Y-82132707D01*
X135587762Y-82114229D01*
X135822427Y-82211430D01*
X135814773Y-82229908D01*
X136587830Y-82550118D01*
X136795247Y-82464204D01*
X136956611Y-82082662D01*
X136992922Y-81962964D01*
X137005182Y-81838482D01*
X136992921Y-81714000D01*
X136956611Y-81594303D01*
X136897647Y-81483989D01*
X136818295Y-81387297D01*
X136721604Y-81307945D01*
X136611289Y-81248981D01*
X136423721Y-81174613D01*
X136297748Y-81226792D01*
X136319003Y-81156722D01*
X136330000Y-81045069D01*
X136330000Y-81045059D01*
X136333676Y-81007737D01*
X136330000Y-80970414D01*
X136330000Y-80332272D01*
X136618200Y-80044073D01*
X137017723Y-80443596D01*
X137114414Y-80522948D01*
X137224728Y-80581913D01*
X137344426Y-80618223D01*
X137468908Y-80630483D01*
X137593390Y-80618223D01*
X137713088Y-80581913D01*
X137823402Y-80522948D01*
X137920093Y-80443596D01*
X138133790Y-80229899D01*
X152031292Y-80229899D01*
X152031292Y-80454405D01*
X152039196Y-80466653D01*
X152135887Y-80546006D01*
X152246201Y-80604971D01*
X152365899Y-80641280D01*
X152490381Y-80653540D01*
X152614862Y-80641280D01*
X152734560Y-80604971D01*
X152844874Y-80546006D01*
X152941566Y-80466653D01*
X153090891Y-80312984D01*
X153090891Y-80088477D01*
X152631802Y-79629388D01*
X152031292Y-80229899D01*
X138133790Y-80229899D01*
X138344357Y-80019332D01*
X138423709Y-79922641D01*
X138482674Y-79812327D01*
X138517505Y-79697505D01*
X138632327Y-79662675D01*
X138742641Y-79603710D01*
X138839332Y-79524357D01*
X138847236Y-79512109D01*
X138847236Y-79287603D01*
X138246726Y-78687092D01*
X138232584Y-78701235D01*
X138052979Y-78521630D01*
X138067121Y-78507487D01*
X138426331Y-78507487D01*
X139026842Y-79107997D01*
X139251348Y-79107997D01*
X139263596Y-79100093D01*
X139342949Y-79003402D01*
X139401914Y-78893088D01*
X139438223Y-78773390D01*
X139450483Y-78648908D01*
X139438223Y-78524427D01*
X139401914Y-78404729D01*
X139342949Y-78294415D01*
X139263596Y-78197723D01*
X139109927Y-78048398D01*
X138885420Y-78048398D01*
X138426331Y-78507487D01*
X138067121Y-78507487D01*
X138052978Y-78493345D01*
X138232584Y-78313739D01*
X138246726Y-78327882D01*
X138705815Y-77868793D01*
X138705815Y-77644286D01*
X138650266Y-77587121D01*
X139985813Y-77587121D01*
X140060181Y-77774689D01*
X140119145Y-77885004D01*
X140198497Y-77981695D01*
X140295189Y-78061047D01*
X140405503Y-78120011D01*
X140525200Y-78156321D01*
X140649682Y-78168582D01*
X140774164Y-78156322D01*
X140893862Y-78120011D01*
X141275404Y-77958647D01*
X141361318Y-77751230D01*
X141041108Y-76978173D01*
X140071727Y-77379704D01*
X139985813Y-77587121D01*
X138650266Y-77587121D01*
X138556490Y-77490617D01*
X138459798Y-77411264D01*
X138349484Y-77352299D01*
X138229786Y-77315990D01*
X138105305Y-77303730D01*
X138028728Y-77311272D01*
X138036270Y-77234695D01*
X138024010Y-77110213D01*
X137987700Y-76990515D01*
X137928735Y-76880201D01*
X137849383Y-76783510D01*
X137449860Y-76383987D01*
X137868882Y-75964966D01*
X139328342Y-75964966D01*
X139330859Y-75969675D01*
X139440525Y-76103304D01*
X139574153Y-76212969D01*
X139726609Y-76294458D01*
X139734478Y-76296845D01*
X139687065Y-76385548D01*
X139650755Y-76505245D01*
X139638494Y-76629727D01*
X139650754Y-76754209D01*
X139687064Y-76873907D01*
X139767109Y-77059124D01*
X139974526Y-77145039D01*
X140612039Y-76880972D01*
X141275773Y-76880972D01*
X141595984Y-77654028D01*
X141803401Y-77739943D01*
X142187293Y-77584255D01*
X142297608Y-77525291D01*
X142394299Y-77445938D01*
X142473651Y-77349246D01*
X142532615Y-77238932D01*
X142568925Y-77119235D01*
X142581186Y-76994753D01*
X142568926Y-76870271D01*
X142532616Y-76750573D01*
X142452571Y-76565356D01*
X142245154Y-76479441D01*
X141275773Y-76880972D01*
X140612039Y-76880972D01*
X140943907Y-76743508D01*
X140936253Y-76725030D01*
X141170918Y-76627829D01*
X141178572Y-76646307D01*
X142147953Y-76244776D01*
X142233867Y-76037359D01*
X142205164Y-75964966D01*
X143196565Y-75964966D01*
X143240034Y-75969247D01*
X143283503Y-75964966D01*
X143283511Y-75964966D01*
X143391928Y-75954288D01*
X143391928Y-76490000D01*
X143404188Y-76614482D01*
X143440498Y-76734180D01*
X143499463Y-76844494D01*
X143578815Y-76941185D01*
X143675506Y-77020537D01*
X143785820Y-77079502D01*
X143905518Y-77115812D01*
X144030000Y-77128072D01*
X144630000Y-77128072D01*
X144754482Y-77115812D01*
X144874180Y-77079502D01*
X144980000Y-77022939D01*
X145085820Y-77079502D01*
X145205518Y-77115812D01*
X145330000Y-77128072D01*
X145344250Y-77125000D01*
X145503000Y-76966250D01*
X145503000Y-76117000D01*
X145757000Y-76117000D01*
X145757000Y-76966250D01*
X145915750Y-77125000D01*
X145930000Y-77128072D01*
X146054482Y-77115812D01*
X146174180Y-77079502D01*
X146284494Y-77020537D01*
X146309729Y-76999827D01*
X147379162Y-76999827D01*
X147391423Y-77124309D01*
X147427733Y-77244006D01*
X147486697Y-77354320D01*
X147566049Y-77451012D01*
X147662740Y-77530365D01*
X147773055Y-77589329D01*
X148156947Y-77745017D01*
X148364364Y-77659102D01*
X148684575Y-76886046D01*
X147715194Y-76484515D01*
X147507777Y-76570430D01*
X147427732Y-76755647D01*
X147391422Y-76875345D01*
X147379162Y-76999827D01*
X146309729Y-76999827D01*
X146381185Y-76941185D01*
X146460537Y-76844494D01*
X146519502Y-76734180D01*
X146555812Y-76614482D01*
X146568072Y-76490000D01*
X146565000Y-76275750D01*
X146406250Y-76117000D01*
X145757000Y-76117000D01*
X145503000Y-76117000D01*
X145483000Y-76117000D01*
X145483000Y-75924999D01*
X147773042Y-75924999D01*
X147726481Y-76042433D01*
G36*
X154894505Y-53187252D02*
G01*
X154551922Y-53478813D01*
X154272494Y-53831364D01*
X154066865Y-54231474D01*
X153942868Y-54663904D01*
X153905225Y-55112184D01*
X153955370Y-55559237D01*
X154091393Y-55988037D01*
X154308113Y-56382250D01*
X154597276Y-56726861D01*
X154947867Y-57008743D01*
X155346532Y-57217160D01*
X155778086Y-57344173D01*
X156226092Y-57384945D01*
X156673485Y-57337922D01*
X157103223Y-57204896D01*
X157498940Y-56990933D01*
X157845561Y-56704183D01*
X158129883Y-56355569D01*
X158275001Y-56082642D01*
X158275001Y-85234276D01*
X158272983Y-85232259D01*
X158262199Y-85122759D01*
X158225889Y-85003061D01*
X158166924Y-84892747D01*
X158087572Y-84796056D01*
X158021387Y-84741740D01*
X158021387Y-82685450D01*
X158025668Y-82641981D01*
X158021387Y-82598512D01*
X158021387Y-82598504D01*
X158008582Y-82468491D01*
X158007394Y-82464573D01*
X157988623Y-82402697D01*
X157957976Y-82301668D01*
X157875798Y-82147922D01*
X157765204Y-82013164D01*
X157731437Y-81985452D01*
X157270300Y-81524315D01*
X156960514Y-80776427D01*
X156960514Y-78765016D01*
X156964795Y-78721550D01*
X156960514Y-78678084D01*
X156960514Y-78678074D01*
X156947709Y-78548061D01*
X156897103Y-78381238D01*
X156814925Y-78227492D01*
X156770743Y-78173656D01*
X156732046Y-78126504D01*
X156732044Y-78126502D01*
X156704331Y-78092734D01*
X156670564Y-78065022D01*
X154702565Y-76097024D01*
X154674848Y-76063251D01*
X154540090Y-75952657D01*
X154386344Y-75870479D01*
X154219521Y-75819873D01*
X154089508Y-75807068D01*
X154089500Y-75807068D01*
X154046031Y-75802787D01*
X154002562Y-75807068D01*
X153594504Y-75807068D01*
X153551038Y-75802787D01*
X153507572Y-75807068D01*
X153507562Y-75807068D01*
X153377549Y-75819873D01*
X153210726Y-75870479D01*
X153159750Y-75897726D01*
X151752017Y-74489994D01*
X151724302Y-74456223D01*
X151589544Y-74345629D01*
X151504547Y-74300198D01*
X151550695Y-74148070D01*
X151559701Y-74056628D01*
X151563500Y-74018057D01*
X151563500Y-74018049D01*
X151567781Y-73974580D01*
X151563500Y-73931111D01*
X151563500Y-71957076D01*
X151621603Y-72044034D01*
X151765766Y-72188197D01*
X151935284Y-72301465D01*
X152123642Y-72379486D01*
X152323601Y-72419260D01*
X152527479Y-72419260D01*
X152727438Y-72379486D01*
X152915796Y-72301465D01*
X153085314Y-72188197D01*
X153229477Y-72044034D01*
X153342745Y-71874516D01*
X153420766Y-71686158D01*
X153460540Y-71486199D01*
X153460540Y-71282321D01*
X153420766Y-71082362D01*
X153342745Y-70894004D01*
X153229477Y-70724486D01*
X153185540Y-70680549D01*
X153185540Y-70506043D01*
X153189217Y-70468710D01*
X153174543Y-70319724D01*
X153131086Y-70176463D01*
X153060514Y-70044434D01*
X152989339Y-69957707D01*
X152965541Y-69928709D01*
X152936544Y-69904912D01*
X151721644Y-68690013D01*
X151697841Y-68661009D01*
X151582116Y-68566036D01*
X151450087Y-68495464D01*
X151306826Y-68452007D01*
X151195173Y-68441010D01*
X151195162Y-68441010D01*
X151157840Y-68437334D01*
X151120518Y-68441010D01*
X148153777Y-68441010D01*
X148116452Y-68437334D01*
X148079127Y-68441010D01*
X148079119Y-68441010D01*
X147967466Y-68452007D01*
X147824205Y-68495464D01*
X147692176Y-68566036D01*
X147576451Y-68661009D01*
X147552653Y-68690007D01*
X146940442Y-69302218D01*
X146925342Y-69252440D01*
X146866377Y-69142126D01*
X146787025Y-69045435D01*
X146695840Y-68970602D01*
X146695840Y-66498961D01*
X148919798Y-64275003D01*
X149021995Y-64521727D01*
X149174880Y-64750535D01*
X149284345Y-64860000D01*
X149174880Y-64969465D01*
X149021995Y-65198273D01*
X148916686Y-65452510D01*
X148863000Y-65722408D01*
X148863000Y-65997592D01*
X148916686Y-66267490D01*
X149021995Y-66521727D01*
X149174880Y-66750535D01*
X149369465Y-66945120D01*
X149598273Y-67098005D01*
X149852510Y-67203314D01*
X150122408Y-67257000D01*
X150397592Y-67257000D01*
X150667490Y-67203314D01*
X150921727Y-67098005D01*
X151150535Y-66945120D01*
X151345120Y-66750535D01*
X151498005Y-66521727D01*
X151603314Y-66267490D01*
X151657000Y-65997592D01*
X151657000Y-65722408D01*
X151603314Y-65452510D01*
X151498005Y-65198273D01*
X151345120Y-64969465D01*
X151235655Y-64860000D01*
X151345120Y-64750535D01*
X151498005Y-64521727D01*
X151603314Y-64267490D01*
X151657000Y-63997592D01*
X151657000Y-63722408D01*
X151603314Y-63452510D01*
X151498005Y-63198273D01*
X151345120Y-62969465D01*
X151235655Y-62860000D01*
X151345120Y-62750535D01*
X151498005Y-62521727D01*
X151603314Y-62267490D01*
X151657000Y-61997592D01*
X151657000Y-61722408D01*
X151603314Y-61452510D01*
X151498005Y-61198273D01*
X151435234Y-61104330D01*
X151473185Y-61073185D01*
X151552537Y-60976494D01*
X151611502Y-60866180D01*
X151647812Y-60746482D01*
X151660072Y-60622000D01*
X151657000Y-60145750D01*
X151498250Y-59987000D01*
X150387000Y-59987000D01*
X150387000Y-60007000D01*
X150133000Y-60007000D01*
X150133000Y-59987000D01*
X149021750Y-59987000D01*
X148863000Y-60145750D01*
X148859928Y-60622000D01*
X148872188Y-60746482D01*
X148908498Y-60866180D01*
X148967463Y-60976494D01*
X149046815Y-61073185D01*
X149079489Y-61100000D01*
X148157511Y-61100000D01*
X146155511Y-59098000D01*
X148859928Y-59098000D01*
X148863000Y-59574250D01*
X149021750Y-59733000D01*
X150133000Y-59733000D01*
X150133000Y-58621750D01*
X150387000Y-58621750D01*
X150387000Y-59733000D01*
X151498250Y-59733000D01*
X151657000Y-59574250D01*
X151660072Y-59098000D01*
X151647812Y-58973518D01*
X151611502Y-58853820D01*
X151552537Y-58743506D01*
X151473185Y-58646815D01*
X151376494Y-58567463D01*
X151266180Y-58508498D01*
X151146482Y-58472188D01*
X151022000Y-58459928D01*
X150545750Y-58463000D01*
X150387000Y-58621750D01*
X150133000Y-58621750D01*
X149974250Y-58463000D01*
X149498000Y-58459928D01*
X149373518Y-58472188D01*
X149253820Y-58508498D01*
X149143506Y-58567463D01*
X149046815Y-58646815D01*
X148967463Y-58743506D01*
X148908498Y-58853820D01*
X148872188Y-58973518D01*
X148859928Y-59098000D01*
X146155511Y-59098000D01*
X144226960Y-57169450D01*
X144226960Y-55585435D01*
X144295974Y-55548546D01*
X144522094Y-55362974D01*
X144707666Y-55136854D01*
X144736960Y-55082049D01*
X144766254Y-55136854D01*
X144951826Y-55362974D01*
X145177946Y-55548546D01*
X145435926Y-55686439D01*
X145715849Y-55771353D01*
X145934010Y-55792840D01*
X146079910Y-55792840D01*
X146298071Y-55771353D01*
X146577994Y-55686439D01*
X146835974Y-55548546D01*
X147062094Y-55362974D01*
X147247666Y-55136854D01*
X147276960Y-55082049D01*
X147306254Y-55136854D01*
X147491826Y-55362974D01*
X147717946Y-55548546D01*
X147975926Y-55686439D01*
X148255849Y-55771353D01*
X148474010Y-55792840D01*
X148619910Y-55792840D01*
X148838071Y-55771353D01*
X149117994Y-55686439D01*
X149375974Y-55548546D01*
X149602094Y-55362974D01*
X149787666Y-55136854D01*
X149925559Y-54878874D01*
X150010473Y-54598951D01*
X150039145Y-54307840D01*
X150010473Y-54016729D01*
X149925559Y-53736806D01*
X149787666Y-53478826D01*
X149602094Y-53252706D01*
X149375974Y-53067134D01*
X149278440Y-53015001D01*
X155202712Y-53015001D01*
X154894505Y-53187252D01*
X154894505Y-53187252D01*
G37*
X154894505Y-53187252D02*
X154551922Y-53478813D01*
X154272494Y-53831364D01*
X154066865Y-54231474D01*
X153942868Y-54663904D01*
X153905225Y-55112184D01*
X153955370Y-55559237D01*
X154091393Y-55988037D01*
X154308113Y-56382250D01*
X154597276Y-56726861D01*
X154947867Y-57008743D01*
X155346532Y-57217160D01*
X155778086Y-57344173D01*
X156226092Y-57384945D01*
X156673485Y-57337922D01*
X157103223Y-57204896D01*
X157498940Y-56990933D01*
X157845561Y-56704183D01*
X158129883Y-56355569D01*
X158275001Y-56082642D01*
X158275001Y-85234276D01*
X158272983Y-85232259D01*
X158262199Y-85122759D01*
X158225889Y-85003061D01*
X158166924Y-84892747D01*
X158087572Y-84796056D01*
X158021387Y-84741740D01*
X158021387Y-82685450D01*
X158025668Y-82641981D01*
X158021387Y-82598512D01*
X158021387Y-82598504D01*
X158008582Y-82468491D01*
X158007394Y-82464573D01*
X157988623Y-82402697D01*
X157957976Y-82301668D01*
X157875798Y-82147922D01*
X157765204Y-82013164D01*
X157731437Y-81985452D01*
X157270300Y-81524315D01*
X156960514Y-80776427D01*
X156960514Y-78765016D01*
X156964795Y-78721550D01*
X156960514Y-78678084D01*
X156960514Y-78678074D01*
X156947709Y-78548061D01*
X156897103Y-78381238D01*
X156814925Y-78227492D01*
X156770743Y-78173656D01*
X156732046Y-78126504D01*
X156732044Y-78126502D01*
X156704331Y-78092734D01*
X156670564Y-78065022D01*
X154702565Y-76097024D01*
X154674848Y-76063251D01*
X154540090Y-75952657D01*
X154386344Y-75870479D01*
X154219521Y-75819873D01*
X154089508Y-75807068D01*
X154089500Y-75807068D01*
X154046031Y-75802787D01*
X154002562Y-75807068D01*
X153594504Y-75807068D01*
X153551038Y-75802787D01*
X153507572Y-75807068D01*
X153507562Y-75807068D01*
X153377549Y-75819873D01*
X153210726Y-75870479D01*
X153159750Y-75897726D01*
X151752017Y-74489994D01*
X151724302Y-74456223D01*
X151589544Y-74345629D01*
X151504547Y-74300198D01*
X151550695Y-74148070D01*
X151559701Y-74056628D01*
X151563500Y-74018057D01*
X151563500Y-74018049D01*
X151567781Y-73974580D01*
X151563500Y-73931111D01*
X151563500Y-71957076D01*
X151621603Y-72044034D01*
X151765766Y-72188197D01*
X151935284Y-72301465D01*
X152123642Y-72379486D01*
X152323601Y-72419260D01*
X152527479Y-72419260D01*
X152727438Y-72379486D01*
X152915796Y-72301465D01*
X153085314Y-72188197D01*
X153229477Y-72044034D01*
X153342745Y-71874516D01*
X153420766Y-71686158D01*
X153460540Y-71486199D01*
X153460540Y-71282321D01*
X153420766Y-71082362D01*
X153342745Y-70894004D01*
X153229477Y-70724486D01*
X153185540Y-70680549D01*
X153185540Y-70506043D01*
X153189217Y-70468710D01*
X153174543Y-70319724D01*
X153131086Y-70176463D01*
X153060514Y-70044434D01*
X152989339Y-69957707D01*
X152965541Y-69928709D01*
X152936544Y-69904912D01*
X151721644Y-68690013D01*
X151697841Y-68661009D01*
X151582116Y-68566036D01*
X151450087Y-68495464D01*
X151306826Y-68452007D01*
X151195173Y-68441010D01*
X151195162Y-68441010D01*
X151157840Y-68437334D01*
X151120518Y-68441010D01*
X148153777Y-68441010D01*
X148116452Y-68437334D01*
X148079127Y-68441010D01*
X148079119Y-68441010D01*
X147967466Y-68452007D01*
X147824205Y-68495464D01*
X147692176Y-68566036D01*
X147576451Y-68661009D01*
X147552653Y-68690007D01*
X146940442Y-69302218D01*
X146925342Y-69252440D01*
X146866377Y-69142126D01*
X146787025Y-69045435D01*
X146695840Y-68970602D01*
X146695840Y-66498961D01*
X148919798Y-64275003D01*
X149021995Y-64521727D01*
X149174880Y-64750535D01*
X149284345Y-64860000D01*
X149174880Y-64969465D01*
X149021995Y-65198273D01*
X148916686Y-65452510D01*
X148863000Y-65722408D01*
X148863000Y-65997592D01*
X148916686Y-66267490D01*
X149021995Y-66521727D01*
X149174880Y-66750535D01*
X149369465Y-66945120D01*
X149598273Y-67098005D01*
X149852510Y-67203314D01*
X150122408Y-67257000D01*
X150397592Y-67257000D01*
X150667490Y-67203314D01*
X150921727Y-67098005D01*
X151150535Y-66945120D01*
X151345120Y-66750535D01*
X151498005Y-66521727D01*
X151603314Y-66267490D01*
X151657000Y-65997592D01*
X151657000Y-65722408D01*
X151603314Y-65452510D01*
X151498005Y-65198273D01*
X151345120Y-64969465D01*
X151235655Y-64860000D01*
X151345120Y-64750535D01*
X151498005Y-64521727D01*
X151603314Y-64267490D01*
X151657000Y-63997592D01*
X151657000Y-63722408D01*
X151603314Y-63452510D01*
X151498005Y-63198273D01*
X151345120Y-62969465D01*
X151235655Y-62860000D01*
X151345120Y-62750535D01*
X151498005Y-62521727D01*
X151603314Y-62267490D01*
X151657000Y-61997592D01*
X151657000Y-61722408D01*
X151603314Y-61452510D01*
X151498005Y-61198273D01*
X151435234Y-61104330D01*
X151473185Y-61073185D01*
X151552537Y-60976494D01*
X151611502Y-60866180D01*
X151647812Y-60746482D01*
X151660072Y-60622000D01*
X151657000Y-60145750D01*
X151498250Y-59987000D01*
X150387000Y-59987000D01*
X150387000Y-60007000D01*
X150133000Y-60007000D01*
X150133000Y-59987000D01*
X149021750Y-59987000D01*
X148863000Y-60145750D01*
X148859928Y-60622000D01*
X148872188Y-60746482D01*
X148908498Y-60866180D01*
X148967463Y-60976494D01*
X149046815Y-61073185D01*
X149079489Y-61100000D01*
X148157511Y-61100000D01*
X146155511Y-59098000D01*
X148859928Y-59098000D01*
X148863000Y-59574250D01*
X149021750Y-59733000D01*
X150133000Y-59733000D01*
X150133000Y-58621750D01*
X150387000Y-58621750D01*
X150387000Y-59733000D01*
X151498250Y-59733000D01*
X151657000Y-59574250D01*
X151660072Y-59098000D01*
X151647812Y-58973518D01*
X151611502Y-58853820D01*
X151552537Y-58743506D01*
X151473185Y-58646815D01*
X151376494Y-58567463D01*
X151266180Y-58508498D01*
X151146482Y-58472188D01*
X151022000Y-58459928D01*
X150545750Y-58463000D01*
X150387000Y-58621750D01*
X150133000Y-58621750D01*
X149974250Y-58463000D01*
X149498000Y-58459928D01*
X149373518Y-58472188D01*
X149253820Y-58508498D01*
X149143506Y-58567463D01*
X149046815Y-58646815D01*
X148967463Y-58743506D01*
X148908498Y-58853820D01*
X148872188Y-58973518D01*
X148859928Y-59098000D01*
X146155511Y-59098000D01*
X144226960Y-57169450D01*
X144226960Y-55585435D01*
X144295974Y-55548546D01*
X144522094Y-55362974D01*
X144707666Y-55136854D01*
X144736960Y-55082049D01*
X144766254Y-55136854D01*
X144951826Y-55362974D01*
X145177946Y-55548546D01*
X145435926Y-55686439D01*
X145715849Y-55771353D01*
X145934010Y-55792840D01*
X146079910Y-55792840D01*
X146298071Y-55771353D01*
X146577994Y-55686439D01*
X146835974Y-55548546D01*
X147062094Y-55362974D01*
X147247666Y-55136854D01*
X147276960Y-55082049D01*
X147306254Y-55136854D01*
X147491826Y-55362974D01*
X147717946Y-55548546D01*
X147975926Y-55686439D01*
X148255849Y-55771353D01*
X148474010Y-55792840D01*
X148619910Y-55792840D01*
X148838071Y-55771353D01*
X149117994Y-55686439D01*
X149375974Y-55548546D01*
X149602094Y-55362974D01*
X149787666Y-55136854D01*
X149925559Y-54878874D01*
X150010473Y-54598951D01*
X150039145Y-54307840D01*
X150010473Y-54016729D01*
X149925559Y-53736806D01*
X149787666Y-53478826D01*
X149602094Y-53252706D01*
X149375974Y-53067134D01*
X149278440Y-53015001D01*
X155202712Y-53015001D01*
X154894505Y-53187252D01*
G36*
X139546423Y-53103346D02*
G01*
X139487458Y-53213660D01*
X139451148Y-53333358D01*
X139438888Y-53457840D01*
X139441960Y-54022090D01*
X139600710Y-54180840D01*
X140799960Y-54180840D01*
X140799960Y-54160840D01*
X141053960Y-54160840D01*
X141053960Y-54180840D01*
X141073960Y-54180840D01*
X141073960Y-54434840D01*
X141053960Y-54434840D01*
X141053960Y-55634090D01*
X141212710Y-55792840D01*
X141776960Y-55795912D01*
X141901442Y-55783652D01*
X142021140Y-55747342D01*
X142131454Y-55688377D01*
X142228145Y-55609025D01*
X142307497Y-55512334D01*
X142366462Y-55402020D01*
X142387353Y-55333153D01*
X142411826Y-55362974D01*
X142637946Y-55548546D01*
X142706961Y-55585435D01*
X142706960Y-57446928D01*
X142703284Y-57484251D01*
X142706960Y-57521573D01*
X142706960Y-57521583D01*
X142717957Y-57633236D01*
X142761414Y-57776497D01*
X142831986Y-57908527D01*
X142871831Y-57957077D01*
X142926959Y-58024252D01*
X142955963Y-58048055D01*
X147278910Y-62371003D01*
X147302708Y-62400001D01*
X147331706Y-62423799D01*
X147418433Y-62494974D01*
X147550462Y-62565546D01*
X147693723Y-62609003D01*
X147842709Y-62623677D01*
X147880042Y-62620000D01*
X148425198Y-62620000D01*
X145424838Y-65620361D01*
X145395840Y-65644159D01*
X145372042Y-65673157D01*
X145372041Y-65673158D01*
X145300866Y-65759884D01*
X145230294Y-65891914D01*
X145186838Y-66035175D01*
X145172164Y-66184160D01*
X145175841Y-66221492D01*
X145175840Y-68411390D01*
X145173517Y-68411619D01*
X141497001Y-68411619D01*
X141497001Y-65014334D01*
X141500678Y-64977001D01*
X141486004Y-64828015D01*
X141442547Y-64684754D01*
X141371975Y-64552725D01*
X141300800Y-64465998D01*
X141277002Y-64437000D01*
X141248005Y-64413203D01*
X141016372Y-64181570D01*
X141047000Y-64027592D01*
X141047000Y-63752408D01*
X140993314Y-63482510D01*
X140888005Y-63228273D01*
X140735120Y-62999465D01*
X140625655Y-62890000D01*
X140735120Y-62780535D01*
X140888005Y-62551727D01*
X140993314Y-62297490D01*
X141047000Y-62027592D01*
X141047000Y-61752408D01*
X140993314Y-61482510D01*
X140888005Y-61228273D01*
X140735120Y-60999465D01*
X140625655Y-60890000D01*
X140735120Y-60780535D01*
X140888005Y-60551727D01*
X140993314Y-60297490D01*
X141047000Y-60027592D01*
X141047000Y-59752408D01*
X140993314Y-59482510D01*
X140888005Y-59228273D01*
X140735120Y-58999465D01*
X140540535Y-58804880D01*
X140311727Y-58651995D01*
X140057490Y-58546686D01*
X139787592Y-58493000D01*
X139512408Y-58493000D01*
X139242510Y-58546686D01*
X138988273Y-58651995D01*
X138759465Y-58804880D01*
X138564880Y-58999465D01*
X138411995Y-59228273D01*
X138306686Y-59482510D01*
X138253000Y-59752408D01*
X138253000Y-60027592D01*
X138306686Y-60297490D01*
X138411995Y-60551727D01*
X138564880Y-60780535D01*
X138674345Y-60890000D01*
X138564880Y-60999465D01*
X138411995Y-61228273D01*
X138306686Y-61482510D01*
X138253000Y-61752408D01*
X138253000Y-62027592D01*
X138306686Y-62297490D01*
X138411995Y-62551727D01*
X138564880Y-62780535D01*
X138674345Y-62890000D01*
X138564880Y-62999465D01*
X138411995Y-63228273D01*
X138306686Y-63482510D01*
X138253000Y-63752408D01*
X138253000Y-64027592D01*
X138306686Y-64297490D01*
X138411995Y-64551727D01*
X138474766Y-64645670D01*
X138436815Y-64676815D01*
X138357463Y-64773506D01*
X138298498Y-64883820D01*
X138262188Y-65003518D01*
X138249928Y-65128000D01*
X138253000Y-65604250D01*
X138411750Y-65763000D01*
X139523000Y-65763000D01*
X139523000Y-65743000D01*
X139777000Y-65743000D01*
X139777000Y-65763000D01*
X139797000Y-65763000D01*
X139797000Y-66017000D01*
X139777000Y-66017000D01*
X139777000Y-67128250D01*
X139935750Y-67287000D01*
X139977002Y-67287266D01*
X139977002Y-68416677D01*
X139785864Y-68607815D01*
X139756860Y-68631618D01*
X139733057Y-68660622D01*
X139531921Y-68861758D01*
X139514150Y-68860008D01*
X139026650Y-68860008D01*
X138854615Y-68876952D01*
X138689191Y-68927133D01*
X138536736Y-69008622D01*
X138403108Y-69118288D01*
X138293442Y-69251916D01*
X138211953Y-69404371D01*
X138161772Y-69569795D01*
X138144828Y-69741830D01*
X138144828Y-70654330D01*
X138161772Y-70826365D01*
X138211953Y-70991789D01*
X138293442Y-71144244D01*
X138403108Y-71277872D01*
X138536736Y-71387538D01*
X138689191Y-71469027D01*
X138854615Y-71519208D01*
X139026650Y-71536152D01*
X139514150Y-71536152D01*
X139686185Y-71519208D01*
X139851609Y-71469027D01*
X140004064Y-71387538D01*
X140137692Y-71277872D01*
X140207900Y-71192324D01*
X140278108Y-71277872D01*
X140411736Y-71387538D01*
X140564191Y-71469027D01*
X140729615Y-71519208D01*
X140901650Y-71536152D01*
X141389150Y-71536152D01*
X141561185Y-71519208D01*
X141726609Y-71469027D01*
X141879064Y-71387538D01*
X142012692Y-71277872D01*
X142122358Y-71144244D01*
X142203847Y-70991789D01*
X142214073Y-70958080D01*
X143339198Y-70958080D01*
X143391660Y-70986122D01*
X143511358Y-71022432D01*
X143635840Y-71034692D01*
X143999110Y-71034692D01*
X144078400Y-71113982D01*
X144055303Y-71142126D01*
X143996338Y-71252440D01*
X143960028Y-71372138D01*
X143947768Y-71496620D01*
X143947768Y-72396620D01*
X143960028Y-72521102D01*
X143996338Y-72640800D01*
X144055303Y-72751114D01*
X144134655Y-72847805D01*
X144139679Y-72851928D01*
X144030000Y-72851928D01*
X143905518Y-72864188D01*
X143785820Y-72900498D01*
X143675506Y-72959463D01*
X143578815Y-73038815D01*
X143499463Y-73135506D01*
X143440498Y-73245820D01*
X143404188Y-73365518D01*
X143391928Y-73490000D01*
X143391928Y-73676493D01*
X142873456Y-74194966D01*
X141456274Y-74194966D01*
X141453757Y-74190257D01*
X141344091Y-74056628D01*
X141210463Y-73946963D01*
X141058007Y-73865474D01*
X140892584Y-73815293D01*
X140720549Y-73798349D01*
X140548514Y-73815293D01*
X140383090Y-73865474D01*
X139587627Y-74194966D01*
X137545772Y-74194966D01*
X137502303Y-74190685D01*
X137458834Y-74194966D01*
X137458826Y-74194966D01*
X137328813Y-74207771D01*
X137161990Y-74258377D01*
X137081806Y-74301236D01*
X137008244Y-74340555D01*
X136907256Y-74423434D01*
X136907254Y-74423436D01*
X136873486Y-74451149D01*
X136845773Y-74484917D01*
X134893962Y-76436729D01*
X134860195Y-76464441D01*
X134832482Y-76498209D01*
X134832479Y-76498212D01*
X134787292Y-76553273D01*
X134749601Y-76599199D01*
X134667422Y-76752945D01*
X134616816Y-76919768D01*
X134604011Y-77049781D01*
X134604011Y-77049789D01*
X134599730Y-77093258D01*
X134604011Y-77136727D01*
X134604011Y-77544781D01*
X134599730Y-77588250D01*
X134604011Y-77631719D01*
X134604011Y-77631726D01*
X134613277Y-77725806D01*
X134616816Y-77761740D01*
X134622823Y-77781541D01*
X134667422Y-77928562D01*
X134694669Y-77979539D01*
X133321517Y-79352692D01*
X133287750Y-79380404D01*
X133260037Y-79414172D01*
X133260034Y-79414175D01*
X133177156Y-79515162D01*
X133094978Y-79668908D01*
X133044371Y-79835731D01*
X133027285Y-80009221D01*
X133031567Y-80052700D01*
X133031567Y-80776426D01*
X132721780Y-81524316D01*
X132718404Y-81527692D01*
X132718399Y-81527696D01*
X131645000Y-82601096D01*
X131645000Y-66652000D01*
X138249928Y-66652000D01*
X138262188Y-66776482D01*
X138298498Y-66896180D01*
X138357463Y-67006494D01*
X138436815Y-67103185D01*
X138533506Y-67182537D01*
X138643820Y-67241502D01*
X138763518Y-67277812D01*
X138888000Y-67290072D01*
X139364250Y-67287000D01*
X139523000Y-67128250D01*
X139523000Y-66017000D01*
X138411750Y-66017000D01*
X138253000Y-66175750D01*
X138249928Y-66652000D01*
X131645000Y-66652000D01*
X131645000Y-56093156D01*
X131806393Y-56386729D01*
X132095556Y-56731340D01*
X132446147Y-57013222D01*
X132844812Y-57221639D01*
X133276366Y-57348652D01*
X133724372Y-57389424D01*
X134171765Y-57342401D01*
X134601503Y-57209375D01*
X134997220Y-56995412D01*
X135343841Y-56708662D01*
X135628163Y-56360048D01*
X135839359Y-55962847D01*
X135969382Y-55532190D01*
X136006087Y-55157840D01*
X139438888Y-55157840D01*
X139451148Y-55282322D01*
X139487458Y-55402020D01*
X139546423Y-55512334D01*
X139625775Y-55609025D01*
X139722466Y-55688377D01*
X139832780Y-55747342D01*
X139952478Y-55783652D01*
X140076960Y-55795912D01*
X140641210Y-55792840D01*
X140799960Y-55634090D01*
X140799960Y-54434840D01*
X139600710Y-54434840D01*
X139441960Y-54593590D01*
X139438888Y-55157840D01*
X136006087Y-55157840D01*
X136013280Y-55084480D01*
X136012381Y-55020121D01*
X135955999Y-54573811D01*
X135814002Y-54146952D01*
X135591799Y-53755804D01*
X135297853Y-53415264D01*
X134943361Y-53138304D01*
X134699262Y-53015001D01*
X139618926Y-53015001D01*
X139546423Y-53103346D01*
X139546423Y-53103346D01*
G37*
X139546423Y-53103346D02*
X139487458Y-53213660D01*
X139451148Y-53333358D01*
X139438888Y-53457840D01*
X139441960Y-54022090D01*
X139600710Y-54180840D01*
X140799960Y-54180840D01*
X140799960Y-54160840D01*
X141053960Y-54160840D01*
X141053960Y-54180840D01*
X141073960Y-54180840D01*
X141073960Y-54434840D01*
X141053960Y-54434840D01*
X141053960Y-55634090D01*
X141212710Y-55792840D01*
X141776960Y-55795912D01*
X141901442Y-55783652D01*
X142021140Y-55747342D01*
X142131454Y-55688377D01*
X142228145Y-55609025D01*
X142307497Y-55512334D01*
X142366462Y-55402020D01*
X142387353Y-55333153D01*
X142411826Y-55362974D01*
X142637946Y-55548546D01*
X142706961Y-55585435D01*
X142706960Y-57446928D01*
X142703284Y-57484251D01*
X142706960Y-57521573D01*
X142706960Y-57521583D01*
X142717957Y-57633236D01*
X142761414Y-57776497D01*
X142831986Y-57908527D01*
X142871831Y-57957077D01*
X142926959Y-58024252D01*
X142955963Y-58048055D01*
X147278910Y-62371003D01*
X147302708Y-62400001D01*
X147331706Y-62423799D01*
X147418433Y-62494974D01*
X147550462Y-62565546D01*
X147693723Y-62609003D01*
X147842709Y-62623677D01*
X147880042Y-62620000D01*
X148425198Y-62620000D01*
X145424838Y-65620361D01*
X145395840Y-65644159D01*
X145372042Y-65673157D01*
X145372041Y-65673158D01*
X145300866Y-65759884D01*
X145230294Y-65891914D01*
X145186838Y-66035175D01*
X145172164Y-66184160D01*
X145175841Y-66221492D01*
X145175840Y-68411390D01*
X145173517Y-68411619D01*
X141497001Y-68411619D01*
X141497001Y-65014334D01*
X141500678Y-64977001D01*
X141486004Y-64828015D01*
X141442547Y-64684754D01*
X141371975Y-64552725D01*
X141300800Y-64465998D01*
X141277002Y-64437000D01*
X141248005Y-64413203D01*
X141016372Y-64181570D01*
X141047000Y-64027592D01*
X141047000Y-63752408D01*
X140993314Y-63482510D01*
X140888005Y-63228273D01*
X140735120Y-62999465D01*
X140625655Y-62890000D01*
X140735120Y-62780535D01*
X140888005Y-62551727D01*
X140993314Y-62297490D01*
X141047000Y-62027592D01*
X141047000Y-61752408D01*
X140993314Y-61482510D01*
X140888005Y-61228273D01*
X140735120Y-60999465D01*
X140625655Y-60890000D01*
X140735120Y-60780535D01*
X140888005Y-60551727D01*
X140993314Y-60297490D01*
X141047000Y-60027592D01*
X141047000Y-59752408D01*
X140993314Y-59482510D01*
X140888005Y-59228273D01*
X140735120Y-58999465D01*
X140540535Y-58804880D01*
X140311727Y-58651995D01*
X140057490Y-58546686D01*
X139787592Y-58493000D01*
X139512408Y-58493000D01*
X139242510Y-58546686D01*
X138988273Y-58651995D01*
X138759465Y-58804880D01*
X138564880Y-58999465D01*
X138411995Y-59228273D01*
X138306686Y-59482510D01*
X138253000Y-59752408D01*
X138253000Y-60027592D01*
X138306686Y-60297490D01*
X138411995Y-60551727D01*
X138564880Y-60780535D01*
X138674345Y-60890000D01*
X138564880Y-60999465D01*
X138411995Y-61228273D01*
X138306686Y-61482510D01*
X138253000Y-61752408D01*
X138253000Y-62027592D01*
X138306686Y-62297490D01*
X138411995Y-62551727D01*
X138564880Y-62780535D01*
X138674345Y-62890000D01*
X138564880Y-62999465D01*
X138411995Y-63228273D01*
X138306686Y-63482510D01*
X138253000Y-63752408D01*
X138253000Y-64027592D01*
X138306686Y-64297490D01*
X138411995Y-64551727D01*
X138474766Y-64645670D01*
X138436815Y-64676815D01*
X138357463Y-64773506D01*
X138298498Y-64883820D01*
X138262188Y-65003518D01*
X138249928Y-65128000D01*
X138253000Y-65604250D01*
X138411750Y-65763000D01*
X139523000Y-65763000D01*
X139523000Y-65743000D01*
X139777000Y-65743000D01*
X139777000Y-65763000D01*
X139797000Y-65763000D01*
X139797000Y-66017000D01*
X139777000Y-66017000D01*
X139777000Y-67128250D01*
X139935750Y-67287000D01*
X139977002Y-67287266D01*
X139977002Y-68416677D01*
X139785864Y-68607815D01*
X139756860Y-68631618D01*
X139733057Y-68660622D01*
X139531921Y-68861758D01*
X139514150Y-68860008D01*
X139026650Y-68860008D01*
X138854615Y-68876952D01*
X138689191Y-68927133D01*
X138536736Y-69008622D01*
X138403108Y-69118288D01*
X138293442Y-69251916D01*
X138211953Y-69404371D01*
X138161772Y-69569795D01*
X138144828Y-69741830D01*
X138144828Y-70654330D01*
X138161772Y-70826365D01*
X138211953Y-70991789D01*
X138293442Y-71144244D01*
X138403108Y-71277872D01*
X138536736Y-71387538D01*
X138689191Y-71469027D01*
X138854615Y-71519208D01*
X139026650Y-71536152D01*
X139514150Y-71536152D01*
X139686185Y-71519208D01*
X139851609Y-71469027D01*
X140004064Y-71387538D01*
X140137692Y-71277872D01*
X140207900Y-71192324D01*
X140278108Y-71277872D01*
X140411736Y-71387538D01*
X140564191Y-71469027D01*
X140729615Y-71519208D01*
X140901650Y-71536152D01*
X141389150Y-71536152D01*
X141561185Y-71519208D01*
X141726609Y-71469027D01*
X141879064Y-71387538D01*
X142012692Y-71277872D01*
X142122358Y-71144244D01*
X142203847Y-70991789D01*
X142214073Y-70958080D01*
X143339198Y-70958080D01*
X143391660Y-70986122D01*
X143511358Y-71022432D01*
X143635840Y-71034692D01*
X143999110Y-71034692D01*
X144078400Y-71113982D01*
X144055303Y-71142126D01*
X143996338Y-71252440D01*
X143960028Y-71372138D01*
X143947768Y-71496620D01*
X143947768Y-72396620D01*
X143960028Y-72521102D01*
X143996338Y-72640800D01*
X144055303Y-72751114D01*
X144134655Y-72847805D01*
X144139679Y-72851928D01*
X144030000Y-72851928D01*
X143905518Y-72864188D01*
X143785820Y-72900498D01*
X143675506Y-72959463D01*
X143578815Y-73038815D01*
X143499463Y-73135506D01*
X143440498Y-73245820D01*
X143404188Y-73365518D01*
X143391928Y-73490000D01*
X143391928Y-73676493D01*
X142873456Y-74194966D01*
X141456274Y-74194966D01*
X141453757Y-74190257D01*
X141344091Y-74056628D01*
X141210463Y-73946963D01*
X141058007Y-73865474D01*
X140892584Y-73815293D01*
X140720549Y-73798349D01*
X140548514Y-73815293D01*
X140383090Y-73865474D01*
X139587627Y-74194966D01*
X137545772Y-74194966D01*
X137502303Y-74190685D01*
X137458834Y-74194966D01*
X137458826Y-74194966D01*
X137328813Y-74207771D01*
X137161990Y-74258377D01*
X137081806Y-74301236D01*
X137008244Y-74340555D01*
X136907256Y-74423434D01*
X136907254Y-74423436D01*
X136873486Y-74451149D01*
X136845773Y-74484917D01*
X134893962Y-76436729D01*
X134860195Y-76464441D01*
X134832482Y-76498209D01*
X134832479Y-76498212D01*
X134787292Y-76553273D01*
X134749601Y-76599199D01*
X134667422Y-76752945D01*
X134616816Y-76919768D01*
X134604011Y-77049781D01*
X134604011Y-77049789D01*
X134599730Y-77093258D01*
X134604011Y-77136727D01*
X134604011Y-77544781D01*
X134599730Y-77588250D01*
X134604011Y-77631719D01*
X134604011Y-77631726D01*
X134613277Y-77725806D01*
X134616816Y-77761740D01*
X134622823Y-77781541D01*
X134667422Y-77928562D01*
X134694669Y-77979539D01*
X133321517Y-79352692D01*
X133287750Y-79380404D01*
X133260037Y-79414172D01*
X133260034Y-79414175D01*
X133177156Y-79515162D01*
X133094978Y-79668908D01*
X133044371Y-79835731D01*
X133027285Y-80009221D01*
X133031567Y-80052700D01*
X133031567Y-80776426D01*
X132721780Y-81524316D01*
X132718404Y-81527692D01*
X132718399Y-81527696D01*
X131645000Y-82601096D01*
X131645000Y-66652000D01*
X138249928Y-66652000D01*
X138262188Y-66776482D01*
X138298498Y-66896180D01*
X138357463Y-67006494D01*
X138436815Y-67103185D01*
X138533506Y-67182537D01*
X138643820Y-67241502D01*
X138763518Y-67277812D01*
X138888000Y-67290072D01*
X139364250Y-67287000D01*
X139523000Y-67128250D01*
X139523000Y-66017000D01*
X138411750Y-66017000D01*
X138253000Y-66175750D01*
X138249928Y-66652000D01*
X131645000Y-66652000D01*
X131645000Y-56093156D01*
X131806393Y-56386729D01*
X132095556Y-56731340D01*
X132446147Y-57013222D01*
X132844812Y-57221639D01*
X133276366Y-57348652D01*
X133724372Y-57389424D01*
X134171765Y-57342401D01*
X134601503Y-57209375D01*
X134997220Y-56995412D01*
X135343841Y-56708662D01*
X135628163Y-56360048D01*
X135839359Y-55962847D01*
X135969382Y-55532190D01*
X136006087Y-55157840D01*
X139438888Y-55157840D01*
X139451148Y-55282322D01*
X139487458Y-55402020D01*
X139546423Y-55512334D01*
X139625775Y-55609025D01*
X139722466Y-55688377D01*
X139832780Y-55747342D01*
X139952478Y-55783652D01*
X140076960Y-55795912D01*
X140641210Y-55792840D01*
X140799960Y-55634090D01*
X140799960Y-54434840D01*
X139600710Y-54434840D01*
X139441960Y-54593590D01*
X139438888Y-55157840D01*
X136006087Y-55157840D01*
X136013280Y-55084480D01*
X136012381Y-55020121D01*
X135955999Y-54573811D01*
X135814002Y-54146952D01*
X135591799Y-53755804D01*
X135297853Y-53415264D01*
X134943361Y-53138304D01*
X134699262Y-53015001D01*
X139618926Y-53015001D01*
X139546423Y-53103346D01*
G36*
X145177946Y-53067134D02*
G01*
X144951826Y-53252706D01*
X144766254Y-53478826D01*
X144736960Y-53533631D01*
X144707666Y-53478826D01*
X144522094Y-53252706D01*
X144295974Y-53067134D01*
X144198440Y-53015001D01*
X145275480Y-53015001D01*
X145177946Y-53067134D01*
X145177946Y-53067134D01*
G37*
X145177946Y-53067134D02*
X144951826Y-53252706D01*
X144766254Y-53478826D01*
X144736960Y-53533631D01*
X144707666Y-53478826D01*
X144522094Y-53252706D01*
X144295974Y-53067134D01*
X144198440Y-53015001D01*
X145275480Y-53015001D01*
X145177946Y-53067134D01*
M02*
