G04 #@! TF.GenerationSoftware,KiCad,Pcbnew,(5.1.0-0)*
G04 #@! TF.CreationDate,2020-02-24T20:35:34+01:00*
G04 #@! TF.ProjectId,pino_brd_v01,70696e6f-5f62-4726-945f-7630312e6b69,rev?*
G04 #@! TF.SameCoordinates,Original*
G04 #@! TF.FileFunction,Soldermask,Top*
G04 #@! TF.FilePolarity,Negative*
%FSLAX46Y46*%
G04 Gerber Fmt 4.6, Leading zero omitted, Abs format (unit mm)*
G04 Created by KiCad (PCBNEW (5.1.0-0)) date 2020-02-24 20:35:34*
%MOMM*%
%LPD*%
G04 APERTURE LIST*
%ADD10C,0.100000*%
G04 APERTURE END LIST*
D10*
G36*
X152804268Y-143436385D02*
G01*
X152842938Y-143448116D01*
X152878577Y-143467166D01*
X152909817Y-143492803D01*
X152935454Y-143524043D01*
X152954504Y-143559682D01*
X152966235Y-143598352D01*
X152970800Y-143644708D01*
X152970800Y-144295932D01*
X152966235Y-144342288D01*
X152954504Y-144380958D01*
X152935454Y-144416597D01*
X152909817Y-144447837D01*
X152878577Y-144473474D01*
X152842938Y-144492524D01*
X152804268Y-144504255D01*
X152757912Y-144508820D01*
X151681688Y-144508820D01*
X151635332Y-144504255D01*
X151596662Y-144492524D01*
X151561023Y-144473474D01*
X151529783Y-144447837D01*
X151504146Y-144416597D01*
X151485096Y-144380958D01*
X151473365Y-144342288D01*
X151468800Y-144295932D01*
X151468800Y-143644708D01*
X151473365Y-143598352D01*
X151485096Y-143559682D01*
X151504146Y-143524043D01*
X151529783Y-143492803D01*
X151561023Y-143467166D01*
X151596662Y-143448116D01*
X151635332Y-143436385D01*
X151681688Y-143431820D01*
X152757912Y-143431820D01*
X152804268Y-143436385D01*
X152804268Y-143436385D01*
G37*
G36*
X148160680Y-144309120D02*
G01*
X146658680Y-144309120D01*
X146658680Y-141507120D01*
X148160680Y-141507120D01*
X148160680Y-144309120D01*
X148160680Y-144309120D01*
G37*
G36*
X145660680Y-144309120D02*
G01*
X144158680Y-144309120D01*
X144158680Y-141507120D01*
X145660680Y-141507120D01*
X145660680Y-144309120D01*
X145660680Y-144309120D01*
G37*
G36*
X143160680Y-144309120D02*
G01*
X141658680Y-144309120D01*
X141658680Y-141507120D01*
X143160680Y-141507120D01*
X143160680Y-144309120D01*
X143160680Y-144309120D01*
G37*
G36*
X152804268Y-141561385D02*
G01*
X152842938Y-141573116D01*
X152878577Y-141592166D01*
X152909817Y-141617803D01*
X152935454Y-141649043D01*
X152954504Y-141684682D01*
X152966235Y-141723352D01*
X152970800Y-141769708D01*
X152970800Y-142420932D01*
X152966235Y-142467288D01*
X152954504Y-142505958D01*
X152935454Y-142541597D01*
X152909817Y-142572837D01*
X152878577Y-142598474D01*
X152842938Y-142617524D01*
X152804268Y-142629255D01*
X152757912Y-142633820D01*
X151681688Y-142633820D01*
X151635332Y-142629255D01*
X151596662Y-142617524D01*
X151561023Y-142598474D01*
X151529783Y-142572837D01*
X151504146Y-142541597D01*
X151485096Y-142505958D01*
X151473365Y-142467288D01*
X151468800Y-142420932D01*
X151468800Y-141769708D01*
X151473365Y-141723352D01*
X151485096Y-141684682D01*
X151504146Y-141649043D01*
X151529783Y-141617803D01*
X151561023Y-141592166D01*
X151596662Y-141573116D01*
X151635332Y-141561385D01*
X151681688Y-141556820D01*
X152757912Y-141556820D01*
X152804268Y-141561385D01*
X152804268Y-141561385D01*
G37*
G36*
X148160680Y-138509120D02*
G01*
X146658680Y-138509120D01*
X146658680Y-135707120D01*
X148160680Y-135707120D01*
X148160680Y-138509120D01*
X148160680Y-138509120D01*
G37*
G36*
X145660680Y-138509120D02*
G01*
X144158680Y-138509120D01*
X144158680Y-135707120D01*
X145660680Y-135707120D01*
X145660680Y-138509120D01*
X145660680Y-138509120D01*
G37*
G36*
X143160680Y-138509120D02*
G01*
X141658680Y-138509120D01*
X141658680Y-135707120D01*
X143160680Y-135707120D01*
X143160680Y-138509120D01*
X143160680Y-138509120D01*
G37*
G36*
X149296960Y-129020240D02*
G01*
X146444960Y-129020240D01*
X146444960Y-127918240D01*
X149296960Y-127918240D01*
X149296960Y-129020240D01*
X149296960Y-129020240D01*
G37*
G36*
X143536960Y-129020240D02*
G01*
X140684960Y-129020240D01*
X140684960Y-127918240D01*
X143536960Y-127918240D01*
X143536960Y-129020240D01*
X143536960Y-129020240D01*
G37*
G36*
X143536960Y-125020240D02*
G01*
X140684960Y-125020240D01*
X140684960Y-123918240D01*
X143536960Y-123918240D01*
X143536960Y-125020240D01*
X143536960Y-125020240D01*
G37*
G36*
X149296960Y-125020240D02*
G01*
X146444960Y-125020240D01*
X146444960Y-123918240D01*
X149296960Y-123918240D01*
X149296960Y-125020240D01*
X149296960Y-125020240D01*
G37*
G36*
X146831460Y-117275860D02*
G01*
X143229460Y-117275860D01*
X143229460Y-114173860D01*
X146831460Y-114173860D01*
X146831460Y-117275860D01*
X146831460Y-117275860D01*
G37*
G36*
X154181460Y-115075860D02*
G01*
X151579460Y-115075860D01*
X151579460Y-112973860D01*
X154181460Y-112973860D01*
X154181460Y-115075860D01*
X154181460Y-115075860D01*
G37*
G36*
X138481460Y-115050860D02*
G01*
X135879460Y-115050860D01*
X135879460Y-112948860D01*
X138481460Y-112948860D01*
X138481460Y-115050860D01*
X138481460Y-115050860D01*
G37*
G36*
X153306460Y-112450860D02*
G01*
X151204460Y-112450860D01*
X151204460Y-110748860D01*
X153306460Y-110748860D01*
X153306460Y-112450860D01*
X153306460Y-112450860D01*
G37*
G36*
X138556460Y-112425860D02*
G01*
X136454460Y-112425860D01*
X136454460Y-110723860D01*
X138556460Y-110723860D01*
X138556460Y-112425860D01*
X138556460Y-112425860D01*
G37*
G36*
X145145255Y-107945016D02*
G01*
X145251610Y-107966171D01*
X145451980Y-108049167D01*
X145632304Y-108169655D01*
X145785665Y-108323016D01*
X145906153Y-108503340D01*
X145989149Y-108703711D01*
X146031460Y-108916420D01*
X146031460Y-109133300D01*
X145989149Y-109346009D01*
X145906153Y-109546380D01*
X145785665Y-109726704D01*
X145632304Y-109880065D01*
X145451980Y-110000553D01*
X145251610Y-110083549D01*
X145145254Y-110104705D01*
X145038900Y-110125860D01*
X144822020Y-110125860D01*
X144715666Y-110104705D01*
X144609310Y-110083549D01*
X144408940Y-110000553D01*
X144228616Y-109880065D01*
X144075255Y-109726704D01*
X143954767Y-109546380D01*
X143871771Y-109346009D01*
X143829460Y-109133300D01*
X143829460Y-108916420D01*
X143871771Y-108703711D01*
X143954767Y-108503340D01*
X144075255Y-108323016D01*
X144228616Y-108169655D01*
X144408940Y-108049167D01*
X144609310Y-107966171D01*
X144715665Y-107945016D01*
X144822020Y-107923860D01*
X145038900Y-107923860D01*
X145145255Y-107945016D01*
X145145255Y-107945016D01*
G37*
G36*
X138556460Y-109925860D02*
G01*
X136454460Y-109925860D01*
X136454460Y-108223860D01*
X138556460Y-108223860D01*
X138556460Y-109925860D01*
X138556460Y-109925860D01*
G37*
G36*
X140678688Y-108206563D02*
G01*
X140833560Y-108270713D01*
X140972941Y-108363845D01*
X141091475Y-108482379D01*
X141184607Y-108621760D01*
X141248757Y-108776632D01*
X141281460Y-108941044D01*
X141281460Y-109108676D01*
X141248757Y-109273088D01*
X141184607Y-109427960D01*
X141091475Y-109567341D01*
X140972941Y-109685875D01*
X140833560Y-109779007D01*
X140678688Y-109843157D01*
X140514276Y-109875860D01*
X140346644Y-109875860D01*
X140182232Y-109843157D01*
X140027360Y-109779007D01*
X139887979Y-109685875D01*
X139769445Y-109567341D01*
X139676313Y-109427960D01*
X139612163Y-109273088D01*
X139579460Y-109108676D01*
X139579460Y-108941044D01*
X139612163Y-108776632D01*
X139676313Y-108621760D01*
X139769445Y-108482379D01*
X139887979Y-108363845D01*
X140027360Y-108270713D01*
X140182232Y-108206563D01*
X140346644Y-108173860D01*
X140514276Y-108173860D01*
X140678688Y-108206563D01*
X140678688Y-108206563D01*
G37*
G36*
X153306460Y-107450860D02*
G01*
X151204460Y-107450860D01*
X151204460Y-105748860D01*
X153306460Y-105748860D01*
X153306460Y-107450860D01*
X153306460Y-107450860D01*
G37*
G36*
X138556460Y-107400860D02*
G01*
X136454460Y-107400860D01*
X136454460Y-105698860D01*
X138556460Y-105698860D01*
X138556460Y-107400860D01*
X138556460Y-107400860D01*
G37*
G36*
X154181460Y-105175860D02*
G01*
X151579460Y-105175860D01*
X151579460Y-103073860D01*
X154181460Y-103073860D01*
X154181460Y-105175860D01*
X154181460Y-105175860D01*
G37*
G36*
X138481460Y-105175860D02*
G01*
X135879460Y-105175860D01*
X135879460Y-103073860D01*
X138481460Y-103073860D01*
X138481460Y-105175860D01*
X138481460Y-105175860D01*
G37*
G36*
X146831460Y-103975860D02*
G01*
X143229460Y-103975860D01*
X143229460Y-100873860D01*
X146831460Y-100873860D01*
X146831460Y-103975860D01*
X146831460Y-103975860D01*
G37*
G36*
X144630146Y-98904628D02*
G01*
X143928146Y-98904628D01*
X143928146Y-97802628D01*
X144630146Y-97802628D01*
X144630146Y-98904628D01*
X144630146Y-98904628D01*
G37*
G36*
X145930146Y-98904628D02*
G01*
X145228146Y-98904628D01*
X145228146Y-97802628D01*
X145930146Y-97802628D01*
X145930146Y-98904628D01*
X145930146Y-98904628D01*
G37*
G36*
X140073238Y-96538127D02*
G01*
X140117700Y-96552039D01*
X141108361Y-96972550D01*
X141149250Y-96994866D01*
X141180260Y-97020772D01*
X141205627Y-97052237D01*
X141224365Y-97088044D01*
X141235758Y-97126813D01*
X141239367Y-97167063D01*
X141235056Y-97207242D01*
X141221144Y-97251704D01*
X140966694Y-97851150D01*
X140944378Y-97892039D01*
X140918472Y-97923049D01*
X140887007Y-97948416D01*
X140851200Y-97967154D01*
X140812431Y-97978547D01*
X140772181Y-97982156D01*
X140732002Y-97977845D01*
X140687540Y-97963933D01*
X139696879Y-97543422D01*
X139655990Y-97521106D01*
X139624980Y-97495200D01*
X139599613Y-97463735D01*
X139580875Y-97427928D01*
X139569482Y-97389159D01*
X139565873Y-97348909D01*
X139570184Y-97308730D01*
X139584096Y-97264268D01*
X139838546Y-96664822D01*
X139860862Y-96623933D01*
X139886768Y-96592923D01*
X139918233Y-96567556D01*
X139954040Y-96548818D01*
X139992809Y-96537425D01*
X140033059Y-96533816D01*
X140073238Y-96538127D01*
X140073238Y-96538127D01*
G37*
G36*
X150009523Y-96542284D02*
G01*
X150048196Y-96554015D01*
X150083833Y-96573064D01*
X150115073Y-96598701D01*
X150140710Y-96629941D01*
X150162667Y-96671019D01*
X150184234Y-96723087D01*
X150184236Y-96723090D01*
X150294634Y-96989614D01*
X150411879Y-97272668D01*
X150425401Y-97317245D01*
X150429362Y-97357462D01*
X150425402Y-97397680D01*
X150413671Y-97436350D01*
X150394621Y-97471989D01*
X150368984Y-97503229D01*
X150337744Y-97528866D01*
X150296666Y-97550823D01*
X150030734Y-97660975D01*
X149354436Y-97941107D01*
X149354428Y-97941109D01*
X149302364Y-97962675D01*
X149257792Y-97976197D01*
X149217576Y-97980157D01*
X149177357Y-97976196D01*
X149138684Y-97964465D01*
X149103047Y-97945416D01*
X149071807Y-97919779D01*
X149046170Y-97888539D01*
X149024213Y-97847461D01*
X148898276Y-97543422D01*
X148837907Y-97397680D01*
X148775001Y-97245812D01*
X148761479Y-97201235D01*
X148757518Y-97161016D01*
X148761478Y-97120800D01*
X148773209Y-97082130D01*
X148792259Y-97046491D01*
X148817896Y-97015251D01*
X148849136Y-96989614D01*
X148890214Y-96967657D01*
X149156146Y-96857505D01*
X149832444Y-96577373D01*
X149832452Y-96577371D01*
X149884516Y-96555805D01*
X149929088Y-96542283D01*
X149969304Y-96538323D01*
X150009523Y-96542284D01*
X150009523Y-96542284D01*
G37*
G36*
X144630146Y-96904628D02*
G01*
X143928146Y-96904628D01*
X143928146Y-95802628D01*
X144630146Y-95802628D01*
X144630146Y-96904628D01*
X144630146Y-96904628D01*
G37*
G36*
X145930146Y-96904628D02*
G01*
X145228146Y-96904628D01*
X145228146Y-95802628D01*
X145930146Y-95802628D01*
X145930146Y-96904628D01*
X145930146Y-96904628D01*
G37*
G36*
X140805858Y-94812181D02*
G01*
X140850320Y-94826093D01*
X141840981Y-95246604D01*
X141881870Y-95268920D01*
X141912880Y-95294826D01*
X141938247Y-95326291D01*
X141956985Y-95362098D01*
X141968378Y-95400867D01*
X141971987Y-95441117D01*
X141967676Y-95481296D01*
X141953764Y-95525758D01*
X141699314Y-96125204D01*
X141676998Y-96166093D01*
X141651092Y-96197103D01*
X141619627Y-96222470D01*
X141583820Y-96241208D01*
X141545051Y-96252601D01*
X141504801Y-96256210D01*
X141464622Y-96251899D01*
X141420160Y-96237987D01*
X140429499Y-95817476D01*
X140388610Y-95795160D01*
X140357600Y-95769254D01*
X140332233Y-95737789D01*
X140313495Y-95701982D01*
X140302102Y-95663213D01*
X140298493Y-95622963D01*
X140302804Y-95582784D01*
X140316716Y-95538322D01*
X140571166Y-94938876D01*
X140593482Y-94897987D01*
X140619388Y-94866977D01*
X140650853Y-94841610D01*
X140686660Y-94822872D01*
X140725429Y-94811479D01*
X140765679Y-94807870D01*
X140805858Y-94812181D01*
X140805858Y-94812181D01*
G37*
G36*
X149291991Y-94810010D02*
G01*
X149330664Y-94821741D01*
X149366301Y-94840790D01*
X149397541Y-94866427D01*
X149423178Y-94897667D01*
X149445135Y-94938745D01*
X149694347Y-95540394D01*
X149707869Y-95584971D01*
X149711830Y-95625188D01*
X149707870Y-95665406D01*
X149696139Y-95704076D01*
X149677089Y-95739715D01*
X149651452Y-95770955D01*
X149620212Y-95796592D01*
X149579134Y-95818549D01*
X149313202Y-95928701D01*
X148636904Y-96208833D01*
X148636896Y-96208835D01*
X148584832Y-96230401D01*
X148540260Y-96243923D01*
X148500044Y-96247883D01*
X148459825Y-96243922D01*
X148421152Y-96232191D01*
X148385515Y-96213142D01*
X148354275Y-96187505D01*
X148328638Y-96156265D01*
X148306681Y-96115187D01*
X148057469Y-95513538D01*
X148043947Y-95468961D01*
X148039986Y-95428742D01*
X148043946Y-95388526D01*
X148055677Y-95349856D01*
X148074727Y-95314217D01*
X148100364Y-95282977D01*
X148131604Y-95257340D01*
X148172682Y-95235383D01*
X148533625Y-95085876D01*
X149114912Y-94845099D01*
X149114920Y-94845097D01*
X149166984Y-94823531D01*
X149211556Y-94810009D01*
X149251772Y-94806049D01*
X149291991Y-94810010D01*
X149291991Y-94810010D01*
G37*
G36*
X153728627Y-95404677D02*
G01*
X153232238Y-95901066D01*
X152453007Y-95121835D01*
X152949396Y-94625446D01*
X153728627Y-95404677D01*
X153728627Y-95404677D01*
G37*
G36*
X137420180Y-95085876D02*
G01*
X136640949Y-95865107D01*
X136144560Y-95368718D01*
X136923791Y-94589487D01*
X137420180Y-95085876D01*
X137420180Y-95085876D01*
G37*
G36*
X154647866Y-94485438D02*
G01*
X154151477Y-94981827D01*
X153372246Y-94202596D01*
X153868635Y-93706207D01*
X154647866Y-94485438D01*
X154647866Y-94485438D01*
G37*
G36*
X136500941Y-94166637D02*
G01*
X135721710Y-94945868D01*
X135225321Y-94449479D01*
X136004552Y-93670248D01*
X136500941Y-94166637D01*
X136500941Y-94166637D01*
G37*
G36*
X152314414Y-93990464D02*
G01*
X151818025Y-94486853D01*
X151038794Y-93707622D01*
X151535183Y-93211233D01*
X152314414Y-93990464D01*
X152314414Y-93990464D01*
G37*
G36*
X138834393Y-93671663D02*
G01*
X138055162Y-94450894D01*
X137558773Y-93954505D01*
X138338004Y-93175274D01*
X138834393Y-93671663D01*
X138834393Y-93671663D01*
G37*
G36*
X153233653Y-93071225D02*
G01*
X152737264Y-93567614D01*
X151958033Y-92788383D01*
X152454422Y-92291994D01*
X153233653Y-93071225D01*
X153233653Y-93071225D01*
G37*
G36*
X137915154Y-92752424D02*
G01*
X137135923Y-93531655D01*
X136639534Y-93035266D01*
X137418765Y-92256035D01*
X137915154Y-92752424D01*
X137915154Y-92752424D01*
G37*
G36*
X134057543Y-89928044D02*
G01*
X134096213Y-89939775D01*
X134131852Y-89958825D01*
X134163092Y-89984462D01*
X134188729Y-90015702D01*
X134210686Y-90056780D01*
X134232255Y-90108853D01*
X134600970Y-90999010D01*
X134600972Y-90999018D01*
X134622538Y-91051082D01*
X134636060Y-91095654D01*
X134640020Y-91135870D01*
X134636059Y-91176089D01*
X134624328Y-91214762D01*
X134605279Y-91250399D01*
X134579642Y-91281639D01*
X134548402Y-91307276D01*
X134507324Y-91329233D01*
X134455256Y-91350800D01*
X134455253Y-91350802D01*
X134309538Y-91411159D01*
X133905675Y-91578445D01*
X133861098Y-91591967D01*
X133820879Y-91595928D01*
X133780663Y-91591968D01*
X133741993Y-91580237D01*
X133706354Y-91561187D01*
X133675114Y-91535550D01*
X133649477Y-91504310D01*
X133627520Y-91463232D01*
X133508582Y-91176089D01*
X133237236Y-90521002D01*
X133237234Y-90520994D01*
X133215668Y-90468930D01*
X133202146Y-90424358D01*
X133198186Y-90384140D01*
X133202147Y-90343923D01*
X133213878Y-90305250D01*
X133232927Y-90269613D01*
X133258564Y-90238373D01*
X133289804Y-90212736D01*
X133330882Y-90190779D01*
X133382950Y-90169212D01*
X133382953Y-90169210D01*
X133696676Y-90039262D01*
X133932531Y-89941567D01*
X133977108Y-89928045D01*
X134017327Y-89924084D01*
X134057543Y-89928044D01*
X134057543Y-89928044D01*
G37*
G36*
X156014973Y-89928044D02*
G01*
X156059545Y-89941566D01*
X156111615Y-89963134D01*
X156111618Y-89963135D01*
X156609127Y-90169210D01*
X156609131Y-90169212D01*
X156661198Y-90190779D01*
X156702276Y-90212736D01*
X156733516Y-90238373D01*
X156759153Y-90269613D01*
X156778203Y-90305252D01*
X156789934Y-90343922D01*
X156793894Y-90384138D01*
X156789933Y-90424357D01*
X156776411Y-90468934D01*
X156754845Y-90521000D01*
X156754844Y-90521002D01*
X156631816Y-90818018D01*
X156364560Y-91463232D01*
X156342603Y-91504310D01*
X156316966Y-91535550D01*
X156285726Y-91561187D01*
X156250089Y-91580236D01*
X156211416Y-91591967D01*
X156171197Y-91595928D01*
X156130981Y-91591968D01*
X156086409Y-91578446D01*
X156034339Y-91556878D01*
X156034336Y-91556877D01*
X155536827Y-91350802D01*
X155536823Y-91350800D01*
X155484756Y-91329233D01*
X155443678Y-91307276D01*
X155412438Y-91281639D01*
X155386801Y-91250399D01*
X155367751Y-91214760D01*
X155356020Y-91176090D01*
X155352060Y-91135872D01*
X155356021Y-91095655D01*
X155369543Y-91051078D01*
X155447570Y-90862705D01*
X155623884Y-90437043D01*
X155781394Y-90056780D01*
X155803351Y-90015702D01*
X155828988Y-89984462D01*
X155860228Y-89958825D01*
X155895865Y-89939776D01*
X155934538Y-89928045D01*
X155974757Y-89924084D01*
X156014973Y-89928044D01*
X156014973Y-89928044D01*
G37*
G36*
X154282699Y-89210512D02*
G01*
X154327271Y-89224034D01*
X154379341Y-89245602D01*
X154379344Y-89245603D01*
X154876853Y-89451678D01*
X154876857Y-89451680D01*
X154928924Y-89473247D01*
X154970002Y-89495204D01*
X155001242Y-89520841D01*
X155026879Y-89552081D01*
X155045929Y-89587720D01*
X155057660Y-89626390D01*
X155061620Y-89666606D01*
X155057659Y-89706825D01*
X155044137Y-89751402D01*
X155022571Y-89803468D01*
X155022570Y-89803470D01*
X154947601Y-89984462D01*
X154632286Y-90745700D01*
X154610329Y-90786778D01*
X154584692Y-90818018D01*
X154553452Y-90843655D01*
X154517815Y-90862704D01*
X154479142Y-90874435D01*
X154438923Y-90878396D01*
X154398707Y-90874436D01*
X154354135Y-90860914D01*
X154302065Y-90839346D01*
X154302062Y-90839345D01*
X153804553Y-90633270D01*
X153804549Y-90633268D01*
X153752482Y-90611701D01*
X153711404Y-90589744D01*
X153680164Y-90564107D01*
X153654527Y-90532867D01*
X153635477Y-90497228D01*
X153623746Y-90458558D01*
X153619786Y-90418340D01*
X153623747Y-90378123D01*
X153637269Y-90333546D01*
X153695033Y-90194092D01*
X153878402Y-89751398D01*
X154049120Y-89339248D01*
X154071077Y-89298170D01*
X154096714Y-89266930D01*
X154127954Y-89241293D01*
X154163591Y-89222244D01*
X154202264Y-89210513D01*
X154242483Y-89206552D01*
X154282699Y-89210512D01*
X154282699Y-89210512D01*
G37*
G36*
X135789817Y-89210512D02*
G01*
X135828487Y-89222243D01*
X135864126Y-89241293D01*
X135895366Y-89266930D01*
X135921003Y-89298170D01*
X135942960Y-89339248D01*
X135964529Y-89391321D01*
X136333244Y-90281478D01*
X136333246Y-90281486D01*
X136354812Y-90333550D01*
X136368334Y-90378122D01*
X136372294Y-90418338D01*
X136368333Y-90458557D01*
X136356602Y-90497230D01*
X136337553Y-90532867D01*
X136311916Y-90564107D01*
X136280676Y-90589744D01*
X136239598Y-90611701D01*
X136187530Y-90633268D01*
X136187527Y-90633270D01*
X136041812Y-90693627D01*
X135637949Y-90860913D01*
X135593372Y-90874435D01*
X135553153Y-90878396D01*
X135512937Y-90874436D01*
X135474267Y-90862705D01*
X135438628Y-90843655D01*
X135407388Y-90818018D01*
X135381751Y-90786778D01*
X135359794Y-90745700D01*
X135240856Y-90458557D01*
X134969510Y-89803470D01*
X134969508Y-89803462D01*
X134947942Y-89751398D01*
X134934420Y-89706826D01*
X134930460Y-89666608D01*
X134934421Y-89626391D01*
X134946152Y-89587718D01*
X134965201Y-89552081D01*
X134990838Y-89520841D01*
X135022078Y-89495204D01*
X135063156Y-89473247D01*
X135115224Y-89451680D01*
X135115227Y-89451678D01*
X135428950Y-89321730D01*
X135664805Y-89224035D01*
X135709382Y-89210513D01*
X135749601Y-89206552D01*
X135789817Y-89210512D01*
X135789817Y-89210512D01*
G37*
G36*
X155687387Y-87198241D02*
G01*
X154585387Y-87198241D01*
X154585387Y-86496241D01*
X155687387Y-86496241D01*
X155687387Y-87198241D01*
X155687387Y-87198241D01*
G37*
G36*
X157687387Y-87198241D02*
G01*
X156585387Y-87198241D01*
X156585387Y-86496241D01*
X157687387Y-86496241D01*
X157687387Y-87198241D01*
X157687387Y-87198241D01*
G37*
G36*
X133323759Y-87147387D02*
G01*
X132221759Y-87147387D01*
X132221759Y-86445387D01*
X133323759Y-86445387D01*
X133323759Y-87147387D01*
X133323759Y-87147387D01*
G37*
G36*
X135323759Y-87147387D02*
G01*
X134221759Y-87147387D01*
X134221759Y-86445387D01*
X135323759Y-86445387D01*
X135323759Y-87147387D01*
X135323759Y-87147387D01*
G37*
G36*
X155687387Y-85898241D02*
G01*
X154585387Y-85898241D01*
X154585387Y-85196241D01*
X155687387Y-85196241D01*
X155687387Y-85898241D01*
X155687387Y-85898241D01*
G37*
G36*
X157687387Y-85898241D02*
G01*
X156585387Y-85898241D01*
X156585387Y-85196241D01*
X157687387Y-85196241D01*
X157687387Y-85898241D01*
X157687387Y-85898241D01*
G37*
G36*
X135323759Y-85847387D02*
G01*
X134221759Y-85847387D01*
X134221759Y-85145387D01*
X135323759Y-85145387D01*
X135323759Y-85847387D01*
X135323759Y-85847387D01*
G37*
G36*
X133323759Y-85847387D02*
G01*
X132221759Y-85847387D01*
X132221759Y-85145387D01*
X133323759Y-85145387D01*
X133323759Y-85847387D01*
X133323759Y-85847387D01*
G37*
G36*
X135590836Y-81466678D02*
G01*
X135635408Y-81480200D01*
X135687478Y-81501768D01*
X135687481Y-81501769D01*
X136184990Y-81707844D01*
X136184994Y-81707846D01*
X136237061Y-81729413D01*
X136278139Y-81751370D01*
X136309379Y-81777007D01*
X136335016Y-81808247D01*
X136354066Y-81843886D01*
X136365797Y-81882556D01*
X136369757Y-81922772D01*
X136365796Y-81962991D01*
X136352274Y-82007568D01*
X136330708Y-82059634D01*
X136330707Y-82059636D01*
X136207679Y-82356652D01*
X135940423Y-83001866D01*
X135918466Y-83042944D01*
X135892829Y-83074184D01*
X135861589Y-83099821D01*
X135825952Y-83118870D01*
X135787279Y-83130601D01*
X135747060Y-83134562D01*
X135706844Y-83130602D01*
X135662272Y-83117080D01*
X135610202Y-83095512D01*
X135610199Y-83095511D01*
X135112690Y-82889436D01*
X135112686Y-82889434D01*
X135060619Y-82867867D01*
X135019541Y-82845910D01*
X134988301Y-82820273D01*
X134962664Y-82789033D01*
X134943614Y-82753394D01*
X134931883Y-82714724D01*
X134927923Y-82674506D01*
X134931884Y-82634289D01*
X134945406Y-82589712D01*
X135023433Y-82401339D01*
X135199747Y-81975677D01*
X135357257Y-81595414D01*
X135379214Y-81554336D01*
X135404851Y-81523096D01*
X135436091Y-81497459D01*
X135471728Y-81478410D01*
X135510401Y-81466679D01*
X135550620Y-81462718D01*
X135590836Y-81466678D01*
X135590836Y-81466678D01*
G37*
G36*
X154481680Y-81466678D02*
G01*
X154520350Y-81478409D01*
X154555989Y-81497459D01*
X154587229Y-81523096D01*
X154612866Y-81554336D01*
X154634823Y-81595414D01*
X154656392Y-81647487D01*
X155025107Y-82537644D01*
X155025109Y-82537652D01*
X155046675Y-82589716D01*
X155060197Y-82634288D01*
X155064157Y-82674504D01*
X155060196Y-82714723D01*
X155048465Y-82753396D01*
X155029416Y-82789033D01*
X155003779Y-82820273D01*
X154972539Y-82845910D01*
X154931461Y-82867867D01*
X154879393Y-82889434D01*
X154879390Y-82889436D01*
X154733675Y-82949793D01*
X154329812Y-83117079D01*
X154285235Y-83130601D01*
X154245016Y-83134562D01*
X154204800Y-83130602D01*
X154166130Y-83118871D01*
X154130491Y-83099821D01*
X154099251Y-83074184D01*
X154073614Y-83042944D01*
X154051657Y-83001866D01*
X153932719Y-82714723D01*
X153661373Y-82059636D01*
X153661371Y-82059628D01*
X153639805Y-82007564D01*
X153626283Y-81962992D01*
X153622323Y-81922774D01*
X153626284Y-81882557D01*
X153638015Y-81843884D01*
X153657064Y-81808247D01*
X153682701Y-81777007D01*
X153713941Y-81751370D01*
X153755019Y-81729413D01*
X153807087Y-81707846D01*
X153807090Y-81707844D01*
X154120813Y-81577896D01*
X154356668Y-81480201D01*
X154401245Y-81466679D01*
X154441464Y-81462718D01*
X154481680Y-81466678D01*
X154481680Y-81466678D01*
G37*
G36*
X133858562Y-80749146D02*
G01*
X133903134Y-80762668D01*
X133955204Y-80784236D01*
X133955207Y-80784237D01*
X134452716Y-80990312D01*
X134452720Y-80990314D01*
X134504787Y-81011881D01*
X134545865Y-81033838D01*
X134577105Y-81059475D01*
X134602742Y-81090715D01*
X134621792Y-81126354D01*
X134633523Y-81165024D01*
X134637483Y-81205240D01*
X134633522Y-81245459D01*
X134620000Y-81290036D01*
X134598434Y-81342102D01*
X134598433Y-81342104D01*
X134523464Y-81523096D01*
X134208149Y-82284334D01*
X134186192Y-82325412D01*
X134160555Y-82356652D01*
X134129315Y-82382289D01*
X134093678Y-82401338D01*
X134055005Y-82413069D01*
X134014786Y-82417030D01*
X133974570Y-82413070D01*
X133929998Y-82399548D01*
X133877928Y-82377980D01*
X133877925Y-82377979D01*
X133380416Y-82171904D01*
X133380412Y-82171902D01*
X133328345Y-82150335D01*
X133287267Y-82128378D01*
X133256027Y-82102741D01*
X133230390Y-82071501D01*
X133211340Y-82035862D01*
X133199609Y-81997192D01*
X133195649Y-81956974D01*
X133199610Y-81916757D01*
X133213132Y-81872180D01*
X133270896Y-81732726D01*
X133454265Y-81290032D01*
X133624983Y-80877882D01*
X133646940Y-80836804D01*
X133672577Y-80805564D01*
X133703817Y-80779927D01*
X133739454Y-80760878D01*
X133778127Y-80749147D01*
X133818346Y-80745186D01*
X133858562Y-80749146D01*
X133858562Y-80749146D01*
G37*
G36*
X156213954Y-80749146D02*
G01*
X156252624Y-80760877D01*
X156288263Y-80779927D01*
X156319503Y-80805564D01*
X156345140Y-80836804D01*
X156367097Y-80877882D01*
X156388666Y-80929955D01*
X156757381Y-81820112D01*
X156757383Y-81820120D01*
X156778949Y-81872184D01*
X156792471Y-81916756D01*
X156796431Y-81956972D01*
X156792470Y-81997191D01*
X156780739Y-82035864D01*
X156761690Y-82071501D01*
X156736053Y-82102741D01*
X156704813Y-82128378D01*
X156663735Y-82150335D01*
X156611667Y-82171902D01*
X156611664Y-82171904D01*
X156465949Y-82232261D01*
X156062086Y-82399547D01*
X156017509Y-82413069D01*
X155977290Y-82417030D01*
X155937074Y-82413070D01*
X155898404Y-82401339D01*
X155862765Y-82382289D01*
X155831525Y-82356652D01*
X155805888Y-82325412D01*
X155783931Y-82284334D01*
X155664993Y-81997191D01*
X155393647Y-81342104D01*
X155393645Y-81342096D01*
X155372079Y-81290032D01*
X155358557Y-81245460D01*
X155354597Y-81205242D01*
X155358558Y-81165025D01*
X155370289Y-81126352D01*
X155389338Y-81090715D01*
X155414975Y-81059475D01*
X155446215Y-81033838D01*
X155487293Y-81011881D01*
X155539361Y-80990314D01*
X155539364Y-80990312D01*
X155853087Y-80860364D01*
X156088942Y-80762669D01*
X156133519Y-80749147D01*
X156173738Y-80745186D01*
X156213954Y-80749146D01*
X156213954Y-80749146D01*
G37*
G36*
X153269612Y-79308362D02*
G01*
X152490381Y-80087593D01*
X151993992Y-79591204D01*
X152773223Y-78811973D01*
X153269612Y-79308362D01*
X153269612Y-79308362D01*
G37*
G36*
X137965297Y-79568147D02*
G01*
X137468908Y-80064536D01*
X136689677Y-79285305D01*
X137186066Y-78788916D01*
X137965297Y-79568147D01*
X137965297Y-79568147D01*
G37*
G36*
X152350373Y-78389123D02*
G01*
X151571142Y-79168354D01*
X151074753Y-78671965D01*
X151853984Y-77892734D01*
X152350373Y-78389123D01*
X152350373Y-78389123D01*
G37*
G36*
X138884536Y-78648908D02*
G01*
X138388147Y-79145297D01*
X137608916Y-78366066D01*
X138105305Y-77869677D01*
X138884536Y-78648908D01*
X138884536Y-78648908D01*
G37*
G36*
X154683825Y-77894149D02*
G01*
X153904594Y-78673380D01*
X153408205Y-78176991D01*
X154187436Y-77397760D01*
X154683825Y-77894149D01*
X154683825Y-77894149D01*
G37*
G36*
X136551084Y-78153934D02*
G01*
X136054695Y-78650323D01*
X135275464Y-77871092D01*
X135771853Y-77374703D01*
X136551084Y-78153934D01*
X136551084Y-78153934D01*
G37*
G36*
X153764586Y-76974910D02*
G01*
X152985355Y-77754141D01*
X152488966Y-77257752D01*
X153268197Y-76478521D01*
X153764586Y-76974910D01*
X153764586Y-76974910D01*
G37*
G36*
X137470323Y-77234695D02*
G01*
X136973934Y-77731084D01*
X136194703Y-76951853D01*
X136691092Y-76455464D01*
X137470323Y-77234695D01*
X137470323Y-77234695D01*
G37*
G36*
X148514859Y-76100358D02*
G01*
X148559436Y-76113880D01*
X148611502Y-76135446D01*
X148611504Y-76135447D01*
X148838667Y-76229541D01*
X149553734Y-76525731D01*
X149594812Y-76547688D01*
X149626052Y-76573325D01*
X149651689Y-76604565D01*
X149670738Y-76640202D01*
X149682469Y-76678875D01*
X149686430Y-76719092D01*
X149682470Y-76759310D01*
X149668948Y-76803882D01*
X149647380Y-76855952D01*
X149647379Y-76855955D01*
X149443406Y-77348390D01*
X149419735Y-77405535D01*
X149397778Y-77446613D01*
X149372141Y-77477853D01*
X149340901Y-77503490D01*
X149305262Y-77522540D01*
X149266592Y-77534271D01*
X149226376Y-77538231D01*
X149186157Y-77534270D01*
X149141580Y-77520748D01*
X149089514Y-77499182D01*
X149089512Y-77499181D01*
X148703056Y-77339106D01*
X148147282Y-77108897D01*
X148106204Y-77086940D01*
X148074964Y-77061303D01*
X148049327Y-77030063D01*
X148030278Y-76994426D01*
X148018547Y-76955753D01*
X148014586Y-76915534D01*
X148018546Y-76875318D01*
X148032068Y-76830746D01*
X148055739Y-76773599D01*
X148259712Y-76281164D01*
X148259714Y-76281160D01*
X148281281Y-76229093D01*
X148303238Y-76188015D01*
X148328875Y-76156775D01*
X148360115Y-76131138D01*
X148395754Y-76112088D01*
X148434424Y-76100357D01*
X148474640Y-76096397D01*
X148514859Y-76100358D01*
X148514859Y-76100358D01*
G37*
G36*
X141525923Y-76095284D02*
G01*
X141564596Y-76107015D01*
X141600233Y-76126064D01*
X141631473Y-76151701D01*
X141657110Y-76182941D01*
X141679067Y-76224019D01*
X141700634Y-76276087D01*
X141700636Y-76276090D01*
X141821653Y-76568251D01*
X141928279Y-76825668D01*
X141941801Y-76870245D01*
X141945762Y-76910462D01*
X141941802Y-76950680D01*
X141930071Y-76989350D01*
X141911021Y-77024989D01*
X141885384Y-77056229D01*
X141854144Y-77081866D01*
X141813066Y-77103823D01*
X141547134Y-77213975D01*
X140870836Y-77494107D01*
X140870828Y-77494109D01*
X140818764Y-77515675D01*
X140774192Y-77529197D01*
X140733976Y-77533157D01*
X140693757Y-77529196D01*
X140655084Y-77517465D01*
X140619447Y-77498416D01*
X140588207Y-77472779D01*
X140562570Y-77441539D01*
X140540613Y-77400461D01*
X140418471Y-77105584D01*
X140366317Y-76979675D01*
X140291401Y-76798812D01*
X140277879Y-76754235D01*
X140273918Y-76714016D01*
X140277878Y-76673800D01*
X140289609Y-76635130D01*
X140308659Y-76599491D01*
X140334296Y-76568251D01*
X140365536Y-76542614D01*
X140406614Y-76520657D01*
X140672546Y-76410505D01*
X141348844Y-76130373D01*
X141348852Y-76130371D01*
X141400916Y-76108805D01*
X141445488Y-76095283D01*
X141485704Y-76091323D01*
X141525923Y-76095284D01*
X141525923Y-76095284D01*
G37*
G36*
X144681000Y-76541000D02*
G01*
X143979000Y-76541000D01*
X143979000Y-75439000D01*
X144681000Y-75439000D01*
X144681000Y-76541000D01*
X144681000Y-76541000D01*
G37*
G36*
X145981000Y-76541000D02*
G01*
X145279000Y-76541000D01*
X145279000Y-75439000D01*
X145981000Y-75439000D01*
X145981000Y-76541000D01*
X145981000Y-76541000D01*
G37*
G36*
X149232391Y-74368084D02*
G01*
X149276968Y-74381606D01*
X149329034Y-74403172D01*
X149329036Y-74403173D01*
X149556199Y-74497267D01*
X150271266Y-74793457D01*
X150312344Y-74815414D01*
X150343584Y-74841051D01*
X150369221Y-74872291D01*
X150388270Y-74907928D01*
X150400001Y-74946601D01*
X150403962Y-74986818D01*
X150400002Y-75027036D01*
X150386480Y-75071608D01*
X150364912Y-75123678D01*
X150364911Y-75123681D01*
X150160938Y-75616116D01*
X150137267Y-75673261D01*
X150115310Y-75714339D01*
X150089673Y-75745579D01*
X150058433Y-75771216D01*
X150022794Y-75790266D01*
X149984124Y-75801997D01*
X149943908Y-75805957D01*
X149903689Y-75801996D01*
X149859112Y-75788474D01*
X149807046Y-75766908D01*
X149807044Y-75766907D01*
X149015406Y-75439000D01*
X148864814Y-75376623D01*
X148823736Y-75354666D01*
X148792496Y-75329029D01*
X148766859Y-75297789D01*
X148747810Y-75262152D01*
X148736079Y-75223479D01*
X148732118Y-75183260D01*
X148736078Y-75143044D01*
X148749600Y-75098472D01*
X148773271Y-75041325D01*
X148977244Y-74548890D01*
X148977246Y-74548886D01*
X148998813Y-74496819D01*
X149020770Y-74455741D01*
X149046407Y-74424501D01*
X149077647Y-74398864D01*
X149113286Y-74379814D01*
X149151956Y-74368083D01*
X149192172Y-74364123D01*
X149232391Y-74368084D01*
X149232391Y-74368084D01*
G37*
G36*
X140808391Y-74363010D02*
G01*
X140847064Y-74374741D01*
X140882701Y-74393790D01*
X140913941Y-74419427D01*
X140939578Y-74450667D01*
X140961535Y-74491745D01*
X140983102Y-74543813D01*
X140983104Y-74543816D01*
X141104121Y-74835977D01*
X141210747Y-75093394D01*
X141224269Y-75137971D01*
X141228230Y-75178188D01*
X141224270Y-75218406D01*
X141212539Y-75257076D01*
X141193489Y-75292715D01*
X141167852Y-75323955D01*
X141136612Y-75349592D01*
X141095534Y-75371549D01*
X140932692Y-75439000D01*
X140153304Y-75761833D01*
X140153296Y-75761835D01*
X140101232Y-75783401D01*
X140056660Y-75796923D01*
X140016444Y-75800883D01*
X139976225Y-75796922D01*
X139937552Y-75785191D01*
X139901915Y-75766142D01*
X139870675Y-75740505D01*
X139845038Y-75709265D01*
X139823081Y-75668187D01*
X139700939Y-75373310D01*
X139603458Y-75137971D01*
X139573869Y-75066538D01*
X139560347Y-75021961D01*
X139556386Y-74981742D01*
X139560346Y-74941526D01*
X139572077Y-74902856D01*
X139591127Y-74867217D01*
X139616764Y-74835977D01*
X139648004Y-74810340D01*
X139689082Y-74788383D01*
X139955014Y-74678231D01*
X140631312Y-74398099D01*
X140631320Y-74398097D01*
X140683384Y-74376531D01*
X140727956Y-74363009D01*
X140768172Y-74359049D01*
X140808391Y-74363010D01*
X140808391Y-74363010D01*
G37*
G36*
X144681000Y-74541000D02*
G01*
X143979000Y-74541000D01*
X143979000Y-73439000D01*
X144681000Y-73439000D01*
X144681000Y-74541000D01*
X144681000Y-74541000D01*
G37*
G36*
X145981000Y-74541000D02*
G01*
X145279000Y-74541000D01*
X145279000Y-73439000D01*
X145981000Y-73439000D01*
X145981000Y-74541000D01*
X145981000Y-74541000D01*
G37*
G36*
X145436840Y-72447620D02*
G01*
X144534840Y-72447620D01*
X144534840Y-71445620D01*
X145436840Y-71445620D01*
X145436840Y-72447620D01*
X145436840Y-72447620D01*
G37*
G36*
X151050468Y-69479585D02*
G01*
X151089138Y-69491316D01*
X151124777Y-69510366D01*
X151156017Y-69536003D01*
X151181654Y-69567243D01*
X151200704Y-69602882D01*
X151212435Y-69641552D01*
X151217000Y-69687908D01*
X151217000Y-70764132D01*
X151212435Y-70810488D01*
X151200704Y-70849158D01*
X151181654Y-70884797D01*
X151156017Y-70916037D01*
X151124777Y-70941674D01*
X151089138Y-70960724D01*
X151050468Y-70972455D01*
X151004112Y-70977020D01*
X150352888Y-70977020D01*
X150306532Y-70972455D01*
X150267862Y-70960724D01*
X150232223Y-70941674D01*
X150200983Y-70916037D01*
X150175346Y-70884797D01*
X150156296Y-70849158D01*
X150144565Y-70810488D01*
X150140000Y-70764132D01*
X150140000Y-69687908D01*
X150144565Y-69641552D01*
X150156296Y-69602882D01*
X150175346Y-69567243D01*
X150200983Y-69536003D01*
X150232223Y-69510366D01*
X150267862Y-69491316D01*
X150306532Y-69479585D01*
X150352888Y-69475020D01*
X151004112Y-69475020D01*
X151050468Y-69479585D01*
X151050468Y-69479585D01*
G37*
G36*
X149175468Y-69479585D02*
G01*
X149214138Y-69491316D01*
X149249777Y-69510366D01*
X149281017Y-69536003D01*
X149306654Y-69567243D01*
X149325704Y-69602882D01*
X149337435Y-69641552D01*
X149342000Y-69687908D01*
X149342000Y-70764132D01*
X149337435Y-70810488D01*
X149325704Y-70849158D01*
X149306654Y-70884797D01*
X149281017Y-70916037D01*
X149249777Y-70941674D01*
X149214138Y-70960724D01*
X149175468Y-70972455D01*
X149129112Y-70977020D01*
X148477888Y-70977020D01*
X148431532Y-70972455D01*
X148392862Y-70960724D01*
X148357223Y-70941674D01*
X148325983Y-70916037D01*
X148300346Y-70884797D01*
X148281296Y-70849158D01*
X148269565Y-70810488D01*
X148265000Y-70764132D01*
X148265000Y-69687908D01*
X148269565Y-69641552D01*
X148281296Y-69602882D01*
X148300346Y-69567243D01*
X148325983Y-69536003D01*
X148357223Y-69510366D01*
X148392862Y-69491316D01*
X148431532Y-69479585D01*
X148477888Y-69475020D01*
X149129112Y-69475020D01*
X149175468Y-69479585D01*
X149175468Y-69479585D01*
G37*
G36*
X139642368Y-69451645D02*
G01*
X139681038Y-69463376D01*
X139716677Y-69482426D01*
X139747917Y-69508063D01*
X139773554Y-69539303D01*
X139792604Y-69574942D01*
X139804335Y-69613612D01*
X139808900Y-69659968D01*
X139808900Y-70736192D01*
X139804335Y-70782548D01*
X139792604Y-70821218D01*
X139773554Y-70856857D01*
X139747917Y-70888097D01*
X139716677Y-70913734D01*
X139681038Y-70932784D01*
X139642368Y-70944515D01*
X139596012Y-70949080D01*
X138944788Y-70949080D01*
X138898432Y-70944515D01*
X138859762Y-70932784D01*
X138824123Y-70913734D01*
X138792883Y-70888097D01*
X138767246Y-70856857D01*
X138748196Y-70821218D01*
X138736465Y-70782548D01*
X138731900Y-70736192D01*
X138731900Y-69659968D01*
X138736465Y-69613612D01*
X138748196Y-69574942D01*
X138767246Y-69539303D01*
X138792883Y-69508063D01*
X138824123Y-69482426D01*
X138859762Y-69463376D01*
X138898432Y-69451645D01*
X138944788Y-69447080D01*
X139596012Y-69447080D01*
X139642368Y-69451645D01*
X139642368Y-69451645D01*
G37*
G36*
X141517368Y-69451645D02*
G01*
X141556038Y-69463376D01*
X141591677Y-69482426D01*
X141622917Y-69508063D01*
X141648554Y-69539303D01*
X141667604Y-69574942D01*
X141679335Y-69613612D01*
X141683900Y-69659968D01*
X141683900Y-70736192D01*
X141679335Y-70782548D01*
X141667604Y-70821218D01*
X141648554Y-70856857D01*
X141622917Y-70888097D01*
X141591677Y-70913734D01*
X141556038Y-70932784D01*
X141517368Y-70944515D01*
X141471012Y-70949080D01*
X140819788Y-70949080D01*
X140773432Y-70944515D01*
X140734762Y-70932784D01*
X140699123Y-70913734D01*
X140667883Y-70888097D01*
X140642246Y-70856857D01*
X140623196Y-70821218D01*
X140611465Y-70782548D01*
X140606900Y-70736192D01*
X140606900Y-69659968D01*
X140611465Y-69613612D01*
X140623196Y-69574942D01*
X140642246Y-69539303D01*
X140667883Y-69508063D01*
X140699123Y-69482426D01*
X140734762Y-69463376D01*
X140773432Y-69451645D01*
X140819788Y-69447080D01*
X141471012Y-69447080D01*
X141517368Y-69451645D01*
X141517368Y-69451645D01*
G37*
G36*
X146386840Y-70447620D02*
G01*
X145484840Y-70447620D01*
X145484840Y-69445620D01*
X146386840Y-69445620D01*
X146386840Y-70447620D01*
X146386840Y-70447620D01*
G37*
G36*
X144486840Y-70447620D02*
G01*
X143584840Y-70447620D01*
X143584840Y-69445620D01*
X144486840Y-69445620D01*
X144486840Y-70447620D01*
X144486840Y-70447620D01*
G37*
G36*
X140463000Y-66703000D02*
G01*
X138837000Y-66703000D01*
X138837000Y-65077000D01*
X140463000Y-65077000D01*
X140463000Y-66703000D01*
X140463000Y-66703000D01*
G37*
G36*
X150497142Y-65078242D02*
G01*
X150645101Y-65139529D01*
X150778255Y-65228499D01*
X150891501Y-65341745D01*
X150980471Y-65474899D01*
X151041758Y-65622858D01*
X151073000Y-65779925D01*
X151073000Y-65940075D01*
X151041758Y-66097142D01*
X150980471Y-66245101D01*
X150891501Y-66378255D01*
X150778255Y-66491501D01*
X150645101Y-66580471D01*
X150497142Y-66641758D01*
X150340075Y-66673000D01*
X150179925Y-66673000D01*
X150022858Y-66641758D01*
X149874899Y-66580471D01*
X149741745Y-66491501D01*
X149628499Y-66378255D01*
X149539529Y-66245101D01*
X149478242Y-66097142D01*
X149447000Y-65940075D01*
X149447000Y-65779925D01*
X149478242Y-65622858D01*
X149539529Y-65474899D01*
X149628499Y-65341745D01*
X149741745Y-65228499D01*
X149874899Y-65139529D01*
X150022858Y-65078242D01*
X150179925Y-65047000D01*
X150340075Y-65047000D01*
X150497142Y-65078242D01*
X150497142Y-65078242D01*
G37*
G36*
X139887142Y-63108242D02*
G01*
X140035101Y-63169529D01*
X140168255Y-63258499D01*
X140281501Y-63371745D01*
X140370471Y-63504899D01*
X140431758Y-63652858D01*
X140463000Y-63809925D01*
X140463000Y-63970075D01*
X140431758Y-64127142D01*
X140370471Y-64275101D01*
X140281501Y-64408255D01*
X140168255Y-64521501D01*
X140035101Y-64610471D01*
X139887142Y-64671758D01*
X139730075Y-64703000D01*
X139569925Y-64703000D01*
X139412858Y-64671758D01*
X139264899Y-64610471D01*
X139131745Y-64521501D01*
X139018499Y-64408255D01*
X138929529Y-64275101D01*
X138868242Y-64127142D01*
X138837000Y-63970075D01*
X138837000Y-63809925D01*
X138868242Y-63652858D01*
X138929529Y-63504899D01*
X139018499Y-63371745D01*
X139131745Y-63258499D01*
X139264899Y-63169529D01*
X139412858Y-63108242D01*
X139569925Y-63077000D01*
X139730075Y-63077000D01*
X139887142Y-63108242D01*
X139887142Y-63108242D01*
G37*
G36*
X150497142Y-63078242D02*
G01*
X150645101Y-63139529D01*
X150778255Y-63228499D01*
X150891501Y-63341745D01*
X150980471Y-63474899D01*
X151041758Y-63622858D01*
X151073000Y-63779925D01*
X151073000Y-63940075D01*
X151041758Y-64097142D01*
X150980471Y-64245101D01*
X150891501Y-64378255D01*
X150778255Y-64491501D01*
X150645101Y-64580471D01*
X150497142Y-64641758D01*
X150340075Y-64673000D01*
X150179925Y-64673000D01*
X150022858Y-64641758D01*
X149874899Y-64580471D01*
X149741745Y-64491501D01*
X149628499Y-64378255D01*
X149539529Y-64245101D01*
X149478242Y-64097142D01*
X149447000Y-63940075D01*
X149447000Y-63779925D01*
X149478242Y-63622858D01*
X149539529Y-63474899D01*
X149628499Y-63341745D01*
X149741745Y-63228499D01*
X149874899Y-63139529D01*
X150022858Y-63078242D01*
X150179925Y-63047000D01*
X150340075Y-63047000D01*
X150497142Y-63078242D01*
X150497142Y-63078242D01*
G37*
G36*
X139887142Y-61108242D02*
G01*
X140035101Y-61169529D01*
X140168255Y-61258499D01*
X140281501Y-61371745D01*
X140370471Y-61504899D01*
X140431758Y-61652858D01*
X140463000Y-61809925D01*
X140463000Y-61970075D01*
X140431758Y-62127142D01*
X140370471Y-62275101D01*
X140281501Y-62408255D01*
X140168255Y-62521501D01*
X140035101Y-62610471D01*
X139887142Y-62671758D01*
X139730075Y-62703000D01*
X139569925Y-62703000D01*
X139412858Y-62671758D01*
X139264899Y-62610471D01*
X139131745Y-62521501D01*
X139018499Y-62408255D01*
X138929529Y-62275101D01*
X138868242Y-62127142D01*
X138837000Y-61970075D01*
X138837000Y-61809925D01*
X138868242Y-61652858D01*
X138929529Y-61504899D01*
X139018499Y-61371745D01*
X139131745Y-61258499D01*
X139264899Y-61169529D01*
X139412858Y-61108242D01*
X139569925Y-61077000D01*
X139730075Y-61077000D01*
X139887142Y-61108242D01*
X139887142Y-61108242D01*
G37*
G36*
X150497142Y-61078242D02*
G01*
X150645101Y-61139529D01*
X150778255Y-61228499D01*
X150891501Y-61341745D01*
X150980471Y-61474899D01*
X151041758Y-61622858D01*
X151073000Y-61779925D01*
X151073000Y-61940075D01*
X151041758Y-62097142D01*
X150980471Y-62245101D01*
X150891501Y-62378255D01*
X150778255Y-62491501D01*
X150645101Y-62580471D01*
X150497142Y-62641758D01*
X150340075Y-62673000D01*
X150179925Y-62673000D01*
X150022858Y-62641758D01*
X149874899Y-62580471D01*
X149741745Y-62491501D01*
X149628499Y-62378255D01*
X149539529Y-62245101D01*
X149478242Y-62097142D01*
X149447000Y-61940075D01*
X149447000Y-61779925D01*
X149478242Y-61622858D01*
X149539529Y-61474899D01*
X149628499Y-61341745D01*
X149741745Y-61228499D01*
X149874899Y-61139529D01*
X150022858Y-61078242D01*
X150179925Y-61047000D01*
X150340075Y-61047000D01*
X150497142Y-61078242D01*
X150497142Y-61078242D01*
G37*
G36*
X139887142Y-59108242D02*
G01*
X140035101Y-59169529D01*
X140168255Y-59258499D01*
X140281501Y-59371745D01*
X140370471Y-59504899D01*
X140431758Y-59652858D01*
X140463000Y-59809925D01*
X140463000Y-59970075D01*
X140431758Y-60127142D01*
X140370471Y-60275101D01*
X140281501Y-60408255D01*
X140168255Y-60521501D01*
X140035101Y-60610471D01*
X139887142Y-60671758D01*
X139730075Y-60703000D01*
X139569925Y-60703000D01*
X139412858Y-60671758D01*
X139264899Y-60610471D01*
X139131745Y-60521501D01*
X139018499Y-60408255D01*
X138929529Y-60275101D01*
X138868242Y-60127142D01*
X138837000Y-59970075D01*
X138837000Y-59809925D01*
X138868242Y-59652858D01*
X138929529Y-59504899D01*
X139018499Y-59371745D01*
X139131745Y-59258499D01*
X139264899Y-59169529D01*
X139412858Y-59108242D01*
X139569925Y-59077000D01*
X139730075Y-59077000D01*
X139887142Y-59108242D01*
X139887142Y-59108242D01*
G37*
G36*
X151073000Y-60673000D02*
G01*
X149447000Y-60673000D01*
X149447000Y-59047000D01*
X151073000Y-59047000D01*
X151073000Y-60673000D01*
X151073000Y-60673000D01*
G37*
G36*
X148657403Y-53413359D02*
G01*
X148723587Y-53419877D01*
X148893426Y-53471397D01*
X149049951Y-53555062D01*
X149085689Y-53584392D01*
X149187146Y-53667654D01*
X149270408Y-53769111D01*
X149299738Y-53804849D01*
X149383403Y-53961374D01*
X149434923Y-54131213D01*
X149452319Y-54307840D01*
X149434923Y-54484467D01*
X149383403Y-54654306D01*
X149299738Y-54810831D01*
X149270408Y-54846569D01*
X149187146Y-54948026D01*
X149085689Y-55031288D01*
X149049951Y-55060618D01*
X148893426Y-55144283D01*
X148723587Y-55195803D01*
X148657403Y-55202321D01*
X148591220Y-55208840D01*
X148502700Y-55208840D01*
X148436517Y-55202321D01*
X148370333Y-55195803D01*
X148200494Y-55144283D01*
X148043969Y-55060618D01*
X148008231Y-55031288D01*
X147906774Y-54948026D01*
X147823512Y-54846569D01*
X147794182Y-54810831D01*
X147710517Y-54654306D01*
X147658997Y-54484467D01*
X147641601Y-54307840D01*
X147658997Y-54131213D01*
X147710517Y-53961374D01*
X147794182Y-53804849D01*
X147823512Y-53769111D01*
X147906774Y-53667654D01*
X148008231Y-53584392D01*
X148043969Y-53555062D01*
X148200494Y-53471397D01*
X148370333Y-53419877D01*
X148436517Y-53413359D01*
X148502700Y-53406840D01*
X148591220Y-53406840D01*
X148657403Y-53413359D01*
X148657403Y-53413359D01*
G37*
G36*
X146117403Y-53413359D02*
G01*
X146183587Y-53419877D01*
X146353426Y-53471397D01*
X146509951Y-53555062D01*
X146545689Y-53584392D01*
X146647146Y-53667654D01*
X146730408Y-53769111D01*
X146759738Y-53804849D01*
X146843403Y-53961374D01*
X146894923Y-54131213D01*
X146912319Y-54307840D01*
X146894923Y-54484467D01*
X146843403Y-54654306D01*
X146759738Y-54810831D01*
X146730408Y-54846569D01*
X146647146Y-54948026D01*
X146545689Y-55031288D01*
X146509951Y-55060618D01*
X146353426Y-55144283D01*
X146183587Y-55195803D01*
X146117403Y-55202321D01*
X146051220Y-55208840D01*
X145962700Y-55208840D01*
X145896517Y-55202321D01*
X145830333Y-55195803D01*
X145660494Y-55144283D01*
X145503969Y-55060618D01*
X145468231Y-55031288D01*
X145366774Y-54948026D01*
X145283512Y-54846569D01*
X145254182Y-54810831D01*
X145170517Y-54654306D01*
X145118997Y-54484467D01*
X145101601Y-54307840D01*
X145118997Y-54131213D01*
X145170517Y-53961374D01*
X145254182Y-53804849D01*
X145283512Y-53769111D01*
X145366774Y-53667654D01*
X145468231Y-53584392D01*
X145503969Y-53555062D01*
X145660494Y-53471397D01*
X145830333Y-53419877D01*
X145896517Y-53413359D01*
X145962700Y-53406840D01*
X146051220Y-53406840D01*
X146117403Y-53413359D01*
X146117403Y-53413359D01*
G37*
G36*
X143577403Y-53413359D02*
G01*
X143643587Y-53419877D01*
X143813426Y-53471397D01*
X143969951Y-53555062D01*
X144005689Y-53584392D01*
X144107146Y-53667654D01*
X144190408Y-53769111D01*
X144219738Y-53804849D01*
X144303403Y-53961374D01*
X144354923Y-54131213D01*
X144372319Y-54307840D01*
X144354923Y-54484467D01*
X144303403Y-54654306D01*
X144219738Y-54810831D01*
X144190408Y-54846569D01*
X144107146Y-54948026D01*
X144005689Y-55031288D01*
X143969951Y-55060618D01*
X143813426Y-55144283D01*
X143643587Y-55195803D01*
X143577403Y-55202321D01*
X143511220Y-55208840D01*
X143422700Y-55208840D01*
X143356517Y-55202321D01*
X143290333Y-55195803D01*
X143120494Y-55144283D01*
X142963969Y-55060618D01*
X142928231Y-55031288D01*
X142826774Y-54948026D01*
X142743512Y-54846569D01*
X142714182Y-54810831D01*
X142630517Y-54654306D01*
X142578997Y-54484467D01*
X142561601Y-54307840D01*
X142578997Y-54131213D01*
X142630517Y-53961374D01*
X142714182Y-53804849D01*
X142743512Y-53769111D01*
X142826774Y-53667654D01*
X142928231Y-53584392D01*
X142963969Y-53555062D01*
X143120494Y-53471397D01*
X143290333Y-53419877D01*
X143356517Y-53413359D01*
X143422700Y-53406840D01*
X143511220Y-53406840D01*
X143577403Y-53413359D01*
X143577403Y-53413359D01*
G37*
G36*
X141827960Y-55208840D02*
G01*
X140025960Y-55208840D01*
X140025960Y-53406840D01*
X141827960Y-53406840D01*
X141827960Y-55208840D01*
X141827960Y-55208840D01*
G37*
M02*
