G04 #@! TF.GenerationSoftware,KiCad,Pcbnew,(5.1.0-0)*
G04 #@! TF.CreationDate,2020-01-22T16:50:41+01:00*
G04 #@! TF.ProjectId,pino_brd_v01,70696e6f-5f62-4726-945f-7630312e6b69,rev?*
G04 #@! TF.SameCoordinates,Original*
G04 #@! TF.FileFunction,Soldermask,Bot*
G04 #@! TF.FilePolarity,Negative*
%FSLAX46Y46*%
G04 Gerber Fmt 4.6, Leading zero omitted, Abs format (unit mm)*
G04 Created by KiCad (PCBNEW (5.1.0-0)) date 2020-01-22 16:50:41*
%MOMM*%
%LPD*%
G04 APERTURE LIST*
%ADD10C,0.100000*%
G04 APERTURE END LIST*
D10*
G36*
X23158163Y5126121D02*
G01*
X23224347Y5119603D01*
X23394186Y5068083D01*
X23550711Y4984418D01*
X23586449Y4955088D01*
X23687906Y4871826D01*
X23771168Y4770369D01*
X23800498Y4734631D01*
X23884163Y4578106D01*
X23935683Y4408267D01*
X23953079Y4231640D01*
X23935683Y4055013D01*
X23884163Y3885174D01*
X23800498Y3728649D01*
X23771168Y3692911D01*
X23687906Y3591454D01*
X23586449Y3508192D01*
X23550711Y3478862D01*
X23394186Y3395197D01*
X23224347Y3343677D01*
X23158163Y3337159D01*
X23091980Y3330640D01*
X21703460Y3330640D01*
X21637277Y3337159D01*
X21571093Y3343677D01*
X21401254Y3395197D01*
X21244729Y3478862D01*
X21208991Y3508192D01*
X21107534Y3591454D01*
X21024272Y3692911D01*
X20994942Y3728649D01*
X20911277Y3885174D01*
X20859757Y4055013D01*
X20842361Y4231640D01*
X20859757Y4408267D01*
X20911277Y4578106D01*
X20994942Y4734631D01*
X21024272Y4770369D01*
X21107534Y4871826D01*
X21208991Y4955088D01*
X21244729Y4984418D01*
X21401254Y5068083D01*
X21571093Y5119603D01*
X21637277Y5126121D01*
X21703460Y5132640D01*
X23091980Y5132640D01*
X23158163Y5126121D01*
X23158163Y5126121D01*
G37*
G36*
X6648163Y5126121D02*
G01*
X6714347Y5119603D01*
X6884186Y5068083D01*
X7040711Y4984418D01*
X7076449Y4955088D01*
X7177906Y4871826D01*
X7261168Y4770369D01*
X7290498Y4734631D01*
X7374163Y4578106D01*
X7425683Y4408267D01*
X7443079Y4231640D01*
X7425683Y4055013D01*
X7374163Y3885174D01*
X7290498Y3728649D01*
X7261168Y3692911D01*
X7177906Y3591454D01*
X7076449Y3508192D01*
X7040711Y3478862D01*
X6884186Y3395197D01*
X6714347Y3343677D01*
X6648163Y3337159D01*
X6581980Y3330640D01*
X5193460Y3330640D01*
X5127277Y3337159D01*
X5061093Y3343677D01*
X4891254Y3395197D01*
X4734729Y3478862D01*
X4698991Y3508192D01*
X4597534Y3591454D01*
X4514272Y3692911D01*
X4484942Y3728649D01*
X4401277Y3885174D01*
X4349757Y4055013D01*
X4332361Y4231640D01*
X4349757Y4408267D01*
X4401277Y4578106D01*
X4484942Y4734631D01*
X4514272Y4770369D01*
X4597534Y4871826D01*
X4698991Y4955088D01*
X4734729Y4984418D01*
X4891254Y5068083D01*
X5061093Y5119603D01*
X5127277Y5126121D01*
X5193460Y5132640D01*
X6581980Y5132640D01*
X6648163Y5126121D01*
X6648163Y5126121D01*
G37*
G36*
X23158163Y7666121D02*
G01*
X23224347Y7659603D01*
X23394186Y7608083D01*
X23550711Y7524418D01*
X23586449Y7495088D01*
X23687906Y7411826D01*
X23771168Y7310369D01*
X23800498Y7274631D01*
X23884163Y7118106D01*
X23935683Y6948267D01*
X23953079Y6771640D01*
X23935683Y6595013D01*
X23884163Y6425174D01*
X23800498Y6268649D01*
X23771168Y6232911D01*
X23687906Y6131454D01*
X23586449Y6048192D01*
X23550711Y6018862D01*
X23394186Y5935197D01*
X23224347Y5883677D01*
X23158162Y5877158D01*
X23091980Y5870640D01*
X21703460Y5870640D01*
X21637277Y5877159D01*
X21571093Y5883677D01*
X21401254Y5935197D01*
X21244729Y6018862D01*
X21208991Y6048192D01*
X21107534Y6131454D01*
X21024272Y6232911D01*
X20994942Y6268649D01*
X20911277Y6425174D01*
X20859757Y6595013D01*
X20842361Y6771640D01*
X20859757Y6948267D01*
X20911277Y7118106D01*
X20994942Y7274631D01*
X21024272Y7310369D01*
X21107534Y7411826D01*
X21208991Y7495088D01*
X21244729Y7524418D01*
X21401254Y7608083D01*
X21571093Y7659603D01*
X21637277Y7666121D01*
X21703460Y7672640D01*
X23091980Y7672640D01*
X23158163Y7666121D01*
X23158163Y7666121D01*
G37*
G36*
X6648163Y7666121D02*
G01*
X6714347Y7659603D01*
X6884186Y7608083D01*
X7040711Y7524418D01*
X7076449Y7495088D01*
X7177906Y7411826D01*
X7261168Y7310369D01*
X7290498Y7274631D01*
X7374163Y7118106D01*
X7425683Y6948267D01*
X7443079Y6771640D01*
X7425683Y6595013D01*
X7374163Y6425174D01*
X7290498Y6268649D01*
X7261168Y6232911D01*
X7177906Y6131454D01*
X7076449Y6048192D01*
X7040711Y6018862D01*
X6884186Y5935197D01*
X6714347Y5883677D01*
X6648162Y5877158D01*
X6581980Y5870640D01*
X5193460Y5870640D01*
X5127278Y5877158D01*
X5061093Y5883677D01*
X4891254Y5935197D01*
X4734729Y6018862D01*
X4698991Y6048192D01*
X4597534Y6131454D01*
X4514272Y6232911D01*
X4484942Y6268649D01*
X4401277Y6425174D01*
X4349757Y6595013D01*
X4332361Y6771640D01*
X4349757Y6948267D01*
X4401277Y7118106D01*
X4484942Y7274631D01*
X4514272Y7310369D01*
X4597534Y7411826D01*
X4698991Y7495088D01*
X4734729Y7524418D01*
X4891254Y7608083D01*
X5061093Y7659603D01*
X5127277Y7666121D01*
X5193460Y7672640D01*
X6581980Y7672640D01*
X6648163Y7666121D01*
X6648163Y7666121D01*
G37*
G36*
X23158163Y10206121D02*
G01*
X23224347Y10199603D01*
X23394186Y10148083D01*
X23550711Y10064418D01*
X23586449Y10035088D01*
X23687906Y9951826D01*
X23771168Y9850369D01*
X23800498Y9814631D01*
X23884163Y9658106D01*
X23935683Y9488267D01*
X23953079Y9311640D01*
X23935683Y9135013D01*
X23884163Y8965174D01*
X23800498Y8808649D01*
X23771168Y8772911D01*
X23687906Y8671454D01*
X23586449Y8588192D01*
X23550711Y8558862D01*
X23394186Y8475197D01*
X23224347Y8423677D01*
X23158162Y8417158D01*
X23091980Y8410640D01*
X21703460Y8410640D01*
X21637278Y8417158D01*
X21571093Y8423677D01*
X21401254Y8475197D01*
X21244729Y8558862D01*
X21208991Y8588192D01*
X21107534Y8671454D01*
X21024272Y8772911D01*
X20994942Y8808649D01*
X20911277Y8965174D01*
X20859757Y9135013D01*
X20842361Y9311640D01*
X20859757Y9488267D01*
X20911277Y9658106D01*
X20994942Y9814631D01*
X21024272Y9850369D01*
X21107534Y9951826D01*
X21208991Y10035088D01*
X21244729Y10064418D01*
X21401254Y10148083D01*
X21571093Y10199603D01*
X21637277Y10206121D01*
X21703460Y10212640D01*
X23091980Y10212640D01*
X23158163Y10206121D01*
X23158163Y10206121D01*
G37*
G36*
X6648163Y10206121D02*
G01*
X6714347Y10199603D01*
X6884186Y10148083D01*
X7040711Y10064418D01*
X7076449Y10035088D01*
X7177906Y9951826D01*
X7261168Y9850369D01*
X7290498Y9814631D01*
X7374163Y9658106D01*
X7425683Y9488267D01*
X7443079Y9311640D01*
X7425683Y9135013D01*
X7374163Y8965174D01*
X7290498Y8808649D01*
X7261168Y8772911D01*
X7177906Y8671454D01*
X7076449Y8588192D01*
X7040711Y8558862D01*
X6884186Y8475197D01*
X6714347Y8423677D01*
X6648162Y8417158D01*
X6581980Y8410640D01*
X5193460Y8410640D01*
X5127278Y8417158D01*
X5061093Y8423677D01*
X4891254Y8475197D01*
X4734729Y8558862D01*
X4698991Y8588192D01*
X4597534Y8671454D01*
X4514272Y8772911D01*
X4484942Y8808649D01*
X4401277Y8965174D01*
X4349757Y9135013D01*
X4332361Y9311640D01*
X4349757Y9488267D01*
X4401277Y9658106D01*
X4484942Y9814631D01*
X4514272Y9850369D01*
X4597534Y9951826D01*
X4698991Y10035088D01*
X4734729Y10064418D01*
X4891254Y10148083D01*
X5061093Y10199603D01*
X5127277Y10206121D01*
X5193460Y10212640D01*
X6581980Y10212640D01*
X6648163Y10206121D01*
X6648163Y10206121D01*
G37*
G36*
X23158162Y12746122D02*
G01*
X23224347Y12739603D01*
X23394186Y12688083D01*
X23550711Y12604418D01*
X23586449Y12575088D01*
X23687906Y12491826D01*
X23771168Y12390369D01*
X23800498Y12354631D01*
X23884163Y12198106D01*
X23935683Y12028267D01*
X23953079Y11851640D01*
X23935683Y11675013D01*
X23884163Y11505174D01*
X23800498Y11348649D01*
X23771168Y11312911D01*
X23687906Y11211454D01*
X23586449Y11128192D01*
X23550711Y11098862D01*
X23394186Y11015197D01*
X23224347Y10963677D01*
X23158162Y10957158D01*
X23091980Y10950640D01*
X21703460Y10950640D01*
X21637278Y10957158D01*
X21571093Y10963677D01*
X21401254Y11015197D01*
X21244729Y11098862D01*
X21208991Y11128192D01*
X21107534Y11211454D01*
X21024272Y11312911D01*
X20994942Y11348649D01*
X20911277Y11505174D01*
X20859757Y11675013D01*
X20842361Y11851640D01*
X20859757Y12028267D01*
X20911277Y12198106D01*
X20994942Y12354631D01*
X21024272Y12390369D01*
X21107534Y12491826D01*
X21208991Y12575088D01*
X21244729Y12604418D01*
X21401254Y12688083D01*
X21571093Y12739603D01*
X21637277Y12746121D01*
X21703460Y12752640D01*
X23091980Y12752640D01*
X23158162Y12746122D01*
X23158162Y12746122D01*
G37*
G36*
X6648162Y12746122D02*
G01*
X6714347Y12739603D01*
X6884186Y12688083D01*
X7040711Y12604418D01*
X7076449Y12575088D01*
X7177906Y12491826D01*
X7261168Y12390369D01*
X7290498Y12354631D01*
X7374163Y12198106D01*
X7425683Y12028267D01*
X7443079Y11851640D01*
X7425683Y11675013D01*
X7374163Y11505174D01*
X7290498Y11348649D01*
X7261168Y11312911D01*
X7177906Y11211454D01*
X7076449Y11128192D01*
X7040711Y11098862D01*
X6884186Y11015197D01*
X6714347Y10963677D01*
X6648162Y10957158D01*
X6581980Y10950640D01*
X5193460Y10950640D01*
X5127278Y10957158D01*
X5061093Y10963677D01*
X4891254Y11015197D01*
X4734729Y11098862D01*
X4698991Y11128192D01*
X4597534Y11211454D01*
X4514272Y11312911D01*
X4484942Y11348649D01*
X4401277Y11505174D01*
X4349757Y11675013D01*
X4332361Y11851640D01*
X4349757Y12028267D01*
X4401277Y12198106D01*
X4484942Y12354631D01*
X4514272Y12390369D01*
X4597534Y12491826D01*
X4698991Y12575088D01*
X4734729Y12604418D01*
X4891254Y12688083D01*
X5061093Y12739603D01*
X5127277Y12746121D01*
X5193460Y12752640D01*
X6581980Y12752640D01*
X6648162Y12746122D01*
X6648162Y12746122D01*
G37*
G36*
X6648163Y15286121D02*
G01*
X6714347Y15279603D01*
X6884186Y15228083D01*
X7040711Y15144418D01*
X7076449Y15115088D01*
X7177906Y15031826D01*
X7261168Y14930369D01*
X7290498Y14894631D01*
X7374163Y14738106D01*
X7425683Y14568267D01*
X7443079Y14391640D01*
X7425683Y14215013D01*
X7374163Y14045174D01*
X7290498Y13888649D01*
X7261168Y13852911D01*
X7177906Y13751454D01*
X7076449Y13668192D01*
X7040711Y13638862D01*
X6884186Y13555197D01*
X6714347Y13503677D01*
X6648162Y13497158D01*
X6581980Y13490640D01*
X5193460Y13490640D01*
X5127278Y13497158D01*
X5061093Y13503677D01*
X4891254Y13555197D01*
X4734729Y13638862D01*
X4698991Y13668192D01*
X4597534Y13751454D01*
X4514272Y13852911D01*
X4484942Y13888649D01*
X4401277Y14045174D01*
X4349757Y14215013D01*
X4332361Y14391640D01*
X4349757Y14568267D01*
X4401277Y14738106D01*
X4484942Y14894631D01*
X4514272Y14930369D01*
X4597534Y15031826D01*
X4698991Y15115088D01*
X4734729Y15144418D01*
X4891254Y15228083D01*
X5061093Y15279603D01*
X5127277Y15286121D01*
X5193460Y15292640D01*
X6581980Y15292640D01*
X6648163Y15286121D01*
X6648163Y15286121D01*
G37*
G36*
X23158163Y15286121D02*
G01*
X23224347Y15279603D01*
X23394186Y15228083D01*
X23550711Y15144418D01*
X23586449Y15115088D01*
X23687906Y15031826D01*
X23771168Y14930369D01*
X23800498Y14894631D01*
X23884163Y14738106D01*
X23935683Y14568267D01*
X23953079Y14391640D01*
X23935683Y14215013D01*
X23884163Y14045174D01*
X23800498Y13888649D01*
X23771168Y13852911D01*
X23687906Y13751454D01*
X23586449Y13668192D01*
X23550711Y13638862D01*
X23394186Y13555197D01*
X23224347Y13503677D01*
X23158162Y13497158D01*
X23091980Y13490640D01*
X21703460Y13490640D01*
X21637278Y13497158D01*
X21571093Y13503677D01*
X21401254Y13555197D01*
X21244729Y13638862D01*
X21208991Y13668192D01*
X21107534Y13751454D01*
X21024272Y13852911D01*
X20994942Y13888649D01*
X20911277Y14045174D01*
X20859757Y14215013D01*
X20842361Y14391640D01*
X20859757Y14568267D01*
X20911277Y14738106D01*
X20994942Y14894631D01*
X21024272Y14930369D01*
X21107534Y15031826D01*
X21208991Y15115088D01*
X21244729Y15144418D01*
X21401254Y15228083D01*
X21571093Y15279603D01*
X21637277Y15286121D01*
X21703460Y15292640D01*
X23091980Y15292640D01*
X23158163Y15286121D01*
X23158163Y15286121D01*
G37*
G36*
X6648163Y17826121D02*
G01*
X6714347Y17819603D01*
X6884186Y17768083D01*
X7040711Y17684418D01*
X7076449Y17655088D01*
X7177906Y17571826D01*
X7261168Y17470369D01*
X7290498Y17434631D01*
X7374163Y17278106D01*
X7425683Y17108267D01*
X7443079Y16931640D01*
X7425683Y16755013D01*
X7374163Y16585174D01*
X7290498Y16428649D01*
X7261168Y16392911D01*
X7177906Y16291454D01*
X7076449Y16208192D01*
X7040711Y16178862D01*
X6884186Y16095197D01*
X6714347Y16043677D01*
X6648163Y16037159D01*
X6581980Y16030640D01*
X5193460Y16030640D01*
X5127277Y16037159D01*
X5061093Y16043677D01*
X4891254Y16095197D01*
X4734729Y16178862D01*
X4698991Y16208192D01*
X4597534Y16291454D01*
X4514272Y16392911D01*
X4484942Y16428649D01*
X4401277Y16585174D01*
X4349757Y16755013D01*
X4332361Y16931640D01*
X4349757Y17108267D01*
X4401277Y17278106D01*
X4484942Y17434631D01*
X4514272Y17470369D01*
X4597534Y17571826D01*
X4698991Y17655088D01*
X4734729Y17684418D01*
X4891254Y17768083D01*
X5061093Y17819603D01*
X5127277Y17826121D01*
X5193460Y17832640D01*
X6581980Y17832640D01*
X6648163Y17826121D01*
X6648163Y17826121D01*
G37*
G36*
X23158163Y17826121D02*
G01*
X23224347Y17819603D01*
X23394186Y17768083D01*
X23550711Y17684418D01*
X23586449Y17655088D01*
X23687906Y17571826D01*
X23771168Y17470369D01*
X23800498Y17434631D01*
X23884163Y17278106D01*
X23935683Y17108267D01*
X23953079Y16931640D01*
X23935683Y16755013D01*
X23884163Y16585174D01*
X23800498Y16428649D01*
X23771168Y16392911D01*
X23687906Y16291454D01*
X23586449Y16208192D01*
X23550711Y16178862D01*
X23394186Y16095197D01*
X23224347Y16043677D01*
X23158163Y16037159D01*
X23091980Y16030640D01*
X21703460Y16030640D01*
X21637277Y16037159D01*
X21571093Y16043677D01*
X21401254Y16095197D01*
X21244729Y16178862D01*
X21208991Y16208192D01*
X21107534Y16291454D01*
X21024272Y16392911D01*
X20994942Y16428649D01*
X20911277Y16585174D01*
X20859757Y16755013D01*
X20842361Y16931640D01*
X20859757Y17108267D01*
X20911277Y17278106D01*
X20994942Y17434631D01*
X21024272Y17470369D01*
X21107534Y17571826D01*
X21208991Y17655088D01*
X21244729Y17684418D01*
X21401254Y17768083D01*
X21571093Y17819603D01*
X21637277Y17826121D01*
X21703460Y17832640D01*
X23091980Y17832640D01*
X23158163Y17826121D01*
X23158163Y17826121D01*
G37*
G36*
X23158163Y20366121D02*
G01*
X23224347Y20359603D01*
X23394186Y20308083D01*
X23550711Y20224418D01*
X23586449Y20195088D01*
X23687906Y20111826D01*
X23771168Y20010369D01*
X23800498Y19974631D01*
X23884163Y19818106D01*
X23935683Y19648267D01*
X23953079Y19471640D01*
X23935683Y19295013D01*
X23884163Y19125174D01*
X23800498Y18968649D01*
X23771168Y18932911D01*
X23687906Y18831454D01*
X23586449Y18748192D01*
X23550711Y18718862D01*
X23394186Y18635197D01*
X23224347Y18583677D01*
X23158162Y18577158D01*
X23091980Y18570640D01*
X21703460Y18570640D01*
X21637278Y18577158D01*
X21571093Y18583677D01*
X21401254Y18635197D01*
X21244729Y18718862D01*
X21208991Y18748192D01*
X21107534Y18831454D01*
X21024272Y18932911D01*
X20994942Y18968649D01*
X20911277Y19125174D01*
X20859757Y19295013D01*
X20842361Y19471640D01*
X20859757Y19648267D01*
X20911277Y19818106D01*
X20994942Y19974631D01*
X21024272Y20010369D01*
X21107534Y20111826D01*
X21208991Y20195088D01*
X21244729Y20224418D01*
X21401254Y20308083D01*
X21571093Y20359603D01*
X21637277Y20366121D01*
X21703460Y20372640D01*
X23091980Y20372640D01*
X23158163Y20366121D01*
X23158163Y20366121D01*
G37*
G36*
X6648163Y20366121D02*
G01*
X6714347Y20359603D01*
X6884186Y20308083D01*
X7040711Y20224418D01*
X7076449Y20195088D01*
X7177906Y20111826D01*
X7261168Y20010369D01*
X7290498Y19974631D01*
X7374163Y19818106D01*
X7425683Y19648267D01*
X7443079Y19471640D01*
X7425683Y19295013D01*
X7374163Y19125174D01*
X7290498Y18968649D01*
X7261168Y18932911D01*
X7177906Y18831454D01*
X7076449Y18748192D01*
X7040711Y18718862D01*
X6884186Y18635197D01*
X6714347Y18583677D01*
X6648162Y18577158D01*
X6581980Y18570640D01*
X5193460Y18570640D01*
X5127278Y18577158D01*
X5061093Y18583677D01*
X4891254Y18635197D01*
X4734729Y18718862D01*
X4698991Y18748192D01*
X4597534Y18831454D01*
X4514272Y18932911D01*
X4484942Y18968649D01*
X4401277Y19125174D01*
X4349757Y19295013D01*
X4332361Y19471640D01*
X4349757Y19648267D01*
X4401277Y19818106D01*
X4484942Y19974631D01*
X4514272Y20010369D01*
X4597534Y20111826D01*
X4698991Y20195088D01*
X4734729Y20224418D01*
X4891254Y20308083D01*
X5061093Y20359603D01*
X5127277Y20366121D01*
X5193460Y20372640D01*
X6581980Y20372640D01*
X6648163Y20366121D01*
X6648163Y20366121D01*
G37*
G36*
X6648162Y22906122D02*
G01*
X6714347Y22899603D01*
X6884186Y22848083D01*
X7040711Y22764418D01*
X7076449Y22735088D01*
X7177906Y22651826D01*
X7261168Y22550369D01*
X7290498Y22514631D01*
X7374163Y22358106D01*
X7425683Y22188267D01*
X7443079Y22011640D01*
X7425683Y21835013D01*
X7374163Y21665174D01*
X7290498Y21508649D01*
X7261168Y21472911D01*
X7177906Y21371454D01*
X7076449Y21288192D01*
X7040711Y21258862D01*
X6884186Y21175197D01*
X6714347Y21123677D01*
X6648162Y21117158D01*
X6581980Y21110640D01*
X5193460Y21110640D01*
X5127278Y21117158D01*
X5061093Y21123677D01*
X4891254Y21175197D01*
X4734729Y21258862D01*
X4698991Y21288192D01*
X4597534Y21371454D01*
X4514272Y21472911D01*
X4484942Y21508649D01*
X4401277Y21665174D01*
X4349757Y21835013D01*
X4332361Y22011640D01*
X4349757Y22188267D01*
X4401277Y22358106D01*
X4484942Y22514631D01*
X4514272Y22550369D01*
X4597534Y22651826D01*
X4698991Y22735088D01*
X4734729Y22764418D01*
X4891254Y22848083D01*
X5061093Y22899603D01*
X5127278Y22906122D01*
X5193460Y22912640D01*
X6581980Y22912640D01*
X6648162Y22906122D01*
X6648162Y22906122D01*
G37*
G36*
X23158162Y22906122D02*
G01*
X23224347Y22899603D01*
X23394186Y22848083D01*
X23550711Y22764418D01*
X23586449Y22735088D01*
X23687906Y22651826D01*
X23771168Y22550369D01*
X23800498Y22514631D01*
X23884163Y22358106D01*
X23935683Y22188267D01*
X23953079Y22011640D01*
X23935683Y21835013D01*
X23884163Y21665174D01*
X23800498Y21508649D01*
X23771168Y21472911D01*
X23687906Y21371454D01*
X23586449Y21288192D01*
X23550711Y21258862D01*
X23394186Y21175197D01*
X23224347Y21123677D01*
X23158162Y21117158D01*
X23091980Y21110640D01*
X21703460Y21110640D01*
X21637278Y21117158D01*
X21571093Y21123677D01*
X21401254Y21175197D01*
X21244729Y21258862D01*
X21208991Y21288192D01*
X21107534Y21371454D01*
X21024272Y21472911D01*
X20994942Y21508649D01*
X20911277Y21665174D01*
X20859757Y21835013D01*
X20842361Y22011640D01*
X20859757Y22188267D01*
X20911277Y22358106D01*
X20994942Y22514631D01*
X21024272Y22550369D01*
X21107534Y22651826D01*
X21208991Y22735088D01*
X21244729Y22764418D01*
X21401254Y22848083D01*
X21571093Y22899603D01*
X21637278Y22906122D01*
X21703460Y22912640D01*
X23091980Y22912640D01*
X23158162Y22906122D01*
X23158162Y22906122D01*
G37*
G36*
X6648162Y25446122D02*
G01*
X6714347Y25439603D01*
X6884186Y25388083D01*
X7040711Y25304418D01*
X7076449Y25275088D01*
X7177906Y25191826D01*
X7261168Y25090369D01*
X7290498Y25054631D01*
X7374163Y24898106D01*
X7425683Y24728267D01*
X7443079Y24551640D01*
X7425683Y24375013D01*
X7374163Y24205174D01*
X7290498Y24048649D01*
X7261168Y24012911D01*
X7177906Y23911454D01*
X7076449Y23828192D01*
X7040711Y23798862D01*
X6884186Y23715197D01*
X6714347Y23663677D01*
X6648162Y23657158D01*
X6581980Y23650640D01*
X5193460Y23650640D01*
X5127278Y23657158D01*
X5061093Y23663677D01*
X4891254Y23715197D01*
X4734729Y23798862D01*
X4698991Y23828192D01*
X4597534Y23911454D01*
X4514272Y24012911D01*
X4484942Y24048649D01*
X4401277Y24205174D01*
X4349757Y24375013D01*
X4332361Y24551640D01*
X4349757Y24728267D01*
X4401277Y24898106D01*
X4484942Y25054631D01*
X4514272Y25090369D01*
X4597534Y25191826D01*
X4698991Y25275088D01*
X4734729Y25304418D01*
X4891254Y25388083D01*
X5061093Y25439603D01*
X5127278Y25446122D01*
X5193460Y25452640D01*
X6581980Y25452640D01*
X6648162Y25446122D01*
X6648162Y25446122D01*
G37*
G36*
X23158162Y25446122D02*
G01*
X23224347Y25439603D01*
X23394186Y25388083D01*
X23550711Y25304418D01*
X23586449Y25275088D01*
X23687906Y25191826D01*
X23771168Y25090369D01*
X23800498Y25054631D01*
X23884163Y24898106D01*
X23935683Y24728267D01*
X23953079Y24551640D01*
X23935683Y24375013D01*
X23884163Y24205174D01*
X23800498Y24048649D01*
X23771168Y24012911D01*
X23687906Y23911454D01*
X23586449Y23828192D01*
X23550711Y23798862D01*
X23394186Y23715197D01*
X23224347Y23663677D01*
X23158162Y23657158D01*
X23091980Y23650640D01*
X21703460Y23650640D01*
X21637278Y23657158D01*
X21571093Y23663677D01*
X21401254Y23715197D01*
X21244729Y23798862D01*
X21208991Y23828192D01*
X21107534Y23911454D01*
X21024272Y24012911D01*
X20994942Y24048649D01*
X20911277Y24205174D01*
X20859757Y24375013D01*
X20842361Y24551640D01*
X20859757Y24728267D01*
X20911277Y24898106D01*
X20994942Y25054631D01*
X21024272Y25090369D01*
X21107534Y25191826D01*
X21208991Y25275088D01*
X21244729Y25304418D01*
X21401254Y25388083D01*
X21571093Y25439603D01*
X21637278Y25446122D01*
X21703460Y25452640D01*
X23091980Y25452640D01*
X23158162Y25446122D01*
X23158162Y25446122D01*
G37*
G36*
X6648163Y27986121D02*
G01*
X6714347Y27979603D01*
X6884186Y27928083D01*
X7040711Y27844418D01*
X7076449Y27815088D01*
X7177906Y27731826D01*
X7261168Y27630369D01*
X7290498Y27594631D01*
X7374163Y27438106D01*
X7425683Y27268267D01*
X7443079Y27091640D01*
X7425683Y26915013D01*
X7374163Y26745174D01*
X7290498Y26588649D01*
X7261168Y26552911D01*
X7177906Y26451454D01*
X7076449Y26368192D01*
X7040711Y26338862D01*
X6884186Y26255197D01*
X6714347Y26203677D01*
X6648162Y26197158D01*
X6581980Y26190640D01*
X5193460Y26190640D01*
X5127278Y26197158D01*
X5061093Y26203677D01*
X4891254Y26255197D01*
X4734729Y26338862D01*
X4698991Y26368192D01*
X4597534Y26451454D01*
X4514272Y26552911D01*
X4484942Y26588649D01*
X4401277Y26745174D01*
X4349757Y26915013D01*
X4332361Y27091640D01*
X4349757Y27268267D01*
X4401277Y27438106D01*
X4484942Y27594631D01*
X4514272Y27630369D01*
X4597534Y27731826D01*
X4698991Y27815088D01*
X4734729Y27844418D01*
X4891254Y27928083D01*
X5061093Y27979603D01*
X5127277Y27986121D01*
X5193460Y27992640D01*
X6581980Y27992640D01*
X6648163Y27986121D01*
X6648163Y27986121D01*
G37*
G36*
X23158163Y27986121D02*
G01*
X23224347Y27979603D01*
X23394186Y27928083D01*
X23550711Y27844418D01*
X23586449Y27815088D01*
X23687906Y27731826D01*
X23771168Y27630369D01*
X23800498Y27594631D01*
X23884163Y27438106D01*
X23935683Y27268267D01*
X23953079Y27091640D01*
X23935683Y26915013D01*
X23884163Y26745174D01*
X23800498Y26588649D01*
X23771168Y26552911D01*
X23687906Y26451454D01*
X23586449Y26368192D01*
X23550711Y26338862D01*
X23394186Y26255197D01*
X23224347Y26203677D01*
X23158162Y26197158D01*
X23091980Y26190640D01*
X21703460Y26190640D01*
X21637278Y26197158D01*
X21571093Y26203677D01*
X21401254Y26255197D01*
X21244729Y26338862D01*
X21208991Y26368192D01*
X21107534Y26451454D01*
X21024272Y26552911D01*
X20994942Y26588649D01*
X20911277Y26745174D01*
X20859757Y26915013D01*
X20842361Y27091640D01*
X20859757Y27268267D01*
X20911277Y27438106D01*
X20994942Y27594631D01*
X21024272Y27630369D01*
X21107534Y27731826D01*
X21208991Y27815088D01*
X21244729Y27844418D01*
X21401254Y27928083D01*
X21571093Y27979603D01*
X21637277Y27986121D01*
X21703460Y27992640D01*
X23091980Y27992640D01*
X23158163Y27986121D01*
X23158163Y27986121D01*
G37*
G36*
X6648163Y30526121D02*
G01*
X6714347Y30519603D01*
X6884186Y30468083D01*
X7040711Y30384418D01*
X7076449Y30355088D01*
X7177906Y30271826D01*
X7261168Y30170369D01*
X7290498Y30134631D01*
X7374163Y29978106D01*
X7425683Y29808267D01*
X7443079Y29631640D01*
X7425683Y29455013D01*
X7374163Y29285174D01*
X7290498Y29128649D01*
X7261168Y29092911D01*
X7177906Y28991454D01*
X7076449Y28908192D01*
X7040711Y28878862D01*
X6884186Y28795197D01*
X6714347Y28743677D01*
X6648162Y28737158D01*
X6581980Y28730640D01*
X5193460Y28730640D01*
X5127278Y28737158D01*
X5061093Y28743677D01*
X4891254Y28795197D01*
X4734729Y28878862D01*
X4698991Y28908192D01*
X4597534Y28991454D01*
X4514272Y29092911D01*
X4484942Y29128649D01*
X4401277Y29285174D01*
X4349757Y29455013D01*
X4332361Y29631640D01*
X4349757Y29808267D01*
X4401277Y29978106D01*
X4484942Y30134631D01*
X4514272Y30170369D01*
X4597534Y30271826D01*
X4698991Y30355088D01*
X4734729Y30384418D01*
X4891254Y30468083D01*
X5061093Y30519603D01*
X5127277Y30526121D01*
X5193460Y30532640D01*
X6581980Y30532640D01*
X6648163Y30526121D01*
X6648163Y30526121D01*
G37*
G36*
X23158163Y30526121D02*
G01*
X23224347Y30519603D01*
X23394186Y30468083D01*
X23550711Y30384418D01*
X23586449Y30355088D01*
X23687906Y30271826D01*
X23771168Y30170369D01*
X23800498Y30134631D01*
X23884163Y29978106D01*
X23935683Y29808267D01*
X23953079Y29631640D01*
X23935683Y29455013D01*
X23884163Y29285174D01*
X23800498Y29128649D01*
X23771168Y29092911D01*
X23687906Y28991454D01*
X23586449Y28908192D01*
X23550711Y28878862D01*
X23394186Y28795197D01*
X23224347Y28743677D01*
X23158162Y28737158D01*
X23091980Y28730640D01*
X21703460Y28730640D01*
X21637278Y28737158D01*
X21571093Y28743677D01*
X21401254Y28795197D01*
X21244729Y28878862D01*
X21208991Y28908192D01*
X21107534Y28991454D01*
X21024272Y29092911D01*
X20994942Y29128649D01*
X20911277Y29285174D01*
X20859757Y29455013D01*
X20842361Y29631640D01*
X20859757Y29808267D01*
X20911277Y29978106D01*
X20994942Y30134631D01*
X21024272Y30170369D01*
X21107534Y30271826D01*
X21208991Y30355088D01*
X21244729Y30384418D01*
X21401254Y30468083D01*
X21571093Y30519603D01*
X21637277Y30526121D01*
X21703460Y30532640D01*
X23091980Y30532640D01*
X23158163Y30526121D01*
X23158163Y30526121D01*
G37*
G36*
X23158163Y33066121D02*
G01*
X23224347Y33059603D01*
X23394186Y33008083D01*
X23550711Y32924418D01*
X23586449Y32895088D01*
X23687906Y32811826D01*
X23771168Y32710369D01*
X23800498Y32674631D01*
X23884163Y32518106D01*
X23935683Y32348267D01*
X23953079Y32171640D01*
X23935683Y31995013D01*
X23884163Y31825174D01*
X23800498Y31668649D01*
X23771168Y31632911D01*
X23687906Y31531454D01*
X23586449Y31448192D01*
X23550711Y31418862D01*
X23394186Y31335197D01*
X23224347Y31283677D01*
X23158163Y31277159D01*
X23091980Y31270640D01*
X21703460Y31270640D01*
X21637277Y31277159D01*
X21571093Y31283677D01*
X21401254Y31335197D01*
X21244729Y31418862D01*
X21208991Y31448192D01*
X21107534Y31531454D01*
X21024272Y31632911D01*
X20994942Y31668649D01*
X20911277Y31825174D01*
X20859757Y31995013D01*
X20842361Y32171640D01*
X20859757Y32348267D01*
X20911277Y32518106D01*
X20994942Y32674631D01*
X21024272Y32710369D01*
X21107534Y32811826D01*
X21208991Y32895088D01*
X21244729Y32924418D01*
X21401254Y33008083D01*
X21571093Y33059603D01*
X21637277Y33066121D01*
X21703460Y33072640D01*
X23091980Y33072640D01*
X23158163Y33066121D01*
X23158163Y33066121D01*
G37*
G36*
X6648163Y33066121D02*
G01*
X6714347Y33059603D01*
X6884186Y33008083D01*
X7040711Y32924418D01*
X7076449Y32895088D01*
X7177906Y32811826D01*
X7261168Y32710369D01*
X7290498Y32674631D01*
X7374163Y32518106D01*
X7425683Y32348267D01*
X7443079Y32171640D01*
X7425683Y31995013D01*
X7374163Y31825174D01*
X7290498Y31668649D01*
X7261168Y31632911D01*
X7177906Y31531454D01*
X7076449Y31448192D01*
X7040711Y31418862D01*
X6884186Y31335197D01*
X6714347Y31283677D01*
X6648163Y31277159D01*
X6581980Y31270640D01*
X5193460Y31270640D01*
X5127277Y31277159D01*
X5061093Y31283677D01*
X4891254Y31335197D01*
X4734729Y31418862D01*
X4698991Y31448192D01*
X4597534Y31531454D01*
X4514272Y31632911D01*
X4484942Y31668649D01*
X4401277Y31825174D01*
X4349757Y31995013D01*
X4332361Y32171640D01*
X4349757Y32348267D01*
X4401277Y32518106D01*
X4484942Y32674631D01*
X4514272Y32710369D01*
X4597534Y32811826D01*
X4698991Y32895088D01*
X4734729Y32924418D01*
X4891254Y33008083D01*
X5061093Y33059603D01*
X5127277Y33066121D01*
X5193460Y33072640D01*
X6581980Y33072640D01*
X6648163Y33066121D01*
X6648163Y33066121D01*
G37*
G36*
X23158163Y35606121D02*
G01*
X23224347Y35599603D01*
X23394186Y35548083D01*
X23550711Y35464418D01*
X23586449Y35435088D01*
X23687906Y35351826D01*
X23771168Y35250369D01*
X23800498Y35214631D01*
X23884163Y35058106D01*
X23935683Y34888267D01*
X23953079Y34711640D01*
X23935683Y34535013D01*
X23884163Y34365174D01*
X23800498Y34208649D01*
X23771168Y34172911D01*
X23687906Y34071454D01*
X23586449Y33988192D01*
X23550711Y33958862D01*
X23394186Y33875197D01*
X23224347Y33823677D01*
X23158163Y33817159D01*
X23091980Y33810640D01*
X21703460Y33810640D01*
X21637277Y33817159D01*
X21571093Y33823677D01*
X21401254Y33875197D01*
X21244729Y33958862D01*
X21208991Y33988192D01*
X21107534Y34071454D01*
X21024272Y34172911D01*
X20994942Y34208649D01*
X20911277Y34365174D01*
X20859757Y34535013D01*
X20842361Y34711640D01*
X20859757Y34888267D01*
X20911277Y35058106D01*
X20994942Y35214631D01*
X21024272Y35250369D01*
X21107534Y35351826D01*
X21208991Y35435088D01*
X21244729Y35464418D01*
X21401254Y35548083D01*
X21571093Y35599603D01*
X21637277Y35606121D01*
X21703460Y35612640D01*
X23091980Y35612640D01*
X23158163Y35606121D01*
X23158163Y35606121D01*
G37*
G36*
X6648163Y35606121D02*
G01*
X6714347Y35599603D01*
X6884186Y35548083D01*
X7040711Y35464418D01*
X7076449Y35435088D01*
X7177906Y35351826D01*
X7261168Y35250369D01*
X7290498Y35214631D01*
X7374163Y35058106D01*
X7425683Y34888267D01*
X7443079Y34711640D01*
X7425683Y34535013D01*
X7374163Y34365174D01*
X7290498Y34208649D01*
X7261168Y34172911D01*
X7177906Y34071454D01*
X7076449Y33988192D01*
X7040711Y33958862D01*
X6884186Y33875197D01*
X6714347Y33823677D01*
X6648163Y33817159D01*
X6581980Y33810640D01*
X5193460Y33810640D01*
X5127277Y33817159D01*
X5061093Y33823677D01*
X4891254Y33875197D01*
X4734729Y33958862D01*
X4698991Y33988192D01*
X4597534Y34071454D01*
X4514272Y34172911D01*
X4484942Y34208649D01*
X4401277Y34365174D01*
X4349757Y34535013D01*
X4332361Y34711640D01*
X4349757Y34888267D01*
X4401277Y35058106D01*
X4484942Y35214631D01*
X4514272Y35250369D01*
X4597534Y35351826D01*
X4698991Y35435088D01*
X4734729Y35464418D01*
X4891254Y35548083D01*
X5061093Y35599603D01*
X5127277Y35606121D01*
X5193460Y35612640D01*
X6581980Y35612640D01*
X6648163Y35606121D01*
X6648163Y35606121D01*
G37*
G36*
X6648163Y38146121D02*
G01*
X6714347Y38139603D01*
X6884186Y38088083D01*
X7040711Y38004418D01*
X7076449Y37975088D01*
X7177906Y37891826D01*
X7261168Y37790369D01*
X7290498Y37754631D01*
X7374163Y37598106D01*
X7425683Y37428267D01*
X7443079Y37251640D01*
X7425683Y37075013D01*
X7374163Y36905174D01*
X7290498Y36748649D01*
X7261168Y36712911D01*
X7177906Y36611454D01*
X7076449Y36528192D01*
X7040711Y36498862D01*
X6884186Y36415197D01*
X6714347Y36363677D01*
X6648163Y36357159D01*
X6581980Y36350640D01*
X5193460Y36350640D01*
X5127277Y36357159D01*
X5061093Y36363677D01*
X4891254Y36415197D01*
X4734729Y36498862D01*
X4698991Y36528192D01*
X4597534Y36611454D01*
X4514272Y36712911D01*
X4484942Y36748649D01*
X4401277Y36905174D01*
X4349757Y37075013D01*
X4332361Y37251640D01*
X4349757Y37428267D01*
X4401277Y37598106D01*
X4484942Y37754631D01*
X4514272Y37790369D01*
X4597534Y37891826D01*
X4698991Y37975088D01*
X4734729Y38004418D01*
X4891254Y38088083D01*
X5061093Y38139603D01*
X5127277Y38146121D01*
X5193460Y38152640D01*
X6581980Y38152640D01*
X6648163Y38146121D01*
X6648163Y38146121D01*
G37*
G36*
X23158163Y38146121D02*
G01*
X23224347Y38139603D01*
X23394186Y38088083D01*
X23550711Y38004418D01*
X23586449Y37975088D01*
X23687906Y37891826D01*
X23771168Y37790369D01*
X23800498Y37754631D01*
X23884163Y37598106D01*
X23935683Y37428267D01*
X23953079Y37251640D01*
X23935683Y37075013D01*
X23884163Y36905174D01*
X23800498Y36748649D01*
X23771168Y36712911D01*
X23687906Y36611454D01*
X23586449Y36528192D01*
X23550711Y36498862D01*
X23394186Y36415197D01*
X23224347Y36363677D01*
X23158163Y36357159D01*
X23091980Y36350640D01*
X21703460Y36350640D01*
X21637277Y36357159D01*
X21571093Y36363677D01*
X21401254Y36415197D01*
X21244729Y36498862D01*
X21208991Y36528192D01*
X21107534Y36611454D01*
X21024272Y36712911D01*
X20994942Y36748649D01*
X20911277Y36905174D01*
X20859757Y37075013D01*
X20842361Y37251640D01*
X20859757Y37428267D01*
X20911277Y37598106D01*
X20994942Y37754631D01*
X21024272Y37790369D01*
X21107534Y37891826D01*
X21208991Y37975088D01*
X21244729Y38004418D01*
X21401254Y38088083D01*
X21571093Y38139603D01*
X21637277Y38146121D01*
X21703460Y38152640D01*
X23091980Y38152640D01*
X23158163Y38146121D01*
X23158163Y38146121D01*
G37*
G36*
X23158162Y40686122D02*
G01*
X23224347Y40679603D01*
X23394186Y40628083D01*
X23550711Y40544418D01*
X23586449Y40515088D01*
X23687906Y40431826D01*
X23771168Y40330369D01*
X23800498Y40294631D01*
X23884163Y40138106D01*
X23935683Y39968267D01*
X23953079Y39791640D01*
X23935683Y39615013D01*
X23884163Y39445174D01*
X23800498Y39288649D01*
X23771168Y39252911D01*
X23687906Y39151454D01*
X23586449Y39068192D01*
X23550711Y39038862D01*
X23394186Y38955197D01*
X23224347Y38903677D01*
X23158163Y38897159D01*
X23091980Y38890640D01*
X21703460Y38890640D01*
X21637277Y38897159D01*
X21571093Y38903677D01*
X21401254Y38955197D01*
X21244729Y39038862D01*
X21208991Y39068192D01*
X21107534Y39151454D01*
X21024272Y39252911D01*
X20994942Y39288649D01*
X20911277Y39445174D01*
X20859757Y39615013D01*
X20842361Y39791640D01*
X20859757Y39968267D01*
X20911277Y40138106D01*
X20994942Y40294631D01*
X21024272Y40330369D01*
X21107534Y40431826D01*
X21208991Y40515088D01*
X21244729Y40544418D01*
X21401254Y40628083D01*
X21571093Y40679603D01*
X21637278Y40686122D01*
X21703460Y40692640D01*
X23091980Y40692640D01*
X23158162Y40686122D01*
X23158162Y40686122D01*
G37*
G36*
X6648162Y40686122D02*
G01*
X6714347Y40679603D01*
X6884186Y40628083D01*
X7040711Y40544418D01*
X7076449Y40515088D01*
X7177906Y40431826D01*
X7261168Y40330369D01*
X7290498Y40294631D01*
X7374163Y40138106D01*
X7425683Y39968267D01*
X7443079Y39791640D01*
X7425683Y39615013D01*
X7374163Y39445174D01*
X7290498Y39288649D01*
X7261168Y39252911D01*
X7177906Y39151454D01*
X7076449Y39068192D01*
X7040711Y39038862D01*
X6884186Y38955197D01*
X6714347Y38903677D01*
X6648163Y38897159D01*
X6581980Y38890640D01*
X5193460Y38890640D01*
X5127277Y38897159D01*
X5061093Y38903677D01*
X4891254Y38955197D01*
X4734729Y39038862D01*
X4698991Y39068192D01*
X4597534Y39151454D01*
X4514272Y39252911D01*
X4484942Y39288649D01*
X4401277Y39445174D01*
X4349757Y39615013D01*
X4332361Y39791640D01*
X4349757Y39968267D01*
X4401277Y40138106D01*
X4484942Y40294631D01*
X4514272Y40330369D01*
X4597534Y40431826D01*
X4698991Y40515088D01*
X4734729Y40544418D01*
X4891254Y40628083D01*
X5061093Y40679603D01*
X5127278Y40686122D01*
X5193460Y40692640D01*
X6581980Y40692640D01*
X6648162Y40686122D01*
X6648162Y40686122D01*
G37*
G36*
X9503000Y83627000D02*
G01*
X7877000Y83627000D01*
X7877000Y85253000D01*
X9503000Y85253000D01*
X9503000Y83627000D01*
X9503000Y83627000D01*
G37*
G36*
X19537142Y85251758D02*
G01*
X19685101Y85190471D01*
X19818255Y85101501D01*
X19931501Y84988255D01*
X20020471Y84855101D01*
X20081758Y84707142D01*
X20113000Y84550075D01*
X20113000Y84389925D01*
X20081758Y84232858D01*
X20020471Y84084899D01*
X19931501Y83951745D01*
X19818255Y83838499D01*
X19685101Y83749529D01*
X19537142Y83688242D01*
X19380075Y83657000D01*
X19219925Y83657000D01*
X19062858Y83688242D01*
X18914899Y83749529D01*
X18781745Y83838499D01*
X18668499Y83951745D01*
X18579529Y84084899D01*
X18518242Y84232858D01*
X18487000Y84389925D01*
X18487000Y84550075D01*
X18518242Y84707142D01*
X18579529Y84855101D01*
X18668499Y84988255D01*
X18781745Y85101501D01*
X18914899Y85190471D01*
X19062858Y85251758D01*
X19219925Y85283000D01*
X19380075Y85283000D01*
X19537142Y85251758D01*
X19537142Y85251758D01*
G37*
G36*
X8927142Y87221758D02*
G01*
X9075101Y87160471D01*
X9208255Y87071501D01*
X9321501Y86958255D01*
X9410471Y86825101D01*
X9471758Y86677142D01*
X9503000Y86520075D01*
X9503000Y86359925D01*
X9471758Y86202858D01*
X9410471Y86054899D01*
X9321501Y85921745D01*
X9208255Y85808499D01*
X9075101Y85719529D01*
X8927142Y85658242D01*
X8770075Y85627000D01*
X8609925Y85627000D01*
X8452858Y85658242D01*
X8304899Y85719529D01*
X8171745Y85808499D01*
X8058499Y85921745D01*
X7969529Y86054899D01*
X7908242Y86202858D01*
X7877000Y86359925D01*
X7877000Y86520075D01*
X7908242Y86677142D01*
X7969529Y86825101D01*
X8058499Y86958255D01*
X8171745Y87071501D01*
X8304899Y87160471D01*
X8452858Y87221758D01*
X8609925Y87253000D01*
X8770075Y87253000D01*
X8927142Y87221758D01*
X8927142Y87221758D01*
G37*
G36*
X19537142Y87251758D02*
G01*
X19685101Y87190471D01*
X19818255Y87101501D01*
X19931501Y86988255D01*
X20020471Y86855101D01*
X20081758Y86707142D01*
X20113000Y86550075D01*
X20113000Y86389925D01*
X20081758Y86232858D01*
X20020471Y86084899D01*
X19931501Y85951745D01*
X19818255Y85838499D01*
X19685101Y85749529D01*
X19537142Y85688242D01*
X19380075Y85657000D01*
X19219925Y85657000D01*
X19062858Y85688242D01*
X18914899Y85749529D01*
X18781745Y85838499D01*
X18668499Y85951745D01*
X18579529Y86084899D01*
X18518242Y86232858D01*
X18487000Y86389925D01*
X18487000Y86550075D01*
X18518242Y86707142D01*
X18579529Y86855101D01*
X18668499Y86988255D01*
X18781745Y87101501D01*
X18914899Y87190471D01*
X19062858Y87251758D01*
X19219925Y87283000D01*
X19380075Y87283000D01*
X19537142Y87251758D01*
X19537142Y87251758D01*
G37*
G36*
X8927142Y89221758D02*
G01*
X9075101Y89160471D01*
X9208255Y89071501D01*
X9321501Y88958255D01*
X9410471Y88825101D01*
X9471758Y88677142D01*
X9503000Y88520075D01*
X9503000Y88359925D01*
X9471758Y88202858D01*
X9410471Y88054899D01*
X9321501Y87921745D01*
X9208255Y87808499D01*
X9075101Y87719529D01*
X8927142Y87658242D01*
X8770075Y87627000D01*
X8609925Y87627000D01*
X8452858Y87658242D01*
X8304899Y87719529D01*
X8171745Y87808499D01*
X8058499Y87921745D01*
X7969529Y88054899D01*
X7908242Y88202858D01*
X7877000Y88359925D01*
X7877000Y88520075D01*
X7908242Y88677142D01*
X7969529Y88825101D01*
X8058499Y88958255D01*
X8171745Y89071501D01*
X8304899Y89160471D01*
X8452858Y89221758D01*
X8609925Y89253000D01*
X8770075Y89253000D01*
X8927142Y89221758D01*
X8927142Y89221758D01*
G37*
G36*
X19537142Y89251758D02*
G01*
X19685101Y89190471D01*
X19818255Y89101501D01*
X19931501Y88988255D01*
X20020471Y88855101D01*
X20081758Y88707142D01*
X20113000Y88550075D01*
X20113000Y88389925D01*
X20081758Y88232858D01*
X20020471Y88084899D01*
X19931501Y87951745D01*
X19818255Y87838499D01*
X19685101Y87749529D01*
X19537142Y87688242D01*
X19380075Y87657000D01*
X19219925Y87657000D01*
X19062858Y87688242D01*
X18914899Y87749529D01*
X18781745Y87838499D01*
X18668499Y87951745D01*
X18579529Y88084899D01*
X18518242Y88232858D01*
X18487000Y88389925D01*
X18487000Y88550075D01*
X18518242Y88707142D01*
X18579529Y88855101D01*
X18668499Y88988255D01*
X18781745Y89101501D01*
X18914899Y89190471D01*
X19062858Y89251758D01*
X19219925Y89283000D01*
X19380075Y89283000D01*
X19537142Y89251758D01*
X19537142Y89251758D01*
G37*
G36*
X8927142Y91221758D02*
G01*
X9075101Y91160471D01*
X9208255Y91071501D01*
X9321501Y90958255D01*
X9410471Y90825101D01*
X9471758Y90677142D01*
X9503000Y90520075D01*
X9503000Y90359925D01*
X9471758Y90202858D01*
X9410471Y90054899D01*
X9321501Y89921745D01*
X9208255Y89808499D01*
X9075101Y89719529D01*
X8927142Y89658242D01*
X8770075Y89627000D01*
X8609925Y89627000D01*
X8452858Y89658242D01*
X8304899Y89719529D01*
X8171745Y89808499D01*
X8058499Y89921745D01*
X7969529Y90054899D01*
X7908242Y90202858D01*
X7877000Y90359925D01*
X7877000Y90520075D01*
X7908242Y90677142D01*
X7969529Y90825101D01*
X8058499Y90958255D01*
X8171745Y91071501D01*
X8304899Y91160471D01*
X8452858Y91221758D01*
X8609925Y91253000D01*
X8770075Y91253000D01*
X8927142Y91221758D01*
X8927142Y91221758D01*
G37*
G36*
X20113000Y89657000D02*
G01*
X18487000Y89657000D01*
X18487000Y91283000D01*
X20113000Y91283000D01*
X20113000Y89657000D01*
X20113000Y89657000D01*
G37*
G36*
X10867960Y95121160D02*
G01*
X9065960Y95121160D01*
X9065960Y96923160D01*
X10867960Y96923160D01*
X10867960Y95121160D01*
X10867960Y95121160D01*
G37*
G36*
X12617403Y96916641D02*
G01*
X12683587Y96910123D01*
X12853426Y96858603D01*
X13009951Y96774938D01*
X13045689Y96745608D01*
X13147146Y96662346D01*
X13230408Y96560889D01*
X13259738Y96525151D01*
X13343403Y96368626D01*
X13394923Y96198787D01*
X13412319Y96022160D01*
X13394923Y95845533D01*
X13343403Y95675694D01*
X13259738Y95519169D01*
X13230408Y95483431D01*
X13147146Y95381974D01*
X13045689Y95298712D01*
X13009951Y95269382D01*
X12853426Y95185717D01*
X12683587Y95134197D01*
X12617402Y95127678D01*
X12551220Y95121160D01*
X12462700Y95121160D01*
X12396518Y95127678D01*
X12330333Y95134197D01*
X12160494Y95185717D01*
X12003969Y95269382D01*
X11968231Y95298712D01*
X11866774Y95381974D01*
X11783512Y95483431D01*
X11754182Y95519169D01*
X11670517Y95675694D01*
X11618997Y95845533D01*
X11601601Y96022160D01*
X11618997Y96198787D01*
X11670517Y96368626D01*
X11754182Y96525151D01*
X11783512Y96560889D01*
X11866774Y96662346D01*
X11968231Y96745608D01*
X12003969Y96774938D01*
X12160494Y96858603D01*
X12330333Y96910123D01*
X12396517Y96916641D01*
X12462700Y96923160D01*
X12551220Y96923160D01*
X12617403Y96916641D01*
X12617403Y96916641D01*
G37*
G36*
X15157403Y96916641D02*
G01*
X15223587Y96910123D01*
X15393426Y96858603D01*
X15549951Y96774938D01*
X15585689Y96745608D01*
X15687146Y96662346D01*
X15770408Y96560889D01*
X15799738Y96525151D01*
X15883403Y96368626D01*
X15934923Y96198787D01*
X15952319Y96022160D01*
X15934923Y95845533D01*
X15883403Y95675694D01*
X15799738Y95519169D01*
X15770408Y95483431D01*
X15687146Y95381974D01*
X15585689Y95298712D01*
X15549951Y95269382D01*
X15393426Y95185717D01*
X15223587Y95134197D01*
X15157402Y95127678D01*
X15091220Y95121160D01*
X15002700Y95121160D01*
X14936518Y95127678D01*
X14870333Y95134197D01*
X14700494Y95185717D01*
X14543969Y95269382D01*
X14508231Y95298712D01*
X14406774Y95381974D01*
X14323512Y95483431D01*
X14294182Y95519169D01*
X14210517Y95675694D01*
X14158997Y95845533D01*
X14141601Y96022160D01*
X14158997Y96198787D01*
X14210517Y96368626D01*
X14294182Y96525151D01*
X14323512Y96560889D01*
X14406774Y96662346D01*
X14508231Y96745608D01*
X14543969Y96774938D01*
X14700494Y96858603D01*
X14870333Y96910123D01*
X14936517Y96916641D01*
X15002700Y96923160D01*
X15091220Y96923160D01*
X15157403Y96916641D01*
X15157403Y96916641D01*
G37*
G36*
X17697403Y96916641D02*
G01*
X17763587Y96910123D01*
X17933426Y96858603D01*
X18089951Y96774938D01*
X18125689Y96745608D01*
X18227146Y96662346D01*
X18310408Y96560889D01*
X18339738Y96525151D01*
X18423403Y96368626D01*
X18474923Y96198787D01*
X18492319Y96022160D01*
X18474923Y95845533D01*
X18423403Y95675694D01*
X18339738Y95519169D01*
X18310408Y95483431D01*
X18227146Y95381974D01*
X18125689Y95298712D01*
X18089951Y95269382D01*
X17933426Y95185717D01*
X17763587Y95134197D01*
X17697402Y95127678D01*
X17631220Y95121160D01*
X17542700Y95121160D01*
X17476518Y95127678D01*
X17410333Y95134197D01*
X17240494Y95185717D01*
X17083969Y95269382D01*
X17048231Y95298712D01*
X16946774Y95381974D01*
X16863512Y95483431D01*
X16834182Y95519169D01*
X16750517Y95675694D01*
X16698997Y95845533D01*
X16681601Y96022160D01*
X16698997Y96198787D01*
X16750517Y96368626D01*
X16834182Y96525151D01*
X16863512Y96560889D01*
X16946774Y96662346D01*
X17048231Y96745608D01*
X17083969Y96774938D01*
X17240494Y96858603D01*
X17410333Y96910123D01*
X17476517Y96916641D01*
X17542700Y96923160D01*
X17631220Y96923160D01*
X17697403Y96916641D01*
X17697403Y96916641D01*
G37*
M02*
