G04 #@! TF.GenerationSoftware,KiCad,Pcbnew,(5.1.0-0)*
G04 #@! TF.CreationDate,2020-01-22T16:50:41+01:00*
G04 #@! TF.ProjectId,pino_brd_v01,70696e6f-5f62-4726-945f-7630312e6b69,rev?*
G04 #@! TF.SameCoordinates,Original*
G04 #@! TF.FileFunction,Other,Fab,Bot*
%FSLAX46Y46*%
G04 Gerber Fmt 4.6, Leading zero omitted, Abs format (unit mm)*
G04 Created by KiCad (PCBNEW (5.1.0-0)) date 2020-01-22 16:50:41*
%MOMM*%
%LPD*%
G04 APERTURE LIST*
%ADD10C,0.100000*%
%ADD11C,0.120000*%
%ADD12C,0.150000*%
G04 APERTURE END LIST*
D10*
X22200000Y82370000D02*
X22200000Y92570000D01*
X17100000Y82370000D02*
X22200000Y82370000D01*
X17100000Y92570000D02*
X17100000Y82370000D01*
X22200000Y92570000D02*
X17100000Y92570000D01*
X17100000Y91470000D02*
X18400000Y90470000D01*
X18400000Y90470000D02*
X17100000Y89470000D01*
G36*
X9697720Y30901640D02*
G01*
X9697720Y43601640D01*
X18587720Y43601640D01*
X18587720Y30901640D01*
X9697720Y30901640D01*
G37*
X9697720Y30901640D02*
X9697720Y43601640D01*
X18587720Y43601640D01*
X18587720Y30901640D01*
X9697720Y30901640D01*
G36*
X10967720Y18836640D02*
G01*
X10967720Y25186640D01*
X17317720Y25186640D01*
X17317720Y18836640D01*
X10967720Y18836640D01*
G37*
X10967720Y18836640D02*
X10967720Y25186640D01*
X17317720Y25186640D01*
X17317720Y18836640D01*
X10967720Y18836640D01*
G36*
X10967720Y-848360D02*
G01*
X10967720Y3596640D01*
X17317720Y3596640D01*
X17317720Y-848360D01*
X10967720Y-848360D01*
G37*
X10967720Y-848360D02*
X10967720Y3596640D01*
X17317720Y3596640D01*
X17317720Y-848360D01*
X10967720Y-848360D01*
D11*
X23032720Y11640D02*
X23032720Y44011640D01*
X5252720Y11640D02*
X23032720Y11640D01*
X5252720Y11640D02*
X5252720Y44011640D01*
X5252720Y44011640D02*
X23032720Y44011640D01*
D10*
X5252720Y41061640D02*
X5252720Y2961640D01*
X7792720Y41061640D02*
X5252720Y41061640D01*
X7792720Y3596640D02*
X7792720Y41061640D01*
X7157720Y2961640D02*
X7792720Y3596640D01*
X5252720Y2961640D02*
X7157720Y2961640D01*
X23032720Y41061640D02*
X21127720Y41061640D01*
X21127720Y41061640D02*
X20492720Y40426640D01*
X20492720Y40426640D02*
X20492720Y2961640D01*
X20492720Y2961640D02*
X23032720Y2961640D01*
X23032720Y2961640D02*
X23032720Y41061640D01*
X5790000Y92540000D02*
X5790000Y82340000D01*
X10890000Y92540000D02*
X5790000Y92540000D01*
X10890000Y82340000D02*
X10890000Y92540000D01*
X5790000Y82340000D02*
X10890000Y82340000D01*
X10890000Y83440000D02*
X9590000Y84440000D01*
X9590000Y84440000D02*
X10890000Y85440000D01*
D12*
X15467142Y94425714D02*
X15514761Y94473333D01*
X15562380Y94616190D01*
X15562380Y94711428D01*
X15514761Y94854285D01*
X15419523Y94949523D01*
X15324285Y94997142D01*
X15133809Y95044761D01*
X14990952Y95044761D01*
X14800476Y94997142D01*
X14705238Y94949523D01*
X14610000Y94854285D01*
X14562380Y94711428D01*
X14562380Y94616190D01*
X14610000Y94473333D01*
X14657619Y94425714D01*
X15562380Y93854285D02*
X15514761Y93949523D01*
X15467142Y93997142D01*
X15371904Y94044761D01*
X15086190Y94044761D01*
X14990952Y93997142D01*
X14943333Y93949523D01*
X14895714Y93854285D01*
X14895714Y93711428D01*
X14943333Y93616190D01*
X14990952Y93568571D01*
X15086190Y93520952D01*
X15371904Y93520952D01*
X15467142Y93568571D01*
X15514761Y93616190D01*
X15562380Y93711428D01*
X15562380Y93854285D01*
X14895714Y93092380D02*
X15562380Y93092380D01*
X14990952Y93092380D02*
X14943333Y93044761D01*
X14895714Y92949523D01*
X14895714Y92806666D01*
X14943333Y92711428D01*
X15038571Y92663809D01*
X15562380Y92663809D01*
X14895714Y92187619D02*
X15562380Y92187619D01*
X14990952Y92187619D02*
X14943333Y92140000D01*
X14895714Y92044761D01*
X14895714Y91901904D01*
X14943333Y91806666D01*
X15038571Y91759047D01*
X15562380Y91759047D01*
X15657619Y91520952D02*
X15657619Y90759047D01*
X14562380Y90330476D02*
X14562380Y90235238D01*
X14610000Y90140000D01*
X14657619Y90092380D01*
X14752857Y90044761D01*
X14943333Y89997142D01*
X15181428Y89997142D01*
X15371904Y90044761D01*
X15467142Y90092380D01*
X15514761Y90140000D01*
X15562380Y90235238D01*
X15562380Y90330476D01*
X15514761Y90425714D01*
X15467142Y90473333D01*
X15371904Y90520952D01*
X15181428Y90568571D01*
X14943333Y90568571D01*
X14752857Y90520952D01*
X14657619Y90473333D01*
X14610000Y90425714D01*
X14562380Y90330476D01*
X15562380Y89044761D02*
X15562380Y89616190D01*
X15562380Y89330476D02*
X14562380Y89330476D01*
X14705238Y89425714D01*
X14800476Y89520952D01*
X14848095Y89616190D01*
X15562380Y88711428D02*
X14895714Y88187619D01*
X14895714Y88711428D02*
X15562380Y88187619D01*
X14562380Y87616190D02*
X14562380Y87520952D01*
X14610000Y87425714D01*
X14657619Y87378095D01*
X14752857Y87330476D01*
X14943333Y87282857D01*
X15181428Y87282857D01*
X15371904Y87330476D01*
X15467142Y87378095D01*
X15514761Y87425714D01*
X15562380Y87520952D01*
X15562380Y87616190D01*
X15514761Y87711428D01*
X15467142Y87759047D01*
X15371904Y87806666D01*
X15181428Y87854285D01*
X14943333Y87854285D01*
X14752857Y87806666D01*
X14657619Y87759047D01*
X14610000Y87711428D01*
X14562380Y87616190D01*
X14895714Y86425714D02*
X15562380Y86425714D01*
X14514761Y86663809D02*
X15229047Y86901904D01*
X15229047Y86282857D01*
X15657619Y86140000D02*
X15657619Y85378095D01*
X15038571Y84806666D02*
X15038571Y85140000D01*
X15562380Y85140000D02*
X14562380Y85140000D01*
X14562380Y84663809D01*
X15514761Y83901904D02*
X15562380Y83997142D01*
X15562380Y84187619D01*
X15514761Y84282857D01*
X15419523Y84330476D01*
X15038571Y84330476D01*
X14943333Y84282857D01*
X14895714Y84187619D01*
X14895714Y83997142D01*
X14943333Y83901904D01*
X15038571Y83854285D01*
X15133809Y83854285D01*
X15229047Y84330476D01*
X15562380Y83425714D02*
X14895714Y83425714D01*
X14990952Y83425714D02*
X14943333Y83378095D01*
X14895714Y83282857D01*
X14895714Y83140000D01*
X14943333Y83044761D01*
X15038571Y82997142D01*
X15562380Y82997142D01*
X15038571Y82997142D02*
X14943333Y82949523D01*
X14895714Y82854285D01*
X14895714Y82711428D01*
X14943333Y82616190D01*
X15038571Y82568571D01*
X15562380Y82568571D01*
X15562380Y81663809D02*
X15038571Y81663809D01*
X14943333Y81711428D01*
X14895714Y81806666D01*
X14895714Y81997142D01*
X14943333Y82092380D01*
X15514761Y81663809D02*
X15562380Y81759047D01*
X15562380Y81997142D01*
X15514761Y82092380D01*
X15419523Y82140000D01*
X15324285Y82140000D01*
X15229047Y82092380D01*
X15181428Y81997142D01*
X15181428Y81759047D01*
X15133809Y81663809D01*
X15562380Y81044761D02*
X15514761Y81140000D01*
X15419523Y81187619D01*
X14562380Y81187619D01*
X15514761Y80282857D02*
X15562380Y80378095D01*
X15562380Y80568571D01*
X15514761Y80663809D01*
X15419523Y80711428D01*
X15038571Y80711428D01*
X14943333Y80663809D01*
X14895714Y80568571D01*
X14895714Y80378095D01*
X14943333Y80282857D01*
X15038571Y80235238D01*
X15133809Y80235238D01*
X15229047Y80711428D01*
X20752380Y88803333D02*
X21466666Y88803333D01*
X21609523Y88850952D01*
X21704761Y88946190D01*
X21752380Y89089047D01*
X21752380Y89184285D01*
X21752380Y87803333D02*
X21752380Y88374761D01*
X21752380Y88089047D02*
X20752380Y88089047D01*
X20895238Y88184285D01*
X20990476Y88279523D01*
X21038095Y88374761D01*
X26930100Y22344973D02*
X27644386Y22344973D01*
X27787243Y22392592D01*
X27882481Y22487830D01*
X27930100Y22630687D01*
X27930100Y22725925D01*
X26930100Y21964020D02*
X26930100Y21344973D01*
X27311053Y21678306D01*
X27311053Y21535449D01*
X27358672Y21440211D01*
X27406291Y21392592D01*
X27501529Y21344973D01*
X27739624Y21344973D01*
X27834862Y21392592D01*
X27882481Y21440211D01*
X27930100Y21535449D01*
X27930100Y21821163D01*
X27882481Y21916401D01*
X27834862Y21964020D01*
X2244386Y28797354D02*
X2244386Y28321163D01*
X2530100Y28892592D02*
X1530100Y28559259D01*
X2530100Y28225925D01*
X2530100Y27892592D02*
X1863434Y27892592D01*
X2053910Y27892592D02*
X1958672Y27844973D01*
X1911053Y27797354D01*
X1863434Y27702116D01*
X1863434Y27606878D01*
X2530100Y26844973D02*
X1530100Y26844973D01*
X2482481Y26844973D02*
X2530100Y26940211D01*
X2530100Y27130687D01*
X2482481Y27225925D01*
X2434862Y27273544D01*
X2339624Y27321163D01*
X2053910Y27321163D01*
X1958672Y27273544D01*
X1911053Y27225925D01*
X1863434Y27130687D01*
X1863434Y26940211D01*
X1911053Y26844973D01*
X1863434Y25940211D02*
X2530100Y25940211D01*
X1863434Y26368782D02*
X2387243Y26368782D01*
X2482481Y26321163D01*
X2530100Y26225925D01*
X2530100Y26083068D01*
X2482481Y25987830D01*
X2434862Y25940211D01*
X2530100Y25464020D02*
X1863434Y25464020D01*
X1530100Y25464020D02*
X1577720Y25511640D01*
X1625339Y25464020D01*
X1577720Y25416401D01*
X1530100Y25464020D01*
X1625339Y25464020D01*
X1863434Y24987830D02*
X2530100Y24987830D01*
X1958672Y24987830D02*
X1911053Y24940211D01*
X1863434Y24844973D01*
X1863434Y24702116D01*
X1911053Y24606878D01*
X2006291Y24559259D01*
X2530100Y24559259D01*
X2530100Y23940211D02*
X2482481Y24035449D01*
X2434862Y24083068D01*
X2339624Y24130687D01*
X2053910Y24130687D01*
X1958672Y24083068D01*
X1911053Y24035449D01*
X1863434Y23940211D01*
X1863434Y23797354D01*
X1911053Y23702116D01*
X1958672Y23654497D01*
X2053910Y23606878D01*
X2339624Y23606878D01*
X2434862Y23654497D01*
X2482481Y23702116D01*
X2530100Y23797354D01*
X2530100Y23940211D01*
X2149148Y23178306D02*
X2149148Y22416401D01*
X2530100Y21940211D02*
X1530100Y21940211D01*
X2530100Y21368782D01*
X1530100Y21368782D01*
X2244386Y20940211D02*
X2244386Y20464020D01*
X2530100Y21035449D02*
X1530100Y20702116D01*
X2530100Y20368782D01*
X2530100Y20035449D02*
X1530100Y20035449D01*
X2530100Y19464020D01*
X1530100Y19464020D01*
X1530100Y18797354D02*
X1530100Y18606878D01*
X1577719Y18511640D01*
X1672958Y18416401D01*
X1863434Y18368782D01*
X2196767Y18368782D01*
X2387243Y18416401D01*
X2482481Y18511640D01*
X2530100Y18606878D01*
X2530100Y18797354D01*
X2482481Y18892592D01*
X2387243Y18987830D01*
X2196767Y19035449D01*
X1863434Y19035449D01*
X1672958Y18987830D01*
X1577719Y18892592D01*
X1530100Y18797354D01*
X2149148Y17940211D02*
X2149148Y17178306D01*
X1530100Y16797354D02*
X1530100Y16178306D01*
X1911053Y16511640D01*
X1911053Y16368782D01*
X1958672Y16273544D01*
X2006291Y16225925D01*
X2101529Y16178306D01*
X2339624Y16178306D01*
X2434862Y16225925D01*
X2482481Y16273544D01*
X2530100Y16368782D01*
X2530100Y16654497D01*
X2482481Y16749735D01*
X2434862Y16797354D01*
X1530100Y15844973D02*
X1530100Y15225925D01*
X1911053Y15559259D01*
X1911053Y15416401D01*
X1958672Y15321163D01*
X2006291Y15273544D01*
X2101529Y15225925D01*
X2339624Y15225925D01*
X2434862Y15273544D01*
X2482481Y15321163D01*
X2530100Y15416401D01*
X2530100Y15702116D01*
X2482481Y15797354D01*
X2434862Y15844973D01*
X7070339Y21678306D02*
X6356053Y21678306D01*
X6213196Y21630687D01*
X6117958Y21535449D01*
X6070339Y21392592D01*
X6070339Y21297354D01*
X7070339Y22059259D02*
X7070339Y22678306D01*
X6689386Y22344973D01*
X6689386Y22487830D01*
X6641767Y22583068D01*
X6594148Y22630687D01*
X6498910Y22678306D01*
X6260815Y22678306D01*
X6165577Y22630687D01*
X6117958Y22583068D01*
X6070339Y22487830D01*
X6070339Y22202116D01*
X6117958Y22106878D01*
X6165577Y22059259D01*
X21215100Y22344973D02*
X21929386Y22344973D01*
X22072243Y22392592D01*
X22167481Y22487830D01*
X22215100Y22630687D01*
X22215100Y22725925D01*
X21215100Y21964020D02*
X21215100Y21344973D01*
X21596053Y21678306D01*
X21596053Y21535449D01*
X21643672Y21440211D01*
X21691291Y21392592D01*
X21786529Y21344973D01*
X22024624Y21344973D01*
X22119862Y21392592D01*
X22167481Y21440211D01*
X22215100Y21535449D01*
X22215100Y21821163D01*
X22167481Y21916401D01*
X22119862Y21964020D01*
X12522857Y80484285D02*
X12475238Y80436666D01*
X12427619Y80293809D01*
X12427619Y80198571D01*
X12475238Y80055714D01*
X12570476Y79960476D01*
X12665714Y79912857D01*
X12856190Y79865238D01*
X12999047Y79865238D01*
X13189523Y79912857D01*
X13284761Y79960476D01*
X13380000Y80055714D01*
X13427619Y80198571D01*
X13427619Y80293809D01*
X13380000Y80436666D01*
X13332380Y80484285D01*
X12427619Y81055714D02*
X12475238Y80960476D01*
X12522857Y80912857D01*
X12618095Y80865238D01*
X12903809Y80865238D01*
X12999047Y80912857D01*
X13046666Y80960476D01*
X13094285Y81055714D01*
X13094285Y81198571D01*
X13046666Y81293809D01*
X12999047Y81341428D01*
X12903809Y81389047D01*
X12618095Y81389047D01*
X12522857Y81341428D01*
X12475238Y81293809D01*
X12427619Y81198571D01*
X12427619Y81055714D01*
X13094285Y81817619D02*
X12427619Y81817619D01*
X12999047Y81817619D02*
X13046666Y81865238D01*
X13094285Y81960476D01*
X13094285Y82103333D01*
X13046666Y82198571D01*
X12951428Y82246190D01*
X12427619Y82246190D01*
X13094285Y82722380D02*
X12427619Y82722380D01*
X12999047Y82722380D02*
X13046666Y82770000D01*
X13094285Y82865238D01*
X13094285Y83008095D01*
X13046666Y83103333D01*
X12951428Y83150952D01*
X12427619Y83150952D01*
X12332380Y83389047D02*
X12332380Y84150952D01*
X13427619Y84579523D02*
X13427619Y84674761D01*
X13380000Y84770000D01*
X13332380Y84817619D01*
X13237142Y84865238D01*
X13046666Y84912857D01*
X12808571Y84912857D01*
X12618095Y84865238D01*
X12522857Y84817619D01*
X12475238Y84770000D01*
X12427619Y84674761D01*
X12427619Y84579523D01*
X12475238Y84484285D01*
X12522857Y84436666D01*
X12618095Y84389047D01*
X12808571Y84341428D01*
X13046666Y84341428D01*
X13237142Y84389047D01*
X13332380Y84436666D01*
X13380000Y84484285D01*
X13427619Y84579523D01*
X12427619Y85865238D02*
X12427619Y85293809D01*
X12427619Y85579523D02*
X13427619Y85579523D01*
X13284761Y85484285D01*
X13189523Y85389047D01*
X13141904Y85293809D01*
X12427619Y86198571D02*
X13094285Y86722380D01*
X13094285Y86198571D02*
X12427619Y86722380D01*
X13427619Y87293809D02*
X13427619Y87389047D01*
X13380000Y87484285D01*
X13332380Y87531904D01*
X13237142Y87579523D01*
X13046666Y87627142D01*
X12808571Y87627142D01*
X12618095Y87579523D01*
X12522857Y87531904D01*
X12475238Y87484285D01*
X12427619Y87389047D01*
X12427619Y87293809D01*
X12475238Y87198571D01*
X12522857Y87150952D01*
X12618095Y87103333D01*
X12808571Y87055714D01*
X13046666Y87055714D01*
X13237142Y87103333D01*
X13332380Y87150952D01*
X13380000Y87198571D01*
X13427619Y87293809D01*
X13094285Y88484285D02*
X12427619Y88484285D01*
X13475238Y88246190D02*
X12760952Y88008095D01*
X12760952Y88627142D01*
X12332380Y88770000D02*
X12332380Y89531904D01*
X12951428Y90103333D02*
X12951428Y89770000D01*
X12427619Y89770000D02*
X13427619Y89770000D01*
X13427619Y90246190D01*
X12475238Y91008095D02*
X12427619Y90912857D01*
X12427619Y90722380D01*
X12475238Y90627142D01*
X12570476Y90579523D01*
X12951428Y90579523D01*
X13046666Y90627142D01*
X13094285Y90722380D01*
X13094285Y90912857D01*
X13046666Y91008095D01*
X12951428Y91055714D01*
X12856190Y91055714D01*
X12760952Y90579523D01*
X12427619Y91484285D02*
X13094285Y91484285D01*
X12999047Y91484285D02*
X13046666Y91531904D01*
X13094285Y91627142D01*
X13094285Y91770000D01*
X13046666Y91865238D01*
X12951428Y91912857D01*
X12427619Y91912857D01*
X12951428Y91912857D02*
X13046666Y91960476D01*
X13094285Y92055714D01*
X13094285Y92198571D01*
X13046666Y92293809D01*
X12951428Y92341428D01*
X12427619Y92341428D01*
X12427619Y93246190D02*
X12951428Y93246190D01*
X13046666Y93198571D01*
X13094285Y93103333D01*
X13094285Y92912857D01*
X13046666Y92817619D01*
X12475238Y93246190D02*
X12427619Y93150952D01*
X12427619Y92912857D01*
X12475238Y92817619D01*
X12570476Y92770000D01*
X12665714Y92770000D01*
X12760952Y92817619D01*
X12808571Y92912857D01*
X12808571Y93150952D01*
X12856190Y93246190D01*
X12427619Y93865238D02*
X12475238Y93770000D01*
X12570476Y93722380D01*
X13427619Y93722380D01*
X12475238Y94627142D02*
X12427619Y94531904D01*
X12427619Y94341428D01*
X12475238Y94246190D01*
X12570476Y94198571D01*
X12951428Y94198571D01*
X13046666Y94246190D01*
X13094285Y94341428D01*
X13094285Y94531904D01*
X13046666Y94627142D01*
X12951428Y94674761D01*
X12856190Y94674761D01*
X12760952Y94198571D01*
X7237619Y86106666D02*
X6523333Y86106666D01*
X6380476Y86059047D01*
X6285238Y85963809D01*
X6237619Y85820952D01*
X6237619Y85725714D01*
X6904285Y87011428D02*
X6237619Y87011428D01*
X7285238Y86773333D02*
X6570952Y86535238D01*
X6570952Y87154285D01*
M02*
