M48
; DRILL file {KiCad (5.1.0-0)} date 2020 January 22, Wednesday 16:52:24
; FORMAT={-:-/ absolute / inch / decimal}
; #@! TF.CreationDate,2020-01-22T16:52:24+01:00
; #@! TF.GenerationSoftware,Kicad,Pcbnew,(5.1.0-0)
; #@! TF.FileFunction,Plated,1,2,PTH
FMAT,2
INCH
T1C0.0157
T2C0.0300
T3C0.0394
%
G90
G05
T1
X0.1Y1.45
X0.1136Y1.6481
X0.135Y1.1666
X0.3209Y1.3406
X0.3215Y1.5123
X0.3764Y0.2909
X0.463Y2.8638
X0.54Y0.62
X0.6661Y1.9543
X0.7988Y1.0389
X0.8451Y3.1081
X1.0Y1.22
T2
X0.7598Y3.5618
X0.7598Y3.4831
X0.7598Y3.4043
X0.7598Y3.3256
X0.3421Y3.5606
X0.3421Y3.4819
X0.3421Y3.4031
X0.3421Y3.3244
T3
X0.3924Y3.7804
X0.4924Y3.7804
X0.5924Y3.7804
X0.6924Y3.7804
T0
M30
