G04 #@! TF.GenerationSoftware,KiCad,Pcbnew,(5.1.0-0)*
G04 #@! TF.CreationDate,2020-01-14T11:53:08+01:00*
G04 #@! TF.ProjectId,pino_brd_v01,70696e6f-5f62-4726-945f-7630312e6b69,rev?*
G04 #@! TF.SameCoordinates,Original*
G04 #@! TF.FileFunction,Copper,L1,Top*
G04 #@! TF.FilePolarity,Positive*
%FSLAX46Y46*%
G04 Gerber Fmt 4.6, Leading zero omitted, Abs format (unit mm)*
G04 Created by KiCad (PCBNEW (5.1.0-0)) date 2020-01-14 11:53:08*
%MOMM*%
%LPD*%
G04 APERTURE LIST*
%ADD10R,1.400000X2.700000*%
%ADD11C,0.100000*%
%ADD12C,0.975000*%
%ADD13C,1.524000*%
%ADD14R,1.524000X1.524000*%
%ADD15R,1.700000X1.700000*%
%ADD16O,1.700000X1.700000*%
%ADD17R,0.600000X1.000000*%
%ADD18C,0.600000*%
%ADD19R,1.000000X0.600000*%
%ADD20R,2.750000X1.000000*%
%ADD21R,2.000000X1.600000*%
%ADD22R,3.500000X3.000000*%
%ADD23R,2.500000X2.000000*%
%ADD24R,0.800000X0.900000*%
%ADD25C,0.800000*%
%ADD26C,0.500000*%
%ADD27C,0.250000*%
%ADD28C,0.254000*%
G04 APERTURE END LIST*
D10*
X11449680Y13221880D03*
X13949680Y13221880D03*
X16449680Y13221880D03*
X16449680Y7421880D03*
X13949680Y7421880D03*
X11449680Y7421880D03*
D11*
G36*
X18303691Y75887331D02*
G01*
X18327352Y75883821D01*
X18350556Y75878009D01*
X18373078Y75869951D01*
X19216118Y75520752D01*
X19237742Y75510524D01*
X19258259Y75498227D01*
X19277472Y75483977D01*
X19295196Y75467913D01*
X19311260Y75450189D01*
X19325510Y75430976D01*
X19337807Y75410459D01*
X19348035Y75388835D01*
X19356093Y75366313D01*
X19361905Y75343109D01*
X19365415Y75319448D01*
X19366589Y75295556D01*
X19365415Y75271664D01*
X19361905Y75248003D01*
X19356093Y75224799D01*
X19348035Y75202277D01*
X19161477Y74751886D01*
X19151249Y74730262D01*
X19138952Y74709745D01*
X19124702Y74690532D01*
X19108638Y74672808D01*
X19090914Y74656744D01*
X19071701Y74642494D01*
X19051184Y74630197D01*
X19029560Y74619969D01*
X19007038Y74611911D01*
X18983834Y74606099D01*
X18960173Y74602589D01*
X18936281Y74601415D01*
X18912389Y74602589D01*
X18888728Y74606099D01*
X18865524Y74611911D01*
X18843002Y74619969D01*
X17999962Y74969168D01*
X17978338Y74979396D01*
X17957821Y74991693D01*
X17938608Y75005943D01*
X17920884Y75022007D01*
X17904820Y75039731D01*
X17890570Y75058944D01*
X17878273Y75079461D01*
X17868045Y75101085D01*
X17859987Y75123607D01*
X17854175Y75146811D01*
X17850665Y75170472D01*
X17849491Y75194364D01*
X17850665Y75218256D01*
X17854175Y75241917D01*
X17859987Y75265121D01*
X17868045Y75287643D01*
X18054603Y75738034D01*
X18064831Y75759658D01*
X18077128Y75780175D01*
X18091378Y75799388D01*
X18107442Y75817112D01*
X18125166Y75833176D01*
X18144379Y75847426D01*
X18164896Y75859723D01*
X18186520Y75869951D01*
X18209042Y75878009D01*
X18232246Y75883821D01*
X18255907Y75887331D01*
X18279799Y75888505D01*
X18303691Y75887331D01*
X18303691Y75887331D01*
G37*
D12*
X18608040Y75244960D03*
D11*
G36*
X17586159Y74155057D02*
G01*
X17609820Y74151547D01*
X17633024Y74145735D01*
X17655546Y74137677D01*
X18498586Y73788478D01*
X18520210Y73778250D01*
X18540727Y73765953D01*
X18559940Y73751703D01*
X18577664Y73735639D01*
X18593728Y73717915D01*
X18607978Y73698702D01*
X18620275Y73678185D01*
X18630503Y73656561D01*
X18638561Y73634039D01*
X18644373Y73610835D01*
X18647883Y73587174D01*
X18649057Y73563282D01*
X18647883Y73539390D01*
X18644373Y73515729D01*
X18638561Y73492525D01*
X18630503Y73470003D01*
X18443945Y73019612D01*
X18433717Y72997988D01*
X18421420Y72977471D01*
X18407170Y72958258D01*
X18391106Y72940534D01*
X18373382Y72924470D01*
X18354169Y72910220D01*
X18333652Y72897923D01*
X18312028Y72887695D01*
X18289506Y72879637D01*
X18266302Y72873825D01*
X18242641Y72870315D01*
X18218749Y72869141D01*
X18194857Y72870315D01*
X18171196Y72873825D01*
X18147992Y72879637D01*
X18125470Y72887695D01*
X17282430Y73236894D01*
X17260806Y73247122D01*
X17240289Y73259419D01*
X17221076Y73273669D01*
X17203352Y73289733D01*
X17187288Y73307457D01*
X17173038Y73326670D01*
X17160741Y73347187D01*
X17150513Y73368811D01*
X17142455Y73391333D01*
X17136643Y73414537D01*
X17133133Y73438198D01*
X17131959Y73462090D01*
X17133133Y73485982D01*
X17136643Y73509643D01*
X17142455Y73532847D01*
X17150513Y73555369D01*
X17337071Y74005760D01*
X17347299Y74027384D01*
X17359596Y74047901D01*
X17373846Y74067114D01*
X17389910Y74084838D01*
X17407634Y74100902D01*
X17426847Y74115152D01*
X17447364Y74127449D01*
X17468988Y74137677D01*
X17491510Y74145735D01*
X17514714Y74151547D01*
X17538375Y74155057D01*
X17562267Y74156231D01*
X17586159Y74155057D01*
X17586159Y74155057D01*
G37*
D12*
X17890508Y73512686D03*
D11*
G36*
X25190002Y69506267D02*
G01*
X25213663Y69502757D01*
X25236867Y69496945D01*
X25259389Y69488887D01*
X25281013Y69478659D01*
X25301530Y69466362D01*
X25320743Y69452112D01*
X25338467Y69436048D01*
X25354531Y69418324D01*
X25368781Y69399111D01*
X25381078Y69378594D01*
X25391306Y69356970D01*
X25740505Y68513930D01*
X25748563Y68491408D01*
X25754375Y68468204D01*
X25757885Y68444543D01*
X25759059Y68420651D01*
X25757885Y68396759D01*
X25754375Y68373098D01*
X25748563Y68349894D01*
X25740505Y68327372D01*
X25730277Y68305748D01*
X25717980Y68285231D01*
X25703730Y68266018D01*
X25687666Y68248294D01*
X25669942Y68232230D01*
X25650729Y68217980D01*
X25630212Y68205683D01*
X25608588Y68195455D01*
X25158197Y68008897D01*
X25135675Y68000839D01*
X25112471Y67995027D01*
X25088810Y67991517D01*
X25064918Y67990343D01*
X25041026Y67991517D01*
X25017365Y67995027D01*
X24994161Y68000839D01*
X24971639Y68008897D01*
X24950015Y68019125D01*
X24929498Y68031422D01*
X24910285Y68045672D01*
X24892561Y68061736D01*
X24876497Y68079460D01*
X24862247Y68098673D01*
X24849950Y68119190D01*
X24839722Y68140814D01*
X24490523Y68983854D01*
X24482465Y69006376D01*
X24476653Y69029580D01*
X24473143Y69053241D01*
X24471969Y69077133D01*
X24473143Y69101025D01*
X24476653Y69124686D01*
X24482465Y69147890D01*
X24490523Y69170412D01*
X24500751Y69192036D01*
X24513048Y69212553D01*
X24527298Y69231766D01*
X24543362Y69249490D01*
X24561086Y69265554D01*
X24580299Y69279804D01*
X24600816Y69292101D01*
X24622440Y69302329D01*
X25072831Y69488887D01*
X25095353Y69496945D01*
X25118557Y69502757D01*
X25142218Y69506267D01*
X25166110Y69507441D01*
X25190002Y69506267D01*
X25190002Y69506267D01*
G37*
D12*
X25115514Y68748892D03*
D11*
G36*
X23457728Y68788735D02*
G01*
X23481389Y68785225D01*
X23504593Y68779413D01*
X23527115Y68771355D01*
X23548739Y68761127D01*
X23569256Y68748830D01*
X23588469Y68734580D01*
X23606193Y68718516D01*
X23622257Y68700792D01*
X23636507Y68681579D01*
X23648804Y68661062D01*
X23659032Y68639438D01*
X24008231Y67796398D01*
X24016289Y67773876D01*
X24022101Y67750672D01*
X24025611Y67727011D01*
X24026785Y67703119D01*
X24025611Y67679227D01*
X24022101Y67655566D01*
X24016289Y67632362D01*
X24008231Y67609840D01*
X23998003Y67588216D01*
X23985706Y67567699D01*
X23971456Y67548486D01*
X23955392Y67530762D01*
X23937668Y67514698D01*
X23918455Y67500448D01*
X23897938Y67488151D01*
X23876314Y67477923D01*
X23425923Y67291365D01*
X23403401Y67283307D01*
X23380197Y67277495D01*
X23356536Y67273985D01*
X23332644Y67272811D01*
X23308752Y67273985D01*
X23285091Y67277495D01*
X23261887Y67283307D01*
X23239365Y67291365D01*
X23217741Y67301593D01*
X23197224Y67313890D01*
X23178011Y67328140D01*
X23160287Y67344204D01*
X23144223Y67361928D01*
X23129973Y67381141D01*
X23117676Y67401658D01*
X23107448Y67423282D01*
X22758249Y68266322D01*
X22750191Y68288844D01*
X22744379Y68312048D01*
X22740869Y68335709D01*
X22739695Y68359601D01*
X22740869Y68383493D01*
X22744379Y68407154D01*
X22750191Y68430358D01*
X22758249Y68452880D01*
X22768477Y68474504D01*
X22780774Y68495021D01*
X22795024Y68514234D01*
X22811088Y68531958D01*
X22828812Y68548022D01*
X22848025Y68562272D01*
X22868542Y68574569D01*
X22890166Y68584797D01*
X23340557Y68771355D01*
X23363079Y68779413D01*
X23386283Y68785225D01*
X23409944Y68788735D01*
X23433836Y68789909D01*
X23457728Y68788735D01*
X23457728Y68788735D01*
G37*
D12*
X23383240Y68031360D03*
D11*
G36*
X23353999Y61044901D02*
G01*
X23377660Y61041391D01*
X23400864Y61035579D01*
X23423386Y61027521D01*
X23873777Y60840963D01*
X23895401Y60830735D01*
X23915918Y60818438D01*
X23935131Y60804188D01*
X23952855Y60788124D01*
X23968919Y60770400D01*
X23983169Y60751187D01*
X23995466Y60730670D01*
X24005694Y60709046D01*
X24013752Y60686524D01*
X24019564Y60663320D01*
X24023074Y60639659D01*
X24024248Y60615767D01*
X24023074Y60591875D01*
X24019564Y60568214D01*
X24013752Y60545010D01*
X24005694Y60522488D01*
X23656495Y59679448D01*
X23646267Y59657824D01*
X23633970Y59637307D01*
X23619720Y59618094D01*
X23603656Y59600370D01*
X23585932Y59584306D01*
X23566719Y59570056D01*
X23546202Y59557759D01*
X23524578Y59547531D01*
X23502056Y59539473D01*
X23478852Y59533661D01*
X23455191Y59530151D01*
X23431299Y59528977D01*
X23407407Y59530151D01*
X23383746Y59533661D01*
X23360542Y59539473D01*
X23338020Y59547531D01*
X22887629Y59734089D01*
X22866005Y59744317D01*
X22845488Y59756614D01*
X22826275Y59770864D01*
X22808551Y59786928D01*
X22792487Y59804652D01*
X22778237Y59823865D01*
X22765940Y59844382D01*
X22755712Y59866006D01*
X22747654Y59888528D01*
X22741842Y59911732D01*
X22738332Y59935393D01*
X22737158Y59959285D01*
X22738332Y59983177D01*
X22741842Y60006838D01*
X22747654Y60030042D01*
X22755712Y60052564D01*
X23104911Y60895604D01*
X23115139Y60917228D01*
X23127436Y60937745D01*
X23141686Y60956958D01*
X23157750Y60974682D01*
X23175474Y60990746D01*
X23194687Y61004996D01*
X23215204Y61017293D01*
X23236828Y61027521D01*
X23259350Y61035579D01*
X23282554Y61041391D01*
X23306215Y61044901D01*
X23330107Y61046075D01*
X23353999Y61044901D01*
X23353999Y61044901D01*
G37*
D12*
X23380703Y60287526D03*
D11*
G36*
X25086273Y60327369D02*
G01*
X25109934Y60323859D01*
X25133138Y60318047D01*
X25155660Y60309989D01*
X25606051Y60123431D01*
X25627675Y60113203D01*
X25648192Y60100906D01*
X25667405Y60086656D01*
X25685129Y60070592D01*
X25701193Y60052868D01*
X25715443Y60033655D01*
X25727740Y60013138D01*
X25737968Y59991514D01*
X25746026Y59968992D01*
X25751838Y59945788D01*
X25755348Y59922127D01*
X25756522Y59898235D01*
X25755348Y59874343D01*
X25751838Y59850682D01*
X25746026Y59827478D01*
X25737968Y59804956D01*
X25388769Y58961916D01*
X25378541Y58940292D01*
X25366244Y58919775D01*
X25351994Y58900562D01*
X25335930Y58882838D01*
X25318206Y58866774D01*
X25298993Y58852524D01*
X25278476Y58840227D01*
X25256852Y58829999D01*
X25234330Y58821941D01*
X25211126Y58816129D01*
X25187465Y58812619D01*
X25163573Y58811445D01*
X25139681Y58812619D01*
X25116020Y58816129D01*
X25092816Y58821941D01*
X25070294Y58829999D01*
X24619903Y59016557D01*
X24598279Y59026785D01*
X24577762Y59039082D01*
X24558549Y59053332D01*
X24540825Y59069396D01*
X24524761Y59087120D01*
X24510511Y59106333D01*
X24498214Y59126850D01*
X24487986Y59148474D01*
X24479928Y59170996D01*
X24474116Y59194200D01*
X24470606Y59217861D01*
X24469432Y59241753D01*
X24470606Y59265645D01*
X24474116Y59289306D01*
X24479928Y59312510D01*
X24487986Y59335032D01*
X24837185Y60178072D01*
X24847413Y60199696D01*
X24859710Y60220213D01*
X24873960Y60239426D01*
X24890024Y60257150D01*
X24907748Y60273214D01*
X24926961Y60287464D01*
X24947478Y60299761D01*
X24969102Y60309989D01*
X24991624Y60318047D01*
X25014828Y60323859D01*
X25038489Y60327369D01*
X25062381Y60328543D01*
X25086273Y60327369D01*
X25086273Y60327369D01*
G37*
D12*
X25112977Y59569994D03*
D11*
G36*
X18268041Y55445405D02*
G01*
X18291702Y55441895D01*
X18314906Y55436083D01*
X18337428Y55428025D01*
X18359052Y55417797D01*
X18379569Y55405500D01*
X18398782Y55391250D01*
X18416506Y55375186D01*
X18432570Y55357462D01*
X18446820Y55338249D01*
X18459117Y55317732D01*
X18469345Y55296108D01*
X18655903Y54845717D01*
X18663961Y54823195D01*
X18669773Y54799991D01*
X18673283Y54776330D01*
X18674457Y54752438D01*
X18673283Y54728546D01*
X18669773Y54704885D01*
X18663961Y54681681D01*
X18655903Y54659159D01*
X18645675Y54637535D01*
X18633378Y54617018D01*
X18619128Y54597805D01*
X18603064Y54580081D01*
X18585340Y54564017D01*
X18566127Y54549767D01*
X18545610Y54537470D01*
X18523986Y54527242D01*
X17680946Y54178043D01*
X17658424Y54169985D01*
X17635220Y54164173D01*
X17611559Y54160663D01*
X17587667Y54159489D01*
X17563775Y54160663D01*
X17540114Y54164173D01*
X17516910Y54169985D01*
X17494388Y54178043D01*
X17472764Y54188271D01*
X17452247Y54200568D01*
X17433034Y54214818D01*
X17415310Y54230882D01*
X17399246Y54248606D01*
X17384996Y54267819D01*
X17372699Y54288336D01*
X17362471Y54309960D01*
X17175913Y54760351D01*
X17167855Y54782873D01*
X17162043Y54806077D01*
X17158533Y54829738D01*
X17157359Y54853630D01*
X17158533Y54877522D01*
X17162043Y54901183D01*
X17167855Y54924387D01*
X17175913Y54946909D01*
X17186141Y54968533D01*
X17198438Y54989050D01*
X17212688Y55008263D01*
X17228752Y55025987D01*
X17246476Y55042051D01*
X17265689Y55056301D01*
X17286206Y55068598D01*
X17307830Y55078826D01*
X18150870Y55428025D01*
X18173392Y55436083D01*
X18196596Y55441895D01*
X18220257Y55445405D01*
X18244149Y55446579D01*
X18268041Y55445405D01*
X18268041Y55445405D01*
G37*
D12*
X17915908Y54803034D03*
D11*
G36*
X18985573Y53713131D02*
G01*
X19009234Y53709621D01*
X19032438Y53703809D01*
X19054960Y53695751D01*
X19076584Y53685523D01*
X19097101Y53673226D01*
X19116314Y53658976D01*
X19134038Y53642912D01*
X19150102Y53625188D01*
X19164352Y53605975D01*
X19176649Y53585458D01*
X19186877Y53563834D01*
X19373435Y53113443D01*
X19381493Y53090921D01*
X19387305Y53067717D01*
X19390815Y53044056D01*
X19391989Y53020164D01*
X19390815Y52996272D01*
X19387305Y52972611D01*
X19381493Y52949407D01*
X19373435Y52926885D01*
X19363207Y52905261D01*
X19350910Y52884744D01*
X19336660Y52865531D01*
X19320596Y52847807D01*
X19302872Y52831743D01*
X19283659Y52817493D01*
X19263142Y52805196D01*
X19241518Y52794968D01*
X18398478Y52445769D01*
X18375956Y52437711D01*
X18352752Y52431899D01*
X18329091Y52428389D01*
X18305199Y52427215D01*
X18281307Y52428389D01*
X18257646Y52431899D01*
X18234442Y52437711D01*
X18211920Y52445769D01*
X18190296Y52455997D01*
X18169779Y52468294D01*
X18150566Y52482544D01*
X18132842Y52498608D01*
X18116778Y52516332D01*
X18102528Y52535545D01*
X18090231Y52556062D01*
X18080003Y52577686D01*
X17893445Y53028077D01*
X17885387Y53050599D01*
X17879575Y53073803D01*
X17876065Y53097464D01*
X17874891Y53121356D01*
X17876065Y53145248D01*
X17879575Y53168909D01*
X17885387Y53192113D01*
X17893445Y53214635D01*
X17903673Y53236259D01*
X17915970Y53256776D01*
X17930220Y53275989D01*
X17946284Y53293713D01*
X17964008Y53309777D01*
X17983221Y53324027D01*
X18003738Y53336324D01*
X18025362Y53346552D01*
X18868402Y53695751D01*
X18890924Y53703809D01*
X18914128Y53709621D01*
X18937789Y53713131D01*
X18961681Y53714305D01*
X18985573Y53713131D01*
X18985573Y53713131D01*
G37*
D12*
X18633440Y53070760D03*
D11*
G36*
X3544722Y47856466D02*
G01*
X3568383Y47852956D01*
X3591587Y47847144D01*
X3614109Y47839086D01*
X3635733Y47828858D01*
X3656250Y47816561D01*
X3675463Y47802311D01*
X3693187Y47786247D01*
X3709251Y47768523D01*
X3723501Y47749310D01*
X3735798Y47728793D01*
X3746026Y47707169D01*
X3754084Y47684647D01*
X3759896Y47661443D01*
X3763406Y47637782D01*
X3764580Y47613890D01*
X3764580Y46701390D01*
X3763406Y46677498D01*
X3759896Y46653837D01*
X3754084Y46630633D01*
X3746026Y46608111D01*
X3735798Y46586487D01*
X3723501Y46565970D01*
X3709251Y46546757D01*
X3693187Y46529033D01*
X3675463Y46512969D01*
X3656250Y46498719D01*
X3635733Y46486422D01*
X3614109Y46476194D01*
X3591587Y46468136D01*
X3568383Y46462324D01*
X3544722Y46458814D01*
X3520830Y46457640D01*
X3033330Y46457640D01*
X3009438Y46458814D01*
X2985777Y46462324D01*
X2962573Y46468136D01*
X2940051Y46476194D01*
X2918427Y46486422D01*
X2897910Y46498719D01*
X2878697Y46512969D01*
X2860973Y46529033D01*
X2844909Y46546757D01*
X2830659Y46565970D01*
X2818362Y46586487D01*
X2808134Y46608111D01*
X2800076Y46630633D01*
X2794264Y46653837D01*
X2790754Y46677498D01*
X2789580Y46701390D01*
X2789580Y47613890D01*
X2790754Y47637782D01*
X2794264Y47661443D01*
X2800076Y47684647D01*
X2808134Y47707169D01*
X2818362Y47728793D01*
X2830659Y47749310D01*
X2844909Y47768523D01*
X2860973Y47786247D01*
X2878697Y47802311D01*
X2897910Y47816561D01*
X2918427Y47828858D01*
X2940051Y47839086D01*
X2962573Y47847144D01*
X2985777Y47852956D01*
X3009438Y47856466D01*
X3033330Y47857640D01*
X3520830Y47857640D01*
X3544722Y47856466D01*
X3544722Y47856466D01*
G37*
D12*
X3277080Y47157640D03*
D11*
G36*
X1669722Y47856466D02*
G01*
X1693383Y47852956D01*
X1716587Y47847144D01*
X1739109Y47839086D01*
X1760733Y47828858D01*
X1781250Y47816561D01*
X1800463Y47802311D01*
X1818187Y47786247D01*
X1834251Y47768523D01*
X1848501Y47749310D01*
X1860798Y47728793D01*
X1871026Y47707169D01*
X1879084Y47684647D01*
X1884896Y47661443D01*
X1888406Y47637782D01*
X1889580Y47613890D01*
X1889580Y46701390D01*
X1888406Y46677498D01*
X1884896Y46653837D01*
X1879084Y46630633D01*
X1871026Y46608111D01*
X1860798Y46586487D01*
X1848501Y46565970D01*
X1834251Y46546757D01*
X1818187Y46529033D01*
X1800463Y46512969D01*
X1781250Y46498719D01*
X1760733Y46486422D01*
X1739109Y46476194D01*
X1716587Y46468136D01*
X1693383Y46462324D01*
X1669722Y46458814D01*
X1645830Y46457640D01*
X1158330Y46457640D01*
X1134438Y46458814D01*
X1110777Y46462324D01*
X1087573Y46468136D01*
X1065051Y46476194D01*
X1043427Y46486422D01*
X1022910Y46498719D01*
X1003697Y46512969D01*
X985973Y46529033D01*
X969909Y46546757D01*
X955659Y46565970D01*
X943362Y46586487D01*
X933134Y46608111D01*
X925076Y46630633D01*
X919264Y46653837D01*
X915754Y46677498D01*
X914580Y46701390D01*
X914580Y47613890D01*
X915754Y47637782D01*
X919264Y47661443D01*
X925076Y47684647D01*
X933134Y47707169D01*
X943362Y47728793D01*
X955659Y47749310D01*
X969909Y47768523D01*
X985973Y47786247D01*
X1003697Y47802311D01*
X1022910Y47816561D01*
X1043427Y47828858D01*
X1065051Y47839086D01*
X1087573Y47847144D01*
X1110777Y47852956D01*
X1134438Y47856466D01*
X1158330Y47857640D01*
X1645830Y47857640D01*
X1669722Y47856466D01*
X1669722Y47856466D01*
G37*
D12*
X1402080Y47157640D03*
D11*
G36*
X3547022Y39484626D02*
G01*
X3570683Y39481116D01*
X3593887Y39475304D01*
X3616409Y39467246D01*
X3638033Y39457018D01*
X3658550Y39444721D01*
X3677763Y39430471D01*
X3695487Y39414407D01*
X3711551Y39396683D01*
X3725801Y39377470D01*
X3738098Y39356953D01*
X3748326Y39335329D01*
X3756384Y39312807D01*
X3762196Y39289603D01*
X3765706Y39265942D01*
X3766880Y39242050D01*
X3766880Y38329550D01*
X3765706Y38305658D01*
X3762196Y38281997D01*
X3756384Y38258793D01*
X3748326Y38236271D01*
X3738098Y38214647D01*
X3725801Y38194130D01*
X3711551Y38174917D01*
X3695487Y38157193D01*
X3677763Y38141129D01*
X3658550Y38126879D01*
X3638033Y38114582D01*
X3616409Y38104354D01*
X3593887Y38096296D01*
X3570683Y38090484D01*
X3547022Y38086974D01*
X3523130Y38085800D01*
X3035630Y38085800D01*
X3011738Y38086974D01*
X2988077Y38090484D01*
X2964873Y38096296D01*
X2942351Y38104354D01*
X2920727Y38114582D01*
X2900210Y38126879D01*
X2880997Y38141129D01*
X2863273Y38157193D01*
X2847209Y38174917D01*
X2832959Y38194130D01*
X2820662Y38214647D01*
X2810434Y38236271D01*
X2802376Y38258793D01*
X2796564Y38281997D01*
X2793054Y38305658D01*
X2791880Y38329550D01*
X2791880Y39242050D01*
X2793054Y39265942D01*
X2796564Y39289603D01*
X2802376Y39312807D01*
X2810434Y39335329D01*
X2820662Y39356953D01*
X2832959Y39377470D01*
X2847209Y39396683D01*
X2863273Y39414407D01*
X2880997Y39430471D01*
X2900210Y39444721D01*
X2920727Y39457018D01*
X2942351Y39467246D01*
X2964873Y39475304D01*
X2988077Y39481116D01*
X3011738Y39484626D01*
X3035630Y39485800D01*
X3523130Y39485800D01*
X3547022Y39484626D01*
X3547022Y39484626D01*
G37*
D12*
X3279380Y38785800D03*
D11*
G36*
X1672022Y39484626D02*
G01*
X1695683Y39481116D01*
X1718887Y39475304D01*
X1741409Y39467246D01*
X1763033Y39457018D01*
X1783550Y39444721D01*
X1802763Y39430471D01*
X1820487Y39414407D01*
X1836551Y39396683D01*
X1850801Y39377470D01*
X1863098Y39356953D01*
X1873326Y39335329D01*
X1881384Y39312807D01*
X1887196Y39289603D01*
X1890706Y39265942D01*
X1891880Y39242050D01*
X1891880Y38329550D01*
X1890706Y38305658D01*
X1887196Y38281997D01*
X1881384Y38258793D01*
X1873326Y38236271D01*
X1863098Y38214647D01*
X1850801Y38194130D01*
X1836551Y38174917D01*
X1820487Y38157193D01*
X1802763Y38141129D01*
X1783550Y38126879D01*
X1763033Y38114582D01*
X1741409Y38104354D01*
X1718887Y38096296D01*
X1695683Y38090484D01*
X1672022Y38086974D01*
X1648130Y38085800D01*
X1160630Y38085800D01*
X1136738Y38086974D01*
X1113077Y38090484D01*
X1089873Y38096296D01*
X1067351Y38104354D01*
X1045727Y38114582D01*
X1025210Y38126879D01*
X1005997Y38141129D01*
X988273Y38157193D01*
X972209Y38174917D01*
X957959Y38194130D01*
X945662Y38214647D01*
X935434Y38236271D01*
X927376Y38258793D01*
X921564Y38281997D01*
X918054Y38305658D01*
X916880Y38329550D01*
X916880Y39242050D01*
X918054Y39265942D01*
X921564Y39289603D01*
X927376Y39312807D01*
X935434Y39335329D01*
X945662Y39356953D01*
X957959Y39377470D01*
X972209Y39396683D01*
X988273Y39414407D01*
X1005997Y39430471D01*
X1025210Y39444721D01*
X1045727Y39457018D01*
X1067351Y39467246D01*
X1089873Y39475304D01*
X1113077Y39481116D01*
X1136738Y39484626D01*
X1160630Y39485800D01*
X1648130Y39485800D01*
X1672022Y39484626D01*
X1672022Y39484626D01*
G37*
D12*
X1404380Y38785800D03*
D11*
G36*
X9876507Y55442963D02*
G01*
X9900138Y55439246D01*
X9923290Y55433232D01*
X9945741Y55424977D01*
X10785702Y55068435D01*
X10807235Y55058019D01*
X10827645Y55045543D01*
X10846733Y55031127D01*
X10864316Y55014909D01*
X10880224Y54997045D01*
X10894306Y54977709D01*
X10906424Y54957085D01*
X10916462Y54935372D01*
X10924324Y54912781D01*
X10929933Y54889527D01*
X10933237Y54865836D01*
X10934202Y54841935D01*
X10932820Y54818054D01*
X10929103Y54794424D01*
X10923089Y54771272D01*
X10914834Y54748821D01*
X10724353Y54300075D01*
X10713938Y54278542D01*
X10701461Y54258132D01*
X10687045Y54239044D01*
X10670827Y54221461D01*
X10652963Y54205553D01*
X10633627Y54191471D01*
X10613003Y54179353D01*
X10591291Y54169315D01*
X10568699Y54161453D01*
X10545445Y54155844D01*
X10521754Y54152540D01*
X10497853Y54151575D01*
X10473973Y54152957D01*
X10450342Y54156674D01*
X10427190Y54162688D01*
X10404739Y54170943D01*
X9564778Y54527485D01*
X9543245Y54537901D01*
X9522835Y54550377D01*
X9503747Y54564793D01*
X9486164Y54581011D01*
X9470256Y54598875D01*
X9456174Y54618211D01*
X9444056Y54638835D01*
X9434018Y54660548D01*
X9426156Y54683139D01*
X9420547Y54706393D01*
X9417243Y54730084D01*
X9416278Y54753985D01*
X9417660Y54777866D01*
X9421377Y54801496D01*
X9427391Y54824648D01*
X9435646Y54847099D01*
X9626127Y55295845D01*
X9636542Y55317378D01*
X9649019Y55337788D01*
X9663435Y55356876D01*
X9679653Y55374459D01*
X9697517Y55390367D01*
X9716853Y55404449D01*
X9737477Y55416567D01*
X9759189Y55426605D01*
X9781781Y55434467D01*
X9805035Y55440076D01*
X9828726Y55443380D01*
X9852627Y55444345D01*
X9876507Y55442963D01*
X9876507Y55442963D01*
G37*
D12*
X10175240Y54797960D03*
D11*
G36*
X9143887Y53717017D02*
G01*
X9167518Y53713300D01*
X9190670Y53707286D01*
X9213121Y53699031D01*
X10053082Y53342489D01*
X10074615Y53332073D01*
X10095025Y53319597D01*
X10114113Y53305181D01*
X10131696Y53288963D01*
X10147604Y53271099D01*
X10161686Y53251763D01*
X10173804Y53231139D01*
X10183842Y53209426D01*
X10191704Y53186835D01*
X10197313Y53163581D01*
X10200617Y53139890D01*
X10201582Y53115989D01*
X10200200Y53092108D01*
X10196483Y53068478D01*
X10190469Y53045326D01*
X10182214Y53022875D01*
X9991733Y52574129D01*
X9981318Y52552596D01*
X9968841Y52532186D01*
X9954425Y52513098D01*
X9938207Y52495515D01*
X9920343Y52479607D01*
X9901007Y52465525D01*
X9880383Y52453407D01*
X9858671Y52443369D01*
X9836079Y52435507D01*
X9812825Y52429898D01*
X9789134Y52426594D01*
X9765233Y52425629D01*
X9741353Y52427011D01*
X9717722Y52430728D01*
X9694570Y52436742D01*
X9672119Y52444997D01*
X8832158Y52801539D01*
X8810625Y52811955D01*
X8790215Y52824431D01*
X8771127Y52838847D01*
X8753544Y52855065D01*
X8737636Y52872929D01*
X8723554Y52892265D01*
X8711436Y52912889D01*
X8701398Y52934602D01*
X8693536Y52957193D01*
X8687927Y52980447D01*
X8684623Y53004138D01*
X8683658Y53028039D01*
X8685040Y53051920D01*
X8688757Y53075550D01*
X8694771Y53098702D01*
X8703026Y53121153D01*
X8893507Y53569899D01*
X8903922Y53591432D01*
X8916399Y53611842D01*
X8930815Y53630930D01*
X8947033Y53648513D01*
X8964897Y53664421D01*
X8984233Y53678503D01*
X9004857Y53690621D01*
X9026569Y53700659D01*
X9049161Y53708521D01*
X9072415Y53714130D01*
X9096106Y53717434D01*
X9120007Y53718399D01*
X9143887Y53717017D01*
X9143887Y53717017D01*
G37*
D12*
X9442620Y53072014D03*
D11*
G36*
X4765865Y61044901D02*
G01*
X4789526Y61041391D01*
X4812730Y61035579D01*
X4835252Y61027521D01*
X4856876Y61017293D01*
X4877393Y61004996D01*
X4896606Y60990746D01*
X4914330Y60974682D01*
X4930394Y60956958D01*
X4944644Y60937745D01*
X4956941Y60917228D01*
X4967169Y60895604D01*
X5316368Y60052564D01*
X5324426Y60030042D01*
X5330238Y60006838D01*
X5333748Y59983177D01*
X5334922Y59959285D01*
X5333748Y59935393D01*
X5330238Y59911732D01*
X5324426Y59888528D01*
X5316368Y59866006D01*
X5306140Y59844382D01*
X5293843Y59823865D01*
X5279593Y59804652D01*
X5263529Y59786928D01*
X5245805Y59770864D01*
X5226592Y59756614D01*
X5206075Y59744317D01*
X5184451Y59734089D01*
X4734060Y59547531D01*
X4711538Y59539473D01*
X4688334Y59533661D01*
X4664673Y59530151D01*
X4640781Y59528977D01*
X4616889Y59530151D01*
X4593228Y59533661D01*
X4570024Y59539473D01*
X4547502Y59547531D01*
X4525878Y59557759D01*
X4505361Y59570056D01*
X4486148Y59584306D01*
X4468424Y59600370D01*
X4452360Y59618094D01*
X4438110Y59637307D01*
X4425813Y59657824D01*
X4415585Y59679448D01*
X4066386Y60522488D01*
X4058328Y60545010D01*
X4052516Y60568214D01*
X4049006Y60591875D01*
X4047832Y60615767D01*
X4049006Y60639659D01*
X4052516Y60663320D01*
X4058328Y60686524D01*
X4066386Y60709046D01*
X4076614Y60730670D01*
X4088911Y60751187D01*
X4103161Y60770400D01*
X4119225Y60788124D01*
X4136949Y60804188D01*
X4156162Y60818438D01*
X4176679Y60830735D01*
X4198303Y60840963D01*
X4648694Y61027521D01*
X4671216Y61035579D01*
X4694420Y61041391D01*
X4718081Y61044901D01*
X4741973Y61046075D01*
X4765865Y61044901D01*
X4765865Y61044901D01*
G37*
D12*
X4691377Y60287526D03*
D11*
G36*
X3033591Y60327369D02*
G01*
X3057252Y60323859D01*
X3080456Y60318047D01*
X3102978Y60309989D01*
X3124602Y60299761D01*
X3145119Y60287464D01*
X3164332Y60273214D01*
X3182056Y60257150D01*
X3198120Y60239426D01*
X3212370Y60220213D01*
X3224667Y60199696D01*
X3234895Y60178072D01*
X3584094Y59335032D01*
X3592152Y59312510D01*
X3597964Y59289306D01*
X3601474Y59265645D01*
X3602648Y59241753D01*
X3601474Y59217861D01*
X3597964Y59194200D01*
X3592152Y59170996D01*
X3584094Y59148474D01*
X3573866Y59126850D01*
X3561569Y59106333D01*
X3547319Y59087120D01*
X3531255Y59069396D01*
X3513531Y59053332D01*
X3494318Y59039082D01*
X3473801Y59026785D01*
X3452177Y59016557D01*
X3001786Y58829999D01*
X2979264Y58821941D01*
X2956060Y58816129D01*
X2932399Y58812619D01*
X2908507Y58811445D01*
X2884615Y58812619D01*
X2860954Y58816129D01*
X2837750Y58821941D01*
X2815228Y58829999D01*
X2793604Y58840227D01*
X2773087Y58852524D01*
X2753874Y58866774D01*
X2736150Y58882838D01*
X2720086Y58900562D01*
X2705836Y58919775D01*
X2693539Y58940292D01*
X2683311Y58961916D01*
X2334112Y59804956D01*
X2326054Y59827478D01*
X2320242Y59850682D01*
X2316732Y59874343D01*
X2315558Y59898235D01*
X2316732Y59922127D01*
X2320242Y59945788D01*
X2326054Y59968992D01*
X2334112Y59991514D01*
X2344340Y60013138D01*
X2356637Y60033655D01*
X2370887Y60052868D01*
X2386951Y60070592D01*
X2404675Y60086656D01*
X2423888Y60100906D01*
X2444405Y60113203D01*
X2466029Y60123431D01*
X2916420Y60309989D01*
X2938942Y60318047D01*
X2962146Y60323859D01*
X2985807Y60327369D01*
X3009699Y60328543D01*
X3033591Y60327369D01*
X3033591Y60327369D01*
G37*
D12*
X2959103Y59569994D03*
D11*
G36*
X2929862Y69506267D02*
G01*
X2953523Y69502757D01*
X2976727Y69496945D01*
X2999249Y69488887D01*
X3449640Y69302329D01*
X3471264Y69292101D01*
X3491781Y69279804D01*
X3510994Y69265554D01*
X3528718Y69249490D01*
X3544782Y69231766D01*
X3559032Y69212553D01*
X3571329Y69192036D01*
X3581557Y69170412D01*
X3589615Y69147890D01*
X3595427Y69124686D01*
X3598937Y69101025D01*
X3600111Y69077133D01*
X3598937Y69053241D01*
X3595427Y69029580D01*
X3589615Y69006376D01*
X3581557Y68983854D01*
X3232358Y68140814D01*
X3222130Y68119190D01*
X3209833Y68098673D01*
X3195583Y68079460D01*
X3179519Y68061736D01*
X3161795Y68045672D01*
X3142582Y68031422D01*
X3122065Y68019125D01*
X3100441Y68008897D01*
X3077919Y68000839D01*
X3054715Y67995027D01*
X3031054Y67991517D01*
X3007162Y67990343D01*
X2983270Y67991517D01*
X2959609Y67995027D01*
X2936405Y68000839D01*
X2913883Y68008897D01*
X2463492Y68195455D01*
X2441868Y68205683D01*
X2421351Y68217980D01*
X2402138Y68232230D01*
X2384414Y68248294D01*
X2368350Y68266018D01*
X2354100Y68285231D01*
X2341803Y68305748D01*
X2331575Y68327372D01*
X2323517Y68349894D01*
X2317705Y68373098D01*
X2314195Y68396759D01*
X2313021Y68420651D01*
X2314195Y68444543D01*
X2317705Y68468204D01*
X2323517Y68491408D01*
X2331575Y68513930D01*
X2680774Y69356970D01*
X2691002Y69378594D01*
X2703299Y69399111D01*
X2717549Y69418324D01*
X2733613Y69436048D01*
X2751337Y69452112D01*
X2770550Y69466362D01*
X2791067Y69478659D01*
X2812691Y69488887D01*
X2835213Y69496945D01*
X2858417Y69502757D01*
X2882078Y69506267D01*
X2905970Y69507441D01*
X2929862Y69506267D01*
X2929862Y69506267D01*
G37*
D12*
X2956566Y68748892D03*
D11*
G36*
X4662136Y68788735D02*
G01*
X4685797Y68785225D01*
X4709001Y68779413D01*
X4731523Y68771355D01*
X5181914Y68584797D01*
X5203538Y68574569D01*
X5224055Y68562272D01*
X5243268Y68548022D01*
X5260992Y68531958D01*
X5277056Y68514234D01*
X5291306Y68495021D01*
X5303603Y68474504D01*
X5313831Y68452880D01*
X5321889Y68430358D01*
X5327701Y68407154D01*
X5331211Y68383493D01*
X5332385Y68359601D01*
X5331211Y68335709D01*
X5327701Y68312048D01*
X5321889Y68288844D01*
X5313831Y68266322D01*
X4964632Y67423282D01*
X4954404Y67401658D01*
X4942107Y67381141D01*
X4927857Y67361928D01*
X4911793Y67344204D01*
X4894069Y67328140D01*
X4874856Y67313890D01*
X4854339Y67301593D01*
X4832715Y67291365D01*
X4810193Y67283307D01*
X4786989Y67277495D01*
X4763328Y67273985D01*
X4739436Y67272811D01*
X4715544Y67273985D01*
X4691883Y67277495D01*
X4668679Y67283307D01*
X4646157Y67291365D01*
X4195766Y67477923D01*
X4174142Y67488151D01*
X4153625Y67500448D01*
X4134412Y67514698D01*
X4116688Y67530762D01*
X4100624Y67548486D01*
X4086374Y67567699D01*
X4074077Y67588216D01*
X4063849Y67609840D01*
X4055791Y67632362D01*
X4049979Y67655566D01*
X4046469Y67679227D01*
X4045295Y67703119D01*
X4046469Y67727011D01*
X4049979Y67750672D01*
X4055791Y67773876D01*
X4063849Y67796398D01*
X4413048Y68639438D01*
X4423276Y68661062D01*
X4435573Y68681579D01*
X4449823Y68700792D01*
X4465887Y68718516D01*
X4483611Y68734580D01*
X4502824Y68748830D01*
X4523341Y68761127D01*
X4544965Y68771355D01*
X4567487Y68779413D01*
X4590691Y68785225D01*
X4614352Y68788735D01*
X4638244Y68789909D01*
X4662136Y68788735D01*
X4662136Y68788735D01*
G37*
D12*
X4688840Y68031360D03*
D11*
G36*
X9784441Y75892405D02*
G01*
X9808102Y75888895D01*
X9831306Y75883083D01*
X9853828Y75875025D01*
X9875452Y75864797D01*
X9895969Y75852500D01*
X9915182Y75838250D01*
X9932906Y75822186D01*
X9948970Y75804462D01*
X9963220Y75785249D01*
X9975517Y75764732D01*
X9985745Y75743108D01*
X10172303Y75292717D01*
X10180361Y75270195D01*
X10186173Y75246991D01*
X10189683Y75223330D01*
X10190857Y75199438D01*
X10189683Y75175546D01*
X10186173Y75151885D01*
X10180361Y75128681D01*
X10172303Y75106159D01*
X10162075Y75084535D01*
X10149778Y75064018D01*
X10135528Y75044805D01*
X10119464Y75027081D01*
X10101740Y75011017D01*
X10082527Y74996767D01*
X10062010Y74984470D01*
X10040386Y74974242D01*
X9197346Y74625043D01*
X9174824Y74616985D01*
X9151620Y74611173D01*
X9127959Y74607663D01*
X9104067Y74606489D01*
X9080175Y74607663D01*
X9056514Y74611173D01*
X9033310Y74616985D01*
X9010788Y74625043D01*
X8989164Y74635271D01*
X8968647Y74647568D01*
X8949434Y74661818D01*
X8931710Y74677882D01*
X8915646Y74695606D01*
X8901396Y74714819D01*
X8889099Y74735336D01*
X8878871Y74756960D01*
X8692313Y75207351D01*
X8684255Y75229873D01*
X8678443Y75253077D01*
X8674933Y75276738D01*
X8673759Y75300630D01*
X8674933Y75324522D01*
X8678443Y75348183D01*
X8684255Y75371387D01*
X8692313Y75393909D01*
X8702541Y75415533D01*
X8714838Y75436050D01*
X8729088Y75455263D01*
X8745152Y75472987D01*
X8762876Y75489051D01*
X8782089Y75503301D01*
X8802606Y75515598D01*
X8824230Y75525826D01*
X9667270Y75875025D01*
X9689792Y75883083D01*
X9712996Y75888895D01*
X9736657Y75892405D01*
X9760549Y75893579D01*
X9784441Y75892405D01*
X9784441Y75892405D01*
G37*
D12*
X9432308Y75250034D03*
D11*
G36*
X10501973Y74160131D02*
G01*
X10525634Y74156621D01*
X10548838Y74150809D01*
X10571360Y74142751D01*
X10592984Y74132523D01*
X10613501Y74120226D01*
X10632714Y74105976D01*
X10650438Y74089912D01*
X10666502Y74072188D01*
X10680752Y74052975D01*
X10693049Y74032458D01*
X10703277Y74010834D01*
X10889835Y73560443D01*
X10897893Y73537921D01*
X10903705Y73514717D01*
X10907215Y73491056D01*
X10908389Y73467164D01*
X10907215Y73443272D01*
X10903705Y73419611D01*
X10897893Y73396407D01*
X10889835Y73373885D01*
X10879607Y73352261D01*
X10867310Y73331744D01*
X10853060Y73312531D01*
X10836996Y73294807D01*
X10819272Y73278743D01*
X10800059Y73264493D01*
X10779542Y73252196D01*
X10757918Y73241968D01*
X9914878Y72892769D01*
X9892356Y72884711D01*
X9869152Y72878899D01*
X9845491Y72875389D01*
X9821599Y72874215D01*
X9797707Y72875389D01*
X9774046Y72878899D01*
X9750842Y72884711D01*
X9728320Y72892769D01*
X9706696Y72902997D01*
X9686179Y72915294D01*
X9666966Y72929544D01*
X9649242Y72945608D01*
X9633178Y72963332D01*
X9618928Y72982545D01*
X9606631Y73003062D01*
X9596403Y73024686D01*
X9409845Y73475077D01*
X9401787Y73497599D01*
X9395975Y73520803D01*
X9392465Y73544464D01*
X9391291Y73568356D01*
X9392465Y73592248D01*
X9395975Y73615909D01*
X9401787Y73639113D01*
X9409845Y73661635D01*
X9420073Y73683259D01*
X9432370Y73703776D01*
X9446620Y73722989D01*
X9462684Y73740713D01*
X9480408Y73756777D01*
X9499621Y73771027D01*
X9520138Y73783324D01*
X9541762Y73793552D01*
X10384802Y74142751D01*
X10407324Y74150809D01*
X10430528Y74156621D01*
X10454189Y74160131D01*
X10478081Y74161305D01*
X10501973Y74160131D01*
X10501973Y74160131D01*
G37*
D12*
X10149840Y73517760D03*
D13*
X19304000Y90473280D03*
X19304000Y88473280D03*
X19304000Y86473280D03*
D14*
X19304000Y84473280D03*
D13*
X8691880Y84444840D03*
X8691880Y86444840D03*
X8691880Y88444840D03*
D14*
X8691880Y90444840D03*
D11*
G36*
X1587962Y44498586D02*
G01*
X1611623Y44495076D01*
X1634827Y44489264D01*
X1657349Y44481206D01*
X1678973Y44470978D01*
X1699490Y44458681D01*
X1718703Y44444431D01*
X1736427Y44428367D01*
X1752491Y44410643D01*
X1766741Y44391430D01*
X1779038Y44370913D01*
X1789266Y44349289D01*
X1797324Y44326767D01*
X1803136Y44303563D01*
X1806646Y44279902D01*
X1807820Y44256010D01*
X1807820Y43343510D01*
X1806646Y43319618D01*
X1803136Y43295957D01*
X1797324Y43272753D01*
X1789266Y43250231D01*
X1779038Y43228607D01*
X1766741Y43208090D01*
X1752491Y43188877D01*
X1736427Y43171153D01*
X1718703Y43155089D01*
X1699490Y43140839D01*
X1678973Y43128542D01*
X1657349Y43118314D01*
X1634827Y43110256D01*
X1611623Y43104444D01*
X1587962Y43100934D01*
X1564070Y43099760D01*
X1076570Y43099760D01*
X1052678Y43100934D01*
X1029017Y43104444D01*
X1005813Y43110256D01*
X983291Y43118314D01*
X961667Y43128542D01*
X941150Y43140839D01*
X921937Y43155089D01*
X904213Y43171153D01*
X888149Y43188877D01*
X873899Y43208090D01*
X861602Y43228607D01*
X851374Y43250231D01*
X843316Y43272753D01*
X837504Y43295957D01*
X833994Y43319618D01*
X832820Y43343510D01*
X832820Y44256010D01*
X833994Y44279902D01*
X837504Y44303563D01*
X843316Y44326767D01*
X851374Y44349289D01*
X861602Y44370913D01*
X873899Y44391430D01*
X888149Y44410643D01*
X904213Y44428367D01*
X921937Y44444431D01*
X941150Y44458681D01*
X961667Y44470978D01*
X983291Y44481206D01*
X1005813Y44489264D01*
X1029017Y44495076D01*
X1052678Y44498586D01*
X1076570Y44499760D01*
X1564070Y44499760D01*
X1587962Y44498586D01*
X1587962Y44498586D01*
G37*
D12*
X1320320Y43799760D03*
D11*
G36*
X3462962Y44498586D02*
G01*
X3486623Y44495076D01*
X3509827Y44489264D01*
X3532349Y44481206D01*
X3553973Y44470978D01*
X3574490Y44458681D01*
X3593703Y44444431D01*
X3611427Y44428367D01*
X3627491Y44410643D01*
X3641741Y44391430D01*
X3654038Y44370913D01*
X3664266Y44349289D01*
X3672324Y44326767D01*
X3678136Y44303563D01*
X3681646Y44279902D01*
X3682820Y44256010D01*
X3682820Y43343510D01*
X3681646Y43319618D01*
X3678136Y43295957D01*
X3672324Y43272753D01*
X3664266Y43250231D01*
X3654038Y43228607D01*
X3641741Y43208090D01*
X3627491Y43188877D01*
X3611427Y43171153D01*
X3593703Y43155089D01*
X3574490Y43140839D01*
X3553973Y43128542D01*
X3532349Y43118314D01*
X3509827Y43110256D01*
X3486623Y43104444D01*
X3462962Y43100934D01*
X3439070Y43099760D01*
X2951570Y43099760D01*
X2927678Y43100934D01*
X2904017Y43104444D01*
X2880813Y43110256D01*
X2858291Y43118314D01*
X2836667Y43128542D01*
X2816150Y43140839D01*
X2796937Y43155089D01*
X2779213Y43171153D01*
X2763149Y43188877D01*
X2748899Y43208090D01*
X2736602Y43228607D01*
X2726374Y43250231D01*
X2718316Y43272753D01*
X2712504Y43295957D01*
X2708994Y43319618D01*
X2707820Y43343510D01*
X2707820Y44256010D01*
X2708994Y44279902D01*
X2712504Y44303563D01*
X2718316Y44326767D01*
X2726374Y44349289D01*
X2736602Y44370913D01*
X2748899Y44391430D01*
X2763149Y44410643D01*
X2779213Y44428367D01*
X2796937Y44444431D01*
X2816150Y44458681D01*
X2836667Y44470978D01*
X2858291Y44481206D01*
X2880813Y44489264D01*
X2904017Y44495076D01*
X2927678Y44498586D01*
X2951570Y44499760D01*
X3439070Y44499760D01*
X3462962Y44498586D01*
X3462962Y44498586D01*
G37*
D12*
X3195320Y43799760D03*
D11*
G36*
X3547022Y36182626D02*
G01*
X3570683Y36179116D01*
X3593887Y36173304D01*
X3616409Y36165246D01*
X3638033Y36155018D01*
X3658550Y36142721D01*
X3677763Y36128471D01*
X3695487Y36112407D01*
X3711551Y36094683D01*
X3725801Y36075470D01*
X3738098Y36054953D01*
X3748326Y36033329D01*
X3756384Y36010807D01*
X3762196Y35987603D01*
X3765706Y35963942D01*
X3766880Y35940050D01*
X3766880Y35027550D01*
X3765706Y35003658D01*
X3762196Y34979997D01*
X3756384Y34956793D01*
X3748326Y34934271D01*
X3738098Y34912647D01*
X3725801Y34892130D01*
X3711551Y34872917D01*
X3695487Y34855193D01*
X3677763Y34839129D01*
X3658550Y34824879D01*
X3638033Y34812582D01*
X3616409Y34802354D01*
X3593887Y34794296D01*
X3570683Y34788484D01*
X3547022Y34784974D01*
X3523130Y34783800D01*
X3035630Y34783800D01*
X3011738Y34784974D01*
X2988077Y34788484D01*
X2964873Y34794296D01*
X2942351Y34802354D01*
X2920727Y34812582D01*
X2900210Y34824879D01*
X2880997Y34839129D01*
X2863273Y34855193D01*
X2847209Y34872917D01*
X2832959Y34892130D01*
X2820662Y34912647D01*
X2810434Y34934271D01*
X2802376Y34956793D01*
X2796564Y34979997D01*
X2793054Y35003658D01*
X2791880Y35027550D01*
X2791880Y35940050D01*
X2793054Y35963942D01*
X2796564Y35987603D01*
X2802376Y36010807D01*
X2810434Y36033329D01*
X2820662Y36054953D01*
X2832959Y36075470D01*
X2847209Y36094683D01*
X2863273Y36112407D01*
X2880997Y36128471D01*
X2900210Y36142721D01*
X2920727Y36155018D01*
X2942351Y36165246D01*
X2964873Y36173304D01*
X2988077Y36179116D01*
X3011738Y36182626D01*
X3035630Y36183800D01*
X3523130Y36183800D01*
X3547022Y36182626D01*
X3547022Y36182626D01*
G37*
D12*
X3279380Y35483800D03*
D11*
G36*
X1672022Y36182626D02*
G01*
X1695683Y36179116D01*
X1718887Y36173304D01*
X1741409Y36165246D01*
X1763033Y36155018D01*
X1783550Y36142721D01*
X1802763Y36128471D01*
X1820487Y36112407D01*
X1836551Y36094683D01*
X1850801Y36075470D01*
X1863098Y36054953D01*
X1873326Y36033329D01*
X1881384Y36010807D01*
X1887196Y35987603D01*
X1890706Y35963942D01*
X1891880Y35940050D01*
X1891880Y35027550D01*
X1890706Y35003658D01*
X1887196Y34979997D01*
X1881384Y34956793D01*
X1873326Y34934271D01*
X1863098Y34912647D01*
X1850801Y34892130D01*
X1836551Y34872917D01*
X1820487Y34855193D01*
X1802763Y34839129D01*
X1783550Y34824879D01*
X1763033Y34812582D01*
X1741409Y34802354D01*
X1718887Y34794296D01*
X1695683Y34788484D01*
X1672022Y34784974D01*
X1648130Y34783800D01*
X1160630Y34783800D01*
X1136738Y34784974D01*
X1113077Y34788484D01*
X1089873Y34794296D01*
X1067351Y34802354D01*
X1045727Y34812582D01*
X1025210Y34824879D01*
X1005997Y34839129D01*
X988273Y34855193D01*
X972209Y34872917D01*
X957959Y34892130D01*
X945662Y34912647D01*
X935434Y34934271D01*
X927376Y34956793D01*
X921564Y34979997D01*
X918054Y35003658D01*
X916880Y35027550D01*
X916880Y35940050D01*
X918054Y35963942D01*
X921564Y35987603D01*
X927376Y36010807D01*
X935434Y36033329D01*
X945662Y36054953D01*
X957959Y36075470D01*
X972209Y36094683D01*
X988273Y36112407D01*
X1005997Y36128471D01*
X1025210Y36142721D01*
X1045727Y36155018D01*
X1067351Y36165246D01*
X1089873Y36173304D01*
X1113077Y36179116D01*
X1136738Y36182626D01*
X1160630Y36183800D01*
X1648130Y36183800D01*
X1672022Y36182626D01*
X1672022Y36182626D01*
G37*
D12*
X1404380Y35483800D03*
D11*
G36*
X26861922Y42029706D02*
G01*
X26885583Y42026196D01*
X26908787Y42020384D01*
X26931309Y42012326D01*
X26952933Y42002098D01*
X26973450Y41989801D01*
X26992663Y41975551D01*
X27010387Y41959487D01*
X27026451Y41941763D01*
X27040701Y41922550D01*
X27052998Y41902033D01*
X27063226Y41880409D01*
X27071284Y41857887D01*
X27077096Y41834683D01*
X27080606Y41811022D01*
X27081780Y41787130D01*
X27081780Y40874630D01*
X27080606Y40850738D01*
X27077096Y40827077D01*
X27071284Y40803873D01*
X27063226Y40781351D01*
X27052998Y40759727D01*
X27040701Y40739210D01*
X27026451Y40719997D01*
X27010387Y40702273D01*
X26992663Y40686209D01*
X26973450Y40671959D01*
X26952933Y40659662D01*
X26931309Y40649434D01*
X26908787Y40641376D01*
X26885583Y40635564D01*
X26861922Y40632054D01*
X26838030Y40630880D01*
X26350530Y40630880D01*
X26326638Y40632054D01*
X26302977Y40635564D01*
X26279773Y40641376D01*
X26257251Y40649434D01*
X26235627Y40659662D01*
X26215110Y40671959D01*
X26195897Y40686209D01*
X26178173Y40702273D01*
X26162109Y40719997D01*
X26147859Y40739210D01*
X26135562Y40759727D01*
X26125334Y40781351D01*
X26117276Y40803873D01*
X26111464Y40827077D01*
X26107954Y40850738D01*
X26106780Y40874630D01*
X26106780Y41787130D01*
X26107954Y41811022D01*
X26111464Y41834683D01*
X26117276Y41857887D01*
X26125334Y41880409D01*
X26135562Y41902033D01*
X26147859Y41922550D01*
X26162109Y41941763D01*
X26178173Y41959487D01*
X26195897Y41975551D01*
X26215110Y41989801D01*
X26235627Y42002098D01*
X26257251Y42012326D01*
X26279773Y42020384D01*
X26302977Y42026196D01*
X26326638Y42029706D01*
X26350530Y42030880D01*
X26838030Y42030880D01*
X26861922Y42029706D01*
X26861922Y42029706D01*
G37*
D12*
X26594280Y41330880D03*
D11*
G36*
X24986922Y42029706D02*
G01*
X25010583Y42026196D01*
X25033787Y42020384D01*
X25056309Y42012326D01*
X25077933Y42002098D01*
X25098450Y41989801D01*
X25117663Y41975551D01*
X25135387Y41959487D01*
X25151451Y41941763D01*
X25165701Y41922550D01*
X25177998Y41902033D01*
X25188226Y41880409D01*
X25196284Y41857887D01*
X25202096Y41834683D01*
X25205606Y41811022D01*
X25206780Y41787130D01*
X25206780Y40874630D01*
X25205606Y40850738D01*
X25202096Y40827077D01*
X25196284Y40803873D01*
X25188226Y40781351D01*
X25177998Y40759727D01*
X25165701Y40739210D01*
X25151451Y40719997D01*
X25135387Y40702273D01*
X25117663Y40686209D01*
X25098450Y40671959D01*
X25077933Y40659662D01*
X25056309Y40649434D01*
X25033787Y40641376D01*
X25010583Y40635564D01*
X24986922Y40632054D01*
X24963030Y40630880D01*
X24475530Y40630880D01*
X24451638Y40632054D01*
X24427977Y40635564D01*
X24404773Y40641376D01*
X24382251Y40649434D01*
X24360627Y40659662D01*
X24340110Y40671959D01*
X24320897Y40686209D01*
X24303173Y40702273D01*
X24287109Y40719997D01*
X24272859Y40739210D01*
X24260562Y40759727D01*
X24250334Y40781351D01*
X24242276Y40803873D01*
X24236464Y40827077D01*
X24232954Y40850738D01*
X24231780Y40874630D01*
X24231780Y41787130D01*
X24232954Y41811022D01*
X24236464Y41834683D01*
X24242276Y41857887D01*
X24250334Y41880409D01*
X24260562Y41902033D01*
X24272859Y41922550D01*
X24287109Y41941763D01*
X24303173Y41959487D01*
X24320897Y41975551D01*
X24340110Y41989801D01*
X24360627Y42002098D01*
X24382251Y42012326D01*
X24404773Y42020384D01*
X24427977Y42026196D01*
X24451638Y42029706D01*
X24475530Y42030880D01*
X24963030Y42030880D01*
X24986922Y42029706D01*
X24986922Y42029706D01*
G37*
D12*
X24719280Y41330880D03*
D11*
G36*
X21805982Y25376026D02*
G01*
X21829643Y25372516D01*
X21852847Y25366704D01*
X21875369Y25358646D01*
X21896993Y25348418D01*
X21917510Y25336121D01*
X21936723Y25321871D01*
X21954447Y25305807D01*
X21970511Y25288083D01*
X21984761Y25268870D01*
X21997058Y25248353D01*
X22007286Y25226729D01*
X22015344Y25204207D01*
X22021156Y25181003D01*
X22024666Y25157342D01*
X22025840Y25133450D01*
X22025840Y24645950D01*
X22024666Y24622058D01*
X22021156Y24598397D01*
X22015344Y24575193D01*
X22007286Y24552671D01*
X21997058Y24531047D01*
X21984761Y24510530D01*
X21970511Y24491317D01*
X21954447Y24473593D01*
X21936723Y24457529D01*
X21917510Y24443279D01*
X21896993Y24430982D01*
X21875369Y24420754D01*
X21852847Y24412696D01*
X21829643Y24406884D01*
X21805982Y24403374D01*
X21782090Y24402200D01*
X20869590Y24402200D01*
X20845698Y24403374D01*
X20822037Y24406884D01*
X20798833Y24412696D01*
X20776311Y24420754D01*
X20754687Y24430982D01*
X20734170Y24443279D01*
X20714957Y24457529D01*
X20697233Y24473593D01*
X20681169Y24491317D01*
X20666919Y24510530D01*
X20654622Y24531047D01*
X20644394Y24552671D01*
X20636336Y24575193D01*
X20630524Y24598397D01*
X20627014Y24622058D01*
X20625840Y24645950D01*
X20625840Y25133450D01*
X20627014Y25157342D01*
X20630524Y25181003D01*
X20636336Y25204207D01*
X20644394Y25226729D01*
X20654622Y25248353D01*
X20666919Y25268870D01*
X20681169Y25288083D01*
X20697233Y25305807D01*
X20714957Y25321871D01*
X20734170Y25336121D01*
X20754687Y25348418D01*
X20776311Y25358646D01*
X20798833Y25366704D01*
X20822037Y25372516D01*
X20845698Y25376026D01*
X20869590Y25377200D01*
X21782090Y25377200D01*
X21805982Y25376026D01*
X21805982Y25376026D01*
G37*
D12*
X21325840Y24889700D03*
D11*
G36*
X21805982Y23501026D02*
G01*
X21829643Y23497516D01*
X21852847Y23491704D01*
X21875369Y23483646D01*
X21896993Y23473418D01*
X21917510Y23461121D01*
X21936723Y23446871D01*
X21954447Y23430807D01*
X21970511Y23413083D01*
X21984761Y23393870D01*
X21997058Y23373353D01*
X22007286Y23351729D01*
X22015344Y23329207D01*
X22021156Y23306003D01*
X22024666Y23282342D01*
X22025840Y23258450D01*
X22025840Y22770950D01*
X22024666Y22747058D01*
X22021156Y22723397D01*
X22015344Y22700193D01*
X22007286Y22677671D01*
X21997058Y22656047D01*
X21984761Y22635530D01*
X21970511Y22616317D01*
X21954447Y22598593D01*
X21936723Y22582529D01*
X21917510Y22568279D01*
X21896993Y22555982D01*
X21875369Y22545754D01*
X21852847Y22537696D01*
X21829643Y22531884D01*
X21805982Y22528374D01*
X21782090Y22527200D01*
X20869590Y22527200D01*
X20845698Y22528374D01*
X20822037Y22531884D01*
X20798833Y22537696D01*
X20776311Y22545754D01*
X20754687Y22555982D01*
X20734170Y22568279D01*
X20714957Y22582529D01*
X20697233Y22598593D01*
X20681169Y22616317D01*
X20666919Y22635530D01*
X20654622Y22656047D01*
X20644394Y22677671D01*
X20636336Y22700193D01*
X20630524Y22723397D01*
X20627014Y22747058D01*
X20625840Y22770950D01*
X20625840Y23258450D01*
X20627014Y23282342D01*
X20630524Y23306003D01*
X20636336Y23329207D01*
X20644394Y23351729D01*
X20654622Y23373353D01*
X20666919Y23393870D01*
X20681169Y23413083D01*
X20697233Y23430807D01*
X20714957Y23446871D01*
X20734170Y23461121D01*
X20754687Y23473418D01*
X20776311Y23483646D01*
X20798833Y23491704D01*
X20822037Y23497516D01*
X20845698Y23501026D01*
X20869590Y23502200D01*
X21782090Y23502200D01*
X21805982Y23501026D01*
X21805982Y23501026D01*
G37*
D12*
X21325840Y23014700D03*
D11*
G36*
X21739942Y8721006D02*
G01*
X21763603Y8717496D01*
X21786807Y8711684D01*
X21809329Y8703626D01*
X21830953Y8693398D01*
X21851470Y8681101D01*
X21870683Y8666851D01*
X21888407Y8650787D01*
X21904471Y8633063D01*
X21918721Y8613850D01*
X21931018Y8593333D01*
X21941246Y8571709D01*
X21949304Y8549187D01*
X21955116Y8525983D01*
X21958626Y8502322D01*
X21959800Y8478430D01*
X21959800Y7990930D01*
X21958626Y7967038D01*
X21955116Y7943377D01*
X21949304Y7920173D01*
X21941246Y7897651D01*
X21931018Y7876027D01*
X21918721Y7855510D01*
X21904471Y7836297D01*
X21888407Y7818573D01*
X21870683Y7802509D01*
X21851470Y7788259D01*
X21830953Y7775962D01*
X21809329Y7765734D01*
X21786807Y7757676D01*
X21763603Y7751864D01*
X21739942Y7748354D01*
X21716050Y7747180D01*
X20803550Y7747180D01*
X20779658Y7748354D01*
X20755997Y7751864D01*
X20732793Y7757676D01*
X20710271Y7765734D01*
X20688647Y7775962D01*
X20668130Y7788259D01*
X20648917Y7802509D01*
X20631193Y7818573D01*
X20615129Y7836297D01*
X20600879Y7855510D01*
X20588582Y7876027D01*
X20578354Y7897651D01*
X20570296Y7920173D01*
X20564484Y7943377D01*
X20560974Y7967038D01*
X20559800Y7990930D01*
X20559800Y8478430D01*
X20560974Y8502322D01*
X20564484Y8525983D01*
X20570296Y8549187D01*
X20578354Y8571709D01*
X20588582Y8593333D01*
X20600879Y8613850D01*
X20615129Y8633063D01*
X20631193Y8650787D01*
X20648917Y8666851D01*
X20668130Y8681101D01*
X20688647Y8693398D01*
X20710271Y8703626D01*
X20732793Y8711684D01*
X20755997Y8717496D01*
X20779658Y8721006D01*
X20803550Y8722180D01*
X21716050Y8722180D01*
X21739942Y8721006D01*
X21739942Y8721006D01*
G37*
D12*
X21259800Y8234680D03*
D11*
G36*
X21739942Y6846006D02*
G01*
X21763603Y6842496D01*
X21786807Y6836684D01*
X21809329Y6828626D01*
X21830953Y6818398D01*
X21851470Y6806101D01*
X21870683Y6791851D01*
X21888407Y6775787D01*
X21904471Y6758063D01*
X21918721Y6738850D01*
X21931018Y6718333D01*
X21941246Y6696709D01*
X21949304Y6674187D01*
X21955116Y6650983D01*
X21958626Y6627322D01*
X21959800Y6603430D01*
X21959800Y6115930D01*
X21958626Y6092038D01*
X21955116Y6068377D01*
X21949304Y6045173D01*
X21941246Y6022651D01*
X21931018Y6001027D01*
X21918721Y5980510D01*
X21904471Y5961297D01*
X21888407Y5943573D01*
X21870683Y5927509D01*
X21851470Y5913259D01*
X21830953Y5900962D01*
X21809329Y5890734D01*
X21786807Y5882676D01*
X21763603Y5876864D01*
X21739942Y5873354D01*
X21716050Y5872180D01*
X20803550Y5872180D01*
X20779658Y5873354D01*
X20755997Y5876864D01*
X20732793Y5882676D01*
X20710271Y5890734D01*
X20688647Y5900962D01*
X20668130Y5913259D01*
X20648917Y5927509D01*
X20631193Y5943573D01*
X20615129Y5961297D01*
X20600879Y5980510D01*
X20588582Y6001027D01*
X20578354Y6022651D01*
X20570296Y6045173D01*
X20564484Y6068377D01*
X20560974Y6092038D01*
X20559800Y6115930D01*
X20559800Y6603430D01*
X20560974Y6627322D01*
X20564484Y6650983D01*
X20570296Y6674187D01*
X20578354Y6696709D01*
X20588582Y6718333D01*
X20600879Y6738850D01*
X20615129Y6758063D01*
X20631193Y6775787D01*
X20648917Y6791851D01*
X20668130Y6806101D01*
X20688647Y6818398D01*
X20710271Y6828626D01*
X20732793Y6836684D01*
X20755997Y6842496D01*
X20779658Y6846006D01*
X20803550Y6847180D01*
X21716050Y6847180D01*
X21739942Y6846006D01*
X21739942Y6846006D01*
G37*
D12*
X21259800Y6359680D03*
D15*
X9966960Y96022160D03*
D16*
X12506960Y96022160D03*
X15046960Y96022160D03*
X17586960Y96022160D03*
D17*
X13386040Y74346560D03*
X14686040Y74346560D03*
X13386040Y76346560D03*
X14686040Y76346560D03*
D18*
X23083279Y72293721D03*
D11*
G36*
X22941858Y71728036D02*
G01*
X22517594Y72152300D01*
X23224700Y72859406D01*
X23648964Y72435142D01*
X22941858Y71728036D01*
X22941858Y71728036D01*
G37*
D18*
X22164040Y73212960D03*
D11*
G36*
X22022619Y72647275D02*
G01*
X21598355Y73071539D01*
X22305461Y73778645D01*
X22729725Y73354381D01*
X22022619Y72647275D01*
X22022619Y72647275D01*
G37*
D18*
X21669066Y70879508D03*
D11*
G36*
X21527645Y70313823D02*
G01*
X21103381Y70738087D01*
X21810487Y71445193D01*
X22234751Y71020929D01*
X21527645Y70313823D01*
X21527645Y70313823D01*
G37*
D18*
X20749827Y71798747D03*
D11*
G36*
X20608406Y71233062D02*
G01*
X20184142Y71657326D01*
X20891248Y72364432D01*
X21315512Y71940168D01*
X20608406Y71233062D01*
X20608406Y71233062D01*
G37*
D19*
X24196040Y64810160D03*
X24196040Y63510160D03*
X26196040Y64810160D03*
X26196040Y63510160D03*
D18*
X22182927Y55104434D03*
D11*
G36*
X21617242Y55245855D02*
G01*
X22041506Y55670119D01*
X22748612Y54963013D01*
X22324348Y54538749D01*
X21617242Y55245855D01*
X21617242Y55245855D01*
G37*
D18*
X23102166Y56023673D03*
D11*
G36*
X22536481Y56165094D02*
G01*
X22960745Y56589358D01*
X23667851Y55882252D01*
X23243587Y55457988D01*
X22536481Y56165094D01*
X22536481Y56165094D01*
G37*
D18*
X20768714Y56518647D03*
D11*
G36*
X20203029Y56660068D02*
G01*
X20627293Y57084332D01*
X21334399Y56377226D01*
X20910135Y55952962D01*
X20203029Y56660068D01*
X20203029Y56660068D01*
G37*
D18*
X21687953Y57437886D03*
D11*
G36*
X21122268Y57579307D02*
G01*
X21546532Y58003571D01*
X22253638Y57296465D01*
X21829374Y56872201D01*
X21122268Y57579307D01*
X21122268Y57579307D01*
G37*
D17*
X13386040Y51969160D03*
X14686040Y51969160D03*
X13386040Y53969160D03*
X14686040Y53969160D03*
D18*
X7305040Y56499760D03*
D11*
G36*
X7446461Y57065445D02*
G01*
X7870725Y56641181D01*
X7163619Y55934075D01*
X6739355Y56358339D01*
X7446461Y57065445D01*
X7446461Y57065445D01*
G37*
D18*
X6385801Y57418999D03*
D11*
G36*
X6527222Y57984684D02*
G01*
X6951486Y57560420D01*
X6244380Y56853314D01*
X5820116Y57277578D01*
X6527222Y57984684D01*
X6527222Y57984684D01*
G37*
D18*
X5890827Y55085547D03*
D11*
G36*
X6032248Y55651232D02*
G01*
X6456512Y55226968D01*
X5749406Y54519862D01*
X5325142Y54944126D01*
X6032248Y55651232D01*
X6032248Y55651232D01*
G37*
D18*
X4971588Y56004786D03*
D11*
G36*
X5113009Y56570471D02*
G01*
X5537273Y56146207D01*
X4830167Y55439101D01*
X4405903Y55863365D01*
X5113009Y56570471D01*
X5113009Y56570471D01*
G37*
D19*
X1860040Y64820560D03*
X1860040Y63520560D03*
X3860040Y64820560D03*
X3860040Y63520560D03*
D18*
X6385801Y70896721D03*
D11*
G36*
X6951486Y70755300D02*
G01*
X6527222Y70331036D01*
X5820116Y71038142D01*
X6244380Y71462406D01*
X6951486Y70755300D01*
X6951486Y70755300D01*
G37*
D18*
X7305040Y71815960D03*
D11*
G36*
X7870725Y71674539D02*
G01*
X7446461Y71250275D01*
X6739355Y71957381D01*
X7163619Y72381645D01*
X7870725Y71674539D01*
X7870725Y71674539D01*
G37*
D18*
X4971588Y72310934D03*
D11*
G36*
X5537273Y72169513D02*
G01*
X5113009Y71745249D01*
X4405903Y72452355D01*
X4830167Y72876619D01*
X5537273Y72169513D01*
X5537273Y72169513D01*
G37*
D18*
X5890827Y73230173D03*
D11*
G36*
X6456512Y73088752D02*
G01*
X6032248Y72664488D01*
X5325142Y73371594D01*
X5749406Y73795858D01*
X6456512Y73088752D01*
X6456512Y73088752D01*
G37*
D20*
X11150960Y21860760D03*
X16910960Y21860760D03*
X16910960Y25860760D03*
X11150960Y25860760D03*
D21*
X21295460Y43730140D03*
X21295460Y38730140D03*
X6545460Y38755140D03*
X6545460Y41255140D03*
X6545460Y43780140D03*
D22*
X14070460Y47905140D03*
X14070460Y34605140D03*
D23*
X21920460Y36305140D03*
X21920460Y46205140D03*
X6220460Y46205140D03*
X6220460Y36330140D03*
D24*
X14975840Y80383380D03*
X13075840Y80383380D03*
X14025840Y78383380D03*
D11*
G36*
X10453042Y80830746D02*
G01*
X10476703Y80827236D01*
X10499907Y80821424D01*
X10522429Y80813366D01*
X10544053Y80803138D01*
X10564570Y80790841D01*
X10583783Y80776591D01*
X10601507Y80760527D01*
X10617571Y80742803D01*
X10631821Y80723590D01*
X10644118Y80703073D01*
X10654346Y80681449D01*
X10662404Y80658927D01*
X10668216Y80635723D01*
X10671726Y80612062D01*
X10672900Y80588170D01*
X10672900Y79675670D01*
X10671726Y79651778D01*
X10668216Y79628117D01*
X10662404Y79604913D01*
X10654346Y79582391D01*
X10644118Y79560767D01*
X10631821Y79540250D01*
X10617571Y79521037D01*
X10601507Y79503313D01*
X10583783Y79487249D01*
X10564570Y79472999D01*
X10544053Y79460702D01*
X10522429Y79450474D01*
X10499907Y79442416D01*
X10476703Y79436604D01*
X10453042Y79433094D01*
X10429150Y79431920D01*
X9941650Y79431920D01*
X9917758Y79433094D01*
X9894097Y79436604D01*
X9870893Y79442416D01*
X9848371Y79450474D01*
X9826747Y79460702D01*
X9806230Y79472999D01*
X9787017Y79487249D01*
X9769293Y79503313D01*
X9753229Y79521037D01*
X9738979Y79540250D01*
X9726682Y79560767D01*
X9716454Y79582391D01*
X9708396Y79604913D01*
X9702584Y79628117D01*
X9699074Y79651778D01*
X9697900Y79675670D01*
X9697900Y80588170D01*
X9699074Y80612062D01*
X9702584Y80635723D01*
X9708396Y80658927D01*
X9716454Y80681449D01*
X9726682Y80703073D01*
X9738979Y80723590D01*
X9753229Y80742803D01*
X9769293Y80760527D01*
X9787017Y80776591D01*
X9806230Y80790841D01*
X9826747Y80803138D01*
X9848371Y80813366D01*
X9870893Y80821424D01*
X9894097Y80827236D01*
X9917758Y80830746D01*
X9941650Y80831920D01*
X10429150Y80831920D01*
X10453042Y80830746D01*
X10453042Y80830746D01*
G37*
D12*
X10185400Y80131920D03*
D11*
G36*
X8578042Y80830746D02*
G01*
X8601703Y80827236D01*
X8624907Y80821424D01*
X8647429Y80813366D01*
X8669053Y80803138D01*
X8689570Y80790841D01*
X8708783Y80776591D01*
X8726507Y80760527D01*
X8742571Y80742803D01*
X8756821Y80723590D01*
X8769118Y80703073D01*
X8779346Y80681449D01*
X8787404Y80658927D01*
X8793216Y80635723D01*
X8796726Y80612062D01*
X8797900Y80588170D01*
X8797900Y79675670D01*
X8796726Y79651778D01*
X8793216Y79628117D01*
X8787404Y79604913D01*
X8779346Y79582391D01*
X8769118Y79560767D01*
X8756821Y79540250D01*
X8742571Y79521037D01*
X8726507Y79503313D01*
X8708783Y79487249D01*
X8689570Y79472999D01*
X8669053Y79460702D01*
X8647429Y79450474D01*
X8624907Y79442416D01*
X8601703Y79436604D01*
X8578042Y79433094D01*
X8554150Y79431920D01*
X8066650Y79431920D01*
X8042758Y79433094D01*
X8019097Y79436604D01*
X7995893Y79442416D01*
X7973371Y79450474D01*
X7951747Y79460702D01*
X7931230Y79472999D01*
X7912017Y79487249D01*
X7894293Y79503313D01*
X7878229Y79521037D01*
X7863979Y79540250D01*
X7851682Y79560767D01*
X7841454Y79582391D01*
X7833396Y79604913D01*
X7827584Y79628117D01*
X7824074Y79651778D01*
X7822900Y79675670D01*
X7822900Y80588170D01*
X7824074Y80612062D01*
X7827584Y80635723D01*
X7833396Y80658927D01*
X7841454Y80681449D01*
X7851682Y80703073D01*
X7863979Y80723590D01*
X7878229Y80742803D01*
X7894293Y80760527D01*
X7912017Y80776591D01*
X7931230Y80790841D01*
X7951747Y80803138D01*
X7973371Y80813366D01*
X7995893Y80821424D01*
X8019097Y80827236D01*
X8042758Y80830746D01*
X8066650Y80831920D01*
X8554150Y80831920D01*
X8578042Y80830746D01*
X8578042Y80830746D01*
G37*
D12*
X8310400Y80131920D03*
D11*
G36*
X19986142Y80802806D02*
G01*
X20009803Y80799296D01*
X20033007Y80793484D01*
X20055529Y80785426D01*
X20077153Y80775198D01*
X20097670Y80762901D01*
X20116883Y80748651D01*
X20134607Y80732587D01*
X20150671Y80714863D01*
X20164921Y80695650D01*
X20177218Y80675133D01*
X20187446Y80653509D01*
X20195504Y80630987D01*
X20201316Y80607783D01*
X20204826Y80584122D01*
X20206000Y80560230D01*
X20206000Y79647730D01*
X20204826Y79623838D01*
X20201316Y79600177D01*
X20195504Y79576973D01*
X20187446Y79554451D01*
X20177218Y79532827D01*
X20164921Y79512310D01*
X20150671Y79493097D01*
X20134607Y79475373D01*
X20116883Y79459309D01*
X20097670Y79445059D01*
X20077153Y79432762D01*
X20055529Y79422534D01*
X20033007Y79414476D01*
X20009803Y79408664D01*
X19986142Y79405154D01*
X19962250Y79403980D01*
X19474750Y79403980D01*
X19450858Y79405154D01*
X19427197Y79408664D01*
X19403993Y79414476D01*
X19381471Y79422534D01*
X19359847Y79432762D01*
X19339330Y79445059D01*
X19320117Y79459309D01*
X19302393Y79475373D01*
X19286329Y79493097D01*
X19272079Y79512310D01*
X19259782Y79532827D01*
X19249554Y79554451D01*
X19241496Y79576973D01*
X19235684Y79600177D01*
X19232174Y79623838D01*
X19231000Y79647730D01*
X19231000Y80560230D01*
X19232174Y80584122D01*
X19235684Y80607783D01*
X19241496Y80630987D01*
X19249554Y80653509D01*
X19259782Y80675133D01*
X19272079Y80695650D01*
X19286329Y80714863D01*
X19302393Y80732587D01*
X19320117Y80748651D01*
X19339330Y80762901D01*
X19359847Y80775198D01*
X19381471Y80785426D01*
X19403993Y80793484D01*
X19427197Y80799296D01*
X19450858Y80802806D01*
X19474750Y80803980D01*
X19962250Y80803980D01*
X19986142Y80802806D01*
X19986142Y80802806D01*
G37*
D12*
X19718500Y80103980D03*
D11*
G36*
X18111142Y80802806D02*
G01*
X18134803Y80799296D01*
X18158007Y80793484D01*
X18180529Y80785426D01*
X18202153Y80775198D01*
X18222670Y80762901D01*
X18241883Y80748651D01*
X18259607Y80732587D01*
X18275671Y80714863D01*
X18289921Y80695650D01*
X18302218Y80675133D01*
X18312446Y80653509D01*
X18320504Y80630987D01*
X18326316Y80607783D01*
X18329826Y80584122D01*
X18331000Y80560230D01*
X18331000Y79647730D01*
X18329826Y79623838D01*
X18326316Y79600177D01*
X18320504Y79576973D01*
X18312446Y79554451D01*
X18302218Y79532827D01*
X18289921Y79512310D01*
X18275671Y79493097D01*
X18259607Y79475373D01*
X18241883Y79459309D01*
X18222670Y79445059D01*
X18202153Y79432762D01*
X18180529Y79422534D01*
X18158007Y79414476D01*
X18134803Y79408664D01*
X18111142Y79405154D01*
X18087250Y79403980D01*
X17599750Y79403980D01*
X17575858Y79405154D01*
X17552197Y79408664D01*
X17528993Y79414476D01*
X17506471Y79422534D01*
X17484847Y79432762D01*
X17464330Y79445059D01*
X17445117Y79459309D01*
X17427393Y79475373D01*
X17411329Y79493097D01*
X17397079Y79512310D01*
X17384782Y79532827D01*
X17374554Y79554451D01*
X17366496Y79576973D01*
X17360684Y79600177D01*
X17357174Y79623838D01*
X17356000Y79647730D01*
X17356000Y80560230D01*
X17357174Y80584122D01*
X17360684Y80607783D01*
X17366496Y80630987D01*
X17374554Y80653509D01*
X17384782Y80675133D01*
X17397079Y80695650D01*
X17411329Y80714863D01*
X17427393Y80732587D01*
X17445117Y80748651D01*
X17464330Y80762901D01*
X17484847Y80775198D01*
X17506471Y80785426D01*
X17528993Y80793484D01*
X17552197Y80799296D01*
X17575858Y80802806D01*
X17599750Y80803980D01*
X18087250Y80803980D01*
X18111142Y80802806D01*
X18111142Y80802806D01*
G37*
D12*
X17843500Y80103980D03*
D25*
X6517640Y59852560D03*
X9647340Y56891340D03*
X18557240Y77055980D03*
X18069560Y71137780D03*
X2540000Y36830000D03*
X8293990Y38412096D03*
X10022840Y7264400D03*
X26924000Y49784000D03*
X13716000Y15748000D03*
X2884610Y41862970D03*
X3429000Y29631640D03*
X7213600Y92605860D03*
X25400000Y30988000D03*
X20289520Y26388060D03*
X11409680Y76951840D03*
X21465540Y78945740D03*
D26*
X5126343Y59852560D02*
X4691377Y60287526D01*
X6517640Y59852560D02*
X5126343Y59852560D01*
X4691377Y62689223D02*
X3860040Y63520560D01*
X4691377Y60287526D02*
X4691377Y62689223D01*
X5132666Y64593186D02*
X5132666Y67587534D01*
X4060040Y63520560D02*
X5132666Y64593186D01*
X5132666Y67587534D02*
X4688840Y68031360D01*
X3860040Y63520560D02*
X4060040Y63520560D01*
X4688840Y69199760D02*
X6385801Y70896721D01*
X4688840Y68031360D02*
X4688840Y69199760D01*
X10149840Y72890094D02*
X10149840Y73517760D01*
X7732204Y70472458D02*
X10149840Y72890094D01*
X6810064Y70472458D02*
X7732204Y70472458D01*
X6385801Y70896721D02*
X6810064Y70472458D01*
X12557240Y73517760D02*
X13386040Y74346560D01*
X10149840Y73517760D02*
X12557240Y73517760D01*
X17037567Y73512686D02*
X17890508Y73512686D01*
X16871441Y73346560D02*
X17037567Y73512686D01*
X14186040Y73346560D02*
X16871441Y73346560D01*
X13386040Y74146560D02*
X14186040Y73346560D01*
X13386040Y74346560D02*
X13386040Y74146560D01*
X19035888Y73512686D02*
X20749827Y71798747D01*
X17890508Y73512686D02*
X19035888Y73512686D01*
X20325564Y70879492D02*
X20325564Y71374484D01*
X22570576Y68634480D02*
X20325564Y70879492D01*
X22780120Y68634480D02*
X22570576Y68634480D01*
X20325564Y71374484D02*
X20749827Y71798747D01*
X23383240Y68031360D02*
X22780120Y68634480D01*
X23383240Y65622960D02*
X23383240Y68031360D01*
X24196040Y64810160D02*
X23383240Y65622960D01*
X22936877Y63750997D02*
X23996040Y64810160D01*
X22936877Y60731352D02*
X22936877Y63750997D01*
X23996040Y64810160D02*
X24196040Y64810160D01*
X23380703Y60287526D02*
X22936877Y60731352D01*
X21687953Y58594776D02*
X23380703Y60287526D01*
X21687953Y57437886D02*
X21687953Y58594776D01*
X17915908Y55430700D02*
X17915908Y54803034D01*
X20347357Y57862149D02*
X17915908Y55430700D01*
X21263690Y57862149D02*
X20347357Y57862149D01*
X21687953Y57437886D02*
X21263690Y57862149D01*
X15519914Y54803034D02*
X14686040Y53969160D01*
X17915908Y54803034D02*
X15519914Y54803034D01*
X10617736Y55240456D02*
X10175240Y54797960D01*
X13614744Y55240456D02*
X10617736Y55240456D01*
X14686040Y54169160D02*
X13614744Y55240456D01*
X14686040Y53969160D02*
X14686040Y54169160D01*
X9006840Y54797960D02*
X7305040Y56499760D01*
X10175240Y54797960D02*
X9006840Y54797960D01*
X6917639Y59452561D02*
X6517640Y59852560D01*
X7729303Y58640897D02*
X6917639Y59452561D01*
X7729303Y56924023D02*
X7729303Y58640897D01*
X7305040Y56499760D02*
X7729303Y56924023D01*
X10175240Y54797960D02*
X10175240Y56363440D01*
X10175240Y56363440D02*
X10047339Y56491341D01*
X10047339Y56491341D02*
X9647340Y56891340D01*
X19718500Y78217240D02*
X18557240Y77055980D01*
X19718500Y80103980D02*
X19718500Y78217240D01*
X18069560Y73333634D02*
X17890508Y73512686D01*
X18069560Y71137780D02*
X18069560Y73333634D01*
D27*
X21881198Y73495802D02*
X22164040Y73212960D01*
X18206851Y74276405D02*
X21100595Y74276405D01*
X17847896Y74635360D02*
X18206851Y74276405D01*
X15524840Y74635360D02*
X17847896Y74635360D01*
X21100595Y74276405D02*
X21881198Y73495802D01*
X15236040Y74346560D02*
X15524840Y74635360D01*
X14686040Y74346560D02*
X15236040Y74346560D01*
X17506440Y76346560D02*
X18608040Y75244960D01*
X14686040Y76346560D02*
X17506440Y76346560D01*
X23083279Y72817985D02*
X23083279Y72293721D01*
X23083279Y73460463D02*
X23083279Y72817985D01*
X20854956Y75688786D02*
X23083279Y73460463D01*
X19051866Y75688786D02*
X20854956Y75688786D01*
X18608040Y75244960D02*
X19051866Y75688786D01*
X25115514Y70261486D02*
X23083279Y72293721D01*
X25115514Y68748892D02*
X25115514Y70261486D01*
X26196040Y60653057D02*
X25112977Y59569994D01*
X26196040Y63510160D02*
X26196040Y60653057D01*
X26396040Y63510160D02*
X26196040Y63510160D01*
X27021041Y64135161D02*
X26396040Y63510160D01*
X27021041Y65370161D02*
X27021041Y64135161D01*
X25115514Y67275688D02*
X27021041Y65370161D01*
X25115514Y68748892D02*
X25115514Y67275688D01*
X22707191Y55104434D02*
X22182927Y55104434D01*
X23349669Y55104434D02*
X22707191Y55104434D01*
X25112977Y56867742D02*
X23349669Y55104434D01*
X25112977Y59569994D02*
X25112977Y56867742D01*
X20667114Y55104434D02*
X18633440Y53070760D01*
X22182927Y55104434D02*
X20667114Y55104434D01*
X10545474Y51969160D02*
X9442620Y53072014D01*
X13386040Y51969160D02*
X10545474Y51969160D01*
X4971588Y57557509D02*
X2959103Y59569994D01*
X4971588Y56004786D02*
X4971588Y57557509D01*
X4971588Y55480522D02*
X4971588Y56004786D01*
X4971588Y54838044D02*
X4971588Y55480522D01*
X6737618Y53072014D02*
X4971588Y54838044D01*
X9442620Y53072014D02*
X6737618Y53072014D01*
X1660040Y64820560D02*
X1860040Y64820560D01*
X1035039Y64195559D02*
X1660040Y64820560D01*
X1035039Y62346999D02*
X1035039Y64195559D01*
X2959103Y60422935D02*
X1035039Y62346999D01*
X2959103Y59569994D02*
X2959103Y60422935D01*
X1860040Y67652366D02*
X2956566Y68748892D01*
X1860040Y64820560D02*
X1860040Y67652366D01*
X4724085Y73230173D02*
X5366563Y73230173D01*
X5366563Y73230173D02*
X5890827Y73230173D01*
X2956566Y71462654D02*
X4724085Y73230173D01*
X2956566Y68748892D02*
X2956566Y71462654D01*
X7910688Y75250034D02*
X9432308Y75250034D01*
X5890827Y73230173D02*
X7910688Y75250034D01*
X22607190Y54680171D02*
X22182927Y55104434D01*
X13386040Y51769160D02*
X13386040Y51969160D01*
X14011041Y51144159D02*
X13386040Y51769160D01*
X15246041Y51144159D02*
X14011041Y51144159D01*
X17172642Y53070760D02*
X15246041Y51144159D01*
X18633440Y53070760D02*
X17172642Y53070760D01*
X16449680Y11621880D02*
X16449680Y7421880D01*
X16449680Y13221880D02*
X16449680Y11621880D01*
X17511880Y6359680D02*
X16449680Y7421880D01*
X21259800Y6359680D02*
X17511880Y6359680D01*
X2540000Y37650180D02*
X1404380Y38785800D01*
X2540000Y36830000D02*
X2540000Y37650180D01*
X8293990Y38977781D02*
X8293990Y38412096D01*
X6550080Y41255480D02*
X6750080Y41255480D01*
X6750080Y41255480D02*
X8293990Y39711570D01*
X8293990Y39711570D02*
X8293990Y38977781D01*
X26196040Y65360160D02*
X26196040Y64810160D01*
X24351795Y67204405D02*
X26196040Y65360160D01*
X24351795Y68432549D02*
X24351795Y67204405D01*
X22187678Y70596666D02*
X24351795Y68432549D01*
X21951908Y70596666D02*
X22187678Y70596666D01*
X21669066Y70879508D02*
X21951908Y70596666D01*
X23102166Y56547937D02*
X23102166Y56023673D01*
X23102166Y58639245D02*
X23102166Y56547937D01*
X24349258Y59886337D02*
X23102166Y58639245D01*
X24196040Y62960160D02*
X24349258Y62806942D01*
X24349258Y62806942D02*
X24349258Y59886337D01*
X24196040Y63510160D02*
X24196040Y62960160D01*
X17101359Y53834479D02*
X15236040Y51969160D01*
X18317097Y53834479D02*
X17101359Y53834479D01*
X20485872Y56003254D02*
X18317097Y53834479D01*
X20485872Y56235805D02*
X20485872Y56003254D01*
X15236040Y51969160D02*
X14686040Y51969160D01*
X20768714Y56518647D02*
X20485872Y56235805D01*
X6173669Y54802705D02*
X5890827Y55085547D01*
X6915014Y54061360D02*
X6173669Y54802705D01*
X9818935Y54061360D02*
X6915014Y54061360D01*
X10661135Y53219160D02*
X9818935Y54061360D01*
X12836040Y53219160D02*
X10661135Y53219160D01*
X13386040Y53769160D02*
X12836040Y53219160D01*
X13386040Y53969160D02*
X13386040Y53769160D01*
X1860040Y62970560D02*
X1860040Y63520560D01*
X3722822Y61107778D02*
X1860040Y62970560D01*
X3722822Y59886337D02*
X3722822Y61107778D01*
X5907318Y57701841D02*
X3722822Y59886337D01*
X6102959Y57701841D02*
X5907318Y57701841D01*
X6385801Y57418999D02*
X6102959Y57701841D01*
X4688746Y72028092D02*
X4971588Y72310934D01*
X3925121Y71264467D02*
X4688746Y72028092D01*
X3925121Y68347703D02*
X3925121Y71264467D01*
X3720285Y68142867D02*
X3925121Y68347703D01*
X3720285Y65510315D02*
X3720285Y68142867D01*
X3860040Y65370560D02*
X3720285Y65510315D01*
X3860040Y64820560D02*
X3860040Y65370560D01*
X11292200Y7264400D02*
X11449680Y7421880D01*
X10022840Y7264400D02*
X11292200Y7264400D01*
X11449680Y11621880D02*
X11449680Y7421880D01*
X11449680Y13221880D02*
X11449680Y11621880D01*
X11449680Y21562040D02*
X11150960Y21860760D01*
X11449680Y13221880D02*
X11449680Y21562040D01*
X12775960Y21860760D02*
X16910960Y21860760D01*
X11150960Y21860760D02*
X12775960Y21860760D01*
X11150960Y22610760D02*
X11150960Y21860760D01*
X9450959Y24310761D02*
X11150960Y22610760D01*
X9450959Y26620761D02*
X9450959Y24310761D01*
X9515959Y26685761D02*
X9450959Y26620761D01*
X9990363Y26685761D02*
X9515959Y26685761D01*
X16150081Y32845479D02*
X9990363Y26685761D01*
X16150081Y37530481D02*
X16150081Y32845479D01*
X21300080Y42680480D02*
X16150081Y37530481D01*
X21300080Y43730480D02*
X21300080Y42680480D01*
X26924000Y48104400D02*
X26924000Y49784000D01*
X22550080Y43730480D02*
X26924000Y48104400D01*
X21300080Y43730480D02*
X22550080Y43730480D01*
X7929881Y87682841D02*
X8691880Y88444840D01*
X7604879Y87357839D02*
X7929881Y87682841D01*
X7604879Y80837441D02*
X7604879Y87357839D01*
X8310400Y80131920D02*
X7604879Y80837441D01*
X13949680Y13221880D02*
X13949680Y7421880D01*
X17350959Y14896881D02*
X14974681Y14896881D01*
X13949680Y13871880D02*
X13949680Y13221880D01*
X14974681Y14896881D02*
X13949680Y13871880D01*
X21259800Y10988040D02*
X17350959Y14896881D01*
X21259800Y8234680D02*
X21259800Y10988040D01*
X13716000Y13455560D02*
X13949680Y13221880D01*
X13716000Y15748000D02*
X13716000Y13455560D01*
X3195320Y47075880D02*
X3277080Y47157640D01*
X3195320Y43799760D02*
X3195320Y47075880D01*
X3195320Y43799760D02*
X3195320Y42173680D01*
X3195320Y42173680D02*
X2884610Y41862970D01*
X3279380Y35483800D02*
X3279380Y38785800D01*
X3279380Y29781260D02*
X3429000Y29631640D01*
X3279380Y35483800D02*
X3279380Y29781260D01*
X8808720Y84328000D02*
X8691880Y84444840D01*
X7613599Y93005859D02*
X7213600Y92605860D01*
X12030659Y93005859D02*
X7613599Y93005859D01*
X15046960Y96022160D02*
X12030659Y93005859D01*
X9453879Y87206839D02*
X8691880Y86444840D01*
X16736961Y94489921D02*
X9453879Y87206839D01*
X16736961Y95172161D02*
X16736961Y94489921D01*
X17586960Y96022160D02*
X16736961Y95172161D01*
X2159600Y42960480D02*
X1320320Y43799760D01*
X6350080Y43780480D02*
X3209600Y40640000D01*
X6550080Y43780480D02*
X6350080Y43780480D01*
X2159600Y40640000D02*
X2159600Y42960480D01*
X3209600Y40640000D02*
X2159600Y40640000D01*
X591870Y36296310D02*
X848143Y36040037D01*
X591870Y39477640D02*
X591870Y36296310D01*
X925040Y39810810D02*
X591870Y39477640D01*
X848143Y36040037D02*
X1404380Y35483800D01*
X4091890Y39477640D02*
X3758720Y39810810D01*
X4091890Y38093960D02*
X4091890Y39477640D01*
X3758720Y39810810D02*
X925040Y39810810D01*
X4480370Y37705480D02*
X4091890Y38093960D01*
X5300080Y37705480D02*
X4480370Y37705480D01*
X6350080Y38755480D02*
X5300080Y37705480D01*
X6550080Y38755480D02*
X6350080Y38755480D01*
X21300080Y39780480D02*
X21300080Y38730480D01*
X22850480Y41330880D02*
X21300080Y39780480D01*
X24719280Y41330880D02*
X22850480Y41330880D01*
X25400000Y35880560D02*
X25400000Y30988000D01*
X22550080Y38730480D02*
X25400000Y35880560D01*
X21300080Y38730480D02*
X22550080Y38730480D01*
X11150960Y25860760D02*
X16910960Y25860760D01*
X20354780Y25860760D02*
X21325840Y24889700D01*
X20289520Y26085800D02*
X20064480Y25860760D01*
X20289520Y26388060D02*
X20289520Y26085800D01*
X20064480Y25860760D02*
X20354780Y25860760D01*
X16910960Y25860760D02*
X20064480Y25860760D01*
X16122900Y78383380D02*
X17843500Y80103980D01*
X14025840Y78383380D02*
X16122900Y78383380D01*
X13936040Y76346560D02*
X13386040Y76346560D01*
X14025840Y76436360D02*
X13936040Y76346560D01*
X14025840Y78383380D02*
X14025840Y76436360D01*
X12841220Y78383380D02*
X11409680Y76951840D01*
X14025840Y78383380D02*
X12841220Y78383380D01*
X12824380Y80131920D02*
X13075840Y80383380D01*
X10185400Y80131920D02*
X12824380Y80131920D01*
X21465540Y79861290D02*
X21465540Y78945740D01*
X13800841Y79608379D02*
X15635841Y79608379D01*
X15635841Y79608379D02*
X17156452Y81128990D01*
X17156452Y81128990D02*
X20197840Y81128990D01*
X20197840Y81128990D02*
X21465540Y79861290D01*
X13075840Y80333380D02*
X13800841Y79608379D01*
X13075840Y80383380D02*
X13075840Y80333380D01*
D28*
G36*
X8586423Y97226654D02*
G01*
X8527458Y97116340D01*
X8491148Y96996642D01*
X8478888Y96872160D01*
X8481960Y96307910D01*
X8640710Y96149160D01*
X9839960Y96149160D01*
X9839960Y96169160D01*
X10093960Y96169160D01*
X10093960Y96149160D01*
X10113960Y96149160D01*
X10113960Y95895160D01*
X10093960Y95895160D01*
X10093960Y94695910D01*
X10252710Y94537160D01*
X10816960Y94534088D01*
X10941442Y94546348D01*
X11061140Y94582658D01*
X11171454Y94641623D01*
X11268145Y94720975D01*
X11347497Y94817666D01*
X11406462Y94927980D01*
X11427353Y94996847D01*
X11451826Y94967026D01*
X11677946Y94781454D01*
X11935926Y94643561D01*
X12215849Y94558647D01*
X12434010Y94537160D01*
X12487159Y94537160D01*
X11715858Y93765859D01*
X7650921Y93765859D01*
X7613598Y93769535D01*
X7576276Y93765859D01*
X7576266Y93765859D01*
X7464613Y93754862D01*
X7321352Y93711405D01*
X7189374Y93640860D01*
X7111661Y93640860D01*
X6911702Y93601086D01*
X6723344Y93523065D01*
X6553826Y93409797D01*
X6409663Y93265634D01*
X6296395Y93096116D01*
X6218374Y92907758D01*
X6178600Y92707799D01*
X6178600Y92503921D01*
X6218374Y92303962D01*
X6296395Y92115604D01*
X6409663Y91946086D01*
X6553826Y91801923D01*
X6723344Y91688655D01*
X6911702Y91610634D01*
X7111661Y91570860D01*
X7315539Y91570860D01*
X7425035Y91592640D01*
X7399343Y91561334D01*
X7340378Y91451020D01*
X7304068Y91331322D01*
X7291808Y91206840D01*
X7294880Y90730590D01*
X7453630Y90571840D01*
X8564880Y90571840D01*
X8564880Y91683090D01*
X8818880Y91683090D01*
X8818880Y90571840D01*
X9930130Y90571840D01*
X10088880Y90730590D01*
X10091952Y91206840D01*
X10079692Y91331322D01*
X10043382Y91451020D01*
X9984417Y91561334D01*
X9905065Y91658025D01*
X9808374Y91737377D01*
X9698060Y91796342D01*
X9578362Y91832652D01*
X9453880Y91844912D01*
X8977630Y91841840D01*
X8818880Y91683090D01*
X8564880Y91683090D01*
X8406130Y91841840D01*
X7929880Y91844912D01*
X7914886Y91843435D01*
X8017537Y91946086D01*
X8130805Y92115604D01*
X8184759Y92245859D01*
X11993337Y92245859D01*
X12030659Y92242183D01*
X12067981Y92245859D01*
X12067992Y92245859D01*
X12179645Y92256856D01*
X12322906Y92300313D01*
X12454935Y92370885D01*
X12570660Y92465858D01*
X12594463Y92494862D01*
X14680965Y94581363D01*
X14755849Y94558647D01*
X14974010Y94537160D01*
X15119910Y94537160D01*
X15338071Y94558647D01*
X15617994Y94643561D01*
X15875974Y94781454D01*
X15976961Y94864332D01*
X15976961Y94804723D01*
X10032082Y88859843D01*
X9929885Y89106567D01*
X9867114Y89200510D01*
X9905065Y89231655D01*
X9984417Y89328346D01*
X10043382Y89438660D01*
X10079692Y89558358D01*
X10091952Y89682840D01*
X10088880Y90159090D01*
X9930130Y90317840D01*
X8818880Y90317840D01*
X8818880Y90297840D01*
X8564880Y90297840D01*
X8564880Y90317840D01*
X7453630Y90317840D01*
X7294880Y90159090D01*
X7291808Y89682840D01*
X7304068Y89558358D01*
X7340378Y89438660D01*
X7399343Y89328346D01*
X7478695Y89231655D01*
X7516646Y89200510D01*
X7453875Y89106567D01*
X7348566Y88852330D01*
X7294880Y88582432D01*
X7294880Y88307248D01*
X7325508Y88153269D01*
X7093877Y87921638D01*
X7064879Y87897840D01*
X7041081Y87868842D01*
X7041080Y87868841D01*
X6969905Y87782115D01*
X6899333Y87650085D01*
X6855877Y87506824D01*
X6841203Y87357839D01*
X6844880Y87320507D01*
X6844879Y80874764D01*
X6841203Y80837441D01*
X6844879Y80800119D01*
X6844879Y80800109D01*
X6855876Y80688456D01*
X6894772Y80560230D01*
X6899333Y80545195D01*
X6969905Y80413165D01*
X6979650Y80401291D01*
X7064878Y80297440D01*
X7093881Y80273638D01*
X7184828Y80182691D01*
X7184828Y79675670D01*
X7201772Y79503635D01*
X7251953Y79338211D01*
X7333442Y79185756D01*
X7443108Y79052128D01*
X7576736Y78942462D01*
X7729191Y78860973D01*
X7894615Y78810792D01*
X8066650Y78793848D01*
X8554150Y78793848D01*
X8726185Y78810792D01*
X8891609Y78860973D01*
X9044064Y78942462D01*
X9177692Y79052128D01*
X9247900Y79137676D01*
X9318108Y79052128D01*
X9451736Y78942462D01*
X9604191Y78860973D01*
X9769615Y78810792D01*
X9941650Y78793848D01*
X10429150Y78793848D01*
X10601185Y78810792D01*
X10766609Y78860973D01*
X10919064Y78942462D01*
X11052692Y79052128D01*
X11162358Y79185756D01*
X11243847Y79338211D01*
X11254073Y79371920D01*
X12379198Y79371920D01*
X12431660Y79343878D01*
X12551358Y79307568D01*
X12675840Y79295308D01*
X13039110Y79295308D01*
X13118400Y79216018D01*
X13095303Y79187874D01*
X13071520Y79143380D01*
X12878542Y79143380D01*
X12841219Y79147056D01*
X12803896Y79143380D01*
X12803887Y79143380D01*
X12692234Y79132383D01*
X12548973Y79088926D01*
X12416944Y79018354D01*
X12301219Y78923381D01*
X12277421Y78894383D01*
X11369879Y77986840D01*
X11307741Y77986840D01*
X11107782Y77947066D01*
X10919424Y77869045D01*
X10749906Y77755777D01*
X10605743Y77611614D01*
X10492475Y77442096D01*
X10414454Y77253738D01*
X10374680Y77053779D01*
X10374680Y76849901D01*
X10414454Y76649942D01*
X10492475Y76461584D01*
X10605743Y76292066D01*
X10749906Y76147903D01*
X10919424Y76034635D01*
X11107782Y75956614D01*
X11307741Y75916840D01*
X11511619Y75916840D01*
X11711578Y75956614D01*
X11899936Y76034635D01*
X12069454Y76147903D01*
X12213617Y76292066D01*
X12326885Y76461584D01*
X12404906Y76649942D01*
X12444680Y76849901D01*
X12444680Y76912039D01*
X12455481Y76922839D01*
X12447968Y76846560D01*
X12447968Y75846560D01*
X12460228Y75722078D01*
X12496538Y75602380D01*
X12555503Y75492066D01*
X12634855Y75395375D01*
X12694336Y75346560D01*
X12634855Y75297745D01*
X12555503Y75201054D01*
X12496538Y75090740D01*
X12460228Y74971042D01*
X12447968Y74846560D01*
X12447968Y74660067D01*
X12190662Y74402760D01*
X11213806Y74402760D01*
X11211289Y74407469D01*
X11101623Y74541098D01*
X10967995Y74650763D01*
X10815539Y74732252D01*
X10807670Y74734639D01*
X10855083Y74823342D01*
X10891393Y74943039D01*
X10903654Y75067521D01*
X10891394Y75192003D01*
X10855084Y75311701D01*
X10775039Y75496918D01*
X10567622Y75582833D01*
X9598241Y75181302D01*
X9605895Y75162824D01*
X9371230Y75065623D01*
X9363576Y75084101D01*
X8394195Y74682570D01*
X8308281Y74475153D01*
X8382649Y74287585D01*
X8441613Y74177270D01*
X8520965Y74080579D01*
X8617657Y74001227D01*
X8727971Y73942263D01*
X8824220Y73913066D01*
X8820344Y73905815D01*
X8770163Y73740391D01*
X8753219Y73568356D01*
X8770163Y73396321D01*
X8820344Y73230897D01*
X8942984Y72934817D01*
X8227901Y72219733D01*
X7614804Y72832830D01*
X7518113Y72912182D01*
X7407799Y72971147D01*
X7288101Y73007457D01*
X7163619Y73019717D01*
X7087042Y73012175D01*
X7094584Y73088752D01*
X7082324Y73213233D01*
X7046015Y73332931D01*
X6987050Y73443245D01*
X6907697Y73539937D01*
X6754028Y73689262D01*
X6529521Y73689262D01*
X6070432Y73230173D01*
X6084575Y73216031D01*
X5904969Y73036425D01*
X5890827Y73050568D01*
X5876685Y73036426D01*
X5697080Y73216031D01*
X5711222Y73230173D01*
X5110711Y73830683D01*
X4886205Y73830683D01*
X4873957Y73822779D01*
X4794604Y73726088D01*
X4735639Y73615774D01*
X4700809Y73500952D01*
X4585987Y73466121D01*
X4475673Y73407156D01*
X4378982Y73327804D01*
X3954718Y72903540D01*
X3875366Y72806849D01*
X3816401Y72696535D01*
X3780091Y72576837D01*
X3767831Y72452355D01*
X3780091Y72327873D01*
X3811194Y72225341D01*
X3414119Y71828266D01*
X3385121Y71804468D01*
X3361323Y71775470D01*
X3361322Y71775469D01*
X3290147Y71688743D01*
X3219575Y71556713D01*
X3199135Y71489327D01*
X3177487Y71417961D01*
X3176119Y71413452D01*
X3161445Y71264467D01*
X3165122Y71227135D01*
X3165122Y70108187D01*
X3018233Y70171668D01*
X2898535Y70207978D01*
X2774053Y70220238D01*
X2649571Y70207977D01*
X2529874Y70171667D01*
X2419560Y70112703D01*
X2322868Y70033351D01*
X2243515Y69936660D01*
X2184551Y69826345D01*
X2028863Y69442453D01*
X2114778Y69235036D01*
X2887834Y68914825D01*
X2895488Y68933303D01*
X3130153Y68836102D01*
X3122499Y68817624D01*
X3140977Y68809970D01*
X3043776Y68575305D01*
X3025298Y68582959D01*
X2623767Y67613578D01*
X2709682Y67406161D01*
X2894899Y67326116D01*
X2960286Y67306281D01*
X2960285Y65613952D01*
X2908855Y65571745D01*
X2860040Y65512264D01*
X2811225Y65571745D01*
X2714534Y65651097D01*
X2604220Y65710062D01*
X2484522Y65746372D01*
X2360040Y65758632D01*
X2145790Y65755560D01*
X1987040Y65596810D01*
X1987040Y64947560D01*
X2007040Y64947560D01*
X2007040Y64693560D01*
X1987040Y64693560D01*
X1987040Y64673560D01*
X1733040Y64673560D01*
X1733040Y64693560D01*
X883790Y64693560D01*
X725040Y64534810D01*
X721968Y64520560D01*
X734228Y64396078D01*
X770538Y64276380D01*
X827101Y64170560D01*
X770538Y64064740D01*
X734228Y63945042D01*
X721968Y63820560D01*
X721968Y63220560D01*
X734228Y63096078D01*
X770538Y62976380D01*
X829503Y62866066D01*
X908855Y62769375D01*
X1005546Y62690023D01*
X1115860Y62631058D01*
X1192118Y62607925D01*
X1225066Y62546284D01*
X1250139Y62515733D01*
X1320039Y62430559D01*
X1349043Y62406756D01*
X2803587Y60952211D01*
X2712219Y60912725D01*
X2626304Y60705308D01*
X2960373Y59898795D01*
X2959146Y59886337D01*
X2962822Y59849015D01*
X2962822Y59849005D01*
X2973819Y59737352D01*
X3006082Y59630994D01*
X3017276Y59594091D01*
X3087848Y59462061D01*
X3095644Y59452562D01*
X3182821Y59346336D01*
X3192498Y59338394D01*
X3526567Y58531881D01*
X3733984Y58445967D01*
X3921552Y58520335D01*
X3981813Y58552545D01*
X5188745Y57345613D01*
X5182044Y57277578D01*
X5189586Y57201001D01*
X5113009Y57208543D01*
X4988528Y57196283D01*
X4868830Y57159974D01*
X4758516Y57101009D01*
X4661824Y57021656D01*
X4512499Y56867987D01*
X4512499Y56643480D01*
X4971588Y56184391D01*
X4985730Y56198534D01*
X5165336Y56018928D01*
X5151193Y56004786D01*
X5165336Y55990644D01*
X4985731Y55811039D01*
X4971588Y55825181D01*
X4371078Y55224670D01*
X4371078Y55000164D01*
X4378982Y54987916D01*
X4475673Y54908563D01*
X4585987Y54849598D01*
X4700809Y54814768D01*
X4735640Y54699946D01*
X4794605Y54589632D01*
X4873957Y54492941D01*
X5298221Y54068677D01*
X5394912Y53989325D01*
X5505226Y53930360D01*
X5624924Y53894050D01*
X5749406Y53881790D01*
X5873888Y53894050D01*
X5976420Y53925153D01*
X6351215Y53550358D01*
X6375013Y53521359D01*
X6404011Y53497561D01*
X6490737Y53426386D01*
X6603217Y53366264D01*
X6622767Y53355814D01*
X6766028Y53312357D01*
X6877681Y53301360D01*
X6877690Y53301360D01*
X6915013Y53297684D01*
X6952336Y53301360D01*
X8089152Y53301360D01*
X8020437Y53146094D01*
X7983083Y53026718D01*
X7969737Y52902348D01*
X7980911Y52777764D01*
X8016175Y52657754D01*
X8074174Y52546930D01*
X8152680Y52449549D01*
X8248675Y52369356D01*
X8358471Y52309431D01*
X8740990Y52150399D01*
X8949149Y52234500D01*
X9276093Y53004733D01*
X9257683Y53012548D01*
X9356928Y53246356D01*
X9375339Y53238541D01*
X9383154Y53256951D01*
X9616962Y53157705D01*
X9609147Y53139295D01*
X9627557Y53131480D01*
X9528312Y52897672D01*
X9509901Y52905487D01*
X9182957Y52135255D01*
X9267059Y51927096D01*
X9647177Y51762408D01*
X9766554Y51725054D01*
X9890924Y51711708D01*
X10015508Y51722882D01*
X10135518Y51758146D01*
X10246342Y51816145D01*
X10343723Y51894650D01*
X10423916Y51990646D01*
X10483840Y52100442D01*
X10559843Y52287354D01*
X10482331Y52479202D01*
X10512149Y52470157D01*
X10542515Y52467166D01*
X10621870Y52433482D01*
X10632410Y52458313D01*
X10661135Y52455484D01*
X10698460Y52459160D01*
X12448111Y52459160D01*
X12451040Y52254910D01*
X12609790Y52096160D01*
X13259040Y52096160D01*
X13259040Y52116160D01*
X13513040Y52116160D01*
X13513040Y52096160D01*
X13533040Y52096160D01*
X13533040Y51842160D01*
X13513040Y51842160D01*
X13513040Y50992910D01*
X13671790Y50834160D01*
X13686040Y50831088D01*
X13810522Y50843348D01*
X13930220Y50879658D01*
X14036040Y50936221D01*
X14141860Y50879658D01*
X14261558Y50843348D01*
X14386040Y50831088D01*
X14986040Y50831088D01*
X15110522Y50843348D01*
X15230220Y50879658D01*
X15340534Y50938623D01*
X15437225Y51017975D01*
X15516577Y51114666D01*
X15575542Y51224980D01*
X15598674Y51301237D01*
X15660316Y51334186D01*
X15776041Y51429159D01*
X15799843Y51458162D01*
X16637561Y52295879D01*
X17509413Y52295879D01*
X17583781Y52108311D01*
X17642745Y51997996D01*
X17722097Y51901305D01*
X17818789Y51821953D01*
X17929103Y51762989D01*
X18048800Y51726679D01*
X18173282Y51714418D01*
X18297764Y51726678D01*
X18417462Y51762989D01*
X18799004Y51924353D01*
X18884918Y52131770D01*
X18564708Y52904827D01*
X17595327Y52503296D01*
X17509413Y52295879D01*
X16637561Y52295879D01*
X17252944Y52911261D01*
X17290709Y52823876D01*
X17498126Y52737961D01*
X18135639Y53002028D01*
X18799373Y53002028D01*
X19119584Y52228972D01*
X19327001Y52143057D01*
X19710893Y52298745D01*
X19821208Y52357709D01*
X19917899Y52437062D01*
X19997251Y52533754D01*
X20056215Y52644068D01*
X20092525Y52763765D01*
X20104786Y52888247D01*
X20092526Y53012729D01*
X20056216Y53132427D01*
X19976171Y53317644D01*
X19768754Y53403559D01*
X18799373Y53002028D01*
X18135639Y53002028D01*
X18304639Y53072030D01*
X18317097Y53070803D01*
X18354419Y53074479D01*
X18354430Y53074479D01*
X18466083Y53085476D01*
X18609344Y53128933D01*
X18741373Y53199505D01*
X18857098Y53294478D01*
X18865040Y53304155D01*
X19671553Y53638224D01*
X19757467Y53845641D01*
X19683099Y54033209D01*
X19650889Y54093470D01*
X20023159Y54465740D01*
X21723838Y54465740D01*
X21723838Y54241233D01*
X21873163Y54087564D01*
X21969855Y54008211D01*
X22080169Y53949246D01*
X22199867Y53912937D01*
X22324348Y53900677D01*
X22448830Y53912937D01*
X22568528Y53949246D01*
X22678842Y54008211D01*
X22775533Y54087564D01*
X22783437Y54099812D01*
X22783437Y54324318D01*
X22182927Y54924829D01*
X21723838Y54465740D01*
X20023159Y54465740D01*
X20875701Y55318281D01*
X20910135Y55314890D01*
X20986712Y55322432D01*
X20979170Y55245855D01*
X20991430Y55121374D01*
X21027739Y55001676D01*
X21086704Y54891362D01*
X21166057Y54794670D01*
X21319726Y54645345D01*
X21544233Y54645345D01*
X22003322Y55104434D01*
X21989179Y55118576D01*
X22168785Y55298182D01*
X22182927Y55284039D01*
X22197070Y55298182D01*
X22376675Y55118577D01*
X22362532Y55104434D01*
X22963043Y54503924D01*
X23187549Y54503924D01*
X23199797Y54511828D01*
X23279150Y54608519D01*
X23338115Y54718833D01*
X23372945Y54833655D01*
X23487767Y54868486D01*
X23598081Y54927451D01*
X23694772Y55006803D01*
X24119036Y55431067D01*
X24198388Y55527758D01*
X24257353Y55638072D01*
X24293663Y55757770D01*
X24305923Y55882252D01*
X24293663Y56006734D01*
X24257353Y56126432D01*
X24198388Y56236746D01*
X24119036Y56333437D01*
X23862166Y56590307D01*
X23862166Y58324444D01*
X23972402Y58434680D01*
X24780178Y58434680D01*
X24866093Y58227263D01*
X25051310Y58147218D01*
X25171008Y58110908D01*
X25295490Y58098648D01*
X25419972Y58110909D01*
X25539669Y58147219D01*
X25649983Y58206183D01*
X25746675Y58285535D01*
X25826028Y58382226D01*
X25884992Y58492541D01*
X26040680Y58876433D01*
X25954765Y59083850D01*
X25181709Y59404061D01*
X24780178Y58434680D01*
X23972402Y58434680D01*
X24090267Y58552545D01*
X24150528Y58520335D01*
X24338096Y58445967D01*
X24545513Y58531881D01*
X24879582Y59338394D01*
X24889259Y59346336D01*
X24913053Y59375329D01*
X24913057Y59375333D01*
X24971069Y59446022D01*
X24984232Y59462061D01*
X25054804Y59594090D01*
X25068343Y59638726D01*
X25278910Y59638726D01*
X26051967Y59318516D01*
X26259384Y59404430D01*
X26420748Y59785972D01*
X26457059Y59905670D01*
X26469319Y60030152D01*
X26457058Y60154634D01*
X26420748Y60274331D01*
X26361784Y60384645D01*
X26282432Y60481337D01*
X26185741Y60560689D01*
X26075426Y60619653D01*
X25887858Y60694021D01*
X25680441Y60608107D01*
X25278910Y59638726D01*
X25068343Y59638726D01*
X25098261Y59737351D01*
X25109258Y59849004D01*
X25109258Y59849013D01*
X25112934Y59886336D01*
X25111707Y59898794D01*
X25445776Y60705308D01*
X25359861Y60912725D01*
X25174644Y60992770D01*
X25109258Y61012605D01*
X25109258Y62727816D01*
X25147225Y62758975D01*
X25196040Y62818456D01*
X25244855Y62758975D01*
X25341546Y62679623D01*
X25451860Y62620658D01*
X25571558Y62584348D01*
X25696040Y62572088D01*
X25910290Y62575160D01*
X26069040Y62733910D01*
X26069040Y63383160D01*
X26049040Y63383160D01*
X26049040Y63637160D01*
X26069040Y63637160D01*
X26069040Y63657160D01*
X26323040Y63657160D01*
X26323040Y63637160D01*
X26343040Y63637160D01*
X26343040Y63383160D01*
X26323040Y63383160D01*
X26323040Y62733910D01*
X26481790Y62575160D01*
X26696040Y62572088D01*
X26820522Y62584348D01*
X26940220Y62620658D01*
X27050534Y62679623D01*
X27147225Y62758975D01*
X27226577Y62855666D01*
X27285542Y62965980D01*
X27315001Y63063092D01*
X27315001Y50742318D01*
X27225898Y50779226D01*
X27025939Y50819000D01*
X26822061Y50819000D01*
X26622102Y50779226D01*
X26433744Y50701205D01*
X26264226Y50587937D01*
X26120063Y50443774D01*
X26006795Y50274256D01*
X25928774Y50085898D01*
X25889000Y49885939D01*
X25889000Y49682061D01*
X25928774Y49482102D01*
X26006795Y49293744D01*
X26120063Y49124226D01*
X26164001Y49080288D01*
X26164000Y48419202D01*
X23808532Y46063733D01*
X23808532Y47205140D01*
X23796272Y47329622D01*
X23759962Y47449320D01*
X23700997Y47559634D01*
X23621645Y47656325D01*
X23524954Y47735677D01*
X23414640Y47794642D01*
X23294942Y47830952D01*
X23170460Y47843212D01*
X20670460Y47843212D01*
X20545978Y47830952D01*
X20426280Y47794642D01*
X20315966Y47735677D01*
X20219275Y47656325D01*
X20139923Y47559634D01*
X20080958Y47449320D01*
X20044648Y47329622D01*
X20032388Y47205140D01*
X20032388Y45205140D01*
X20041332Y45114325D01*
X19940966Y45060677D01*
X19844275Y44981325D01*
X19764923Y44884634D01*
X19705958Y44774320D01*
X19669648Y44654622D01*
X19657388Y44530140D01*
X19657388Y42930140D01*
X19669648Y42805658D01*
X19705958Y42685960D01*
X19764923Y42575646D01*
X19844275Y42478955D01*
X19940966Y42399603D01*
X19943204Y42398407D01*
X15639084Y38094285D01*
X15610080Y38070482D01*
X15572700Y38024934D01*
X15515107Y37954757D01*
X15454634Y37841620D01*
X15444535Y37822727D01*
X15401078Y37679466D01*
X15390081Y37567813D01*
X15390081Y37567803D01*
X15386405Y37530481D01*
X15390081Y37493158D01*
X15390081Y36743212D01*
X12320460Y36743212D01*
X12195978Y36730952D01*
X12076280Y36694642D01*
X11965966Y36635677D01*
X11869275Y36556325D01*
X11789923Y36459634D01*
X11730958Y36349320D01*
X11694648Y36229622D01*
X11682388Y36105140D01*
X11682388Y33105140D01*
X11694648Y32980658D01*
X11730958Y32860960D01*
X11789923Y32750646D01*
X11869275Y32653955D01*
X11965966Y32574603D01*
X12076280Y32515638D01*
X12195978Y32479328D01*
X12320460Y32467068D01*
X14696868Y32467068D01*
X9675562Y27445761D01*
X9553282Y27445761D01*
X9515959Y27449437D01*
X9478637Y27445761D01*
X9478626Y27445761D01*
X9366973Y27434764D01*
X9223712Y27391307D01*
X9091683Y27320735D01*
X8975958Y27225762D01*
X8952155Y27196758D01*
X8939962Y27184565D01*
X8910958Y27160762D01*
X8855845Y27093606D01*
X8815985Y27045037D01*
X8753460Y26928061D01*
X8745413Y26913007D01*
X8701956Y26769746D01*
X8690959Y26658093D01*
X8690959Y26658083D01*
X8687283Y26620761D01*
X8690959Y26583438D01*
X8690960Y24348093D01*
X8687283Y24310761D01*
X8701957Y24161776D01*
X8745413Y24018515D01*
X8815985Y23886485D01*
X8887160Y23799759D01*
X8910959Y23770760D01*
X8939957Y23746962D01*
X9695965Y22990953D01*
X9651478Y22986572D01*
X9531780Y22950262D01*
X9421466Y22891297D01*
X9324775Y22811945D01*
X9245423Y22715254D01*
X9186458Y22604940D01*
X9150148Y22485242D01*
X9137888Y22360760D01*
X9137888Y21360760D01*
X9150148Y21236278D01*
X9186458Y21116580D01*
X9245423Y21006266D01*
X9324775Y20909575D01*
X9421466Y20830223D01*
X9531780Y20771258D01*
X9651478Y20734948D01*
X9775960Y20722688D01*
X10689681Y20722688D01*
X10689680Y15204043D01*
X10625198Y15197692D01*
X10505500Y15161382D01*
X10395186Y15102417D01*
X10298495Y15023065D01*
X10219143Y14926374D01*
X10160178Y14816060D01*
X10123868Y14696362D01*
X10111608Y14571880D01*
X10111608Y11871880D01*
X10123868Y11747398D01*
X10160178Y11627700D01*
X10219143Y11517386D01*
X10298495Y11420695D01*
X10395186Y11341343D01*
X10505500Y11282378D01*
X10625198Y11246068D01*
X10689680Y11239717D01*
X10689681Y9404043D01*
X10625198Y9397692D01*
X10505500Y9361382D01*
X10395186Y9302417D01*
X10298495Y9223065D01*
X10219143Y9126374D01*
X10160178Y9016060D01*
X10123868Y8896362D01*
X10111608Y8771880D01*
X10111608Y8299400D01*
X9920901Y8299400D01*
X9720942Y8259626D01*
X9532584Y8181605D01*
X9363066Y8068337D01*
X9218903Y7924174D01*
X9105635Y7754656D01*
X9027614Y7566298D01*
X8987840Y7366339D01*
X8987840Y7162461D01*
X9027614Y6962502D01*
X9105635Y6774144D01*
X9218903Y6604626D01*
X9363066Y6460463D01*
X9532584Y6347195D01*
X9720942Y6269174D01*
X9920901Y6229400D01*
X10111608Y6229400D01*
X10111608Y6071880D01*
X10123868Y5947398D01*
X10160178Y5827700D01*
X10219143Y5717386D01*
X10298495Y5620695D01*
X10395186Y5541343D01*
X10505500Y5482378D01*
X10625198Y5446068D01*
X10749680Y5433808D01*
X12149680Y5433808D01*
X12274162Y5446068D01*
X12393860Y5482378D01*
X12504174Y5541343D01*
X12600865Y5620695D01*
X12680217Y5717386D01*
X12699680Y5753798D01*
X12719143Y5717386D01*
X12798495Y5620695D01*
X12895186Y5541343D01*
X13005500Y5482378D01*
X13125198Y5446068D01*
X13249680Y5433808D01*
X14649680Y5433808D01*
X14774162Y5446068D01*
X14893860Y5482378D01*
X15004174Y5541343D01*
X15100865Y5620695D01*
X15180217Y5717386D01*
X15199680Y5753798D01*
X15219143Y5717386D01*
X15298495Y5620695D01*
X15395186Y5541343D01*
X15505500Y5482378D01*
X15625198Y5446068D01*
X15749680Y5433808D01*
X16163930Y5436880D01*
X16322680Y5595630D01*
X16322680Y7294880D01*
X16576680Y7294880D01*
X16576680Y5595630D01*
X16735430Y5436880D01*
X17149680Y5433808D01*
X17274162Y5446068D01*
X17393860Y5482378D01*
X17504174Y5541343D01*
X17600865Y5620695D01*
X17680217Y5717386D01*
X17739182Y5827700D01*
X17752674Y5872180D01*
X19921728Y5872180D01*
X19933988Y5747698D01*
X19970298Y5628000D01*
X20029263Y5517686D01*
X20108615Y5420995D01*
X20205306Y5341643D01*
X20315620Y5282678D01*
X20435318Y5246368D01*
X20559800Y5234108D01*
X20974050Y5237180D01*
X21132800Y5395930D01*
X21132800Y6232680D01*
X21386800Y6232680D01*
X21386800Y5395930D01*
X21545550Y5237180D01*
X21959800Y5234108D01*
X22084282Y5246368D01*
X22203980Y5282678D01*
X22314294Y5341643D01*
X22410985Y5420995D01*
X22490337Y5517686D01*
X22549302Y5628000D01*
X22585612Y5747698D01*
X22597872Y5872180D01*
X22594800Y6073930D01*
X22436050Y6232680D01*
X21386800Y6232680D01*
X21132800Y6232680D01*
X20083550Y6232680D01*
X19924800Y6073930D01*
X19921728Y5872180D01*
X17752674Y5872180D01*
X17775492Y5947398D01*
X17787752Y6071880D01*
X17784680Y7136130D01*
X17625930Y7294880D01*
X16576680Y7294880D01*
X16322680Y7294880D01*
X16302680Y7294880D01*
X16302680Y7548880D01*
X16322680Y7548880D01*
X16322680Y9248130D01*
X16576680Y9248130D01*
X16576680Y7548880D01*
X17625930Y7548880D01*
X17784680Y7707630D01*
X17787752Y8771880D01*
X17775492Y8896362D01*
X17739182Y9016060D01*
X17680217Y9126374D01*
X17600865Y9223065D01*
X17504174Y9302417D01*
X17393860Y9361382D01*
X17274162Y9397692D01*
X17149680Y9409952D01*
X16735430Y9406880D01*
X16576680Y9248130D01*
X16322680Y9248130D01*
X16163930Y9406880D01*
X15749680Y9409952D01*
X15625198Y9397692D01*
X15505500Y9361382D01*
X15395186Y9302417D01*
X15298495Y9223065D01*
X15219143Y9126374D01*
X15199680Y9089962D01*
X15180217Y9126374D01*
X15100865Y9223065D01*
X15004174Y9302417D01*
X14893860Y9361382D01*
X14774162Y9397692D01*
X14709680Y9404043D01*
X14709680Y11239717D01*
X14774162Y11246068D01*
X14893860Y11282378D01*
X15004174Y11341343D01*
X15100865Y11420695D01*
X15180217Y11517386D01*
X15199680Y11553798D01*
X15219143Y11517386D01*
X15298495Y11420695D01*
X15395186Y11341343D01*
X15505500Y11282378D01*
X15625198Y11246068D01*
X15749680Y11233808D01*
X16163930Y11236880D01*
X16322680Y11395630D01*
X16322680Y13094880D01*
X16576680Y13094880D01*
X16576680Y11395630D01*
X16735430Y11236880D01*
X17149680Y11233808D01*
X17274162Y11246068D01*
X17393860Y11282378D01*
X17504174Y11341343D01*
X17600865Y11420695D01*
X17680217Y11517386D01*
X17739182Y11627700D01*
X17775492Y11747398D01*
X17787752Y11871880D01*
X17784680Y12936130D01*
X17625930Y13094880D01*
X16576680Y13094880D01*
X16322680Y13094880D01*
X16302680Y13094880D01*
X16302680Y13348880D01*
X16322680Y13348880D01*
X16322680Y13368880D01*
X16576680Y13368880D01*
X16576680Y13348880D01*
X17625930Y13348880D01*
X17725044Y13447994D01*
X20499801Y10673237D01*
X20499800Y9303353D01*
X20466091Y9293127D01*
X20313636Y9211638D01*
X20180008Y9101972D01*
X20070342Y8968344D01*
X19988853Y8815889D01*
X19938672Y8650465D01*
X19921728Y8478430D01*
X19921728Y7990930D01*
X19938672Y7818895D01*
X19988853Y7653471D01*
X20070342Y7501016D01*
X20180008Y7367388D01*
X20186364Y7362172D01*
X20108615Y7298365D01*
X20029263Y7201674D01*
X19970298Y7091360D01*
X19933988Y6971662D01*
X19921728Y6847180D01*
X19924800Y6645430D01*
X20083550Y6486680D01*
X21132800Y6486680D01*
X21132800Y6506680D01*
X21386800Y6506680D01*
X21386800Y6486680D01*
X22436050Y6486680D01*
X22594800Y6645430D01*
X22597872Y6847180D01*
X22585612Y6971662D01*
X22549302Y7091360D01*
X22490337Y7201674D01*
X22410985Y7298365D01*
X22333236Y7362172D01*
X22339592Y7367388D01*
X22449258Y7501016D01*
X22530747Y7653471D01*
X22580928Y7818895D01*
X22597872Y7990930D01*
X22597872Y8478430D01*
X22580928Y8650465D01*
X22530747Y8815889D01*
X22449258Y8968344D01*
X22339592Y9101972D01*
X22205964Y9211638D01*
X22053509Y9293127D01*
X22019800Y9303353D01*
X22019800Y10950717D01*
X22023476Y10988040D01*
X22019800Y11025363D01*
X22019800Y11025373D01*
X22008803Y11137026D01*
X21965346Y11280287D01*
X21938970Y11329633D01*
X21894774Y11412317D01*
X21823599Y11499043D01*
X21799801Y11528041D01*
X21770803Y11551839D01*
X17914763Y15407878D01*
X17890960Y15436882D01*
X17775235Y15531855D01*
X17643206Y15602427D01*
X17499945Y15645884D01*
X17388292Y15656881D01*
X17388281Y15656881D01*
X17350959Y15660557D01*
X17313637Y15656881D01*
X15012003Y15656881D01*
X14974680Y15660557D01*
X14937357Y15656881D01*
X14937348Y15656881D01*
X14825695Y15645884D01*
X14746166Y15621760D01*
X14751000Y15646061D01*
X14751000Y15849939D01*
X14711226Y16049898D01*
X14633205Y16238256D01*
X14519937Y16407774D01*
X14375774Y16551937D01*
X14206256Y16665205D01*
X14017898Y16743226D01*
X13817939Y16783000D01*
X13614061Y16783000D01*
X13414102Y16743226D01*
X13225744Y16665205D01*
X13056226Y16551937D01*
X12912063Y16407774D01*
X12798795Y16238256D01*
X12720774Y16049898D01*
X12681000Y15849939D01*
X12681000Y15646061D01*
X12720774Y15446102D01*
X12798795Y15257744D01*
X12900635Y15105330D01*
X12895186Y15102417D01*
X12798495Y15023065D01*
X12719143Y14926374D01*
X12699680Y14889962D01*
X12680217Y14926374D01*
X12600865Y15023065D01*
X12504174Y15102417D01*
X12393860Y15161382D01*
X12274162Y15197692D01*
X12209680Y15204043D01*
X12209680Y20722688D01*
X12525960Y20722688D01*
X12650442Y20734948D01*
X12770140Y20771258D01*
X12880454Y20830223D01*
X12977145Y20909575D01*
X13056497Y21006266D01*
X13107006Y21100760D01*
X14954914Y21100760D01*
X15005423Y21006266D01*
X15084775Y20909575D01*
X15181466Y20830223D01*
X15291780Y20771258D01*
X15411478Y20734948D01*
X15535960Y20722688D01*
X18285960Y20722688D01*
X18410442Y20734948D01*
X18530140Y20771258D01*
X18640454Y20830223D01*
X18737145Y20909575D01*
X18816497Y21006266D01*
X18875462Y21116580D01*
X18911772Y21236278D01*
X18924032Y21360760D01*
X18924032Y22360760D01*
X18911772Y22485242D01*
X18899045Y22527200D01*
X19987768Y22527200D01*
X20000028Y22402718D01*
X20036338Y22283020D01*
X20095303Y22172706D01*
X20174655Y22076015D01*
X20271346Y21996663D01*
X20381660Y21937698D01*
X20501358Y21901388D01*
X20625840Y21889128D01*
X21040090Y21892200D01*
X21198840Y22050950D01*
X21198840Y22887700D01*
X21452840Y22887700D01*
X21452840Y22050950D01*
X21611590Y21892200D01*
X22025840Y21889128D01*
X22150322Y21901388D01*
X22270020Y21937698D01*
X22380334Y21996663D01*
X22477025Y22076015D01*
X22556377Y22172706D01*
X22615342Y22283020D01*
X22651652Y22402718D01*
X22663912Y22527200D01*
X22660840Y22728950D01*
X22502090Y22887700D01*
X21452840Y22887700D01*
X21198840Y22887700D01*
X20149590Y22887700D01*
X19990840Y22728950D01*
X19987768Y22527200D01*
X18899045Y22527200D01*
X18875462Y22604940D01*
X18816497Y22715254D01*
X18737145Y22811945D01*
X18640454Y22891297D01*
X18530140Y22950262D01*
X18410442Y22986572D01*
X18285960Y22998832D01*
X15535960Y22998832D01*
X15411478Y22986572D01*
X15291780Y22950262D01*
X15181466Y22891297D01*
X15084775Y22811945D01*
X15005423Y22715254D01*
X14954914Y22620760D01*
X13107006Y22620760D01*
X13056497Y22715254D01*
X12977145Y22811945D01*
X12880454Y22891297D01*
X12770140Y22950262D01*
X12650442Y22986572D01*
X12525960Y22998832D01*
X11805286Y22998832D01*
X11785934Y23035036D01*
X11772771Y23051075D01*
X11714759Y23121764D01*
X11714755Y23121768D01*
X11690961Y23150761D01*
X11661969Y23174554D01*
X10210959Y24625562D01*
X10210959Y24722688D01*
X12525960Y24722688D01*
X12650442Y24734948D01*
X12770140Y24771258D01*
X12880454Y24830223D01*
X12977145Y24909575D01*
X13056497Y25006266D01*
X13107006Y25100760D01*
X14954914Y25100760D01*
X15005423Y25006266D01*
X15084775Y24909575D01*
X15181466Y24830223D01*
X15291780Y24771258D01*
X15411478Y24734948D01*
X15535960Y24722688D01*
X18285960Y24722688D01*
X18410442Y24734948D01*
X18530140Y24771258D01*
X18640454Y24830223D01*
X18737145Y24909575D01*
X18816497Y25006266D01*
X18867006Y25100760D01*
X19987768Y25100760D01*
X19987768Y24645950D01*
X20004712Y24473915D01*
X20054893Y24308491D01*
X20136382Y24156036D01*
X20246048Y24022408D01*
X20252404Y24017192D01*
X20174655Y23953385D01*
X20095303Y23856694D01*
X20036338Y23746380D01*
X20000028Y23626682D01*
X19987768Y23502200D01*
X19990840Y23300450D01*
X20149590Y23141700D01*
X21198840Y23141700D01*
X21198840Y23161700D01*
X21452840Y23161700D01*
X21452840Y23141700D01*
X22502090Y23141700D01*
X22660840Y23300450D01*
X22663912Y23502200D01*
X22651652Y23626682D01*
X22615342Y23746380D01*
X22556377Y23856694D01*
X22477025Y23953385D01*
X22399276Y24017192D01*
X22405632Y24022408D01*
X22515298Y24156036D01*
X22596787Y24308491D01*
X22646968Y24473915D01*
X22663912Y24645950D01*
X22663912Y25133450D01*
X22646968Y25305485D01*
X22596787Y25470909D01*
X22515298Y25623364D01*
X22405632Y25756992D01*
X22272004Y25866658D01*
X22119549Y25948147D01*
X21954125Y25998328D01*
X21782090Y26015272D01*
X21275069Y26015272D01*
X21261148Y26029193D01*
X21284746Y26086162D01*
X21324520Y26286121D01*
X21324520Y26489999D01*
X21284746Y26689958D01*
X21206725Y26878316D01*
X21093457Y27047834D01*
X20949294Y27191997D01*
X20779776Y27305265D01*
X20591418Y27383286D01*
X20391459Y27423060D01*
X20187581Y27423060D01*
X19987622Y27383286D01*
X19799264Y27305265D01*
X19629746Y27191997D01*
X19485583Y27047834D01*
X19372315Y26878316D01*
X19294294Y26689958D01*
X19280530Y26620760D01*
X18867006Y26620760D01*
X18816497Y26715254D01*
X18737145Y26811945D01*
X18640454Y26891297D01*
X18530140Y26950262D01*
X18410442Y26986572D01*
X18285960Y26998832D01*
X15535960Y26998832D01*
X15411478Y26986572D01*
X15291780Y26950262D01*
X15181466Y26891297D01*
X15084775Y26811945D01*
X15005423Y26715254D01*
X14954914Y26620760D01*
X13107006Y26620760D01*
X13056497Y26715254D01*
X12977145Y26811945D01*
X12880454Y26891297D01*
X12770140Y26950262D01*
X12650442Y26986572D01*
X12525960Y26998832D01*
X11378235Y26998832D01*
X16661084Y32281680D01*
X16690082Y32305478D01*
X16785055Y32421203D01*
X16855627Y32553232D01*
X16899084Y32696493D01*
X16910081Y32808146D01*
X16910081Y32808154D01*
X16913757Y32845479D01*
X16910081Y32882804D01*
X16910081Y37215680D01*
X19224541Y39530140D01*
X19657388Y39530140D01*
X19657388Y37930140D01*
X19669648Y37805658D01*
X19705958Y37685960D01*
X19764923Y37575646D01*
X19844275Y37478955D01*
X19940966Y37399603D01*
X20036654Y37348456D01*
X20032388Y37305140D01*
X20032388Y35305140D01*
X20044648Y35180658D01*
X20080958Y35060960D01*
X20139923Y34950646D01*
X20219275Y34853955D01*
X20315966Y34774603D01*
X20426280Y34715638D01*
X20545978Y34679328D01*
X20670460Y34667068D01*
X23170460Y34667068D01*
X23294942Y34679328D01*
X23414640Y34715638D01*
X23524954Y34774603D01*
X23621645Y34853955D01*
X23700997Y34950646D01*
X23759962Y35060960D01*
X23796272Y35180658D01*
X23808532Y35305140D01*
X23808532Y36397226D01*
X24640000Y35565758D01*
X24640001Y31691712D01*
X24596063Y31647774D01*
X24482795Y31478256D01*
X24404774Y31289898D01*
X24365000Y31089939D01*
X24365000Y30886061D01*
X24404774Y30686102D01*
X24482795Y30497744D01*
X24596063Y30328226D01*
X24740226Y30184063D01*
X24909744Y30070795D01*
X25098102Y29992774D01*
X25298061Y29953000D01*
X25501939Y29953000D01*
X25701898Y29992774D01*
X25890256Y30070795D01*
X26059774Y30184063D01*
X26203937Y30328226D01*
X26317205Y30497744D01*
X26395226Y30686102D01*
X26435000Y30886061D01*
X26435000Y31089939D01*
X26395226Y31289898D01*
X26317205Y31478256D01*
X26203937Y31647774D01*
X26160000Y31691711D01*
X26160000Y35843227D01*
X26163677Y35880560D01*
X26149003Y36029546D01*
X26105546Y36172807D01*
X26034974Y36304836D01*
X25963799Y36391563D01*
X25940001Y36420561D01*
X25911004Y36444358D01*
X23113884Y39241477D01*
X23090081Y39270481D01*
X22974356Y39365454D01*
X22933532Y39387275D01*
X22933532Y39530140D01*
X22921272Y39654622D01*
X22884962Y39774320D01*
X22825997Y39884634D01*
X22746645Y39981325D01*
X22652769Y40058367D01*
X23165282Y40570880D01*
X23650607Y40570880D01*
X23660833Y40537171D01*
X23742322Y40384716D01*
X23851988Y40251088D01*
X23985616Y40141422D01*
X24138071Y40059933D01*
X24303495Y40009752D01*
X24475530Y39992808D01*
X24963030Y39992808D01*
X25135065Y40009752D01*
X25300489Y40059933D01*
X25452944Y40141422D01*
X25586572Y40251088D01*
X25591788Y40257444D01*
X25655595Y40179695D01*
X25752286Y40100343D01*
X25862600Y40041378D01*
X25982298Y40005068D01*
X26106780Y39992808D01*
X26308530Y39995880D01*
X26467280Y40154630D01*
X26467280Y41203880D01*
X26447280Y41203880D01*
X26447280Y41457880D01*
X26467280Y41457880D01*
X26467280Y42507130D01*
X26308530Y42665880D01*
X26106780Y42668952D01*
X25982298Y42656692D01*
X25862600Y42620382D01*
X25752286Y42561417D01*
X25655595Y42482065D01*
X25591788Y42404316D01*
X25586572Y42410672D01*
X25452944Y42520338D01*
X25300489Y42601827D01*
X25135065Y42652008D01*
X24963030Y42668952D01*
X24475530Y42668952D01*
X24303495Y42652008D01*
X24138071Y42601827D01*
X23985616Y42520338D01*
X23851988Y42410672D01*
X23742322Y42277044D01*
X23660833Y42124589D01*
X23650607Y42090880D01*
X22887805Y42090880D01*
X22850480Y42094556D01*
X22813155Y42090880D01*
X22813147Y42090880D01*
X22701494Y42079883D01*
X22558233Y42036426D01*
X22426204Y41965854D01*
X22310479Y41870881D01*
X22286681Y41841883D01*
X20789083Y40344284D01*
X20760079Y40320481D01*
X20723892Y40276386D01*
X20665106Y40204756D01*
X20645573Y40168212D01*
X20295460Y40168212D01*
X20170978Y40155952D01*
X20051280Y40119642D01*
X19940966Y40060677D01*
X19844275Y39981325D01*
X19764923Y39884634D01*
X19705958Y39774320D01*
X19669648Y39654622D01*
X19657388Y39530140D01*
X19224541Y39530140D01*
X21811088Y42116685D01*
X21840081Y42140479D01*
X21863875Y42169472D01*
X21863879Y42169476D01*
X21935053Y42256203D01*
X21935054Y42256204D01*
X21954224Y42292068D01*
X22295460Y42292068D01*
X22419942Y42304328D01*
X22539640Y42340638D01*
X22649954Y42399603D01*
X22746645Y42478955D01*
X22825997Y42575646D01*
X22884962Y42685960D01*
X22921272Y42805658D01*
X22933532Y42930140D01*
X22933532Y43073685D01*
X22974356Y43095506D01*
X23090081Y43190479D01*
X23113884Y43219483D01*
X27315000Y47420599D01*
X27315000Y42623707D01*
X27206262Y42656692D01*
X27081780Y42668952D01*
X26880030Y42665880D01*
X26721280Y42507130D01*
X26721280Y41457880D01*
X26741280Y41457880D01*
X26741280Y41203880D01*
X26721280Y41203880D01*
X26721280Y40154630D01*
X26880030Y39995880D01*
X27081780Y39992808D01*
X27206262Y40005068D01*
X27315000Y40038053D01*
X27315000Y3814646D01*
X27171759Y4066796D01*
X26877813Y4407336D01*
X26523321Y4684296D01*
X26121785Y4887126D01*
X25688499Y5008102D01*
X25239968Y5042614D01*
X24793275Y4989350D01*
X24365435Y4850336D01*
X23972745Y4630869D01*
X23630162Y4339308D01*
X23350734Y3986757D01*
X23145105Y3586647D01*
X23021108Y3154217D01*
X22983465Y2705937D01*
X23033610Y2258884D01*
X23169633Y1830084D01*
X23386353Y1435871D01*
X23675516Y1091260D01*
X24026107Y809378D01*
X24264020Y685000D01*
X3761302Y685000D01*
X4052460Y842428D01*
X4399081Y1129178D01*
X4683403Y1477792D01*
X4894599Y1874993D01*
X5024622Y2305650D01*
X5068520Y2753360D01*
X5067621Y2817719D01*
X5011239Y3264029D01*
X4869242Y3690888D01*
X4647039Y4082036D01*
X4353093Y4422576D01*
X3998601Y4699536D01*
X3597065Y4902366D01*
X3163779Y5023342D01*
X2715248Y5057854D01*
X2268555Y5004590D01*
X1840715Y4865576D01*
X1448025Y4646109D01*
X1105442Y4354548D01*
X826014Y4001997D01*
X685000Y3727614D01*
X685000Y34286707D01*
X823171Y34212853D01*
X988595Y34162672D01*
X1160630Y34145728D01*
X1648130Y34145728D01*
X1820165Y34162672D01*
X1985589Y34212853D01*
X2138044Y34294342D01*
X2271672Y34404008D01*
X2341880Y34489556D01*
X2412088Y34404008D01*
X2519380Y34315955D01*
X2519381Y30133249D01*
X2511795Y30121896D01*
X2433774Y29933538D01*
X2394000Y29733579D01*
X2394000Y29529701D01*
X2433774Y29329742D01*
X2511795Y29141384D01*
X2625063Y28971866D01*
X2769226Y28827703D01*
X2938744Y28714435D01*
X3127102Y28636414D01*
X3327061Y28596640D01*
X3530939Y28596640D01*
X3730898Y28636414D01*
X3919256Y28714435D01*
X4088774Y28827703D01*
X4232937Y28971866D01*
X4346205Y29141384D01*
X4424226Y29329742D01*
X4464000Y29529701D01*
X4464000Y29733579D01*
X4424226Y29933538D01*
X4346205Y30121896D01*
X4232937Y30291414D01*
X4088774Y30435577D01*
X4039380Y30468581D01*
X4039380Y34315955D01*
X4146672Y34404008D01*
X4256338Y34537636D01*
X4337827Y34690091D01*
X4388008Y34855515D01*
X4404952Y35027550D01*
X4404952Y35041071D01*
X4439923Y34975646D01*
X4519275Y34878955D01*
X4615966Y34799603D01*
X4726280Y34740638D01*
X4845978Y34704328D01*
X4970460Y34692068D01*
X7470460Y34692068D01*
X7594942Y34704328D01*
X7714640Y34740638D01*
X7824954Y34799603D01*
X7921645Y34878955D01*
X8000997Y34975646D01*
X8059962Y35085960D01*
X8096272Y35205658D01*
X8108532Y35330140D01*
X8108532Y37330140D01*
X8096272Y37454622D01*
X8059962Y37574320D01*
X8057765Y37578430D01*
X8075997Y37600646D01*
X8134962Y37710960D01*
X8171272Y37830658D01*
X8183532Y37955140D01*
X8183532Y39555140D01*
X8171272Y39679622D01*
X8134962Y39799320D01*
X8075997Y39909634D01*
X7997618Y40005140D01*
X8075997Y40100646D01*
X8134962Y40210960D01*
X8171272Y40330658D01*
X8183532Y40455140D01*
X8180460Y40969390D01*
X8021710Y41128140D01*
X6672460Y41128140D01*
X6672460Y41108140D01*
X6418460Y41108140D01*
X6418460Y41128140D01*
X5069210Y41128140D01*
X4910460Y40969390D01*
X4907388Y40455140D01*
X4919648Y40330658D01*
X4955958Y40210960D01*
X5014923Y40100646D01*
X5093302Y40005140D01*
X5014923Y39909634D01*
X4955958Y39799320D01*
X4919648Y39679622D01*
X4907388Y39555140D01*
X4907388Y38465480D01*
X4851890Y38465480D01*
X4851890Y39440307D01*
X4855567Y39477640D01*
X4840893Y39626626D01*
X4797436Y39769887D01*
X4791774Y39780480D01*
X4726864Y39901916D01*
X4631891Y40017641D01*
X4602887Y40041444D01*
X4322524Y40321807D01*
X4298721Y40350811D01*
X4182996Y40445784D01*
X4122514Y40478113D01*
X5047876Y41403474D01*
X5069210Y41382140D01*
X6418460Y41382140D01*
X6418460Y41402140D01*
X6672460Y41402140D01*
X6672460Y41382140D01*
X8021710Y41382140D01*
X8180460Y41540890D01*
X8183532Y42055140D01*
X8171272Y42179622D01*
X8134962Y42299320D01*
X8075997Y42409634D01*
X7996645Y42506325D01*
X7982858Y42517640D01*
X7996645Y42528955D01*
X8075997Y42625646D01*
X8134962Y42735960D01*
X8171272Y42855658D01*
X8183532Y42980140D01*
X8183532Y44580140D01*
X8171272Y44704622D01*
X8134962Y44824320D01*
X8075997Y44934634D01*
X8057765Y44956850D01*
X8059962Y44960960D01*
X8096272Y45080658D01*
X8108532Y45205140D01*
X8108532Y47205140D01*
X8096272Y47329622D01*
X8059962Y47449320D01*
X8000997Y47559634D01*
X7921645Y47656325D01*
X7824954Y47735677D01*
X7714640Y47794642D01*
X7594942Y47830952D01*
X7470460Y47843212D01*
X4970460Y47843212D01*
X4845978Y47830952D01*
X4726280Y47794642D01*
X4615966Y47735677D01*
X4519275Y47656325D01*
X4439923Y47559634D01*
X4402652Y47489906D01*
X4402652Y47613890D01*
X4385708Y47785925D01*
X4335527Y47951349D01*
X4254038Y48103804D01*
X4144372Y48237432D01*
X4010744Y48347098D01*
X3858289Y48428587D01*
X3692865Y48478768D01*
X3520830Y48495712D01*
X3033330Y48495712D01*
X2861295Y48478768D01*
X2695871Y48428587D01*
X2543416Y48347098D01*
X2409788Y48237432D01*
X2404572Y48231076D01*
X2340765Y48308825D01*
X2244074Y48388177D01*
X2133760Y48447142D01*
X2014062Y48483452D01*
X1889580Y48495712D01*
X1687830Y48492640D01*
X1529080Y48333890D01*
X1529080Y47284640D01*
X1549080Y47284640D01*
X1549080Y47030640D01*
X1529080Y47030640D01*
X1529080Y45981390D01*
X1687830Y45822640D01*
X1889580Y45819568D01*
X2014062Y45831828D01*
X2133760Y45868138D01*
X2244074Y45927103D01*
X2340765Y46006455D01*
X2404572Y46084204D01*
X2409788Y46077848D01*
X2435321Y46056894D01*
X2435320Y44967605D01*
X2328028Y44879552D01*
X2257820Y44794004D01*
X2187612Y44879552D01*
X2053984Y44989218D01*
X1901529Y45070707D01*
X1736105Y45120888D01*
X1564070Y45137832D01*
X1076570Y45137832D01*
X904535Y45120888D01*
X739111Y45070707D01*
X685000Y45041784D01*
X685000Y45863709D01*
X790098Y45831828D01*
X914580Y45819568D01*
X1116330Y45822640D01*
X1275080Y45981390D01*
X1275080Y47030640D01*
X1255080Y47030640D01*
X1255080Y47284640D01*
X1275080Y47284640D01*
X1275080Y48333890D01*
X1116330Y48492640D01*
X914580Y48495712D01*
X790098Y48483452D01*
X685000Y48451571D01*
X685000Y49405140D01*
X11682388Y49405140D01*
X11682388Y46405140D01*
X11694648Y46280658D01*
X11730958Y46160960D01*
X11789923Y46050646D01*
X11869275Y45953955D01*
X11965966Y45874603D01*
X12076280Y45815638D01*
X12195978Y45779328D01*
X12320460Y45767068D01*
X15820460Y45767068D01*
X15944942Y45779328D01*
X16064640Y45815638D01*
X16174954Y45874603D01*
X16271645Y45953955D01*
X16350997Y46050646D01*
X16409962Y46160960D01*
X16446272Y46280658D01*
X16458532Y46405140D01*
X16458532Y49405140D01*
X16446272Y49529622D01*
X16409962Y49649320D01*
X16350997Y49759634D01*
X16271645Y49856325D01*
X16174954Y49935677D01*
X16064640Y49994642D01*
X15944942Y50030952D01*
X15820460Y50043212D01*
X12320460Y50043212D01*
X12195978Y50030952D01*
X12076280Y49994642D01*
X11965966Y49935677D01*
X11869275Y49856325D01*
X11789923Y49759634D01*
X11730958Y49649320D01*
X11694648Y49529622D01*
X11682388Y49405140D01*
X685000Y49405140D01*
X685000Y51469160D01*
X12447968Y51469160D01*
X12460228Y51344678D01*
X12496538Y51224980D01*
X12555503Y51114666D01*
X12634855Y51017975D01*
X12731546Y50938623D01*
X12841860Y50879658D01*
X12961558Y50843348D01*
X13086040Y50831088D01*
X13100290Y50834160D01*
X13259040Y50992910D01*
X13259040Y51842160D01*
X12609790Y51842160D01*
X12451040Y51683410D01*
X12447968Y51469160D01*
X685000Y51469160D01*
X685000Y55863365D01*
X3767831Y55863365D01*
X3780091Y55738883D01*
X3816400Y55619185D01*
X3875365Y55508871D01*
X3954718Y55412180D01*
X3966966Y55404276D01*
X4191472Y55404276D01*
X4791983Y56004786D01*
X4332894Y56463875D01*
X4108387Y56463875D01*
X3954718Y56314550D01*
X3875365Y56217858D01*
X3816400Y56107544D01*
X3780091Y55987846D01*
X3767831Y55863365D01*
X685000Y55863365D01*
X685000Y58876433D01*
X2031400Y58876433D01*
X2187088Y58492541D01*
X2246052Y58382226D01*
X2325405Y58285535D01*
X2422097Y58206183D01*
X2532411Y58147219D01*
X2652108Y58110909D01*
X2776590Y58098648D01*
X2901072Y58110908D01*
X3020770Y58147218D01*
X3205987Y58227263D01*
X3291902Y58434680D01*
X2890371Y59404061D01*
X2117315Y59083850D01*
X2031400Y58876433D01*
X685000Y58876433D01*
X685000Y60030152D01*
X1602761Y60030152D01*
X1615021Y59905670D01*
X1651332Y59785972D01*
X1812696Y59404430D01*
X2020113Y59318516D01*
X2793170Y59638726D01*
X2391639Y60608107D01*
X2184222Y60694021D01*
X1996654Y60619653D01*
X1886339Y60560689D01*
X1789648Y60481337D01*
X1710296Y60384645D01*
X1651332Y60274331D01*
X1615022Y60154634D01*
X1602761Y60030152D01*
X685000Y60030152D01*
X685000Y65120560D01*
X721968Y65120560D01*
X725040Y65106310D01*
X883790Y64947560D01*
X1733040Y64947560D01*
X1733040Y65596810D01*
X1574290Y65755560D01*
X1360040Y65758632D01*
X1235558Y65746372D01*
X1115860Y65710062D01*
X1005546Y65651097D01*
X908855Y65571745D01*
X829503Y65475054D01*
X770538Y65364740D01*
X734228Y65245042D01*
X721968Y65120560D01*
X685000Y65120560D01*
X685000Y68288734D01*
X1600224Y68288734D01*
X1612485Y68164252D01*
X1648795Y68044555D01*
X1707759Y67934241D01*
X1787111Y67837549D01*
X1883802Y67758197D01*
X1994117Y67699233D01*
X2181685Y67624865D01*
X2389102Y67710779D01*
X2790633Y68680160D01*
X2017576Y69000370D01*
X1810159Y68914456D01*
X1648795Y68532914D01*
X1612484Y68413216D01*
X1600224Y68288734D01*
X685000Y68288734D01*
X685000Y74234795D01*
X5290317Y74234795D01*
X5290317Y74010289D01*
X5890827Y73409778D01*
X6349916Y73868867D01*
X6349916Y74093374D01*
X6200591Y74247043D01*
X6103899Y74326396D01*
X5993585Y74385361D01*
X5873887Y74421670D01*
X5749406Y74433930D01*
X5624924Y74421670D01*
X5505226Y74385361D01*
X5394912Y74326396D01*
X5298221Y74247043D01*
X5290317Y74234795D01*
X685000Y74234795D01*
X685000Y75432547D01*
X7960962Y75432547D01*
X7973222Y75308065D01*
X8009532Y75188367D01*
X8089577Y75003150D01*
X8296994Y74917235D01*
X9266375Y75318766D01*
X8946164Y76091822D01*
X8738747Y76177737D01*
X8354855Y76022049D01*
X8244540Y75963085D01*
X8147849Y75883732D01*
X8068497Y75787040D01*
X8009533Y75676726D01*
X7973223Y75557029D01*
X7960962Y75432547D01*
X685000Y75432547D01*
X685000Y76189024D01*
X9180830Y76189024D01*
X9501040Y75415967D01*
X10470421Y75817498D01*
X10556335Y76024915D01*
X10481967Y76212483D01*
X10423003Y76322798D01*
X10343651Y76419489D01*
X10246959Y76498841D01*
X10136645Y76557805D01*
X10016948Y76594115D01*
X9892466Y76606376D01*
X9767984Y76594116D01*
X9648286Y76557805D01*
X9266744Y76396441D01*
X9180830Y76189024D01*
X685000Y76189024D01*
X685000Y94236844D01*
X846393Y93943271D01*
X1135556Y93598660D01*
X1486147Y93316778D01*
X1884812Y93108361D01*
X2316366Y92981348D01*
X2764372Y92940576D01*
X3211765Y92987599D01*
X3641503Y93120625D01*
X4037220Y93334588D01*
X4383841Y93621338D01*
X4668163Y93969952D01*
X4879359Y94367153D01*
X5009382Y94797810D01*
X5046087Y95172160D01*
X8478888Y95172160D01*
X8491148Y95047678D01*
X8527458Y94927980D01*
X8586423Y94817666D01*
X8665775Y94720975D01*
X8762466Y94641623D01*
X8872780Y94582658D01*
X8992478Y94546348D01*
X9116960Y94534088D01*
X9681210Y94537160D01*
X9839960Y94695910D01*
X9839960Y95895160D01*
X8640710Y95895160D01*
X8481960Y95736410D01*
X8478888Y95172160D01*
X5046087Y95172160D01*
X5053280Y95245520D01*
X5052381Y95309879D01*
X4995999Y95756189D01*
X4854002Y96183048D01*
X4631799Y96574196D01*
X4337853Y96914736D01*
X3983361Y97191696D01*
X3739262Y97314999D01*
X8658926Y97314999D01*
X8586423Y97226654D01*
X8586423Y97226654D01*
G37*
X8586423Y97226654D02*
X8527458Y97116340D01*
X8491148Y96996642D01*
X8478888Y96872160D01*
X8481960Y96307910D01*
X8640710Y96149160D01*
X9839960Y96149160D01*
X9839960Y96169160D01*
X10093960Y96169160D01*
X10093960Y96149160D01*
X10113960Y96149160D01*
X10113960Y95895160D01*
X10093960Y95895160D01*
X10093960Y94695910D01*
X10252710Y94537160D01*
X10816960Y94534088D01*
X10941442Y94546348D01*
X11061140Y94582658D01*
X11171454Y94641623D01*
X11268145Y94720975D01*
X11347497Y94817666D01*
X11406462Y94927980D01*
X11427353Y94996847D01*
X11451826Y94967026D01*
X11677946Y94781454D01*
X11935926Y94643561D01*
X12215849Y94558647D01*
X12434010Y94537160D01*
X12487159Y94537160D01*
X11715858Y93765859D01*
X7650921Y93765859D01*
X7613598Y93769535D01*
X7576276Y93765859D01*
X7576266Y93765859D01*
X7464613Y93754862D01*
X7321352Y93711405D01*
X7189374Y93640860D01*
X7111661Y93640860D01*
X6911702Y93601086D01*
X6723344Y93523065D01*
X6553826Y93409797D01*
X6409663Y93265634D01*
X6296395Y93096116D01*
X6218374Y92907758D01*
X6178600Y92707799D01*
X6178600Y92503921D01*
X6218374Y92303962D01*
X6296395Y92115604D01*
X6409663Y91946086D01*
X6553826Y91801923D01*
X6723344Y91688655D01*
X6911702Y91610634D01*
X7111661Y91570860D01*
X7315539Y91570860D01*
X7425035Y91592640D01*
X7399343Y91561334D01*
X7340378Y91451020D01*
X7304068Y91331322D01*
X7291808Y91206840D01*
X7294880Y90730590D01*
X7453630Y90571840D01*
X8564880Y90571840D01*
X8564880Y91683090D01*
X8818880Y91683090D01*
X8818880Y90571840D01*
X9930130Y90571840D01*
X10088880Y90730590D01*
X10091952Y91206840D01*
X10079692Y91331322D01*
X10043382Y91451020D01*
X9984417Y91561334D01*
X9905065Y91658025D01*
X9808374Y91737377D01*
X9698060Y91796342D01*
X9578362Y91832652D01*
X9453880Y91844912D01*
X8977630Y91841840D01*
X8818880Y91683090D01*
X8564880Y91683090D01*
X8406130Y91841840D01*
X7929880Y91844912D01*
X7914886Y91843435D01*
X8017537Y91946086D01*
X8130805Y92115604D01*
X8184759Y92245859D01*
X11993337Y92245859D01*
X12030659Y92242183D01*
X12067981Y92245859D01*
X12067992Y92245859D01*
X12179645Y92256856D01*
X12322906Y92300313D01*
X12454935Y92370885D01*
X12570660Y92465858D01*
X12594463Y92494862D01*
X14680965Y94581363D01*
X14755849Y94558647D01*
X14974010Y94537160D01*
X15119910Y94537160D01*
X15338071Y94558647D01*
X15617994Y94643561D01*
X15875974Y94781454D01*
X15976961Y94864332D01*
X15976961Y94804723D01*
X10032082Y88859843D01*
X9929885Y89106567D01*
X9867114Y89200510D01*
X9905065Y89231655D01*
X9984417Y89328346D01*
X10043382Y89438660D01*
X10079692Y89558358D01*
X10091952Y89682840D01*
X10088880Y90159090D01*
X9930130Y90317840D01*
X8818880Y90317840D01*
X8818880Y90297840D01*
X8564880Y90297840D01*
X8564880Y90317840D01*
X7453630Y90317840D01*
X7294880Y90159090D01*
X7291808Y89682840D01*
X7304068Y89558358D01*
X7340378Y89438660D01*
X7399343Y89328346D01*
X7478695Y89231655D01*
X7516646Y89200510D01*
X7453875Y89106567D01*
X7348566Y88852330D01*
X7294880Y88582432D01*
X7294880Y88307248D01*
X7325508Y88153269D01*
X7093877Y87921638D01*
X7064879Y87897840D01*
X7041081Y87868842D01*
X7041080Y87868841D01*
X6969905Y87782115D01*
X6899333Y87650085D01*
X6855877Y87506824D01*
X6841203Y87357839D01*
X6844880Y87320507D01*
X6844879Y80874764D01*
X6841203Y80837441D01*
X6844879Y80800119D01*
X6844879Y80800109D01*
X6855876Y80688456D01*
X6894772Y80560230D01*
X6899333Y80545195D01*
X6969905Y80413165D01*
X6979650Y80401291D01*
X7064878Y80297440D01*
X7093881Y80273638D01*
X7184828Y80182691D01*
X7184828Y79675670D01*
X7201772Y79503635D01*
X7251953Y79338211D01*
X7333442Y79185756D01*
X7443108Y79052128D01*
X7576736Y78942462D01*
X7729191Y78860973D01*
X7894615Y78810792D01*
X8066650Y78793848D01*
X8554150Y78793848D01*
X8726185Y78810792D01*
X8891609Y78860973D01*
X9044064Y78942462D01*
X9177692Y79052128D01*
X9247900Y79137676D01*
X9318108Y79052128D01*
X9451736Y78942462D01*
X9604191Y78860973D01*
X9769615Y78810792D01*
X9941650Y78793848D01*
X10429150Y78793848D01*
X10601185Y78810792D01*
X10766609Y78860973D01*
X10919064Y78942462D01*
X11052692Y79052128D01*
X11162358Y79185756D01*
X11243847Y79338211D01*
X11254073Y79371920D01*
X12379198Y79371920D01*
X12431660Y79343878D01*
X12551358Y79307568D01*
X12675840Y79295308D01*
X13039110Y79295308D01*
X13118400Y79216018D01*
X13095303Y79187874D01*
X13071520Y79143380D01*
X12878542Y79143380D01*
X12841219Y79147056D01*
X12803896Y79143380D01*
X12803887Y79143380D01*
X12692234Y79132383D01*
X12548973Y79088926D01*
X12416944Y79018354D01*
X12301219Y78923381D01*
X12277421Y78894383D01*
X11369879Y77986840D01*
X11307741Y77986840D01*
X11107782Y77947066D01*
X10919424Y77869045D01*
X10749906Y77755777D01*
X10605743Y77611614D01*
X10492475Y77442096D01*
X10414454Y77253738D01*
X10374680Y77053779D01*
X10374680Y76849901D01*
X10414454Y76649942D01*
X10492475Y76461584D01*
X10605743Y76292066D01*
X10749906Y76147903D01*
X10919424Y76034635D01*
X11107782Y75956614D01*
X11307741Y75916840D01*
X11511619Y75916840D01*
X11711578Y75956614D01*
X11899936Y76034635D01*
X12069454Y76147903D01*
X12213617Y76292066D01*
X12326885Y76461584D01*
X12404906Y76649942D01*
X12444680Y76849901D01*
X12444680Y76912039D01*
X12455481Y76922839D01*
X12447968Y76846560D01*
X12447968Y75846560D01*
X12460228Y75722078D01*
X12496538Y75602380D01*
X12555503Y75492066D01*
X12634855Y75395375D01*
X12694336Y75346560D01*
X12634855Y75297745D01*
X12555503Y75201054D01*
X12496538Y75090740D01*
X12460228Y74971042D01*
X12447968Y74846560D01*
X12447968Y74660067D01*
X12190662Y74402760D01*
X11213806Y74402760D01*
X11211289Y74407469D01*
X11101623Y74541098D01*
X10967995Y74650763D01*
X10815539Y74732252D01*
X10807670Y74734639D01*
X10855083Y74823342D01*
X10891393Y74943039D01*
X10903654Y75067521D01*
X10891394Y75192003D01*
X10855084Y75311701D01*
X10775039Y75496918D01*
X10567622Y75582833D01*
X9598241Y75181302D01*
X9605895Y75162824D01*
X9371230Y75065623D01*
X9363576Y75084101D01*
X8394195Y74682570D01*
X8308281Y74475153D01*
X8382649Y74287585D01*
X8441613Y74177270D01*
X8520965Y74080579D01*
X8617657Y74001227D01*
X8727971Y73942263D01*
X8824220Y73913066D01*
X8820344Y73905815D01*
X8770163Y73740391D01*
X8753219Y73568356D01*
X8770163Y73396321D01*
X8820344Y73230897D01*
X8942984Y72934817D01*
X8227901Y72219733D01*
X7614804Y72832830D01*
X7518113Y72912182D01*
X7407799Y72971147D01*
X7288101Y73007457D01*
X7163619Y73019717D01*
X7087042Y73012175D01*
X7094584Y73088752D01*
X7082324Y73213233D01*
X7046015Y73332931D01*
X6987050Y73443245D01*
X6907697Y73539937D01*
X6754028Y73689262D01*
X6529521Y73689262D01*
X6070432Y73230173D01*
X6084575Y73216031D01*
X5904969Y73036425D01*
X5890827Y73050568D01*
X5876685Y73036426D01*
X5697080Y73216031D01*
X5711222Y73230173D01*
X5110711Y73830683D01*
X4886205Y73830683D01*
X4873957Y73822779D01*
X4794604Y73726088D01*
X4735639Y73615774D01*
X4700809Y73500952D01*
X4585987Y73466121D01*
X4475673Y73407156D01*
X4378982Y73327804D01*
X3954718Y72903540D01*
X3875366Y72806849D01*
X3816401Y72696535D01*
X3780091Y72576837D01*
X3767831Y72452355D01*
X3780091Y72327873D01*
X3811194Y72225341D01*
X3414119Y71828266D01*
X3385121Y71804468D01*
X3361323Y71775470D01*
X3361322Y71775469D01*
X3290147Y71688743D01*
X3219575Y71556713D01*
X3199135Y71489327D01*
X3177487Y71417961D01*
X3176119Y71413452D01*
X3161445Y71264467D01*
X3165122Y71227135D01*
X3165122Y70108187D01*
X3018233Y70171668D01*
X2898535Y70207978D01*
X2774053Y70220238D01*
X2649571Y70207977D01*
X2529874Y70171667D01*
X2419560Y70112703D01*
X2322868Y70033351D01*
X2243515Y69936660D01*
X2184551Y69826345D01*
X2028863Y69442453D01*
X2114778Y69235036D01*
X2887834Y68914825D01*
X2895488Y68933303D01*
X3130153Y68836102D01*
X3122499Y68817624D01*
X3140977Y68809970D01*
X3043776Y68575305D01*
X3025298Y68582959D01*
X2623767Y67613578D01*
X2709682Y67406161D01*
X2894899Y67326116D01*
X2960286Y67306281D01*
X2960285Y65613952D01*
X2908855Y65571745D01*
X2860040Y65512264D01*
X2811225Y65571745D01*
X2714534Y65651097D01*
X2604220Y65710062D01*
X2484522Y65746372D01*
X2360040Y65758632D01*
X2145790Y65755560D01*
X1987040Y65596810D01*
X1987040Y64947560D01*
X2007040Y64947560D01*
X2007040Y64693560D01*
X1987040Y64693560D01*
X1987040Y64673560D01*
X1733040Y64673560D01*
X1733040Y64693560D01*
X883790Y64693560D01*
X725040Y64534810D01*
X721968Y64520560D01*
X734228Y64396078D01*
X770538Y64276380D01*
X827101Y64170560D01*
X770538Y64064740D01*
X734228Y63945042D01*
X721968Y63820560D01*
X721968Y63220560D01*
X734228Y63096078D01*
X770538Y62976380D01*
X829503Y62866066D01*
X908855Y62769375D01*
X1005546Y62690023D01*
X1115860Y62631058D01*
X1192118Y62607925D01*
X1225066Y62546284D01*
X1250139Y62515733D01*
X1320039Y62430559D01*
X1349043Y62406756D01*
X2803587Y60952211D01*
X2712219Y60912725D01*
X2626304Y60705308D01*
X2960373Y59898795D01*
X2959146Y59886337D01*
X2962822Y59849015D01*
X2962822Y59849005D01*
X2973819Y59737352D01*
X3006082Y59630994D01*
X3017276Y59594091D01*
X3087848Y59462061D01*
X3095644Y59452562D01*
X3182821Y59346336D01*
X3192498Y59338394D01*
X3526567Y58531881D01*
X3733984Y58445967D01*
X3921552Y58520335D01*
X3981813Y58552545D01*
X5188745Y57345613D01*
X5182044Y57277578D01*
X5189586Y57201001D01*
X5113009Y57208543D01*
X4988528Y57196283D01*
X4868830Y57159974D01*
X4758516Y57101009D01*
X4661824Y57021656D01*
X4512499Y56867987D01*
X4512499Y56643480D01*
X4971588Y56184391D01*
X4985730Y56198534D01*
X5165336Y56018928D01*
X5151193Y56004786D01*
X5165336Y55990644D01*
X4985731Y55811039D01*
X4971588Y55825181D01*
X4371078Y55224670D01*
X4371078Y55000164D01*
X4378982Y54987916D01*
X4475673Y54908563D01*
X4585987Y54849598D01*
X4700809Y54814768D01*
X4735640Y54699946D01*
X4794605Y54589632D01*
X4873957Y54492941D01*
X5298221Y54068677D01*
X5394912Y53989325D01*
X5505226Y53930360D01*
X5624924Y53894050D01*
X5749406Y53881790D01*
X5873888Y53894050D01*
X5976420Y53925153D01*
X6351215Y53550358D01*
X6375013Y53521359D01*
X6404011Y53497561D01*
X6490737Y53426386D01*
X6603217Y53366264D01*
X6622767Y53355814D01*
X6766028Y53312357D01*
X6877681Y53301360D01*
X6877690Y53301360D01*
X6915013Y53297684D01*
X6952336Y53301360D01*
X8089152Y53301360D01*
X8020437Y53146094D01*
X7983083Y53026718D01*
X7969737Y52902348D01*
X7980911Y52777764D01*
X8016175Y52657754D01*
X8074174Y52546930D01*
X8152680Y52449549D01*
X8248675Y52369356D01*
X8358471Y52309431D01*
X8740990Y52150399D01*
X8949149Y52234500D01*
X9276093Y53004733D01*
X9257683Y53012548D01*
X9356928Y53246356D01*
X9375339Y53238541D01*
X9383154Y53256951D01*
X9616962Y53157705D01*
X9609147Y53139295D01*
X9627557Y53131480D01*
X9528312Y52897672D01*
X9509901Y52905487D01*
X9182957Y52135255D01*
X9267059Y51927096D01*
X9647177Y51762408D01*
X9766554Y51725054D01*
X9890924Y51711708D01*
X10015508Y51722882D01*
X10135518Y51758146D01*
X10246342Y51816145D01*
X10343723Y51894650D01*
X10423916Y51990646D01*
X10483840Y52100442D01*
X10559843Y52287354D01*
X10482331Y52479202D01*
X10512149Y52470157D01*
X10542515Y52467166D01*
X10621870Y52433482D01*
X10632410Y52458313D01*
X10661135Y52455484D01*
X10698460Y52459160D01*
X12448111Y52459160D01*
X12451040Y52254910D01*
X12609790Y52096160D01*
X13259040Y52096160D01*
X13259040Y52116160D01*
X13513040Y52116160D01*
X13513040Y52096160D01*
X13533040Y52096160D01*
X13533040Y51842160D01*
X13513040Y51842160D01*
X13513040Y50992910D01*
X13671790Y50834160D01*
X13686040Y50831088D01*
X13810522Y50843348D01*
X13930220Y50879658D01*
X14036040Y50936221D01*
X14141860Y50879658D01*
X14261558Y50843348D01*
X14386040Y50831088D01*
X14986040Y50831088D01*
X15110522Y50843348D01*
X15230220Y50879658D01*
X15340534Y50938623D01*
X15437225Y51017975D01*
X15516577Y51114666D01*
X15575542Y51224980D01*
X15598674Y51301237D01*
X15660316Y51334186D01*
X15776041Y51429159D01*
X15799843Y51458162D01*
X16637561Y52295879D01*
X17509413Y52295879D01*
X17583781Y52108311D01*
X17642745Y51997996D01*
X17722097Y51901305D01*
X17818789Y51821953D01*
X17929103Y51762989D01*
X18048800Y51726679D01*
X18173282Y51714418D01*
X18297764Y51726678D01*
X18417462Y51762989D01*
X18799004Y51924353D01*
X18884918Y52131770D01*
X18564708Y52904827D01*
X17595327Y52503296D01*
X17509413Y52295879D01*
X16637561Y52295879D01*
X17252944Y52911261D01*
X17290709Y52823876D01*
X17498126Y52737961D01*
X18135639Y53002028D01*
X18799373Y53002028D01*
X19119584Y52228972D01*
X19327001Y52143057D01*
X19710893Y52298745D01*
X19821208Y52357709D01*
X19917899Y52437062D01*
X19997251Y52533754D01*
X20056215Y52644068D01*
X20092525Y52763765D01*
X20104786Y52888247D01*
X20092526Y53012729D01*
X20056216Y53132427D01*
X19976171Y53317644D01*
X19768754Y53403559D01*
X18799373Y53002028D01*
X18135639Y53002028D01*
X18304639Y53072030D01*
X18317097Y53070803D01*
X18354419Y53074479D01*
X18354430Y53074479D01*
X18466083Y53085476D01*
X18609344Y53128933D01*
X18741373Y53199505D01*
X18857098Y53294478D01*
X18865040Y53304155D01*
X19671553Y53638224D01*
X19757467Y53845641D01*
X19683099Y54033209D01*
X19650889Y54093470D01*
X20023159Y54465740D01*
X21723838Y54465740D01*
X21723838Y54241233D01*
X21873163Y54087564D01*
X21969855Y54008211D01*
X22080169Y53949246D01*
X22199867Y53912937D01*
X22324348Y53900677D01*
X22448830Y53912937D01*
X22568528Y53949246D01*
X22678842Y54008211D01*
X22775533Y54087564D01*
X22783437Y54099812D01*
X22783437Y54324318D01*
X22182927Y54924829D01*
X21723838Y54465740D01*
X20023159Y54465740D01*
X20875701Y55318281D01*
X20910135Y55314890D01*
X20986712Y55322432D01*
X20979170Y55245855D01*
X20991430Y55121374D01*
X21027739Y55001676D01*
X21086704Y54891362D01*
X21166057Y54794670D01*
X21319726Y54645345D01*
X21544233Y54645345D01*
X22003322Y55104434D01*
X21989179Y55118576D01*
X22168785Y55298182D01*
X22182927Y55284039D01*
X22197070Y55298182D01*
X22376675Y55118577D01*
X22362532Y55104434D01*
X22963043Y54503924D01*
X23187549Y54503924D01*
X23199797Y54511828D01*
X23279150Y54608519D01*
X23338115Y54718833D01*
X23372945Y54833655D01*
X23487767Y54868486D01*
X23598081Y54927451D01*
X23694772Y55006803D01*
X24119036Y55431067D01*
X24198388Y55527758D01*
X24257353Y55638072D01*
X24293663Y55757770D01*
X24305923Y55882252D01*
X24293663Y56006734D01*
X24257353Y56126432D01*
X24198388Y56236746D01*
X24119036Y56333437D01*
X23862166Y56590307D01*
X23862166Y58324444D01*
X23972402Y58434680D01*
X24780178Y58434680D01*
X24866093Y58227263D01*
X25051310Y58147218D01*
X25171008Y58110908D01*
X25295490Y58098648D01*
X25419972Y58110909D01*
X25539669Y58147219D01*
X25649983Y58206183D01*
X25746675Y58285535D01*
X25826028Y58382226D01*
X25884992Y58492541D01*
X26040680Y58876433D01*
X25954765Y59083850D01*
X25181709Y59404061D01*
X24780178Y58434680D01*
X23972402Y58434680D01*
X24090267Y58552545D01*
X24150528Y58520335D01*
X24338096Y58445967D01*
X24545513Y58531881D01*
X24879582Y59338394D01*
X24889259Y59346336D01*
X24913053Y59375329D01*
X24913057Y59375333D01*
X24971069Y59446022D01*
X24984232Y59462061D01*
X25054804Y59594090D01*
X25068343Y59638726D01*
X25278910Y59638726D01*
X26051967Y59318516D01*
X26259384Y59404430D01*
X26420748Y59785972D01*
X26457059Y59905670D01*
X26469319Y60030152D01*
X26457058Y60154634D01*
X26420748Y60274331D01*
X26361784Y60384645D01*
X26282432Y60481337D01*
X26185741Y60560689D01*
X26075426Y60619653D01*
X25887858Y60694021D01*
X25680441Y60608107D01*
X25278910Y59638726D01*
X25068343Y59638726D01*
X25098261Y59737351D01*
X25109258Y59849004D01*
X25109258Y59849013D01*
X25112934Y59886336D01*
X25111707Y59898794D01*
X25445776Y60705308D01*
X25359861Y60912725D01*
X25174644Y60992770D01*
X25109258Y61012605D01*
X25109258Y62727816D01*
X25147225Y62758975D01*
X25196040Y62818456D01*
X25244855Y62758975D01*
X25341546Y62679623D01*
X25451860Y62620658D01*
X25571558Y62584348D01*
X25696040Y62572088D01*
X25910290Y62575160D01*
X26069040Y62733910D01*
X26069040Y63383160D01*
X26049040Y63383160D01*
X26049040Y63637160D01*
X26069040Y63637160D01*
X26069040Y63657160D01*
X26323040Y63657160D01*
X26323040Y63637160D01*
X26343040Y63637160D01*
X26343040Y63383160D01*
X26323040Y63383160D01*
X26323040Y62733910D01*
X26481790Y62575160D01*
X26696040Y62572088D01*
X26820522Y62584348D01*
X26940220Y62620658D01*
X27050534Y62679623D01*
X27147225Y62758975D01*
X27226577Y62855666D01*
X27285542Y62965980D01*
X27315001Y63063092D01*
X27315001Y50742318D01*
X27225898Y50779226D01*
X27025939Y50819000D01*
X26822061Y50819000D01*
X26622102Y50779226D01*
X26433744Y50701205D01*
X26264226Y50587937D01*
X26120063Y50443774D01*
X26006795Y50274256D01*
X25928774Y50085898D01*
X25889000Y49885939D01*
X25889000Y49682061D01*
X25928774Y49482102D01*
X26006795Y49293744D01*
X26120063Y49124226D01*
X26164001Y49080288D01*
X26164000Y48419202D01*
X23808532Y46063733D01*
X23808532Y47205140D01*
X23796272Y47329622D01*
X23759962Y47449320D01*
X23700997Y47559634D01*
X23621645Y47656325D01*
X23524954Y47735677D01*
X23414640Y47794642D01*
X23294942Y47830952D01*
X23170460Y47843212D01*
X20670460Y47843212D01*
X20545978Y47830952D01*
X20426280Y47794642D01*
X20315966Y47735677D01*
X20219275Y47656325D01*
X20139923Y47559634D01*
X20080958Y47449320D01*
X20044648Y47329622D01*
X20032388Y47205140D01*
X20032388Y45205140D01*
X20041332Y45114325D01*
X19940966Y45060677D01*
X19844275Y44981325D01*
X19764923Y44884634D01*
X19705958Y44774320D01*
X19669648Y44654622D01*
X19657388Y44530140D01*
X19657388Y42930140D01*
X19669648Y42805658D01*
X19705958Y42685960D01*
X19764923Y42575646D01*
X19844275Y42478955D01*
X19940966Y42399603D01*
X19943204Y42398407D01*
X15639084Y38094285D01*
X15610080Y38070482D01*
X15572700Y38024934D01*
X15515107Y37954757D01*
X15454634Y37841620D01*
X15444535Y37822727D01*
X15401078Y37679466D01*
X15390081Y37567813D01*
X15390081Y37567803D01*
X15386405Y37530481D01*
X15390081Y37493158D01*
X15390081Y36743212D01*
X12320460Y36743212D01*
X12195978Y36730952D01*
X12076280Y36694642D01*
X11965966Y36635677D01*
X11869275Y36556325D01*
X11789923Y36459634D01*
X11730958Y36349320D01*
X11694648Y36229622D01*
X11682388Y36105140D01*
X11682388Y33105140D01*
X11694648Y32980658D01*
X11730958Y32860960D01*
X11789923Y32750646D01*
X11869275Y32653955D01*
X11965966Y32574603D01*
X12076280Y32515638D01*
X12195978Y32479328D01*
X12320460Y32467068D01*
X14696868Y32467068D01*
X9675562Y27445761D01*
X9553282Y27445761D01*
X9515959Y27449437D01*
X9478637Y27445761D01*
X9478626Y27445761D01*
X9366973Y27434764D01*
X9223712Y27391307D01*
X9091683Y27320735D01*
X8975958Y27225762D01*
X8952155Y27196758D01*
X8939962Y27184565D01*
X8910958Y27160762D01*
X8855845Y27093606D01*
X8815985Y27045037D01*
X8753460Y26928061D01*
X8745413Y26913007D01*
X8701956Y26769746D01*
X8690959Y26658093D01*
X8690959Y26658083D01*
X8687283Y26620761D01*
X8690959Y26583438D01*
X8690960Y24348093D01*
X8687283Y24310761D01*
X8701957Y24161776D01*
X8745413Y24018515D01*
X8815985Y23886485D01*
X8887160Y23799759D01*
X8910959Y23770760D01*
X8939957Y23746962D01*
X9695965Y22990953D01*
X9651478Y22986572D01*
X9531780Y22950262D01*
X9421466Y22891297D01*
X9324775Y22811945D01*
X9245423Y22715254D01*
X9186458Y22604940D01*
X9150148Y22485242D01*
X9137888Y22360760D01*
X9137888Y21360760D01*
X9150148Y21236278D01*
X9186458Y21116580D01*
X9245423Y21006266D01*
X9324775Y20909575D01*
X9421466Y20830223D01*
X9531780Y20771258D01*
X9651478Y20734948D01*
X9775960Y20722688D01*
X10689681Y20722688D01*
X10689680Y15204043D01*
X10625198Y15197692D01*
X10505500Y15161382D01*
X10395186Y15102417D01*
X10298495Y15023065D01*
X10219143Y14926374D01*
X10160178Y14816060D01*
X10123868Y14696362D01*
X10111608Y14571880D01*
X10111608Y11871880D01*
X10123868Y11747398D01*
X10160178Y11627700D01*
X10219143Y11517386D01*
X10298495Y11420695D01*
X10395186Y11341343D01*
X10505500Y11282378D01*
X10625198Y11246068D01*
X10689680Y11239717D01*
X10689681Y9404043D01*
X10625198Y9397692D01*
X10505500Y9361382D01*
X10395186Y9302417D01*
X10298495Y9223065D01*
X10219143Y9126374D01*
X10160178Y9016060D01*
X10123868Y8896362D01*
X10111608Y8771880D01*
X10111608Y8299400D01*
X9920901Y8299400D01*
X9720942Y8259626D01*
X9532584Y8181605D01*
X9363066Y8068337D01*
X9218903Y7924174D01*
X9105635Y7754656D01*
X9027614Y7566298D01*
X8987840Y7366339D01*
X8987840Y7162461D01*
X9027614Y6962502D01*
X9105635Y6774144D01*
X9218903Y6604626D01*
X9363066Y6460463D01*
X9532584Y6347195D01*
X9720942Y6269174D01*
X9920901Y6229400D01*
X10111608Y6229400D01*
X10111608Y6071880D01*
X10123868Y5947398D01*
X10160178Y5827700D01*
X10219143Y5717386D01*
X10298495Y5620695D01*
X10395186Y5541343D01*
X10505500Y5482378D01*
X10625198Y5446068D01*
X10749680Y5433808D01*
X12149680Y5433808D01*
X12274162Y5446068D01*
X12393860Y5482378D01*
X12504174Y5541343D01*
X12600865Y5620695D01*
X12680217Y5717386D01*
X12699680Y5753798D01*
X12719143Y5717386D01*
X12798495Y5620695D01*
X12895186Y5541343D01*
X13005500Y5482378D01*
X13125198Y5446068D01*
X13249680Y5433808D01*
X14649680Y5433808D01*
X14774162Y5446068D01*
X14893860Y5482378D01*
X15004174Y5541343D01*
X15100865Y5620695D01*
X15180217Y5717386D01*
X15199680Y5753798D01*
X15219143Y5717386D01*
X15298495Y5620695D01*
X15395186Y5541343D01*
X15505500Y5482378D01*
X15625198Y5446068D01*
X15749680Y5433808D01*
X16163930Y5436880D01*
X16322680Y5595630D01*
X16322680Y7294880D01*
X16576680Y7294880D01*
X16576680Y5595630D01*
X16735430Y5436880D01*
X17149680Y5433808D01*
X17274162Y5446068D01*
X17393860Y5482378D01*
X17504174Y5541343D01*
X17600865Y5620695D01*
X17680217Y5717386D01*
X17739182Y5827700D01*
X17752674Y5872180D01*
X19921728Y5872180D01*
X19933988Y5747698D01*
X19970298Y5628000D01*
X20029263Y5517686D01*
X20108615Y5420995D01*
X20205306Y5341643D01*
X20315620Y5282678D01*
X20435318Y5246368D01*
X20559800Y5234108D01*
X20974050Y5237180D01*
X21132800Y5395930D01*
X21132800Y6232680D01*
X21386800Y6232680D01*
X21386800Y5395930D01*
X21545550Y5237180D01*
X21959800Y5234108D01*
X22084282Y5246368D01*
X22203980Y5282678D01*
X22314294Y5341643D01*
X22410985Y5420995D01*
X22490337Y5517686D01*
X22549302Y5628000D01*
X22585612Y5747698D01*
X22597872Y5872180D01*
X22594800Y6073930D01*
X22436050Y6232680D01*
X21386800Y6232680D01*
X21132800Y6232680D01*
X20083550Y6232680D01*
X19924800Y6073930D01*
X19921728Y5872180D01*
X17752674Y5872180D01*
X17775492Y5947398D01*
X17787752Y6071880D01*
X17784680Y7136130D01*
X17625930Y7294880D01*
X16576680Y7294880D01*
X16322680Y7294880D01*
X16302680Y7294880D01*
X16302680Y7548880D01*
X16322680Y7548880D01*
X16322680Y9248130D01*
X16576680Y9248130D01*
X16576680Y7548880D01*
X17625930Y7548880D01*
X17784680Y7707630D01*
X17787752Y8771880D01*
X17775492Y8896362D01*
X17739182Y9016060D01*
X17680217Y9126374D01*
X17600865Y9223065D01*
X17504174Y9302417D01*
X17393860Y9361382D01*
X17274162Y9397692D01*
X17149680Y9409952D01*
X16735430Y9406880D01*
X16576680Y9248130D01*
X16322680Y9248130D01*
X16163930Y9406880D01*
X15749680Y9409952D01*
X15625198Y9397692D01*
X15505500Y9361382D01*
X15395186Y9302417D01*
X15298495Y9223065D01*
X15219143Y9126374D01*
X15199680Y9089962D01*
X15180217Y9126374D01*
X15100865Y9223065D01*
X15004174Y9302417D01*
X14893860Y9361382D01*
X14774162Y9397692D01*
X14709680Y9404043D01*
X14709680Y11239717D01*
X14774162Y11246068D01*
X14893860Y11282378D01*
X15004174Y11341343D01*
X15100865Y11420695D01*
X15180217Y11517386D01*
X15199680Y11553798D01*
X15219143Y11517386D01*
X15298495Y11420695D01*
X15395186Y11341343D01*
X15505500Y11282378D01*
X15625198Y11246068D01*
X15749680Y11233808D01*
X16163930Y11236880D01*
X16322680Y11395630D01*
X16322680Y13094880D01*
X16576680Y13094880D01*
X16576680Y11395630D01*
X16735430Y11236880D01*
X17149680Y11233808D01*
X17274162Y11246068D01*
X17393860Y11282378D01*
X17504174Y11341343D01*
X17600865Y11420695D01*
X17680217Y11517386D01*
X17739182Y11627700D01*
X17775492Y11747398D01*
X17787752Y11871880D01*
X17784680Y12936130D01*
X17625930Y13094880D01*
X16576680Y13094880D01*
X16322680Y13094880D01*
X16302680Y13094880D01*
X16302680Y13348880D01*
X16322680Y13348880D01*
X16322680Y13368880D01*
X16576680Y13368880D01*
X16576680Y13348880D01*
X17625930Y13348880D01*
X17725044Y13447994D01*
X20499801Y10673237D01*
X20499800Y9303353D01*
X20466091Y9293127D01*
X20313636Y9211638D01*
X20180008Y9101972D01*
X20070342Y8968344D01*
X19988853Y8815889D01*
X19938672Y8650465D01*
X19921728Y8478430D01*
X19921728Y7990930D01*
X19938672Y7818895D01*
X19988853Y7653471D01*
X20070342Y7501016D01*
X20180008Y7367388D01*
X20186364Y7362172D01*
X20108615Y7298365D01*
X20029263Y7201674D01*
X19970298Y7091360D01*
X19933988Y6971662D01*
X19921728Y6847180D01*
X19924800Y6645430D01*
X20083550Y6486680D01*
X21132800Y6486680D01*
X21132800Y6506680D01*
X21386800Y6506680D01*
X21386800Y6486680D01*
X22436050Y6486680D01*
X22594800Y6645430D01*
X22597872Y6847180D01*
X22585612Y6971662D01*
X22549302Y7091360D01*
X22490337Y7201674D01*
X22410985Y7298365D01*
X22333236Y7362172D01*
X22339592Y7367388D01*
X22449258Y7501016D01*
X22530747Y7653471D01*
X22580928Y7818895D01*
X22597872Y7990930D01*
X22597872Y8478430D01*
X22580928Y8650465D01*
X22530747Y8815889D01*
X22449258Y8968344D01*
X22339592Y9101972D01*
X22205964Y9211638D01*
X22053509Y9293127D01*
X22019800Y9303353D01*
X22019800Y10950717D01*
X22023476Y10988040D01*
X22019800Y11025363D01*
X22019800Y11025373D01*
X22008803Y11137026D01*
X21965346Y11280287D01*
X21938970Y11329633D01*
X21894774Y11412317D01*
X21823599Y11499043D01*
X21799801Y11528041D01*
X21770803Y11551839D01*
X17914763Y15407878D01*
X17890960Y15436882D01*
X17775235Y15531855D01*
X17643206Y15602427D01*
X17499945Y15645884D01*
X17388292Y15656881D01*
X17388281Y15656881D01*
X17350959Y15660557D01*
X17313637Y15656881D01*
X15012003Y15656881D01*
X14974680Y15660557D01*
X14937357Y15656881D01*
X14937348Y15656881D01*
X14825695Y15645884D01*
X14746166Y15621760D01*
X14751000Y15646061D01*
X14751000Y15849939D01*
X14711226Y16049898D01*
X14633205Y16238256D01*
X14519937Y16407774D01*
X14375774Y16551937D01*
X14206256Y16665205D01*
X14017898Y16743226D01*
X13817939Y16783000D01*
X13614061Y16783000D01*
X13414102Y16743226D01*
X13225744Y16665205D01*
X13056226Y16551937D01*
X12912063Y16407774D01*
X12798795Y16238256D01*
X12720774Y16049898D01*
X12681000Y15849939D01*
X12681000Y15646061D01*
X12720774Y15446102D01*
X12798795Y15257744D01*
X12900635Y15105330D01*
X12895186Y15102417D01*
X12798495Y15023065D01*
X12719143Y14926374D01*
X12699680Y14889962D01*
X12680217Y14926374D01*
X12600865Y15023065D01*
X12504174Y15102417D01*
X12393860Y15161382D01*
X12274162Y15197692D01*
X12209680Y15204043D01*
X12209680Y20722688D01*
X12525960Y20722688D01*
X12650442Y20734948D01*
X12770140Y20771258D01*
X12880454Y20830223D01*
X12977145Y20909575D01*
X13056497Y21006266D01*
X13107006Y21100760D01*
X14954914Y21100760D01*
X15005423Y21006266D01*
X15084775Y20909575D01*
X15181466Y20830223D01*
X15291780Y20771258D01*
X15411478Y20734948D01*
X15535960Y20722688D01*
X18285960Y20722688D01*
X18410442Y20734948D01*
X18530140Y20771258D01*
X18640454Y20830223D01*
X18737145Y20909575D01*
X18816497Y21006266D01*
X18875462Y21116580D01*
X18911772Y21236278D01*
X18924032Y21360760D01*
X18924032Y22360760D01*
X18911772Y22485242D01*
X18899045Y22527200D01*
X19987768Y22527200D01*
X20000028Y22402718D01*
X20036338Y22283020D01*
X20095303Y22172706D01*
X20174655Y22076015D01*
X20271346Y21996663D01*
X20381660Y21937698D01*
X20501358Y21901388D01*
X20625840Y21889128D01*
X21040090Y21892200D01*
X21198840Y22050950D01*
X21198840Y22887700D01*
X21452840Y22887700D01*
X21452840Y22050950D01*
X21611590Y21892200D01*
X22025840Y21889128D01*
X22150322Y21901388D01*
X22270020Y21937698D01*
X22380334Y21996663D01*
X22477025Y22076015D01*
X22556377Y22172706D01*
X22615342Y22283020D01*
X22651652Y22402718D01*
X22663912Y22527200D01*
X22660840Y22728950D01*
X22502090Y22887700D01*
X21452840Y22887700D01*
X21198840Y22887700D01*
X20149590Y22887700D01*
X19990840Y22728950D01*
X19987768Y22527200D01*
X18899045Y22527200D01*
X18875462Y22604940D01*
X18816497Y22715254D01*
X18737145Y22811945D01*
X18640454Y22891297D01*
X18530140Y22950262D01*
X18410442Y22986572D01*
X18285960Y22998832D01*
X15535960Y22998832D01*
X15411478Y22986572D01*
X15291780Y22950262D01*
X15181466Y22891297D01*
X15084775Y22811945D01*
X15005423Y22715254D01*
X14954914Y22620760D01*
X13107006Y22620760D01*
X13056497Y22715254D01*
X12977145Y22811945D01*
X12880454Y22891297D01*
X12770140Y22950262D01*
X12650442Y22986572D01*
X12525960Y22998832D01*
X11805286Y22998832D01*
X11785934Y23035036D01*
X11772771Y23051075D01*
X11714759Y23121764D01*
X11714755Y23121768D01*
X11690961Y23150761D01*
X11661969Y23174554D01*
X10210959Y24625562D01*
X10210959Y24722688D01*
X12525960Y24722688D01*
X12650442Y24734948D01*
X12770140Y24771258D01*
X12880454Y24830223D01*
X12977145Y24909575D01*
X13056497Y25006266D01*
X13107006Y25100760D01*
X14954914Y25100760D01*
X15005423Y25006266D01*
X15084775Y24909575D01*
X15181466Y24830223D01*
X15291780Y24771258D01*
X15411478Y24734948D01*
X15535960Y24722688D01*
X18285960Y24722688D01*
X18410442Y24734948D01*
X18530140Y24771258D01*
X18640454Y24830223D01*
X18737145Y24909575D01*
X18816497Y25006266D01*
X18867006Y25100760D01*
X19987768Y25100760D01*
X19987768Y24645950D01*
X20004712Y24473915D01*
X20054893Y24308491D01*
X20136382Y24156036D01*
X20246048Y24022408D01*
X20252404Y24017192D01*
X20174655Y23953385D01*
X20095303Y23856694D01*
X20036338Y23746380D01*
X20000028Y23626682D01*
X19987768Y23502200D01*
X19990840Y23300450D01*
X20149590Y23141700D01*
X21198840Y23141700D01*
X21198840Y23161700D01*
X21452840Y23161700D01*
X21452840Y23141700D01*
X22502090Y23141700D01*
X22660840Y23300450D01*
X22663912Y23502200D01*
X22651652Y23626682D01*
X22615342Y23746380D01*
X22556377Y23856694D01*
X22477025Y23953385D01*
X22399276Y24017192D01*
X22405632Y24022408D01*
X22515298Y24156036D01*
X22596787Y24308491D01*
X22646968Y24473915D01*
X22663912Y24645950D01*
X22663912Y25133450D01*
X22646968Y25305485D01*
X22596787Y25470909D01*
X22515298Y25623364D01*
X22405632Y25756992D01*
X22272004Y25866658D01*
X22119549Y25948147D01*
X21954125Y25998328D01*
X21782090Y26015272D01*
X21275069Y26015272D01*
X21261148Y26029193D01*
X21284746Y26086162D01*
X21324520Y26286121D01*
X21324520Y26489999D01*
X21284746Y26689958D01*
X21206725Y26878316D01*
X21093457Y27047834D01*
X20949294Y27191997D01*
X20779776Y27305265D01*
X20591418Y27383286D01*
X20391459Y27423060D01*
X20187581Y27423060D01*
X19987622Y27383286D01*
X19799264Y27305265D01*
X19629746Y27191997D01*
X19485583Y27047834D01*
X19372315Y26878316D01*
X19294294Y26689958D01*
X19280530Y26620760D01*
X18867006Y26620760D01*
X18816497Y26715254D01*
X18737145Y26811945D01*
X18640454Y26891297D01*
X18530140Y26950262D01*
X18410442Y26986572D01*
X18285960Y26998832D01*
X15535960Y26998832D01*
X15411478Y26986572D01*
X15291780Y26950262D01*
X15181466Y26891297D01*
X15084775Y26811945D01*
X15005423Y26715254D01*
X14954914Y26620760D01*
X13107006Y26620760D01*
X13056497Y26715254D01*
X12977145Y26811945D01*
X12880454Y26891297D01*
X12770140Y26950262D01*
X12650442Y26986572D01*
X12525960Y26998832D01*
X11378235Y26998832D01*
X16661084Y32281680D01*
X16690082Y32305478D01*
X16785055Y32421203D01*
X16855627Y32553232D01*
X16899084Y32696493D01*
X16910081Y32808146D01*
X16910081Y32808154D01*
X16913757Y32845479D01*
X16910081Y32882804D01*
X16910081Y37215680D01*
X19224541Y39530140D01*
X19657388Y39530140D01*
X19657388Y37930140D01*
X19669648Y37805658D01*
X19705958Y37685960D01*
X19764923Y37575646D01*
X19844275Y37478955D01*
X19940966Y37399603D01*
X20036654Y37348456D01*
X20032388Y37305140D01*
X20032388Y35305140D01*
X20044648Y35180658D01*
X20080958Y35060960D01*
X20139923Y34950646D01*
X20219275Y34853955D01*
X20315966Y34774603D01*
X20426280Y34715638D01*
X20545978Y34679328D01*
X20670460Y34667068D01*
X23170460Y34667068D01*
X23294942Y34679328D01*
X23414640Y34715638D01*
X23524954Y34774603D01*
X23621645Y34853955D01*
X23700997Y34950646D01*
X23759962Y35060960D01*
X23796272Y35180658D01*
X23808532Y35305140D01*
X23808532Y36397226D01*
X24640000Y35565758D01*
X24640001Y31691712D01*
X24596063Y31647774D01*
X24482795Y31478256D01*
X24404774Y31289898D01*
X24365000Y31089939D01*
X24365000Y30886061D01*
X24404774Y30686102D01*
X24482795Y30497744D01*
X24596063Y30328226D01*
X24740226Y30184063D01*
X24909744Y30070795D01*
X25098102Y29992774D01*
X25298061Y29953000D01*
X25501939Y29953000D01*
X25701898Y29992774D01*
X25890256Y30070795D01*
X26059774Y30184063D01*
X26203937Y30328226D01*
X26317205Y30497744D01*
X26395226Y30686102D01*
X26435000Y30886061D01*
X26435000Y31089939D01*
X26395226Y31289898D01*
X26317205Y31478256D01*
X26203937Y31647774D01*
X26160000Y31691711D01*
X26160000Y35843227D01*
X26163677Y35880560D01*
X26149003Y36029546D01*
X26105546Y36172807D01*
X26034974Y36304836D01*
X25963799Y36391563D01*
X25940001Y36420561D01*
X25911004Y36444358D01*
X23113884Y39241477D01*
X23090081Y39270481D01*
X22974356Y39365454D01*
X22933532Y39387275D01*
X22933532Y39530140D01*
X22921272Y39654622D01*
X22884962Y39774320D01*
X22825997Y39884634D01*
X22746645Y39981325D01*
X22652769Y40058367D01*
X23165282Y40570880D01*
X23650607Y40570880D01*
X23660833Y40537171D01*
X23742322Y40384716D01*
X23851988Y40251088D01*
X23985616Y40141422D01*
X24138071Y40059933D01*
X24303495Y40009752D01*
X24475530Y39992808D01*
X24963030Y39992808D01*
X25135065Y40009752D01*
X25300489Y40059933D01*
X25452944Y40141422D01*
X25586572Y40251088D01*
X25591788Y40257444D01*
X25655595Y40179695D01*
X25752286Y40100343D01*
X25862600Y40041378D01*
X25982298Y40005068D01*
X26106780Y39992808D01*
X26308530Y39995880D01*
X26467280Y40154630D01*
X26467280Y41203880D01*
X26447280Y41203880D01*
X26447280Y41457880D01*
X26467280Y41457880D01*
X26467280Y42507130D01*
X26308530Y42665880D01*
X26106780Y42668952D01*
X25982298Y42656692D01*
X25862600Y42620382D01*
X25752286Y42561417D01*
X25655595Y42482065D01*
X25591788Y42404316D01*
X25586572Y42410672D01*
X25452944Y42520338D01*
X25300489Y42601827D01*
X25135065Y42652008D01*
X24963030Y42668952D01*
X24475530Y42668952D01*
X24303495Y42652008D01*
X24138071Y42601827D01*
X23985616Y42520338D01*
X23851988Y42410672D01*
X23742322Y42277044D01*
X23660833Y42124589D01*
X23650607Y42090880D01*
X22887805Y42090880D01*
X22850480Y42094556D01*
X22813155Y42090880D01*
X22813147Y42090880D01*
X22701494Y42079883D01*
X22558233Y42036426D01*
X22426204Y41965854D01*
X22310479Y41870881D01*
X22286681Y41841883D01*
X20789083Y40344284D01*
X20760079Y40320481D01*
X20723892Y40276386D01*
X20665106Y40204756D01*
X20645573Y40168212D01*
X20295460Y40168212D01*
X20170978Y40155952D01*
X20051280Y40119642D01*
X19940966Y40060677D01*
X19844275Y39981325D01*
X19764923Y39884634D01*
X19705958Y39774320D01*
X19669648Y39654622D01*
X19657388Y39530140D01*
X19224541Y39530140D01*
X21811088Y42116685D01*
X21840081Y42140479D01*
X21863875Y42169472D01*
X21863879Y42169476D01*
X21935053Y42256203D01*
X21935054Y42256204D01*
X21954224Y42292068D01*
X22295460Y42292068D01*
X22419942Y42304328D01*
X22539640Y42340638D01*
X22649954Y42399603D01*
X22746645Y42478955D01*
X22825997Y42575646D01*
X22884962Y42685960D01*
X22921272Y42805658D01*
X22933532Y42930140D01*
X22933532Y43073685D01*
X22974356Y43095506D01*
X23090081Y43190479D01*
X23113884Y43219483D01*
X27315000Y47420599D01*
X27315000Y42623707D01*
X27206262Y42656692D01*
X27081780Y42668952D01*
X26880030Y42665880D01*
X26721280Y42507130D01*
X26721280Y41457880D01*
X26741280Y41457880D01*
X26741280Y41203880D01*
X26721280Y41203880D01*
X26721280Y40154630D01*
X26880030Y39995880D01*
X27081780Y39992808D01*
X27206262Y40005068D01*
X27315000Y40038053D01*
X27315000Y3814646D01*
X27171759Y4066796D01*
X26877813Y4407336D01*
X26523321Y4684296D01*
X26121785Y4887126D01*
X25688499Y5008102D01*
X25239968Y5042614D01*
X24793275Y4989350D01*
X24365435Y4850336D01*
X23972745Y4630869D01*
X23630162Y4339308D01*
X23350734Y3986757D01*
X23145105Y3586647D01*
X23021108Y3154217D01*
X22983465Y2705937D01*
X23033610Y2258884D01*
X23169633Y1830084D01*
X23386353Y1435871D01*
X23675516Y1091260D01*
X24026107Y809378D01*
X24264020Y685000D01*
X3761302Y685000D01*
X4052460Y842428D01*
X4399081Y1129178D01*
X4683403Y1477792D01*
X4894599Y1874993D01*
X5024622Y2305650D01*
X5068520Y2753360D01*
X5067621Y2817719D01*
X5011239Y3264029D01*
X4869242Y3690888D01*
X4647039Y4082036D01*
X4353093Y4422576D01*
X3998601Y4699536D01*
X3597065Y4902366D01*
X3163779Y5023342D01*
X2715248Y5057854D01*
X2268555Y5004590D01*
X1840715Y4865576D01*
X1448025Y4646109D01*
X1105442Y4354548D01*
X826014Y4001997D01*
X685000Y3727614D01*
X685000Y34286707D01*
X823171Y34212853D01*
X988595Y34162672D01*
X1160630Y34145728D01*
X1648130Y34145728D01*
X1820165Y34162672D01*
X1985589Y34212853D01*
X2138044Y34294342D01*
X2271672Y34404008D01*
X2341880Y34489556D01*
X2412088Y34404008D01*
X2519380Y34315955D01*
X2519381Y30133249D01*
X2511795Y30121896D01*
X2433774Y29933538D01*
X2394000Y29733579D01*
X2394000Y29529701D01*
X2433774Y29329742D01*
X2511795Y29141384D01*
X2625063Y28971866D01*
X2769226Y28827703D01*
X2938744Y28714435D01*
X3127102Y28636414D01*
X3327061Y28596640D01*
X3530939Y28596640D01*
X3730898Y28636414D01*
X3919256Y28714435D01*
X4088774Y28827703D01*
X4232937Y28971866D01*
X4346205Y29141384D01*
X4424226Y29329742D01*
X4464000Y29529701D01*
X4464000Y29733579D01*
X4424226Y29933538D01*
X4346205Y30121896D01*
X4232937Y30291414D01*
X4088774Y30435577D01*
X4039380Y30468581D01*
X4039380Y34315955D01*
X4146672Y34404008D01*
X4256338Y34537636D01*
X4337827Y34690091D01*
X4388008Y34855515D01*
X4404952Y35027550D01*
X4404952Y35041071D01*
X4439923Y34975646D01*
X4519275Y34878955D01*
X4615966Y34799603D01*
X4726280Y34740638D01*
X4845978Y34704328D01*
X4970460Y34692068D01*
X7470460Y34692068D01*
X7594942Y34704328D01*
X7714640Y34740638D01*
X7824954Y34799603D01*
X7921645Y34878955D01*
X8000997Y34975646D01*
X8059962Y35085960D01*
X8096272Y35205658D01*
X8108532Y35330140D01*
X8108532Y37330140D01*
X8096272Y37454622D01*
X8059962Y37574320D01*
X8057765Y37578430D01*
X8075997Y37600646D01*
X8134962Y37710960D01*
X8171272Y37830658D01*
X8183532Y37955140D01*
X8183532Y39555140D01*
X8171272Y39679622D01*
X8134962Y39799320D01*
X8075997Y39909634D01*
X7997618Y40005140D01*
X8075997Y40100646D01*
X8134962Y40210960D01*
X8171272Y40330658D01*
X8183532Y40455140D01*
X8180460Y40969390D01*
X8021710Y41128140D01*
X6672460Y41128140D01*
X6672460Y41108140D01*
X6418460Y41108140D01*
X6418460Y41128140D01*
X5069210Y41128140D01*
X4910460Y40969390D01*
X4907388Y40455140D01*
X4919648Y40330658D01*
X4955958Y40210960D01*
X5014923Y40100646D01*
X5093302Y40005140D01*
X5014923Y39909634D01*
X4955958Y39799320D01*
X4919648Y39679622D01*
X4907388Y39555140D01*
X4907388Y38465480D01*
X4851890Y38465480D01*
X4851890Y39440307D01*
X4855567Y39477640D01*
X4840893Y39626626D01*
X4797436Y39769887D01*
X4791774Y39780480D01*
X4726864Y39901916D01*
X4631891Y40017641D01*
X4602887Y40041444D01*
X4322524Y40321807D01*
X4298721Y40350811D01*
X4182996Y40445784D01*
X4122514Y40478113D01*
X5047876Y41403474D01*
X5069210Y41382140D01*
X6418460Y41382140D01*
X6418460Y41402140D01*
X6672460Y41402140D01*
X6672460Y41382140D01*
X8021710Y41382140D01*
X8180460Y41540890D01*
X8183532Y42055140D01*
X8171272Y42179622D01*
X8134962Y42299320D01*
X8075997Y42409634D01*
X7996645Y42506325D01*
X7982858Y42517640D01*
X7996645Y42528955D01*
X8075997Y42625646D01*
X8134962Y42735960D01*
X8171272Y42855658D01*
X8183532Y42980140D01*
X8183532Y44580140D01*
X8171272Y44704622D01*
X8134962Y44824320D01*
X8075997Y44934634D01*
X8057765Y44956850D01*
X8059962Y44960960D01*
X8096272Y45080658D01*
X8108532Y45205140D01*
X8108532Y47205140D01*
X8096272Y47329622D01*
X8059962Y47449320D01*
X8000997Y47559634D01*
X7921645Y47656325D01*
X7824954Y47735677D01*
X7714640Y47794642D01*
X7594942Y47830952D01*
X7470460Y47843212D01*
X4970460Y47843212D01*
X4845978Y47830952D01*
X4726280Y47794642D01*
X4615966Y47735677D01*
X4519275Y47656325D01*
X4439923Y47559634D01*
X4402652Y47489906D01*
X4402652Y47613890D01*
X4385708Y47785925D01*
X4335527Y47951349D01*
X4254038Y48103804D01*
X4144372Y48237432D01*
X4010744Y48347098D01*
X3858289Y48428587D01*
X3692865Y48478768D01*
X3520830Y48495712D01*
X3033330Y48495712D01*
X2861295Y48478768D01*
X2695871Y48428587D01*
X2543416Y48347098D01*
X2409788Y48237432D01*
X2404572Y48231076D01*
X2340765Y48308825D01*
X2244074Y48388177D01*
X2133760Y48447142D01*
X2014062Y48483452D01*
X1889580Y48495712D01*
X1687830Y48492640D01*
X1529080Y48333890D01*
X1529080Y47284640D01*
X1549080Y47284640D01*
X1549080Y47030640D01*
X1529080Y47030640D01*
X1529080Y45981390D01*
X1687830Y45822640D01*
X1889580Y45819568D01*
X2014062Y45831828D01*
X2133760Y45868138D01*
X2244074Y45927103D01*
X2340765Y46006455D01*
X2404572Y46084204D01*
X2409788Y46077848D01*
X2435321Y46056894D01*
X2435320Y44967605D01*
X2328028Y44879552D01*
X2257820Y44794004D01*
X2187612Y44879552D01*
X2053984Y44989218D01*
X1901529Y45070707D01*
X1736105Y45120888D01*
X1564070Y45137832D01*
X1076570Y45137832D01*
X904535Y45120888D01*
X739111Y45070707D01*
X685000Y45041784D01*
X685000Y45863709D01*
X790098Y45831828D01*
X914580Y45819568D01*
X1116330Y45822640D01*
X1275080Y45981390D01*
X1275080Y47030640D01*
X1255080Y47030640D01*
X1255080Y47284640D01*
X1275080Y47284640D01*
X1275080Y48333890D01*
X1116330Y48492640D01*
X914580Y48495712D01*
X790098Y48483452D01*
X685000Y48451571D01*
X685000Y49405140D01*
X11682388Y49405140D01*
X11682388Y46405140D01*
X11694648Y46280658D01*
X11730958Y46160960D01*
X11789923Y46050646D01*
X11869275Y45953955D01*
X11965966Y45874603D01*
X12076280Y45815638D01*
X12195978Y45779328D01*
X12320460Y45767068D01*
X15820460Y45767068D01*
X15944942Y45779328D01*
X16064640Y45815638D01*
X16174954Y45874603D01*
X16271645Y45953955D01*
X16350997Y46050646D01*
X16409962Y46160960D01*
X16446272Y46280658D01*
X16458532Y46405140D01*
X16458532Y49405140D01*
X16446272Y49529622D01*
X16409962Y49649320D01*
X16350997Y49759634D01*
X16271645Y49856325D01*
X16174954Y49935677D01*
X16064640Y49994642D01*
X15944942Y50030952D01*
X15820460Y50043212D01*
X12320460Y50043212D01*
X12195978Y50030952D01*
X12076280Y49994642D01*
X11965966Y49935677D01*
X11869275Y49856325D01*
X11789923Y49759634D01*
X11730958Y49649320D01*
X11694648Y49529622D01*
X11682388Y49405140D01*
X685000Y49405140D01*
X685000Y51469160D01*
X12447968Y51469160D01*
X12460228Y51344678D01*
X12496538Y51224980D01*
X12555503Y51114666D01*
X12634855Y51017975D01*
X12731546Y50938623D01*
X12841860Y50879658D01*
X12961558Y50843348D01*
X13086040Y50831088D01*
X13100290Y50834160D01*
X13259040Y50992910D01*
X13259040Y51842160D01*
X12609790Y51842160D01*
X12451040Y51683410D01*
X12447968Y51469160D01*
X685000Y51469160D01*
X685000Y55863365D01*
X3767831Y55863365D01*
X3780091Y55738883D01*
X3816400Y55619185D01*
X3875365Y55508871D01*
X3954718Y55412180D01*
X3966966Y55404276D01*
X4191472Y55404276D01*
X4791983Y56004786D01*
X4332894Y56463875D01*
X4108387Y56463875D01*
X3954718Y56314550D01*
X3875365Y56217858D01*
X3816400Y56107544D01*
X3780091Y55987846D01*
X3767831Y55863365D01*
X685000Y55863365D01*
X685000Y58876433D01*
X2031400Y58876433D01*
X2187088Y58492541D01*
X2246052Y58382226D01*
X2325405Y58285535D01*
X2422097Y58206183D01*
X2532411Y58147219D01*
X2652108Y58110909D01*
X2776590Y58098648D01*
X2901072Y58110908D01*
X3020770Y58147218D01*
X3205987Y58227263D01*
X3291902Y58434680D01*
X2890371Y59404061D01*
X2117315Y59083850D01*
X2031400Y58876433D01*
X685000Y58876433D01*
X685000Y60030152D01*
X1602761Y60030152D01*
X1615021Y59905670D01*
X1651332Y59785972D01*
X1812696Y59404430D01*
X2020113Y59318516D01*
X2793170Y59638726D01*
X2391639Y60608107D01*
X2184222Y60694021D01*
X1996654Y60619653D01*
X1886339Y60560689D01*
X1789648Y60481337D01*
X1710296Y60384645D01*
X1651332Y60274331D01*
X1615022Y60154634D01*
X1602761Y60030152D01*
X685000Y60030152D01*
X685000Y65120560D01*
X721968Y65120560D01*
X725040Y65106310D01*
X883790Y64947560D01*
X1733040Y64947560D01*
X1733040Y65596810D01*
X1574290Y65755560D01*
X1360040Y65758632D01*
X1235558Y65746372D01*
X1115860Y65710062D01*
X1005546Y65651097D01*
X908855Y65571745D01*
X829503Y65475054D01*
X770538Y65364740D01*
X734228Y65245042D01*
X721968Y65120560D01*
X685000Y65120560D01*
X685000Y68288734D01*
X1600224Y68288734D01*
X1612485Y68164252D01*
X1648795Y68044555D01*
X1707759Y67934241D01*
X1787111Y67837549D01*
X1883802Y67758197D01*
X1994117Y67699233D01*
X2181685Y67624865D01*
X2389102Y67710779D01*
X2790633Y68680160D01*
X2017576Y69000370D01*
X1810159Y68914456D01*
X1648795Y68532914D01*
X1612484Y68413216D01*
X1600224Y68288734D01*
X685000Y68288734D01*
X685000Y74234795D01*
X5290317Y74234795D01*
X5290317Y74010289D01*
X5890827Y73409778D01*
X6349916Y73868867D01*
X6349916Y74093374D01*
X6200591Y74247043D01*
X6103899Y74326396D01*
X5993585Y74385361D01*
X5873887Y74421670D01*
X5749406Y74433930D01*
X5624924Y74421670D01*
X5505226Y74385361D01*
X5394912Y74326396D01*
X5298221Y74247043D01*
X5290317Y74234795D01*
X685000Y74234795D01*
X685000Y75432547D01*
X7960962Y75432547D01*
X7973222Y75308065D01*
X8009532Y75188367D01*
X8089577Y75003150D01*
X8296994Y74917235D01*
X9266375Y75318766D01*
X8946164Y76091822D01*
X8738747Y76177737D01*
X8354855Y76022049D01*
X8244540Y75963085D01*
X8147849Y75883732D01*
X8068497Y75787040D01*
X8009533Y75676726D01*
X7973223Y75557029D01*
X7960962Y75432547D01*
X685000Y75432547D01*
X685000Y76189024D01*
X9180830Y76189024D01*
X9501040Y75415967D01*
X10470421Y75817498D01*
X10556335Y76024915D01*
X10481967Y76212483D01*
X10423003Y76322798D01*
X10343651Y76419489D01*
X10246959Y76498841D01*
X10136645Y76557805D01*
X10016948Y76594115D01*
X9892466Y76606376D01*
X9767984Y76594116D01*
X9648286Y76557805D01*
X9266744Y76396441D01*
X9180830Y76189024D01*
X685000Y76189024D01*
X685000Y94236844D01*
X846393Y93943271D01*
X1135556Y93598660D01*
X1486147Y93316778D01*
X1884812Y93108361D01*
X2316366Y92981348D01*
X2764372Y92940576D01*
X3211765Y92987599D01*
X3641503Y93120625D01*
X4037220Y93334588D01*
X4383841Y93621338D01*
X4668163Y93969952D01*
X4879359Y94367153D01*
X5009382Y94797810D01*
X5046087Y95172160D01*
X8478888Y95172160D01*
X8491148Y95047678D01*
X8527458Y94927980D01*
X8586423Y94817666D01*
X8665775Y94720975D01*
X8762466Y94641623D01*
X8872780Y94582658D01*
X8992478Y94546348D01*
X9116960Y94534088D01*
X9681210Y94537160D01*
X9839960Y94695910D01*
X9839960Y95895160D01*
X8640710Y95895160D01*
X8481960Y95736410D01*
X8478888Y95172160D01*
X5046087Y95172160D01*
X5053280Y95245520D01*
X5052381Y95309879D01*
X4995999Y95756189D01*
X4854002Y96183048D01*
X4631799Y96574196D01*
X4337853Y96914736D01*
X3983361Y97191696D01*
X3739262Y97314999D01*
X8658926Y97314999D01*
X8586423Y97226654D01*
G36*
X1531380Y38912800D02*
G01*
X1551380Y38912800D01*
X1551380Y38658800D01*
X1531380Y38658800D01*
X1531380Y37609550D01*
X1690130Y37450800D01*
X1891880Y37447728D01*
X2016362Y37459988D01*
X2136060Y37496298D01*
X2246374Y37555263D01*
X2343065Y37634615D01*
X2406872Y37712364D01*
X2412088Y37706008D01*
X2519381Y37617955D01*
X2519380Y36651645D01*
X2412088Y36563592D01*
X2341880Y36478044D01*
X2271672Y36563592D01*
X2138044Y36673258D01*
X1985589Y36754747D01*
X1820165Y36804928D01*
X1648130Y36821872D01*
X1351870Y36821872D01*
X1351870Y38932800D01*
X1531380Y38932800D01*
X1531380Y38912800D01*
X1531380Y38912800D01*
G37*
X1531380Y38912800D02*
X1551380Y38912800D01*
X1551380Y38658800D01*
X1531380Y38658800D01*
X1531380Y37609550D01*
X1690130Y37450800D01*
X1891880Y37447728D01*
X2016362Y37459988D01*
X2136060Y37496298D01*
X2246374Y37555263D01*
X2343065Y37634615D01*
X2406872Y37712364D01*
X2412088Y37706008D01*
X2519381Y37617955D01*
X2519380Y36651645D01*
X2412088Y36563592D01*
X2341880Y36478044D01*
X2271672Y36563592D01*
X2138044Y36673258D01*
X1985589Y36754747D01*
X1820165Y36804928D01*
X1648130Y36821872D01*
X1351870Y36821872D01*
X1351870Y38932800D01*
X1531380Y38932800D01*
X1531380Y38912800D01*
G36*
X27315001Y63957228D02*
G01*
X27285542Y64054340D01*
X27228979Y64160160D01*
X27285542Y64265980D01*
X27315001Y64363092D01*
X27315001Y63957228D01*
X27315001Y63957228D01*
G37*
X27315001Y63957228D02*
X27285542Y64054340D01*
X27228979Y64160160D01*
X27285542Y64265980D01*
X27315001Y64363092D01*
X27315001Y63957228D01*
G36*
X23934505Y97142748D02*
G01*
X23591922Y96851187D01*
X23312494Y96498636D01*
X23106865Y96098526D01*
X22982868Y95666096D01*
X22945225Y95217816D01*
X22995370Y94770763D01*
X23131393Y94341963D01*
X23348113Y93947750D01*
X23637276Y93603139D01*
X23987867Y93321257D01*
X24386532Y93112840D01*
X24818086Y92985827D01*
X25266092Y92945055D01*
X25713485Y92992078D01*
X26143223Y93125104D01*
X26538940Y93339067D01*
X26885561Y93625817D01*
X27169883Y93974431D01*
X27315001Y94247358D01*
X27315001Y65257228D01*
X27285542Y65354340D01*
X27226577Y65464654D01*
X27147225Y65561345D01*
X27050534Y65640697D01*
X26940220Y65699662D01*
X26863963Y65722794D01*
X26831014Y65784436D01*
X26736041Y65900161D01*
X26707044Y65923958D01*
X25266349Y67364652D01*
X25362398Y67406161D01*
X25448313Y67613578D01*
X25114245Y68420089D01*
X25115472Y68432549D01*
X25100798Y68581535D01*
X25070881Y68680160D01*
X25281447Y68680160D01*
X25682978Y67710779D01*
X25890395Y67624865D01*
X26077963Y67699233D01*
X26188278Y67758197D01*
X26284969Y67837549D01*
X26364321Y67934241D01*
X26423285Y68044555D01*
X26459595Y68164252D01*
X26471856Y68288734D01*
X26459596Y68413216D01*
X26423285Y68532914D01*
X26261921Y68914456D01*
X26054504Y69000370D01*
X25281447Y68680160D01*
X25070881Y68680160D01*
X25057341Y68724796D01*
X24986769Y68856825D01*
X24915594Y68943552D01*
X24891796Y68972550D01*
X24882119Y68980492D01*
X24548050Y69787005D01*
X24340633Y69872919D01*
X24153065Y69798551D01*
X24092804Y69766341D01*
X23974939Y69884206D01*
X24782715Y69884206D01*
X25184246Y68914825D01*
X25957302Y69235036D01*
X26043217Y69442453D01*
X25887529Y69826345D01*
X25828565Y69936660D01*
X25749212Y70033351D01*
X25652520Y70112703D01*
X25542206Y70171667D01*
X25422509Y70207977D01*
X25298027Y70220238D01*
X25173545Y70207978D01*
X25053847Y70171668D01*
X24868630Y70091623D01*
X24782715Y69884206D01*
X23974939Y69884206D01*
X22869720Y70989425D01*
X22872823Y71020929D01*
X22865281Y71097506D01*
X22941858Y71089964D01*
X23066339Y71102224D01*
X23186037Y71138533D01*
X23296351Y71197498D01*
X23393043Y71276851D01*
X23542368Y71430520D01*
X23542368Y71655027D01*
X23083279Y72114116D01*
X23069137Y72099973D01*
X22889531Y72279579D01*
X22903674Y72293721D01*
X23262884Y72293721D01*
X23721973Y71834632D01*
X23946480Y71834632D01*
X24100149Y71983957D01*
X24179502Y72080649D01*
X24238467Y72190963D01*
X24274776Y72310661D01*
X24287036Y72435142D01*
X24274776Y72559624D01*
X24238467Y72679322D01*
X24179502Y72789636D01*
X24100149Y72886327D01*
X24087901Y72894231D01*
X23863395Y72894231D01*
X23262884Y72293721D01*
X22903674Y72293721D01*
X22889532Y72307864D01*
X23069137Y72487469D01*
X23083279Y72473326D01*
X23683789Y73073837D01*
X23683789Y73298343D01*
X23675885Y73310591D01*
X23579194Y73389944D01*
X23468880Y73448909D01*
X23354058Y73483739D01*
X23319227Y73598561D01*
X23260262Y73708875D01*
X23180910Y73805566D01*
X22756646Y74229830D01*
X22659955Y74309182D01*
X22549641Y74368147D01*
X22429943Y74404457D01*
X22305461Y74416717D01*
X22180979Y74404457D01*
X22078447Y74373354D01*
X21664398Y74787403D01*
X21640596Y74816406D01*
X21524871Y74911379D01*
X21392842Y74981951D01*
X21249581Y75025408D01*
X21137928Y75036405D01*
X21137917Y75036405D01*
X21100595Y75040081D01*
X21063273Y75036405D01*
X19967336Y75036405D01*
X20030816Y75183293D01*
X20067126Y75302991D01*
X20079386Y75427473D01*
X20067125Y75551955D01*
X20030815Y75671652D01*
X19971851Y75781966D01*
X19892499Y75878658D01*
X19795808Y75958011D01*
X19685493Y76016975D01*
X19301601Y76172663D01*
X19094187Y76086749D01*
X19141851Y76201821D01*
X19217014Y76252043D01*
X19361177Y76396206D01*
X19474445Y76565724D01*
X19552466Y76754082D01*
X19563775Y76810937D01*
X20313549Y77560710D01*
X20347317Y77588423D01*
X20398695Y77651026D01*
X20457911Y77723181D01*
X20540089Y77876926D01*
X20590695Y78043750D01*
X20591429Y78051206D01*
X20603500Y78173763D01*
X20603500Y78173771D01*
X20607781Y78217240D01*
X20603500Y78260709D01*
X20603500Y78372924D01*
X20661603Y78285966D01*
X20805766Y78141803D01*
X20975284Y78028535D01*
X21163642Y77950514D01*
X21363601Y77910740D01*
X21567479Y77910740D01*
X21767438Y77950514D01*
X21955796Y78028535D01*
X22125314Y78141803D01*
X22269477Y78285966D01*
X22382745Y78455484D01*
X22460766Y78643842D01*
X22500540Y78843801D01*
X22500540Y79047679D01*
X22460766Y79247638D01*
X22382745Y79435996D01*
X22269477Y79605514D01*
X22225540Y79649451D01*
X22225540Y79823957D01*
X22229217Y79861290D01*
X22214543Y80010276D01*
X22171086Y80153537D01*
X22100514Y80285566D01*
X22029339Y80372293D01*
X22005541Y80401291D01*
X21976544Y80425088D01*
X20761644Y81639987D01*
X20737841Y81668991D01*
X20622116Y81763964D01*
X20490087Y81834536D01*
X20346826Y81877993D01*
X20235173Y81888990D01*
X20235162Y81888990D01*
X20197840Y81892666D01*
X20160518Y81888990D01*
X17193777Y81888990D01*
X17156452Y81892666D01*
X17119127Y81888990D01*
X17119119Y81888990D01*
X17007466Y81877993D01*
X16864205Y81834536D01*
X16732176Y81763964D01*
X16616451Y81668991D01*
X16592653Y81639993D01*
X15980442Y81027782D01*
X15965342Y81077560D01*
X15906377Y81187874D01*
X15827025Y81284565D01*
X15730334Y81363917D01*
X15620020Y81422882D01*
X15500322Y81459192D01*
X15375840Y81471452D01*
X14575840Y81471452D01*
X14451358Y81459192D01*
X14331660Y81422882D01*
X14221346Y81363917D01*
X14124655Y81284565D01*
X14045303Y81187874D01*
X14025840Y81151462D01*
X14006377Y81187874D01*
X13927025Y81284565D01*
X13830334Y81363917D01*
X13720020Y81422882D01*
X13600322Y81459192D01*
X13475840Y81471452D01*
X12675840Y81471452D01*
X12551358Y81459192D01*
X12431660Y81422882D01*
X12321346Y81363917D01*
X12224655Y81284565D01*
X12145303Y81187874D01*
X12086338Y81077560D01*
X12050028Y80957862D01*
X12043533Y80891920D01*
X11254073Y80891920D01*
X11243847Y80925629D01*
X11162358Y81078084D01*
X11052692Y81211712D01*
X10919064Y81321378D01*
X10766609Y81402867D01*
X10601185Y81453048D01*
X10429150Y81469992D01*
X9941650Y81469992D01*
X9769615Y81453048D01*
X9604191Y81402867D01*
X9451736Y81321378D01*
X9318108Y81211712D01*
X9247900Y81126164D01*
X9177692Y81211712D01*
X9044064Y81321378D01*
X8891609Y81402867D01*
X8726185Y81453048D01*
X8554150Y81469992D01*
X8364879Y81469992D01*
X8364879Y83085516D01*
X8554288Y83047840D01*
X8829472Y83047840D01*
X9099370Y83101526D01*
X9353607Y83206835D01*
X9582415Y83359720D01*
X9777000Y83554305D01*
X9881887Y83711280D01*
X17903928Y83711280D01*
X17916188Y83586798D01*
X17952498Y83467100D01*
X18011463Y83356786D01*
X18090815Y83260095D01*
X18187506Y83180743D01*
X18297820Y83121778D01*
X18417518Y83085468D01*
X18542000Y83073208D01*
X19018250Y83076280D01*
X19177000Y83235030D01*
X19177000Y84346280D01*
X19431000Y84346280D01*
X19431000Y83235030D01*
X19589750Y83076280D01*
X20066000Y83073208D01*
X20190482Y83085468D01*
X20310180Y83121778D01*
X20420494Y83180743D01*
X20517185Y83260095D01*
X20596537Y83356786D01*
X20655502Y83467100D01*
X20691812Y83586798D01*
X20704072Y83711280D01*
X20701000Y84187530D01*
X20542250Y84346280D01*
X19431000Y84346280D01*
X19177000Y84346280D01*
X18065750Y84346280D01*
X17907000Y84187530D01*
X17903928Y83711280D01*
X9881887Y83711280D01*
X9929885Y83783113D01*
X10035194Y84037350D01*
X10088880Y84307248D01*
X10088880Y84582432D01*
X10035194Y84852330D01*
X9929885Y85106567D01*
X9843882Y85235280D01*
X17903928Y85235280D01*
X17907000Y84759030D01*
X18065750Y84600280D01*
X19177000Y84600280D01*
X19177000Y84620280D01*
X19431000Y84620280D01*
X19431000Y84600280D01*
X20542250Y84600280D01*
X20701000Y84759030D01*
X20704072Y85235280D01*
X20691812Y85359762D01*
X20655502Y85479460D01*
X20596537Y85589774D01*
X20517185Y85686465D01*
X20479234Y85717610D01*
X20542005Y85811553D01*
X20647314Y86065790D01*
X20701000Y86335688D01*
X20701000Y86610872D01*
X20647314Y86880770D01*
X20542005Y87135007D01*
X20389120Y87363815D01*
X20279655Y87473280D01*
X20389120Y87582745D01*
X20542005Y87811553D01*
X20647314Y88065790D01*
X20701000Y88335688D01*
X20701000Y88610872D01*
X20647314Y88880770D01*
X20542005Y89135007D01*
X20389120Y89363815D01*
X20279655Y89473280D01*
X20389120Y89582745D01*
X20542005Y89811553D01*
X20647314Y90065790D01*
X20701000Y90335688D01*
X20701000Y90610872D01*
X20647314Y90880770D01*
X20542005Y91135007D01*
X20389120Y91363815D01*
X20194535Y91558400D01*
X19965727Y91711285D01*
X19711490Y91816594D01*
X19441592Y91870280D01*
X19166408Y91870280D01*
X18896510Y91816594D01*
X18642273Y91711285D01*
X18413465Y91558400D01*
X18218880Y91363815D01*
X18065995Y91135007D01*
X17960686Y90880770D01*
X17907000Y90610872D01*
X17907000Y90335688D01*
X17960686Y90065790D01*
X18065995Y89811553D01*
X18218880Y89582745D01*
X18328345Y89473280D01*
X18218880Y89363815D01*
X18065995Y89135007D01*
X17960686Y88880770D01*
X17907000Y88610872D01*
X17907000Y88335688D01*
X17960686Y88065790D01*
X18065995Y87811553D01*
X18218880Y87582745D01*
X18328345Y87473280D01*
X18218880Y87363815D01*
X18065995Y87135007D01*
X17960686Y86880770D01*
X17907000Y86610872D01*
X17907000Y86335688D01*
X17960686Y86065790D01*
X18065995Y85811553D01*
X18128766Y85717610D01*
X18090815Y85686465D01*
X18011463Y85589774D01*
X17952498Y85479460D01*
X17916188Y85359762D01*
X17903928Y85235280D01*
X9843882Y85235280D01*
X9777000Y85335375D01*
X9667535Y85444840D01*
X9777000Y85554305D01*
X9929885Y85783113D01*
X10035194Y86037350D01*
X10088880Y86307248D01*
X10088880Y86582432D01*
X10058252Y86736411D01*
X17247964Y93926122D01*
X17276962Y93949920D01*
X17371935Y94065645D01*
X17442507Y94197674D01*
X17485964Y94340935D01*
X17496961Y94452588D01*
X17496961Y94452597D01*
X17500637Y94489920D01*
X17496961Y94527243D01*
X17496961Y94538839D01*
X17514010Y94537160D01*
X17659910Y94537160D01*
X17878071Y94558647D01*
X18157994Y94643561D01*
X18415974Y94781454D01*
X18642094Y94967026D01*
X18827666Y95193146D01*
X18965559Y95451126D01*
X19050473Y95731049D01*
X19079145Y96022160D01*
X19050473Y96313271D01*
X18965559Y96593194D01*
X18827666Y96851174D01*
X18642094Y97077294D01*
X18415974Y97262866D01*
X18318440Y97314999D01*
X24242712Y97314999D01*
X23934505Y97142748D01*
X23934505Y97142748D01*
G37*
X23934505Y97142748D02*
X23591922Y96851187D01*
X23312494Y96498636D01*
X23106865Y96098526D01*
X22982868Y95666096D01*
X22945225Y95217816D01*
X22995370Y94770763D01*
X23131393Y94341963D01*
X23348113Y93947750D01*
X23637276Y93603139D01*
X23987867Y93321257D01*
X24386532Y93112840D01*
X24818086Y92985827D01*
X25266092Y92945055D01*
X25713485Y92992078D01*
X26143223Y93125104D01*
X26538940Y93339067D01*
X26885561Y93625817D01*
X27169883Y93974431D01*
X27315001Y94247358D01*
X27315001Y65257228D01*
X27285542Y65354340D01*
X27226577Y65464654D01*
X27147225Y65561345D01*
X27050534Y65640697D01*
X26940220Y65699662D01*
X26863963Y65722794D01*
X26831014Y65784436D01*
X26736041Y65900161D01*
X26707044Y65923958D01*
X25266349Y67364652D01*
X25362398Y67406161D01*
X25448313Y67613578D01*
X25114245Y68420089D01*
X25115472Y68432549D01*
X25100798Y68581535D01*
X25070881Y68680160D01*
X25281447Y68680160D01*
X25682978Y67710779D01*
X25890395Y67624865D01*
X26077963Y67699233D01*
X26188278Y67758197D01*
X26284969Y67837549D01*
X26364321Y67934241D01*
X26423285Y68044555D01*
X26459595Y68164252D01*
X26471856Y68288734D01*
X26459596Y68413216D01*
X26423285Y68532914D01*
X26261921Y68914456D01*
X26054504Y69000370D01*
X25281447Y68680160D01*
X25070881Y68680160D01*
X25057341Y68724796D01*
X24986769Y68856825D01*
X24915594Y68943552D01*
X24891796Y68972550D01*
X24882119Y68980492D01*
X24548050Y69787005D01*
X24340633Y69872919D01*
X24153065Y69798551D01*
X24092804Y69766341D01*
X23974939Y69884206D01*
X24782715Y69884206D01*
X25184246Y68914825D01*
X25957302Y69235036D01*
X26043217Y69442453D01*
X25887529Y69826345D01*
X25828565Y69936660D01*
X25749212Y70033351D01*
X25652520Y70112703D01*
X25542206Y70171667D01*
X25422509Y70207977D01*
X25298027Y70220238D01*
X25173545Y70207978D01*
X25053847Y70171668D01*
X24868630Y70091623D01*
X24782715Y69884206D01*
X23974939Y69884206D01*
X22869720Y70989425D01*
X22872823Y71020929D01*
X22865281Y71097506D01*
X22941858Y71089964D01*
X23066339Y71102224D01*
X23186037Y71138533D01*
X23296351Y71197498D01*
X23393043Y71276851D01*
X23542368Y71430520D01*
X23542368Y71655027D01*
X23083279Y72114116D01*
X23069137Y72099973D01*
X22889531Y72279579D01*
X22903674Y72293721D01*
X23262884Y72293721D01*
X23721973Y71834632D01*
X23946480Y71834632D01*
X24100149Y71983957D01*
X24179502Y72080649D01*
X24238467Y72190963D01*
X24274776Y72310661D01*
X24287036Y72435142D01*
X24274776Y72559624D01*
X24238467Y72679322D01*
X24179502Y72789636D01*
X24100149Y72886327D01*
X24087901Y72894231D01*
X23863395Y72894231D01*
X23262884Y72293721D01*
X22903674Y72293721D01*
X22889532Y72307864D01*
X23069137Y72487469D01*
X23083279Y72473326D01*
X23683789Y73073837D01*
X23683789Y73298343D01*
X23675885Y73310591D01*
X23579194Y73389944D01*
X23468880Y73448909D01*
X23354058Y73483739D01*
X23319227Y73598561D01*
X23260262Y73708875D01*
X23180910Y73805566D01*
X22756646Y74229830D01*
X22659955Y74309182D01*
X22549641Y74368147D01*
X22429943Y74404457D01*
X22305461Y74416717D01*
X22180979Y74404457D01*
X22078447Y74373354D01*
X21664398Y74787403D01*
X21640596Y74816406D01*
X21524871Y74911379D01*
X21392842Y74981951D01*
X21249581Y75025408D01*
X21137928Y75036405D01*
X21137917Y75036405D01*
X21100595Y75040081D01*
X21063273Y75036405D01*
X19967336Y75036405D01*
X20030816Y75183293D01*
X20067126Y75302991D01*
X20079386Y75427473D01*
X20067125Y75551955D01*
X20030815Y75671652D01*
X19971851Y75781966D01*
X19892499Y75878658D01*
X19795808Y75958011D01*
X19685493Y76016975D01*
X19301601Y76172663D01*
X19094187Y76086749D01*
X19141851Y76201821D01*
X19217014Y76252043D01*
X19361177Y76396206D01*
X19474445Y76565724D01*
X19552466Y76754082D01*
X19563775Y76810937D01*
X20313549Y77560710D01*
X20347317Y77588423D01*
X20398695Y77651026D01*
X20457911Y77723181D01*
X20540089Y77876926D01*
X20590695Y78043750D01*
X20591429Y78051206D01*
X20603500Y78173763D01*
X20603500Y78173771D01*
X20607781Y78217240D01*
X20603500Y78260709D01*
X20603500Y78372924D01*
X20661603Y78285966D01*
X20805766Y78141803D01*
X20975284Y78028535D01*
X21163642Y77950514D01*
X21363601Y77910740D01*
X21567479Y77910740D01*
X21767438Y77950514D01*
X21955796Y78028535D01*
X22125314Y78141803D01*
X22269477Y78285966D01*
X22382745Y78455484D01*
X22460766Y78643842D01*
X22500540Y78843801D01*
X22500540Y79047679D01*
X22460766Y79247638D01*
X22382745Y79435996D01*
X22269477Y79605514D01*
X22225540Y79649451D01*
X22225540Y79823957D01*
X22229217Y79861290D01*
X22214543Y80010276D01*
X22171086Y80153537D01*
X22100514Y80285566D01*
X22029339Y80372293D01*
X22005541Y80401291D01*
X21976544Y80425088D01*
X20761644Y81639987D01*
X20737841Y81668991D01*
X20622116Y81763964D01*
X20490087Y81834536D01*
X20346826Y81877993D01*
X20235173Y81888990D01*
X20235162Y81888990D01*
X20197840Y81892666D01*
X20160518Y81888990D01*
X17193777Y81888990D01*
X17156452Y81892666D01*
X17119127Y81888990D01*
X17119119Y81888990D01*
X17007466Y81877993D01*
X16864205Y81834536D01*
X16732176Y81763964D01*
X16616451Y81668991D01*
X16592653Y81639993D01*
X15980442Y81027782D01*
X15965342Y81077560D01*
X15906377Y81187874D01*
X15827025Y81284565D01*
X15730334Y81363917D01*
X15620020Y81422882D01*
X15500322Y81459192D01*
X15375840Y81471452D01*
X14575840Y81471452D01*
X14451358Y81459192D01*
X14331660Y81422882D01*
X14221346Y81363917D01*
X14124655Y81284565D01*
X14045303Y81187874D01*
X14025840Y81151462D01*
X14006377Y81187874D01*
X13927025Y81284565D01*
X13830334Y81363917D01*
X13720020Y81422882D01*
X13600322Y81459192D01*
X13475840Y81471452D01*
X12675840Y81471452D01*
X12551358Y81459192D01*
X12431660Y81422882D01*
X12321346Y81363917D01*
X12224655Y81284565D01*
X12145303Y81187874D01*
X12086338Y81077560D01*
X12050028Y80957862D01*
X12043533Y80891920D01*
X11254073Y80891920D01*
X11243847Y80925629D01*
X11162358Y81078084D01*
X11052692Y81211712D01*
X10919064Y81321378D01*
X10766609Y81402867D01*
X10601185Y81453048D01*
X10429150Y81469992D01*
X9941650Y81469992D01*
X9769615Y81453048D01*
X9604191Y81402867D01*
X9451736Y81321378D01*
X9318108Y81211712D01*
X9247900Y81126164D01*
X9177692Y81211712D01*
X9044064Y81321378D01*
X8891609Y81402867D01*
X8726185Y81453048D01*
X8554150Y81469992D01*
X8364879Y81469992D01*
X8364879Y83085516D01*
X8554288Y83047840D01*
X8829472Y83047840D01*
X9099370Y83101526D01*
X9353607Y83206835D01*
X9582415Y83359720D01*
X9777000Y83554305D01*
X9881887Y83711280D01*
X17903928Y83711280D01*
X17916188Y83586798D01*
X17952498Y83467100D01*
X18011463Y83356786D01*
X18090815Y83260095D01*
X18187506Y83180743D01*
X18297820Y83121778D01*
X18417518Y83085468D01*
X18542000Y83073208D01*
X19018250Y83076280D01*
X19177000Y83235030D01*
X19177000Y84346280D01*
X19431000Y84346280D01*
X19431000Y83235030D01*
X19589750Y83076280D01*
X20066000Y83073208D01*
X20190482Y83085468D01*
X20310180Y83121778D01*
X20420494Y83180743D01*
X20517185Y83260095D01*
X20596537Y83356786D01*
X20655502Y83467100D01*
X20691812Y83586798D01*
X20704072Y83711280D01*
X20701000Y84187530D01*
X20542250Y84346280D01*
X19431000Y84346280D01*
X19177000Y84346280D01*
X18065750Y84346280D01*
X17907000Y84187530D01*
X17903928Y83711280D01*
X9881887Y83711280D01*
X9929885Y83783113D01*
X10035194Y84037350D01*
X10088880Y84307248D01*
X10088880Y84582432D01*
X10035194Y84852330D01*
X9929885Y85106567D01*
X9843882Y85235280D01*
X17903928Y85235280D01*
X17907000Y84759030D01*
X18065750Y84600280D01*
X19177000Y84600280D01*
X19177000Y84620280D01*
X19431000Y84620280D01*
X19431000Y84600280D01*
X20542250Y84600280D01*
X20701000Y84759030D01*
X20704072Y85235280D01*
X20691812Y85359762D01*
X20655502Y85479460D01*
X20596537Y85589774D01*
X20517185Y85686465D01*
X20479234Y85717610D01*
X20542005Y85811553D01*
X20647314Y86065790D01*
X20701000Y86335688D01*
X20701000Y86610872D01*
X20647314Y86880770D01*
X20542005Y87135007D01*
X20389120Y87363815D01*
X20279655Y87473280D01*
X20389120Y87582745D01*
X20542005Y87811553D01*
X20647314Y88065790D01*
X20701000Y88335688D01*
X20701000Y88610872D01*
X20647314Y88880770D01*
X20542005Y89135007D01*
X20389120Y89363815D01*
X20279655Y89473280D01*
X20389120Y89582745D01*
X20542005Y89811553D01*
X20647314Y90065790D01*
X20701000Y90335688D01*
X20701000Y90610872D01*
X20647314Y90880770D01*
X20542005Y91135007D01*
X20389120Y91363815D01*
X20194535Y91558400D01*
X19965727Y91711285D01*
X19711490Y91816594D01*
X19441592Y91870280D01*
X19166408Y91870280D01*
X18896510Y91816594D01*
X18642273Y91711285D01*
X18413465Y91558400D01*
X18218880Y91363815D01*
X18065995Y91135007D01*
X17960686Y90880770D01*
X17907000Y90610872D01*
X17907000Y90335688D01*
X17960686Y90065790D01*
X18065995Y89811553D01*
X18218880Y89582745D01*
X18328345Y89473280D01*
X18218880Y89363815D01*
X18065995Y89135007D01*
X17960686Y88880770D01*
X17907000Y88610872D01*
X17907000Y88335688D01*
X17960686Y88065790D01*
X18065995Y87811553D01*
X18218880Y87582745D01*
X18328345Y87473280D01*
X18218880Y87363815D01*
X18065995Y87135007D01*
X17960686Y86880770D01*
X17907000Y86610872D01*
X17907000Y86335688D01*
X17960686Y86065790D01*
X18065995Y85811553D01*
X18128766Y85717610D01*
X18090815Y85686465D01*
X18011463Y85589774D01*
X17952498Y85479460D01*
X17916188Y85359762D01*
X17903928Y85235280D01*
X9843882Y85235280D01*
X9777000Y85335375D01*
X9667535Y85444840D01*
X9777000Y85554305D01*
X9929885Y85783113D01*
X10035194Y86037350D01*
X10088880Y86307248D01*
X10088880Y86582432D01*
X10058252Y86736411D01*
X17247964Y93926122D01*
X17276962Y93949920D01*
X17371935Y94065645D01*
X17442507Y94197674D01*
X17485964Y94340935D01*
X17496961Y94452588D01*
X17496961Y94452597D01*
X17500637Y94489920D01*
X17496961Y94527243D01*
X17496961Y94538839D01*
X17514010Y94537160D01*
X17659910Y94537160D01*
X17878071Y94558647D01*
X18157994Y94643561D01*
X18415974Y94781454D01*
X18642094Y94967026D01*
X18827666Y95193146D01*
X18965559Y95451126D01*
X19050473Y95731049D01*
X19079145Y96022160D01*
X19050473Y96313271D01*
X18965559Y96593194D01*
X18827666Y96851174D01*
X18642094Y97077294D01*
X18415974Y97262866D01*
X18318440Y97314999D01*
X24242712Y97314999D01*
X23934505Y97142748D01*
G36*
X18833501Y79045765D02*
G01*
X18833501Y78583820D01*
X18312197Y78062515D01*
X18255342Y78051206D01*
X18066984Y77973185D01*
X17897466Y77859917D01*
X17753303Y77715754D01*
X17640035Y77546236D01*
X17562014Y77357878D01*
X17522240Y77157919D01*
X17522240Y76954041D01*
X17562014Y76754082D01*
X17640035Y76565724D01*
X17725398Y76437969D01*
X17696697Y76414415D01*
X17617345Y76317724D01*
X17558381Y76207409D01*
X17484013Y76019841D01*
X17569927Y75812424D01*
X18539308Y75410893D01*
X18546962Y75429371D01*
X18781627Y75332170D01*
X18773973Y75313692D01*
X18792451Y75306038D01*
X18695250Y75071373D01*
X18676772Y75079027D01*
X18669118Y75060549D01*
X18434453Y75157750D01*
X18442107Y75176228D01*
X18330520Y75222449D01*
X18272172Y75270334D01*
X18140143Y75340906D01*
X17996882Y75384363D01*
X17921763Y75391762D01*
X17472726Y75577759D01*
X17265309Y75491844D01*
X17223612Y75395360D01*
X15562163Y75395360D01*
X15524840Y75399036D01*
X15487517Y75395360D01*
X15487507Y75395360D01*
X15430347Y75389730D01*
X15437225Y75395375D01*
X15516577Y75492066D01*
X15575542Y75602380D01*
X15611852Y75722078D01*
X15624112Y75846560D01*
X15621040Y76060810D01*
X15462290Y76219560D01*
X14813040Y76219560D01*
X14813040Y76199560D01*
X14748205Y76199560D01*
X14774843Y76287374D01*
X14785840Y76399027D01*
X14785840Y76399037D01*
X14789516Y76436359D01*
X14785840Y76473682D01*
X14785840Y76493560D01*
X14813040Y76493560D01*
X14813040Y76473560D01*
X15462290Y76473560D01*
X15621040Y76632310D01*
X15624112Y76846560D01*
X15611852Y76971042D01*
X15575542Y77090740D01*
X15516577Y77201054D01*
X15437225Y77297745D01*
X15340534Y77377097D01*
X15230220Y77436062D01*
X15110522Y77472372D01*
X14986040Y77484632D01*
X14971790Y77481560D01*
X14813042Y77322812D01*
X14813042Y77429686D01*
X14877025Y77482195D01*
X14956377Y77578886D01*
X14980160Y77623380D01*
X16085578Y77623380D01*
X16122900Y77619704D01*
X16160222Y77623380D01*
X16160233Y77623380D01*
X16271886Y77634377D01*
X16415147Y77677834D01*
X16547176Y77748406D01*
X16662901Y77843379D01*
X16686704Y77872383D01*
X17581980Y78767658D01*
X17599750Y78765908D01*
X18087250Y78765908D01*
X18259285Y78782852D01*
X18424709Y78833033D01*
X18577164Y78914522D01*
X18710792Y79024188D01*
X18781000Y79109736D01*
X18833501Y79045765D01*
X18833501Y79045765D01*
G37*
X18833501Y79045765D02*
X18833501Y78583820D01*
X18312197Y78062515D01*
X18255342Y78051206D01*
X18066984Y77973185D01*
X17897466Y77859917D01*
X17753303Y77715754D01*
X17640035Y77546236D01*
X17562014Y77357878D01*
X17522240Y77157919D01*
X17522240Y76954041D01*
X17562014Y76754082D01*
X17640035Y76565724D01*
X17725398Y76437969D01*
X17696697Y76414415D01*
X17617345Y76317724D01*
X17558381Y76207409D01*
X17484013Y76019841D01*
X17569927Y75812424D01*
X18539308Y75410893D01*
X18546962Y75429371D01*
X18781627Y75332170D01*
X18773973Y75313692D01*
X18792451Y75306038D01*
X18695250Y75071373D01*
X18676772Y75079027D01*
X18669118Y75060549D01*
X18434453Y75157750D01*
X18442107Y75176228D01*
X18330520Y75222449D01*
X18272172Y75270334D01*
X18140143Y75340906D01*
X17996882Y75384363D01*
X17921763Y75391762D01*
X17472726Y75577759D01*
X17265309Y75491844D01*
X17223612Y75395360D01*
X15562163Y75395360D01*
X15524840Y75399036D01*
X15487517Y75395360D01*
X15487507Y75395360D01*
X15430347Y75389730D01*
X15437225Y75395375D01*
X15516577Y75492066D01*
X15575542Y75602380D01*
X15611852Y75722078D01*
X15624112Y75846560D01*
X15621040Y76060810D01*
X15462290Y76219560D01*
X14813040Y76219560D01*
X14813040Y76199560D01*
X14748205Y76199560D01*
X14774843Y76287374D01*
X14785840Y76399027D01*
X14785840Y76399037D01*
X14789516Y76436359D01*
X14785840Y76473682D01*
X14785840Y76493560D01*
X14813040Y76493560D01*
X14813040Y76473560D01*
X15462290Y76473560D01*
X15621040Y76632310D01*
X15624112Y76846560D01*
X15611852Y76971042D01*
X15575542Y77090740D01*
X15516577Y77201054D01*
X15437225Y77297745D01*
X15340534Y77377097D01*
X15230220Y77436062D01*
X15110522Y77472372D01*
X14986040Y77484632D01*
X14971790Y77481560D01*
X14813042Y77322812D01*
X14813042Y77429686D01*
X14877025Y77482195D01*
X14956377Y77578886D01*
X14980160Y77623380D01*
X16085578Y77623380D01*
X16122900Y77619704D01*
X16160222Y77623380D01*
X16160233Y77623380D01*
X16271886Y77634377D01*
X16415147Y77677834D01*
X16547176Y77748406D01*
X16662901Y77843379D01*
X16686704Y77872383D01*
X17581980Y78767658D01*
X17599750Y78765908D01*
X18087250Y78765908D01*
X18259285Y78782852D01*
X18424709Y78833033D01*
X18577164Y78914522D01*
X18710792Y79024188D01*
X18781000Y79109736D01*
X18833501Y79045765D01*
M02*
