G04 #@! TF.GenerationSoftware,KiCad,Pcbnew,(5.1.0-0)*
G04 #@! TF.CreationDate,2020-01-22T16:50:41+01:00*
G04 #@! TF.ProjectId,pino_brd_v01,70696e6f-5f62-4726-945f-7630312e6b69,rev?*
G04 #@! TF.SameCoordinates,Original*
G04 #@! TF.FileFunction,Copper,L2,Bot*
G04 #@! TF.FilePolarity,Positive*
%FSLAX46Y46*%
G04 Gerber Fmt 4.6, Leading zero omitted, Abs format (unit mm)*
G04 Created by KiCad (PCBNEW (5.1.0-0)) date 2020-01-22 16:50:41*
%MOMM*%
%LPD*%
G04 APERTURE LIST*
%ADD10C,1.524000*%
%ADD11R,1.524000X1.524000*%
%ADD12O,3.000000X1.700000*%
%ADD13R,1.700000X1.700000*%
%ADD14O,1.700000X1.700000*%
%ADD15C,0.800000*%
%ADD16C,0.500000*%
%ADD17C,0.250000*%
G04 APERTURE END LIST*
D10*
X19300000Y84470000D03*
X19300000Y86470000D03*
X19300000Y88470000D03*
D11*
X19300000Y90470000D03*
D12*
X5887720Y29631640D03*
X5887720Y9311640D03*
X5887720Y14391640D03*
X5887720Y34711640D03*
X5887720Y32171640D03*
X5887720Y4231640D03*
X5887720Y37251640D03*
X5887720Y11851640D03*
X5887720Y27091640D03*
X5887720Y24551640D03*
X5887720Y19471640D03*
X5887720Y16931640D03*
X5887720Y22011640D03*
X5887720Y39791640D03*
X5887720Y6771640D03*
X22397720Y4231640D03*
X22397720Y6771640D03*
X22397720Y9311640D03*
X22397720Y11851640D03*
X22397720Y14391640D03*
X22397720Y16931640D03*
X22397720Y19471640D03*
X22397720Y22011640D03*
X22397720Y24551640D03*
X22397720Y27091640D03*
X22397720Y29631640D03*
X22397720Y32171640D03*
X22397720Y34711640D03*
X22397720Y37251640D03*
X22397720Y39791640D03*
D10*
X8690000Y90440000D03*
X8690000Y88440000D03*
X8690000Y86440000D03*
D11*
X8690000Y84440000D03*
D13*
X9966960Y96022160D03*
D14*
X12506960Y96022160D03*
X15046960Y96022160D03*
X17586960Y96022160D03*
D15*
X8150000Y34050000D03*
X2540000Y36830000D03*
X13716000Y15748000D03*
X2884610Y41862970D03*
X3429000Y29631640D03*
X11760000Y72740000D03*
X8164955Y38412096D03*
X9560000Y7390000D03*
X16920000Y49640000D03*
X25400000Y30988000D03*
X20289520Y26388060D03*
X21465540Y78945740D03*
D16*
X6271640Y32171640D02*
X8150000Y34050000D01*
X5887720Y32171640D02*
X6271640Y32171640D01*
D17*
X2961640Y37251640D02*
X2540000Y36830000D01*
X5887720Y37251640D02*
X2961640Y37251640D01*
X13716000Y16519920D02*
X13716000Y15748000D01*
X21747720Y24551640D02*
X13716000Y16519920D01*
X22397720Y24551640D02*
X21747720Y24551640D01*
X5887720Y27091640D02*
X4137720Y27091640D01*
X1814998Y40793358D02*
X2484611Y41462971D01*
X1814998Y36481998D02*
X1814998Y40793358D01*
X2341880Y28887480D02*
X2341880Y35955116D01*
X2484611Y41462971D02*
X2884610Y41862970D01*
X4137720Y27091640D02*
X2341880Y28887480D01*
X2341880Y35955116D02*
X1814998Y36481998D01*
X3429000Y29631640D02*
X5887720Y29631640D01*
X8690000Y75810000D02*
X8690000Y84440000D01*
X11760000Y72740000D02*
X8690000Y75810000D01*
X5887720Y37251640D02*
X6537720Y37251640D01*
X7698176Y38412096D02*
X8164955Y38412096D01*
X6537720Y37251640D02*
X7698176Y38412096D01*
X8941640Y6771640D02*
X9560000Y7390000D01*
X5887720Y6771640D02*
X8941640Y6771640D01*
X20061999Y87708001D02*
X19300000Y88470000D01*
X20387001Y87382999D02*
X20061999Y87708001D01*
X20387001Y53107001D02*
X20387001Y87382999D01*
X16920000Y49640000D02*
X20387001Y53107001D01*
X9464800Y90440000D02*
X8690000Y90440000D01*
X15046960Y96022160D02*
X9464800Y90440000D01*
X8690000Y90440000D02*
X7069970Y88819970D01*
X8889965Y45810799D02*
X8889965Y26903885D01*
X7069970Y88819970D02*
X7069970Y47630797D01*
X6537720Y24551640D02*
X5887720Y24551640D01*
X7069970Y47630797D02*
X8889965Y45810799D01*
X8889965Y26903885D02*
X6537720Y24551640D01*
X10004800Y88440000D02*
X17586960Y96022160D01*
X8690000Y88440000D02*
X10004800Y88440000D01*
X7519978Y47817200D02*
X7519980Y47817198D01*
X9339976Y45997199D02*
X9339976Y24813896D01*
X9339976Y24813896D02*
X6537720Y22011640D01*
X6537720Y22011640D02*
X5887720Y22011640D01*
X7519978Y87269978D02*
X7519978Y47817200D01*
X7519980Y47817198D02*
X9339976Y45997199D01*
X8690000Y88440000D02*
X7519978Y87269978D01*
X24043640Y29631640D02*
X22397720Y29631640D01*
X25400000Y30988000D02*
X24043640Y29631640D01*
X19300000Y84470000D02*
X19300000Y83392370D01*
X19300000Y83392370D02*
X13770000Y77862370D01*
X13770000Y77862370D02*
X13770000Y71874991D01*
X13770000Y71874991D02*
X8420000Y66524991D01*
X8420000Y66524991D02*
X8420000Y48190000D01*
X10239998Y46369999D02*
X10239998Y15553918D01*
X8420000Y48190000D02*
X10239998Y46369999D01*
X10239998Y15553918D02*
X6537720Y11851640D01*
X6537720Y11851640D02*
X5887720Y11851640D01*
X20289520Y26733440D02*
X20289520Y26388060D01*
X20647720Y27091640D02*
X20289520Y26733440D01*
X22397720Y27091640D02*
X20647720Y27091640D01*
X9789987Y17643907D02*
X6537720Y14391640D01*
X6537720Y14391640D02*
X5887720Y14391640D01*
X7969989Y67559989D02*
X7969990Y48003599D01*
X13319989Y80489989D02*
X13319989Y72909989D01*
X13319989Y72909989D02*
X7969989Y67559989D01*
X9789987Y46183599D02*
X9789987Y17643907D01*
X7969990Y48003599D02*
X9789987Y46183599D01*
X19300000Y86470000D02*
X13319989Y80489989D01*
X24222730Y76188550D02*
X24222730Y38129190D01*
X21465540Y78945740D02*
X24222730Y76188550D01*
X24222730Y38129190D02*
X26126440Y36225480D01*
X23047720Y22011640D02*
X22397720Y22011640D01*
X26126440Y25090360D02*
X23047720Y22011640D01*
X26126440Y36225480D02*
X26126440Y25090360D01*
M02*
