G04 #@! TF.GenerationSoftware,KiCad,Pcbnew,(5.1.0-0)*
G04 #@! TF.CreationDate,2020-01-14T11:53:08+01:00*
G04 #@! TF.ProjectId,pino_brd_v01,70696e6f-5f62-4726-945f-7630312e6b69,rev?*
G04 #@! TF.SameCoordinates,Original*
G04 #@! TF.FileFunction,Soldermask,Top*
G04 #@! TF.FilePolarity,Negative*
%FSLAX46Y46*%
G04 Gerber Fmt 4.6, Leading zero omitted, Abs format (unit mm)*
G04 Created by KiCad (PCBNEW (5.1.0-0)) date 2020-01-14 11:53:08*
%MOMM*%
%LPD*%
G04 APERTURE LIST*
%ADD10C,0.100000*%
G04 APERTURE END LIST*
D10*
G36*
X21844268Y6893615D02*
G01*
X21882938Y6881884D01*
X21918577Y6862834D01*
X21949817Y6837197D01*
X21975454Y6805957D01*
X21994504Y6770318D01*
X22006235Y6731648D01*
X22010800Y6685292D01*
X22010800Y6034068D01*
X22006235Y5987712D01*
X21994504Y5949042D01*
X21975454Y5913403D01*
X21949817Y5882163D01*
X21918577Y5856526D01*
X21882938Y5837476D01*
X21844268Y5825745D01*
X21797912Y5821180D01*
X20721688Y5821180D01*
X20675332Y5825745D01*
X20636662Y5837476D01*
X20601023Y5856526D01*
X20569783Y5882163D01*
X20544146Y5913403D01*
X20525096Y5949042D01*
X20513365Y5987712D01*
X20508800Y6034068D01*
X20508800Y6685292D01*
X20513365Y6731648D01*
X20525096Y6770318D01*
X20544146Y6805957D01*
X20569783Y6837197D01*
X20601023Y6862834D01*
X20636662Y6881884D01*
X20675332Y6893615D01*
X20721688Y6898180D01*
X21797912Y6898180D01*
X21844268Y6893615D01*
X21844268Y6893615D01*
G37*
G36*
X17200680Y6020880D02*
G01*
X15698680Y6020880D01*
X15698680Y8822880D01*
X17200680Y8822880D01*
X17200680Y6020880D01*
X17200680Y6020880D01*
G37*
G36*
X14700680Y6020880D02*
G01*
X13198680Y6020880D01*
X13198680Y8822880D01*
X14700680Y8822880D01*
X14700680Y6020880D01*
X14700680Y6020880D01*
G37*
G36*
X12200680Y6020880D02*
G01*
X10698680Y6020880D01*
X10698680Y8822880D01*
X12200680Y8822880D01*
X12200680Y6020880D01*
X12200680Y6020880D01*
G37*
G36*
X21844268Y8768615D02*
G01*
X21882938Y8756884D01*
X21918577Y8737834D01*
X21949817Y8712197D01*
X21975454Y8680957D01*
X21994504Y8645318D01*
X22006235Y8606648D01*
X22010800Y8560292D01*
X22010800Y7909068D01*
X22006235Y7862712D01*
X21994504Y7824042D01*
X21975454Y7788403D01*
X21949817Y7757163D01*
X21918577Y7731526D01*
X21882938Y7712476D01*
X21844268Y7700745D01*
X21797912Y7696180D01*
X20721688Y7696180D01*
X20675332Y7700745D01*
X20636662Y7712476D01*
X20601023Y7731526D01*
X20569783Y7757163D01*
X20544146Y7788403D01*
X20525096Y7824042D01*
X20513365Y7862712D01*
X20508800Y7909068D01*
X20508800Y8560292D01*
X20513365Y8606648D01*
X20525096Y8645318D01*
X20544146Y8680957D01*
X20569783Y8712197D01*
X20601023Y8737834D01*
X20636662Y8756884D01*
X20675332Y8768615D01*
X20721688Y8773180D01*
X21797912Y8773180D01*
X21844268Y8768615D01*
X21844268Y8768615D01*
G37*
G36*
X12200680Y11820880D02*
G01*
X10698680Y11820880D01*
X10698680Y14622880D01*
X12200680Y14622880D01*
X12200680Y11820880D01*
X12200680Y11820880D01*
G37*
G36*
X17200680Y11820880D02*
G01*
X15698680Y11820880D01*
X15698680Y14622880D01*
X17200680Y14622880D01*
X17200680Y11820880D01*
X17200680Y11820880D01*
G37*
G36*
X14700680Y11820880D02*
G01*
X13198680Y11820880D01*
X13198680Y14622880D01*
X14700680Y14622880D01*
X14700680Y11820880D01*
X14700680Y11820880D01*
G37*
G36*
X18336960Y21309760D02*
G01*
X15484960Y21309760D01*
X15484960Y22411760D01*
X18336960Y22411760D01*
X18336960Y21309760D01*
X18336960Y21309760D01*
G37*
G36*
X12576960Y21309760D02*
G01*
X9724960Y21309760D01*
X9724960Y22411760D01*
X12576960Y22411760D01*
X12576960Y21309760D01*
X12576960Y21309760D01*
G37*
G36*
X21910308Y23548635D02*
G01*
X21948978Y23536904D01*
X21984617Y23517854D01*
X22015857Y23492217D01*
X22041494Y23460977D01*
X22060544Y23425338D01*
X22072275Y23386668D01*
X22076840Y23340312D01*
X22076840Y22689088D01*
X22072275Y22642732D01*
X22060544Y22604062D01*
X22041494Y22568423D01*
X22015857Y22537183D01*
X21984617Y22511546D01*
X21948978Y22492496D01*
X21910308Y22480765D01*
X21863952Y22476200D01*
X20787728Y22476200D01*
X20741372Y22480765D01*
X20702702Y22492496D01*
X20667063Y22511546D01*
X20635823Y22537183D01*
X20610186Y22568423D01*
X20591136Y22604062D01*
X20579405Y22642732D01*
X20574840Y22689088D01*
X20574840Y23340312D01*
X20579405Y23386668D01*
X20591136Y23425338D01*
X20610186Y23460977D01*
X20635823Y23492217D01*
X20667063Y23517854D01*
X20702702Y23536904D01*
X20741372Y23548635D01*
X20787728Y23553200D01*
X21863952Y23553200D01*
X21910308Y23548635D01*
X21910308Y23548635D01*
G37*
G36*
X21910308Y25423635D02*
G01*
X21948978Y25411904D01*
X21984617Y25392854D01*
X22015857Y25367217D01*
X22041494Y25335977D01*
X22060544Y25300338D01*
X22072275Y25261668D01*
X22076840Y25215312D01*
X22076840Y24564088D01*
X22072275Y24517732D01*
X22060544Y24479062D01*
X22041494Y24443423D01*
X22015857Y24412183D01*
X21984617Y24386546D01*
X21948978Y24367496D01*
X21910308Y24355765D01*
X21863952Y24351200D01*
X20787728Y24351200D01*
X20741372Y24355765D01*
X20702702Y24367496D01*
X20667063Y24386546D01*
X20635823Y24412183D01*
X20610186Y24443423D01*
X20591136Y24479062D01*
X20579405Y24517732D01*
X20574840Y24564088D01*
X20574840Y25215312D01*
X20579405Y25261668D01*
X20591136Y25300338D01*
X20610186Y25335977D01*
X20635823Y25367217D01*
X20667063Y25392854D01*
X20702702Y25411904D01*
X20741372Y25423635D01*
X20787728Y25428200D01*
X21863952Y25428200D01*
X21910308Y25423635D01*
X21910308Y25423635D01*
G37*
G36*
X12576960Y25309760D02*
G01*
X9724960Y25309760D01*
X9724960Y26411760D01*
X12576960Y26411760D01*
X12576960Y25309760D01*
X12576960Y25309760D01*
G37*
G36*
X18336960Y25309760D02*
G01*
X15484960Y25309760D01*
X15484960Y26411760D01*
X18336960Y26411760D01*
X18336960Y25309760D01*
X18336960Y25309760D01*
G37*
G36*
X15871460Y33054140D02*
G01*
X12269460Y33054140D01*
X12269460Y36156140D01*
X15871460Y36156140D01*
X15871460Y33054140D01*
X15871460Y33054140D01*
G37*
G36*
X3651348Y36230235D02*
G01*
X3690018Y36218504D01*
X3725657Y36199454D01*
X3756897Y36173817D01*
X3782534Y36142577D01*
X3801584Y36106938D01*
X3813315Y36068268D01*
X3817880Y36021912D01*
X3817880Y34945688D01*
X3813315Y34899332D01*
X3801584Y34860662D01*
X3782534Y34825023D01*
X3756897Y34793783D01*
X3725657Y34768146D01*
X3690018Y34749096D01*
X3651348Y34737365D01*
X3604992Y34732800D01*
X2953768Y34732800D01*
X2907412Y34737365D01*
X2868742Y34749096D01*
X2833103Y34768146D01*
X2801863Y34793783D01*
X2776226Y34825023D01*
X2757176Y34860662D01*
X2745445Y34899332D01*
X2740880Y34945688D01*
X2740880Y36021912D01*
X2745445Y36068268D01*
X2757176Y36106938D01*
X2776226Y36142577D01*
X2801863Y36173817D01*
X2833103Y36199454D01*
X2868742Y36218504D01*
X2907412Y36230235D01*
X2953768Y36234800D01*
X3604992Y36234800D01*
X3651348Y36230235D01*
X3651348Y36230235D01*
G37*
G36*
X1776348Y36230235D02*
G01*
X1815018Y36218504D01*
X1850657Y36199454D01*
X1881897Y36173817D01*
X1907534Y36142577D01*
X1926584Y36106938D01*
X1938315Y36068268D01*
X1942880Y36021912D01*
X1942880Y34945688D01*
X1938315Y34899332D01*
X1926584Y34860662D01*
X1907534Y34825023D01*
X1881897Y34793783D01*
X1850657Y34768146D01*
X1815018Y34749096D01*
X1776348Y34737365D01*
X1729992Y34732800D01*
X1078768Y34732800D01*
X1032412Y34737365D01*
X993742Y34749096D01*
X958103Y34768146D01*
X926863Y34793783D01*
X901226Y34825023D01*
X882176Y34860662D01*
X870445Y34899332D01*
X865880Y34945688D01*
X865880Y36021912D01*
X870445Y36068268D01*
X882176Y36106938D01*
X901226Y36142577D01*
X926863Y36173817D01*
X958103Y36199454D01*
X993742Y36218504D01*
X1032412Y36230235D01*
X1078768Y36234800D01*
X1729992Y36234800D01*
X1776348Y36230235D01*
X1776348Y36230235D01*
G37*
G36*
X23221460Y35254140D02*
G01*
X20619460Y35254140D01*
X20619460Y37356140D01*
X23221460Y37356140D01*
X23221460Y35254140D01*
X23221460Y35254140D01*
G37*
G36*
X7521460Y35279140D02*
G01*
X4919460Y35279140D01*
X4919460Y37381140D01*
X7521460Y37381140D01*
X7521460Y35279140D01*
X7521460Y35279140D01*
G37*
G36*
X22346460Y37879140D02*
G01*
X20244460Y37879140D01*
X20244460Y39581140D01*
X22346460Y39581140D01*
X22346460Y37879140D01*
X22346460Y37879140D01*
G37*
G36*
X7596460Y37904140D02*
G01*
X5494460Y37904140D01*
X5494460Y39606140D01*
X7596460Y39606140D01*
X7596460Y37904140D01*
X7596460Y37904140D01*
G37*
G36*
X3651348Y39532235D02*
G01*
X3690018Y39520504D01*
X3725657Y39501454D01*
X3756897Y39475817D01*
X3782534Y39444577D01*
X3801584Y39408938D01*
X3813315Y39370268D01*
X3817880Y39323912D01*
X3817880Y38247688D01*
X3813315Y38201332D01*
X3801584Y38162662D01*
X3782534Y38127023D01*
X3756897Y38095783D01*
X3725657Y38070146D01*
X3690018Y38051096D01*
X3651348Y38039365D01*
X3604992Y38034800D01*
X2953768Y38034800D01*
X2907412Y38039365D01*
X2868742Y38051096D01*
X2833103Y38070146D01*
X2801863Y38095783D01*
X2776226Y38127023D01*
X2757176Y38162662D01*
X2745445Y38201332D01*
X2740880Y38247688D01*
X2740880Y39323912D01*
X2745445Y39370268D01*
X2757176Y39408938D01*
X2776226Y39444577D01*
X2801863Y39475817D01*
X2833103Y39501454D01*
X2868742Y39520504D01*
X2907412Y39532235D01*
X2953768Y39536800D01*
X3604992Y39536800D01*
X3651348Y39532235D01*
X3651348Y39532235D01*
G37*
G36*
X1776348Y39532235D02*
G01*
X1815018Y39520504D01*
X1850657Y39501454D01*
X1881897Y39475817D01*
X1907534Y39444577D01*
X1926584Y39408938D01*
X1938315Y39370268D01*
X1942880Y39323912D01*
X1942880Y38247688D01*
X1938315Y38201332D01*
X1926584Y38162662D01*
X1907534Y38127023D01*
X1881897Y38095783D01*
X1850657Y38070146D01*
X1815018Y38051096D01*
X1776348Y38039365D01*
X1729992Y38034800D01*
X1078768Y38034800D01*
X1032412Y38039365D01*
X993742Y38051096D01*
X958103Y38070146D01*
X926863Y38095783D01*
X901226Y38127023D01*
X882176Y38162662D01*
X870445Y38201332D01*
X865880Y38247688D01*
X865880Y39323912D01*
X870445Y39370268D01*
X882176Y39408938D01*
X901226Y39444577D01*
X926863Y39475817D01*
X958103Y39501454D01*
X993742Y39520504D01*
X1032412Y39532235D01*
X1078768Y39536800D01*
X1729992Y39536800D01*
X1776348Y39532235D01*
X1776348Y39532235D01*
G37*
G36*
X7596460Y40404140D02*
G01*
X5494460Y40404140D01*
X5494460Y42106140D01*
X7596460Y42106140D01*
X7596460Y40404140D01*
X7596460Y40404140D01*
G37*
G36*
X26966248Y42077315D02*
G01*
X27004918Y42065584D01*
X27040557Y42046534D01*
X27071797Y42020897D01*
X27097434Y41989657D01*
X27116484Y41954018D01*
X27128215Y41915348D01*
X27132780Y41868992D01*
X27132780Y40792768D01*
X27128215Y40746412D01*
X27116484Y40707742D01*
X27097434Y40672103D01*
X27071797Y40640863D01*
X27040557Y40615226D01*
X27004918Y40596176D01*
X26966248Y40584445D01*
X26919892Y40579880D01*
X26268668Y40579880D01*
X26222312Y40584445D01*
X26183642Y40596176D01*
X26148003Y40615226D01*
X26116763Y40640863D01*
X26091126Y40672103D01*
X26072076Y40707742D01*
X26060345Y40746412D01*
X26055780Y40792768D01*
X26055780Y41868992D01*
X26060345Y41915348D01*
X26072076Y41954018D01*
X26091126Y41989657D01*
X26116763Y42020897D01*
X26148003Y42046534D01*
X26183642Y42065584D01*
X26222312Y42077315D01*
X26268668Y42081880D01*
X26919892Y42081880D01*
X26966248Y42077315D01*
X26966248Y42077315D01*
G37*
G36*
X25091248Y42077315D02*
G01*
X25129918Y42065584D01*
X25165557Y42046534D01*
X25196797Y42020897D01*
X25222434Y41989657D01*
X25241484Y41954018D01*
X25253215Y41915348D01*
X25257780Y41868992D01*
X25257780Y40792768D01*
X25253215Y40746412D01*
X25241484Y40707742D01*
X25222434Y40672103D01*
X25196797Y40640863D01*
X25165557Y40615226D01*
X25129918Y40596176D01*
X25091248Y40584445D01*
X25044892Y40579880D01*
X24393668Y40579880D01*
X24347312Y40584445D01*
X24308642Y40596176D01*
X24273003Y40615226D01*
X24241763Y40640863D01*
X24216126Y40672103D01*
X24197076Y40707742D01*
X24185345Y40746412D01*
X24180780Y40792768D01*
X24180780Y41868992D01*
X24185345Y41915348D01*
X24197076Y41954018D01*
X24216126Y41989657D01*
X24241763Y42020897D01*
X24273003Y42046534D01*
X24308642Y42065584D01*
X24347312Y42077315D01*
X24393668Y42081880D01*
X25044892Y42081880D01*
X25091248Y42077315D01*
X25091248Y42077315D01*
G37*
G36*
X22346460Y42879140D02*
G01*
X20244460Y42879140D01*
X20244460Y44581140D01*
X22346460Y44581140D01*
X22346460Y42879140D01*
X22346460Y42879140D01*
G37*
G36*
X7596460Y42929140D02*
G01*
X5494460Y42929140D01*
X5494460Y44631140D01*
X7596460Y44631140D01*
X7596460Y42929140D01*
X7596460Y42929140D01*
G37*
G36*
X3567288Y44546195D02*
G01*
X3605958Y44534464D01*
X3641597Y44515414D01*
X3672837Y44489777D01*
X3698474Y44458537D01*
X3717524Y44422898D01*
X3729255Y44384228D01*
X3733820Y44337872D01*
X3733820Y43261648D01*
X3729255Y43215292D01*
X3717524Y43176622D01*
X3698474Y43140983D01*
X3672837Y43109743D01*
X3641597Y43084106D01*
X3605958Y43065056D01*
X3567288Y43053325D01*
X3520932Y43048760D01*
X2869708Y43048760D01*
X2823352Y43053325D01*
X2784682Y43065056D01*
X2749043Y43084106D01*
X2717803Y43109743D01*
X2692166Y43140983D01*
X2673116Y43176622D01*
X2661385Y43215292D01*
X2656820Y43261648D01*
X2656820Y44337872D01*
X2661385Y44384228D01*
X2673116Y44422898D01*
X2692166Y44458537D01*
X2717803Y44489777D01*
X2749043Y44515414D01*
X2784682Y44534464D01*
X2823352Y44546195D01*
X2869708Y44550760D01*
X3520932Y44550760D01*
X3567288Y44546195D01*
X3567288Y44546195D01*
G37*
G36*
X1692288Y44546195D02*
G01*
X1730958Y44534464D01*
X1766597Y44515414D01*
X1797837Y44489777D01*
X1823474Y44458537D01*
X1842524Y44422898D01*
X1854255Y44384228D01*
X1858820Y44337872D01*
X1858820Y43261648D01*
X1854255Y43215292D01*
X1842524Y43176622D01*
X1823474Y43140983D01*
X1797837Y43109743D01*
X1766597Y43084106D01*
X1730958Y43065056D01*
X1692288Y43053325D01*
X1645932Y43048760D01*
X994708Y43048760D01*
X948352Y43053325D01*
X909682Y43065056D01*
X874043Y43084106D01*
X842803Y43109743D01*
X817166Y43140983D01*
X798116Y43176622D01*
X786385Y43215292D01*
X781820Y43261648D01*
X781820Y44337872D01*
X786385Y44384228D01*
X798116Y44422898D01*
X817166Y44458537D01*
X842803Y44489777D01*
X874043Y44515414D01*
X909682Y44534464D01*
X948352Y44546195D01*
X994708Y44550760D01*
X1645932Y44550760D01*
X1692288Y44546195D01*
X1692288Y44546195D01*
G37*
G36*
X7521460Y45154140D02*
G01*
X4919460Y45154140D01*
X4919460Y47256140D01*
X7521460Y47256140D01*
X7521460Y45154140D01*
X7521460Y45154140D01*
G37*
G36*
X23221460Y45154140D02*
G01*
X20619460Y45154140D01*
X20619460Y47256140D01*
X23221460Y47256140D01*
X23221460Y45154140D01*
X23221460Y45154140D01*
G37*
G36*
X15871460Y46354140D02*
G01*
X12269460Y46354140D01*
X12269460Y49456140D01*
X15871460Y49456140D01*
X15871460Y46354140D01*
X15871460Y46354140D01*
G37*
G36*
X3649048Y47904075D02*
G01*
X3687718Y47892344D01*
X3723357Y47873294D01*
X3754597Y47847657D01*
X3780234Y47816417D01*
X3799284Y47780778D01*
X3811015Y47742108D01*
X3815580Y47695752D01*
X3815580Y46619528D01*
X3811015Y46573172D01*
X3799284Y46534502D01*
X3780234Y46498863D01*
X3754597Y46467623D01*
X3723357Y46441986D01*
X3687718Y46422936D01*
X3649048Y46411205D01*
X3602692Y46406640D01*
X2951468Y46406640D01*
X2905112Y46411205D01*
X2866442Y46422936D01*
X2830803Y46441986D01*
X2799563Y46467623D01*
X2773926Y46498863D01*
X2754876Y46534502D01*
X2743145Y46573172D01*
X2738580Y46619528D01*
X2738580Y47695752D01*
X2743145Y47742108D01*
X2754876Y47780778D01*
X2773926Y47816417D01*
X2799563Y47847657D01*
X2830803Y47873294D01*
X2866442Y47892344D01*
X2905112Y47904075D01*
X2951468Y47908640D01*
X3602692Y47908640D01*
X3649048Y47904075D01*
X3649048Y47904075D01*
G37*
G36*
X1774048Y47904075D02*
G01*
X1812718Y47892344D01*
X1848357Y47873294D01*
X1879597Y47847657D01*
X1905234Y47816417D01*
X1924284Y47780778D01*
X1936015Y47742108D01*
X1940580Y47695752D01*
X1940580Y46619528D01*
X1936015Y46573172D01*
X1924284Y46534502D01*
X1905234Y46498863D01*
X1879597Y46467623D01*
X1848357Y46441986D01*
X1812718Y46422936D01*
X1774048Y46411205D01*
X1727692Y46406640D01*
X1076468Y46406640D01*
X1030112Y46411205D01*
X991442Y46422936D01*
X955803Y46441986D01*
X924563Y46467623D01*
X898926Y46498863D01*
X879876Y46534502D01*
X868145Y46573172D01*
X863580Y46619528D01*
X863580Y47695752D01*
X868145Y47742108D01*
X879876Y47780778D01*
X898926Y47816417D01*
X924563Y47847657D01*
X955803Y47873294D01*
X991442Y47892344D01*
X1030112Y47904075D01*
X1076468Y47908640D01*
X1727692Y47908640D01*
X1774048Y47904075D01*
X1774048Y47904075D01*
G37*
G36*
X13737040Y51418160D02*
G01*
X13035040Y51418160D01*
X13035040Y52520160D01*
X13737040Y52520160D01*
X13737040Y51418160D01*
X13737040Y51418160D01*
G37*
G36*
X15037040Y51418160D02*
G01*
X14335040Y51418160D01*
X14335040Y52520160D01*
X15037040Y52520160D01*
X15037040Y51418160D01*
X15037040Y51418160D01*
G37*
G36*
X9113238Y53791873D02*
G01*
X9157700Y53777961D01*
X10148361Y53357450D01*
X10189250Y53335134D01*
X10220260Y53309228D01*
X10245627Y53277763D01*
X10264365Y53241956D01*
X10275758Y53203187D01*
X10279367Y53162937D01*
X10275056Y53122758D01*
X10261144Y53078296D01*
X10006694Y52478850D01*
X9984378Y52437961D01*
X9958472Y52406951D01*
X9927007Y52381584D01*
X9891200Y52362846D01*
X9852431Y52351453D01*
X9812181Y52347844D01*
X9772002Y52352155D01*
X9727540Y52366067D01*
X8736879Y52786578D01*
X8695990Y52808894D01*
X8664980Y52834800D01*
X8639613Y52866265D01*
X8620875Y52902072D01*
X8609482Y52940841D01*
X8605873Y52981091D01*
X8610184Y53021270D01*
X8624096Y53065732D01*
X8878546Y53665178D01*
X8900862Y53706067D01*
X8926768Y53737077D01*
X8958233Y53762444D01*
X8994040Y53781182D01*
X9032809Y53792575D01*
X9073059Y53796184D01*
X9113238Y53791873D01*
X9113238Y53791873D01*
G37*
G36*
X19049523Y53787716D02*
G01*
X19088196Y53775985D01*
X19123833Y53756936D01*
X19155073Y53731299D01*
X19180710Y53700059D01*
X19202667Y53658981D01*
X19224234Y53606913D01*
X19224236Y53606910D01*
X19334634Y53340386D01*
X19451879Y53057332D01*
X19465401Y53012755D01*
X19469362Y52972538D01*
X19465402Y52932320D01*
X19453671Y52893650D01*
X19434621Y52858011D01*
X19408984Y52826771D01*
X19377744Y52801134D01*
X19336666Y52779177D01*
X19070734Y52669025D01*
X18394436Y52388893D01*
X18394428Y52388891D01*
X18342364Y52367325D01*
X18297792Y52353803D01*
X18257576Y52349843D01*
X18217357Y52353804D01*
X18178684Y52365535D01*
X18143047Y52384584D01*
X18111807Y52410221D01*
X18086170Y52441461D01*
X18064213Y52482539D01*
X17938276Y52786578D01*
X17877907Y52932320D01*
X17815001Y53084188D01*
X17801479Y53128765D01*
X17797518Y53168984D01*
X17801478Y53209200D01*
X17813209Y53247870D01*
X17832259Y53283509D01*
X17857896Y53314749D01*
X17889136Y53340386D01*
X17930214Y53362343D01*
X18196146Y53472495D01*
X18872444Y53752627D01*
X18872452Y53752629D01*
X18924516Y53774195D01*
X18969088Y53787717D01*
X19009304Y53791677D01*
X19049523Y53787716D01*
X19049523Y53787716D01*
G37*
G36*
X13737040Y53418160D02*
G01*
X13035040Y53418160D01*
X13035040Y54520160D01*
X13737040Y54520160D01*
X13737040Y53418160D01*
X13737040Y53418160D01*
G37*
G36*
X15037040Y53418160D02*
G01*
X14335040Y53418160D01*
X14335040Y54520160D01*
X15037040Y54520160D01*
X15037040Y53418160D01*
X15037040Y53418160D01*
G37*
G36*
X9845858Y55517819D02*
G01*
X9890320Y55503907D01*
X10880981Y55083396D01*
X10921870Y55061080D01*
X10952880Y55035174D01*
X10978247Y55003709D01*
X10996985Y54967902D01*
X11008378Y54929133D01*
X11011987Y54888883D01*
X11007676Y54848704D01*
X10993764Y54804242D01*
X10739314Y54204796D01*
X10716998Y54163907D01*
X10691092Y54132897D01*
X10659627Y54107530D01*
X10623820Y54088792D01*
X10585051Y54077399D01*
X10544801Y54073790D01*
X10504622Y54078101D01*
X10460160Y54092013D01*
X9469499Y54512524D01*
X9428610Y54534840D01*
X9397600Y54560746D01*
X9372233Y54592211D01*
X9353495Y54628018D01*
X9342102Y54666787D01*
X9338493Y54707037D01*
X9342804Y54747216D01*
X9356716Y54791678D01*
X9611166Y55391124D01*
X9633482Y55432013D01*
X9659388Y55463023D01*
X9690853Y55488390D01*
X9726660Y55507128D01*
X9765429Y55518521D01*
X9805679Y55522130D01*
X9845858Y55517819D01*
X9845858Y55517819D01*
G37*
G36*
X18331991Y55519990D02*
G01*
X18370664Y55508259D01*
X18406301Y55489210D01*
X18437541Y55463573D01*
X18463178Y55432333D01*
X18485135Y55391255D01*
X18734347Y54789606D01*
X18747869Y54745029D01*
X18751830Y54704812D01*
X18747870Y54664594D01*
X18736139Y54625924D01*
X18717089Y54590285D01*
X18691452Y54559045D01*
X18660212Y54533408D01*
X18619134Y54511451D01*
X18465314Y54447737D01*
X17676904Y54121167D01*
X17676896Y54121165D01*
X17624832Y54099599D01*
X17580260Y54086077D01*
X17540044Y54082117D01*
X17499825Y54086078D01*
X17461152Y54097809D01*
X17425515Y54116858D01*
X17394275Y54142495D01*
X17368638Y54173735D01*
X17346681Y54214813D01*
X17097469Y54816462D01*
X17083947Y54861039D01*
X17079986Y54901258D01*
X17083946Y54941474D01*
X17095677Y54980144D01*
X17114727Y55015783D01*
X17140364Y55047023D01*
X17171604Y55072660D01*
X17212682Y55094617D01*
X17478614Y55204769D01*
X18154912Y55484901D01*
X18154920Y55484903D01*
X18206984Y55506469D01*
X18251556Y55519991D01*
X18291772Y55523951D01*
X18331991Y55519990D01*
X18331991Y55519990D01*
G37*
G36*
X6528637Y55226968D02*
G01*
X5749406Y54447737D01*
X5253017Y54944126D01*
X6032248Y55723357D01*
X6528637Y55226968D01*
X6528637Y55226968D01*
G37*
G36*
X22820737Y54963013D02*
G01*
X22324348Y54466624D01*
X21545117Y55245855D01*
X22041506Y55742244D01*
X22820737Y54963013D01*
X22820737Y54963013D01*
G37*
G36*
X5609398Y56146207D02*
G01*
X4830167Y55366976D01*
X4333778Y55863365D01*
X5113009Y56642596D01*
X5609398Y56146207D01*
X5609398Y56146207D01*
G37*
G36*
X23739976Y55882252D02*
G01*
X23243587Y55385863D01*
X22464356Y56165094D01*
X22960745Y56661483D01*
X23739976Y55882252D01*
X23739976Y55882252D01*
G37*
G36*
X7942850Y56641181D02*
G01*
X7163619Y55861950D01*
X6667230Y56358339D01*
X7446461Y57137570D01*
X7942850Y56641181D01*
X7942850Y56641181D01*
G37*
G36*
X21406524Y56377226D02*
G01*
X20910135Y55880837D01*
X20130904Y56660068D01*
X20627293Y57156457D01*
X21406524Y56377226D01*
X21406524Y56377226D01*
G37*
G36*
X7023611Y57560420D02*
G01*
X6244380Y56781189D01*
X5747991Y57277578D01*
X6527222Y58056809D01*
X7023611Y57560420D01*
X7023611Y57560420D01*
G37*
G36*
X22325763Y57296465D02*
G01*
X21829374Y56800076D01*
X21050143Y57579307D01*
X21546532Y58075696D01*
X22325763Y57296465D01*
X22325763Y57296465D01*
G37*
G36*
X25054973Y60401956D02*
G01*
X25099545Y60388434D01*
X25151615Y60366866D01*
X25151618Y60366865D01*
X25649127Y60160790D01*
X25649131Y60160788D01*
X25701198Y60139221D01*
X25742276Y60117264D01*
X25773516Y60091627D01*
X25799153Y60060387D01*
X25818203Y60024748D01*
X25829934Y59986078D01*
X25833894Y59945862D01*
X25829933Y59905643D01*
X25816411Y59861066D01*
X25794845Y59809000D01*
X25794844Y59808998D01*
X25671816Y59511982D01*
X25404560Y58866768D01*
X25382603Y58825690D01*
X25356966Y58794450D01*
X25325726Y58768813D01*
X25290089Y58749764D01*
X25251416Y58738033D01*
X25211197Y58734072D01*
X25170981Y58738032D01*
X25126409Y58751554D01*
X25074339Y58773122D01*
X25074336Y58773123D01*
X24576827Y58979198D01*
X24576823Y58979200D01*
X24524756Y59000767D01*
X24483678Y59022724D01*
X24452438Y59048361D01*
X24426801Y59079601D01*
X24407751Y59115240D01*
X24396020Y59153910D01*
X24392060Y59194128D01*
X24396021Y59234345D01*
X24409543Y59278922D01*
X24487570Y59467295D01*
X24663884Y59892957D01*
X24821394Y60273220D01*
X24843351Y60314298D01*
X24868988Y60345538D01*
X24900228Y60371175D01*
X24935865Y60390224D01*
X24974538Y60401955D01*
X25014757Y60405916D01*
X25054973Y60401956D01*
X25054973Y60401956D01*
G37*
G36*
X3097543Y60401956D02*
G01*
X3136213Y60390225D01*
X3171852Y60371175D01*
X3203092Y60345538D01*
X3228729Y60314298D01*
X3250686Y60273220D01*
X3272255Y60221147D01*
X3640970Y59330990D01*
X3640972Y59330982D01*
X3662538Y59278918D01*
X3676060Y59234346D01*
X3680020Y59194130D01*
X3676059Y59153911D01*
X3664328Y59115238D01*
X3645279Y59079601D01*
X3619642Y59048361D01*
X3588402Y59022724D01*
X3547324Y59000767D01*
X3495256Y58979200D01*
X3495253Y58979198D01*
X3349538Y58918841D01*
X2945675Y58751555D01*
X2901098Y58738033D01*
X2860879Y58734072D01*
X2820663Y58738032D01*
X2781993Y58749763D01*
X2746354Y58768813D01*
X2715114Y58794450D01*
X2689477Y58825690D01*
X2667520Y58866768D01*
X2548582Y59153911D01*
X2277236Y59808998D01*
X2277234Y59809006D01*
X2255668Y59861070D01*
X2242146Y59905642D01*
X2238186Y59945860D01*
X2242147Y59986077D01*
X2253878Y60024750D01*
X2272927Y60060387D01*
X2298564Y60091627D01*
X2329804Y60117264D01*
X2370882Y60139221D01*
X2422950Y60160788D01*
X2422953Y60160790D01*
X2736676Y60290738D01*
X2972531Y60388433D01*
X3017108Y60401955D01*
X3057327Y60405916D01*
X3097543Y60401956D01*
X3097543Y60401956D01*
G37*
G36*
X4829817Y61119488D02*
G01*
X4868487Y61107757D01*
X4904126Y61088707D01*
X4935366Y61063070D01*
X4961003Y61031830D01*
X4982960Y60990752D01*
X5004529Y60938679D01*
X5373244Y60048522D01*
X5373246Y60048514D01*
X5394812Y59996450D01*
X5408334Y59951878D01*
X5412294Y59911662D01*
X5408333Y59871443D01*
X5396602Y59832770D01*
X5377553Y59797133D01*
X5351916Y59765893D01*
X5320676Y59740256D01*
X5279598Y59718299D01*
X5227530Y59696732D01*
X5227527Y59696730D01*
X5081812Y59636373D01*
X4677949Y59469087D01*
X4633372Y59455565D01*
X4593153Y59451604D01*
X4552937Y59455564D01*
X4514267Y59467295D01*
X4478628Y59486345D01*
X4447388Y59511982D01*
X4421751Y59543222D01*
X4399794Y59584300D01*
X4280856Y59871443D01*
X4009510Y60526530D01*
X4009508Y60526538D01*
X3987942Y60578602D01*
X3974420Y60623174D01*
X3970460Y60663392D01*
X3974421Y60703609D01*
X3986152Y60742282D01*
X4005201Y60777919D01*
X4030838Y60809159D01*
X4062078Y60834796D01*
X4103156Y60856753D01*
X4155224Y60878320D01*
X4155227Y60878322D01*
X4468950Y61008270D01*
X4704805Y61105965D01*
X4749382Y61119487D01*
X4789601Y61123448D01*
X4829817Y61119488D01*
X4829817Y61119488D01*
G37*
G36*
X23322699Y61119488D02*
G01*
X23367271Y61105966D01*
X23419341Y61084398D01*
X23419344Y61084397D01*
X23916853Y60878322D01*
X23916857Y60878320D01*
X23968924Y60856753D01*
X24010002Y60834796D01*
X24041242Y60809159D01*
X24066879Y60777919D01*
X24085929Y60742280D01*
X24097660Y60703610D01*
X24101620Y60663394D01*
X24097659Y60623175D01*
X24084137Y60578598D01*
X24062571Y60526532D01*
X24062570Y60526530D01*
X23987601Y60345538D01*
X23672286Y59584300D01*
X23650329Y59543222D01*
X23624692Y59511982D01*
X23593452Y59486345D01*
X23557815Y59467296D01*
X23519142Y59455565D01*
X23478923Y59451604D01*
X23438707Y59455564D01*
X23394135Y59469086D01*
X23342065Y59490654D01*
X23342062Y59490655D01*
X22844553Y59696730D01*
X22844549Y59696732D01*
X22792482Y59718299D01*
X22751404Y59740256D01*
X22720164Y59765893D01*
X22694527Y59797133D01*
X22675477Y59832772D01*
X22663746Y59871442D01*
X22659786Y59911660D01*
X22663747Y59951877D01*
X22677269Y59996454D01*
X22735033Y60135908D01*
X22918402Y60578602D01*
X23089120Y60990752D01*
X23111077Y61031830D01*
X23136714Y61063070D01*
X23167954Y61088707D01*
X23203591Y61107756D01*
X23242264Y61119487D01*
X23282483Y61123448D01*
X23322699Y61119488D01*
X23322699Y61119488D01*
G37*
G36*
X26747040Y63159160D02*
G01*
X25645040Y63159160D01*
X25645040Y63861160D01*
X26747040Y63861160D01*
X26747040Y63159160D01*
X26747040Y63159160D01*
G37*
G36*
X24747040Y63159160D02*
G01*
X23645040Y63159160D01*
X23645040Y63861160D01*
X24747040Y63861160D01*
X24747040Y63159160D01*
X24747040Y63159160D01*
G37*
G36*
X4411040Y63169560D02*
G01*
X3309040Y63169560D01*
X3309040Y63871560D01*
X4411040Y63871560D01*
X4411040Y63169560D01*
X4411040Y63169560D01*
G37*
G36*
X2411040Y63169560D02*
G01*
X1309040Y63169560D01*
X1309040Y63871560D01*
X2411040Y63871560D01*
X2411040Y63169560D01*
X2411040Y63169560D01*
G37*
G36*
X26747040Y64459160D02*
G01*
X25645040Y64459160D01*
X25645040Y65161160D01*
X26747040Y65161160D01*
X26747040Y64459160D01*
X26747040Y64459160D01*
G37*
G36*
X24747040Y64459160D02*
G01*
X23645040Y64459160D01*
X23645040Y65161160D01*
X24747040Y65161160D01*
X24747040Y64459160D01*
X24747040Y64459160D01*
G37*
G36*
X2411040Y64469560D02*
G01*
X1309040Y64469560D01*
X1309040Y65171560D01*
X2411040Y65171560D01*
X2411040Y64469560D01*
X2411040Y64469560D01*
G37*
G36*
X4411040Y64469560D02*
G01*
X3309040Y64469560D01*
X3309040Y65171560D01*
X4411040Y65171560D01*
X4411040Y64469560D01*
X4411040Y64469560D01*
G37*
G36*
X4630836Y68863322D02*
G01*
X4675408Y68849800D01*
X4727478Y68828232D01*
X4727481Y68828231D01*
X5224990Y68622156D01*
X5224994Y68622154D01*
X5277061Y68600587D01*
X5318139Y68578630D01*
X5349379Y68552993D01*
X5375016Y68521753D01*
X5394066Y68486114D01*
X5405797Y68447444D01*
X5409757Y68407228D01*
X5405796Y68367009D01*
X5392274Y68322432D01*
X5370708Y68270366D01*
X5370707Y68270364D01*
X5247679Y67973348D01*
X4980423Y67328134D01*
X4958466Y67287056D01*
X4932829Y67255816D01*
X4901589Y67230179D01*
X4865952Y67211130D01*
X4827279Y67199399D01*
X4787060Y67195438D01*
X4746844Y67199398D01*
X4702272Y67212920D01*
X4650202Y67234488D01*
X4650199Y67234489D01*
X4152690Y67440564D01*
X4152686Y67440566D01*
X4100619Y67462133D01*
X4059541Y67484090D01*
X4028301Y67509727D01*
X4002664Y67540967D01*
X3983614Y67576606D01*
X3971883Y67615276D01*
X3967923Y67655494D01*
X3971884Y67695711D01*
X3985406Y67740288D01*
X4063433Y67928661D01*
X4239747Y68354323D01*
X4397257Y68734586D01*
X4419214Y68775664D01*
X4444851Y68806904D01*
X4476091Y68832541D01*
X4511728Y68851590D01*
X4550401Y68863321D01*
X4590620Y68867282D01*
X4630836Y68863322D01*
X4630836Y68863322D01*
G37*
G36*
X23521680Y68863322D02*
G01*
X23560350Y68851591D01*
X23595989Y68832541D01*
X23627229Y68806904D01*
X23652866Y68775664D01*
X23674823Y68734586D01*
X23696392Y68682513D01*
X24065107Y67792356D01*
X24065109Y67792348D01*
X24086675Y67740284D01*
X24100197Y67695712D01*
X24104157Y67655496D01*
X24100196Y67615277D01*
X24088465Y67576604D01*
X24069416Y67540967D01*
X24043779Y67509727D01*
X24012539Y67484090D01*
X23971461Y67462133D01*
X23919393Y67440566D01*
X23919390Y67440564D01*
X23773675Y67380207D01*
X23369812Y67212921D01*
X23325235Y67199399D01*
X23285016Y67195438D01*
X23244800Y67199398D01*
X23206130Y67211129D01*
X23170491Y67230179D01*
X23139251Y67255816D01*
X23113614Y67287056D01*
X23091657Y67328134D01*
X22972719Y67615277D01*
X22701373Y68270364D01*
X22701371Y68270372D01*
X22679805Y68322436D01*
X22666283Y68367008D01*
X22662323Y68407226D01*
X22666284Y68447443D01*
X22678015Y68486116D01*
X22697064Y68521753D01*
X22722701Y68552993D01*
X22753941Y68578630D01*
X22795019Y68600587D01*
X22847087Y68622154D01*
X22847090Y68622156D01*
X23160813Y68752104D01*
X23396668Y68849799D01*
X23441245Y68863321D01*
X23481464Y68867282D01*
X23521680Y68863322D01*
X23521680Y68863322D01*
G37*
G36*
X2898562Y69580854D02*
G01*
X2943134Y69567332D01*
X2995204Y69545764D01*
X2995207Y69545763D01*
X3492716Y69339688D01*
X3492720Y69339686D01*
X3544787Y69318119D01*
X3585865Y69296162D01*
X3617105Y69270525D01*
X3642742Y69239285D01*
X3661792Y69203646D01*
X3673523Y69164976D01*
X3677483Y69124760D01*
X3673522Y69084541D01*
X3660000Y69039964D01*
X3638434Y68987898D01*
X3638433Y68987896D01*
X3563464Y68806904D01*
X3248149Y68045666D01*
X3226192Y68004588D01*
X3200555Y67973348D01*
X3169315Y67947711D01*
X3133678Y67928662D01*
X3095005Y67916931D01*
X3054786Y67912970D01*
X3014570Y67916930D01*
X2969998Y67930452D01*
X2917928Y67952020D01*
X2917925Y67952021D01*
X2420416Y68158096D01*
X2420412Y68158098D01*
X2368345Y68179665D01*
X2327267Y68201622D01*
X2296027Y68227259D01*
X2270390Y68258499D01*
X2251340Y68294138D01*
X2239609Y68332808D01*
X2235649Y68373026D01*
X2239610Y68413243D01*
X2253132Y68457820D01*
X2310896Y68597274D01*
X2494265Y69039968D01*
X2664983Y69452118D01*
X2686940Y69493196D01*
X2712577Y69524436D01*
X2743817Y69550073D01*
X2779454Y69569122D01*
X2818127Y69580853D01*
X2858346Y69584814D01*
X2898562Y69580854D01*
X2898562Y69580854D01*
G37*
G36*
X25253954Y69580854D02*
G01*
X25292624Y69569123D01*
X25328263Y69550073D01*
X25359503Y69524436D01*
X25385140Y69493196D01*
X25407097Y69452118D01*
X25428666Y69400045D01*
X25797381Y68509888D01*
X25797383Y68509880D01*
X25818949Y68457816D01*
X25832471Y68413244D01*
X25836431Y68373028D01*
X25832470Y68332809D01*
X25820739Y68294136D01*
X25801690Y68258499D01*
X25776053Y68227259D01*
X25744813Y68201622D01*
X25703735Y68179665D01*
X25651667Y68158098D01*
X25651664Y68158096D01*
X25505949Y68097739D01*
X25102086Y67930453D01*
X25057509Y67916931D01*
X25017290Y67912970D01*
X24977074Y67916930D01*
X24938404Y67928661D01*
X24902765Y67947711D01*
X24871525Y67973348D01*
X24845888Y68004588D01*
X24823931Y68045666D01*
X24704993Y68332809D01*
X24433647Y68987896D01*
X24433645Y68987904D01*
X24412079Y69039968D01*
X24398557Y69084540D01*
X24394597Y69124758D01*
X24398558Y69164975D01*
X24410289Y69203648D01*
X24429338Y69239285D01*
X24454975Y69270525D01*
X24486215Y69296162D01*
X24527293Y69318119D01*
X24579361Y69339686D01*
X24579364Y69339688D01*
X24893087Y69469636D01*
X25128942Y69567331D01*
X25173519Y69580853D01*
X25213738Y69584814D01*
X25253954Y69580854D01*
X25253954Y69580854D01*
G37*
G36*
X22306876Y71020929D02*
G01*
X21527645Y70241698D01*
X21031256Y70738087D01*
X21810487Y71517318D01*
X22306876Y71020929D01*
X22306876Y71020929D01*
G37*
G36*
X7023611Y70755300D02*
G01*
X6527222Y70258911D01*
X5747991Y71038142D01*
X6244380Y71534531D01*
X7023611Y70755300D01*
X7023611Y70755300D01*
G37*
G36*
X21387637Y71940168D02*
G01*
X20608406Y71160937D01*
X20112017Y71657326D01*
X20891248Y72436557D01*
X21387637Y71940168D01*
X21387637Y71940168D01*
G37*
G36*
X7942850Y71674539D02*
G01*
X7446461Y71178150D01*
X6667230Y71957381D01*
X7163619Y72453770D01*
X7942850Y71674539D01*
X7942850Y71674539D01*
G37*
G36*
X23721089Y72435142D02*
G01*
X22941858Y71655911D01*
X22445469Y72152300D01*
X23224700Y72931531D01*
X23721089Y72435142D01*
X23721089Y72435142D01*
G37*
G36*
X5609398Y72169513D02*
G01*
X5113009Y71673124D01*
X4333778Y72452355D01*
X4830167Y72948744D01*
X5609398Y72169513D01*
X5609398Y72169513D01*
G37*
G36*
X22801850Y73354381D02*
G01*
X22022619Y72575150D01*
X21526230Y73071539D01*
X22305461Y73850770D01*
X22801850Y73354381D01*
X22801850Y73354381D01*
G37*
G36*
X6528637Y73088752D02*
G01*
X6032248Y72592363D01*
X5253017Y73371594D01*
X5749406Y73867983D01*
X6528637Y73088752D01*
X6528637Y73088752D01*
G37*
G36*
X17554859Y74229642D02*
G01*
X17599436Y74216120D01*
X17651502Y74194554D01*
X17651504Y74194553D01*
X17878667Y74100459D01*
X18593734Y73804269D01*
X18634812Y73782312D01*
X18666052Y73756675D01*
X18691689Y73725435D01*
X18710738Y73689798D01*
X18722469Y73651125D01*
X18726430Y73610908D01*
X18722470Y73570690D01*
X18708948Y73526118D01*
X18687380Y73474048D01*
X18687379Y73474045D01*
X18483406Y72981610D01*
X18459735Y72924465D01*
X18437778Y72883387D01*
X18412141Y72852147D01*
X18380901Y72826510D01*
X18345262Y72807460D01*
X18306592Y72795729D01*
X18266376Y72791769D01*
X18226157Y72795730D01*
X18181580Y72809252D01*
X18129514Y72830818D01*
X18129512Y72830819D01*
X17506806Y73088752D01*
X17187282Y73221103D01*
X17146204Y73243060D01*
X17114964Y73268697D01*
X17089327Y73299937D01*
X17070278Y73335574D01*
X17058547Y73374247D01*
X17054586Y73414466D01*
X17058546Y73454682D01*
X17072068Y73499254D01*
X17095739Y73556401D01*
X17299712Y74048836D01*
X17299714Y74048840D01*
X17321281Y74100907D01*
X17343238Y74141985D01*
X17368875Y74173225D01*
X17400115Y74198862D01*
X17435754Y74217912D01*
X17474424Y74229643D01*
X17514640Y74233603D01*
X17554859Y74229642D01*
X17554859Y74229642D01*
G37*
G36*
X10565923Y74234716D02*
G01*
X10604596Y74222985D01*
X10640233Y74203936D01*
X10671473Y74178299D01*
X10697110Y74147059D01*
X10719067Y74105981D01*
X10740634Y74053913D01*
X10740636Y74053910D01*
X10861653Y73761749D01*
X10968279Y73504332D01*
X10981801Y73459755D01*
X10985762Y73419538D01*
X10981802Y73379320D01*
X10970071Y73340650D01*
X10951021Y73305011D01*
X10925384Y73273771D01*
X10894144Y73248134D01*
X10853066Y73226177D01*
X10587134Y73116025D01*
X9910836Y72835893D01*
X9910828Y72835891D01*
X9858764Y72814325D01*
X9814192Y72800803D01*
X9773976Y72796843D01*
X9733757Y72800804D01*
X9695084Y72812535D01*
X9659447Y72831584D01*
X9628207Y72857221D01*
X9602570Y72888461D01*
X9580613Y72929539D01*
X9514665Y73088752D01*
X9360990Y73459755D01*
X9331401Y73531188D01*
X9317879Y73575765D01*
X9313918Y73615984D01*
X9317878Y73656200D01*
X9329609Y73694870D01*
X9348659Y73730509D01*
X9374296Y73761749D01*
X9405536Y73787386D01*
X9446614Y73809343D01*
X9712546Y73919495D01*
X10388844Y74199627D01*
X10388852Y74199629D01*
X10440916Y74221195D01*
X10485488Y74234717D01*
X10525704Y74238677D01*
X10565923Y74234716D01*
X10565923Y74234716D01*
G37*
G36*
X13737040Y73795560D02*
G01*
X13035040Y73795560D01*
X13035040Y74897560D01*
X13737040Y74897560D01*
X13737040Y73795560D01*
X13737040Y73795560D01*
G37*
G36*
X15037040Y73795560D02*
G01*
X14335040Y73795560D01*
X14335040Y74897560D01*
X15037040Y74897560D01*
X15037040Y73795560D01*
X15037040Y73795560D01*
G37*
G36*
X18272391Y75961916D02*
G01*
X18316968Y75948394D01*
X18369034Y75926828D01*
X18369036Y75926827D01*
X18596199Y75832733D01*
X19311266Y75536543D01*
X19352344Y75514586D01*
X19383584Y75488949D01*
X19409221Y75457709D01*
X19428270Y75422072D01*
X19440001Y75383399D01*
X19443962Y75343182D01*
X19440002Y75302964D01*
X19426480Y75258392D01*
X19404912Y75206322D01*
X19404911Y75206319D01*
X19200938Y74713884D01*
X19177267Y74656739D01*
X19155310Y74615661D01*
X19129673Y74584421D01*
X19098433Y74558784D01*
X19062794Y74539734D01*
X19024124Y74528003D01*
X18983908Y74524043D01*
X18943689Y74528004D01*
X18899112Y74541526D01*
X18847046Y74563092D01*
X18847044Y74563093D01*
X18460588Y74723168D01*
X17904814Y74953377D01*
X17863736Y74975334D01*
X17832496Y75000971D01*
X17806859Y75032211D01*
X17787810Y75067848D01*
X17776079Y75106521D01*
X17772118Y75146740D01*
X17776078Y75186956D01*
X17789600Y75231528D01*
X17813271Y75288675D01*
X18017244Y75781110D01*
X18017246Y75781114D01*
X18038813Y75833181D01*
X18060770Y75874259D01*
X18086407Y75905499D01*
X18117647Y75931136D01*
X18153286Y75950186D01*
X18191956Y75961917D01*
X18232172Y75965877D01*
X18272391Y75961916D01*
X18272391Y75961916D01*
G37*
G36*
X9848391Y75966990D02*
G01*
X9887064Y75955259D01*
X9922701Y75936210D01*
X9953941Y75910573D01*
X9979578Y75879333D01*
X10001535Y75838255D01*
X10023102Y75786187D01*
X10023104Y75786184D01*
X10144121Y75494023D01*
X10250747Y75236606D01*
X10264269Y75192029D01*
X10268230Y75151812D01*
X10264270Y75111594D01*
X10252539Y75072924D01*
X10233489Y75037285D01*
X10207852Y75006045D01*
X10176612Y74980408D01*
X10135534Y74958451D01*
X9869602Y74848299D01*
X9193304Y74568167D01*
X9193296Y74568165D01*
X9141232Y74546599D01*
X9096660Y74533077D01*
X9056444Y74529117D01*
X9016225Y74533078D01*
X8977552Y74544809D01*
X8941915Y74563858D01*
X8910675Y74589495D01*
X8885038Y74620735D01*
X8863081Y74661813D01*
X8740939Y74956690D01*
X8643458Y75192029D01*
X8613869Y75263462D01*
X8600347Y75308039D01*
X8596386Y75348258D01*
X8600346Y75388474D01*
X8612077Y75427144D01*
X8631127Y75462783D01*
X8656764Y75494023D01*
X8688004Y75519660D01*
X8729082Y75541617D01*
X8995014Y75651769D01*
X9671312Y75931901D01*
X9671320Y75931903D01*
X9723384Y75953469D01*
X9767956Y75966991D01*
X9808172Y75970951D01*
X9848391Y75966990D01*
X9848391Y75966990D01*
G37*
G36*
X13737040Y75795560D02*
G01*
X13035040Y75795560D01*
X13035040Y76897560D01*
X13737040Y76897560D01*
X13737040Y75795560D01*
X13737040Y75795560D01*
G37*
G36*
X15037040Y75795560D02*
G01*
X14335040Y75795560D01*
X14335040Y76897560D01*
X15037040Y76897560D01*
X15037040Y75795560D01*
X15037040Y75795560D01*
G37*
G36*
X14476840Y77882380D02*
G01*
X13574840Y77882380D01*
X13574840Y78884380D01*
X14476840Y78884380D01*
X14476840Y77882380D01*
X14476840Y77882380D01*
G37*
G36*
X18215468Y80850415D02*
G01*
X18254138Y80838684D01*
X18289777Y80819634D01*
X18321017Y80793997D01*
X18346654Y80762757D01*
X18365704Y80727118D01*
X18377435Y80688448D01*
X18382000Y80642092D01*
X18382000Y79565868D01*
X18377435Y79519512D01*
X18365704Y79480842D01*
X18346654Y79445203D01*
X18321017Y79413963D01*
X18289777Y79388326D01*
X18254138Y79369276D01*
X18215468Y79357545D01*
X18169112Y79352980D01*
X17517888Y79352980D01*
X17471532Y79357545D01*
X17432862Y79369276D01*
X17397223Y79388326D01*
X17365983Y79413963D01*
X17340346Y79445203D01*
X17321296Y79480842D01*
X17309565Y79519512D01*
X17305000Y79565868D01*
X17305000Y80642092D01*
X17309565Y80688448D01*
X17321296Y80727118D01*
X17340346Y80762757D01*
X17365983Y80793997D01*
X17397223Y80819634D01*
X17432862Y80838684D01*
X17471532Y80850415D01*
X17517888Y80854980D01*
X18169112Y80854980D01*
X18215468Y80850415D01*
X18215468Y80850415D01*
G37*
G36*
X20090468Y80850415D02*
G01*
X20129138Y80838684D01*
X20164777Y80819634D01*
X20196017Y80793997D01*
X20221654Y80762757D01*
X20240704Y80727118D01*
X20252435Y80688448D01*
X20257000Y80642092D01*
X20257000Y79565868D01*
X20252435Y79519512D01*
X20240704Y79480842D01*
X20221654Y79445203D01*
X20196017Y79413963D01*
X20164777Y79388326D01*
X20129138Y79369276D01*
X20090468Y79357545D01*
X20044112Y79352980D01*
X19392888Y79352980D01*
X19346532Y79357545D01*
X19307862Y79369276D01*
X19272223Y79388326D01*
X19240983Y79413963D01*
X19215346Y79445203D01*
X19196296Y79480842D01*
X19184565Y79519512D01*
X19180000Y79565868D01*
X19180000Y80642092D01*
X19184565Y80688448D01*
X19196296Y80727118D01*
X19215346Y80762757D01*
X19240983Y80793997D01*
X19272223Y80819634D01*
X19307862Y80838684D01*
X19346532Y80850415D01*
X19392888Y80854980D01*
X20044112Y80854980D01*
X20090468Y80850415D01*
X20090468Y80850415D01*
G37*
G36*
X8682368Y80878355D02*
G01*
X8721038Y80866624D01*
X8756677Y80847574D01*
X8787917Y80821937D01*
X8813554Y80790697D01*
X8832604Y80755058D01*
X8844335Y80716388D01*
X8848900Y80670032D01*
X8848900Y79593808D01*
X8844335Y79547452D01*
X8832604Y79508782D01*
X8813554Y79473143D01*
X8787917Y79441903D01*
X8756677Y79416266D01*
X8721038Y79397216D01*
X8682368Y79385485D01*
X8636012Y79380920D01*
X7984788Y79380920D01*
X7938432Y79385485D01*
X7899762Y79397216D01*
X7864123Y79416266D01*
X7832883Y79441903D01*
X7807246Y79473143D01*
X7788196Y79508782D01*
X7776465Y79547452D01*
X7771900Y79593808D01*
X7771900Y80670032D01*
X7776465Y80716388D01*
X7788196Y80755058D01*
X7807246Y80790697D01*
X7832883Y80821937D01*
X7864123Y80847574D01*
X7899762Y80866624D01*
X7938432Y80878355D01*
X7984788Y80882920D01*
X8636012Y80882920D01*
X8682368Y80878355D01*
X8682368Y80878355D01*
G37*
G36*
X10557368Y80878355D02*
G01*
X10596038Y80866624D01*
X10631677Y80847574D01*
X10662917Y80821937D01*
X10688554Y80790697D01*
X10707604Y80755058D01*
X10719335Y80716388D01*
X10723900Y80670032D01*
X10723900Y79593808D01*
X10719335Y79547452D01*
X10707604Y79508782D01*
X10688554Y79473143D01*
X10662917Y79441903D01*
X10631677Y79416266D01*
X10596038Y79397216D01*
X10557368Y79385485D01*
X10511012Y79380920D01*
X9859788Y79380920D01*
X9813432Y79385485D01*
X9774762Y79397216D01*
X9739123Y79416266D01*
X9707883Y79441903D01*
X9682246Y79473143D01*
X9663196Y79508782D01*
X9651465Y79547452D01*
X9646900Y79593808D01*
X9646900Y80670032D01*
X9651465Y80716388D01*
X9663196Y80755058D01*
X9682246Y80790697D01*
X9707883Y80821937D01*
X9739123Y80847574D01*
X9774762Y80866624D01*
X9813432Y80878355D01*
X9859788Y80882920D01*
X10511012Y80882920D01*
X10557368Y80878355D01*
X10557368Y80878355D01*
G37*
G36*
X15426840Y79882380D02*
G01*
X14524840Y79882380D01*
X14524840Y80884380D01*
X15426840Y80884380D01*
X15426840Y79882380D01*
X15426840Y79882380D01*
G37*
G36*
X13526840Y79882380D02*
G01*
X12624840Y79882380D01*
X12624840Y80884380D01*
X13526840Y80884380D01*
X13526840Y79882380D01*
X13526840Y79882380D01*
G37*
G36*
X8929022Y85226598D02*
G01*
X9076981Y85165311D01*
X9210135Y85076341D01*
X9323381Y84963095D01*
X9412351Y84829941D01*
X9473638Y84681982D01*
X9504880Y84524915D01*
X9504880Y84364765D01*
X9473638Y84207698D01*
X9412351Y84059739D01*
X9323381Y83926585D01*
X9210135Y83813339D01*
X9076981Y83724369D01*
X8929022Y83663082D01*
X8771955Y83631840D01*
X8611805Y83631840D01*
X8454738Y83663082D01*
X8306779Y83724369D01*
X8173625Y83813339D01*
X8060379Y83926585D01*
X7971409Y84059739D01*
X7910122Y84207698D01*
X7878880Y84364765D01*
X7878880Y84524915D01*
X7910122Y84681982D01*
X7971409Y84829941D01*
X8060379Y84963095D01*
X8173625Y85076341D01*
X8306779Y85165311D01*
X8454738Y85226598D01*
X8611805Y85257840D01*
X8771955Y85257840D01*
X8929022Y85226598D01*
X8929022Y85226598D01*
G37*
G36*
X20117000Y83660280D02*
G01*
X18491000Y83660280D01*
X18491000Y85286280D01*
X20117000Y85286280D01*
X20117000Y83660280D01*
X20117000Y83660280D01*
G37*
G36*
X8929022Y87226598D02*
G01*
X9076981Y87165311D01*
X9210135Y87076341D01*
X9323381Y86963095D01*
X9412351Y86829941D01*
X9473638Y86681982D01*
X9504880Y86524915D01*
X9504880Y86364765D01*
X9473638Y86207698D01*
X9412351Y86059739D01*
X9323381Y85926585D01*
X9210135Y85813339D01*
X9076981Y85724369D01*
X8929022Y85663082D01*
X8771955Y85631840D01*
X8611805Y85631840D01*
X8454738Y85663082D01*
X8306779Y85724369D01*
X8173625Y85813339D01*
X8060379Y85926585D01*
X7971409Y86059739D01*
X7910122Y86207698D01*
X7878880Y86364765D01*
X7878880Y86524915D01*
X7910122Y86681982D01*
X7971409Y86829941D01*
X8060379Y86963095D01*
X8173625Y87076341D01*
X8306779Y87165311D01*
X8454738Y87226598D01*
X8611805Y87257840D01*
X8771955Y87257840D01*
X8929022Y87226598D01*
X8929022Y87226598D01*
G37*
G36*
X19541142Y87255038D02*
G01*
X19689101Y87193751D01*
X19822255Y87104781D01*
X19935501Y86991535D01*
X20024471Y86858381D01*
X20085758Y86710422D01*
X20117000Y86553355D01*
X20117000Y86393205D01*
X20085758Y86236138D01*
X20024471Y86088179D01*
X19935501Y85955025D01*
X19822255Y85841779D01*
X19689101Y85752809D01*
X19541142Y85691522D01*
X19384075Y85660280D01*
X19223925Y85660280D01*
X19066858Y85691522D01*
X18918899Y85752809D01*
X18785745Y85841779D01*
X18672499Y85955025D01*
X18583529Y86088179D01*
X18522242Y86236138D01*
X18491000Y86393205D01*
X18491000Y86553355D01*
X18522242Y86710422D01*
X18583529Y86858381D01*
X18672499Y86991535D01*
X18785745Y87104781D01*
X18918899Y87193751D01*
X19066858Y87255038D01*
X19223925Y87286280D01*
X19384075Y87286280D01*
X19541142Y87255038D01*
X19541142Y87255038D01*
G37*
G36*
X8929022Y89226598D02*
G01*
X9076981Y89165311D01*
X9210135Y89076341D01*
X9323381Y88963095D01*
X9412351Y88829941D01*
X9473638Y88681982D01*
X9504880Y88524915D01*
X9504880Y88364765D01*
X9473638Y88207698D01*
X9412351Y88059739D01*
X9323381Y87926585D01*
X9210135Y87813339D01*
X9076981Y87724369D01*
X8929022Y87663082D01*
X8771955Y87631840D01*
X8611805Y87631840D01*
X8454738Y87663082D01*
X8306779Y87724369D01*
X8173625Y87813339D01*
X8060379Y87926585D01*
X7971409Y88059739D01*
X7910122Y88207698D01*
X7878880Y88364765D01*
X7878880Y88524915D01*
X7910122Y88681982D01*
X7971409Y88829941D01*
X8060379Y88963095D01*
X8173625Y89076341D01*
X8306779Y89165311D01*
X8454738Y89226598D01*
X8611805Y89257840D01*
X8771955Y89257840D01*
X8929022Y89226598D01*
X8929022Y89226598D01*
G37*
G36*
X19541142Y89255038D02*
G01*
X19689101Y89193751D01*
X19822255Y89104781D01*
X19935501Y88991535D01*
X20024471Y88858381D01*
X20085758Y88710422D01*
X20117000Y88553355D01*
X20117000Y88393205D01*
X20085758Y88236138D01*
X20024471Y88088179D01*
X19935501Y87955025D01*
X19822255Y87841779D01*
X19689101Y87752809D01*
X19541142Y87691522D01*
X19384075Y87660280D01*
X19223925Y87660280D01*
X19066858Y87691522D01*
X18918899Y87752809D01*
X18785745Y87841779D01*
X18672499Y87955025D01*
X18583529Y88088179D01*
X18522242Y88236138D01*
X18491000Y88393205D01*
X18491000Y88553355D01*
X18522242Y88710422D01*
X18583529Y88858381D01*
X18672499Y88991535D01*
X18785745Y89104781D01*
X18918899Y89193751D01*
X19066858Y89255038D01*
X19223925Y89286280D01*
X19384075Y89286280D01*
X19541142Y89255038D01*
X19541142Y89255038D01*
G37*
G36*
X9504880Y89631840D02*
G01*
X7878880Y89631840D01*
X7878880Y91257840D01*
X9504880Y91257840D01*
X9504880Y89631840D01*
X9504880Y89631840D01*
G37*
G36*
X19541142Y91255038D02*
G01*
X19689101Y91193751D01*
X19822255Y91104781D01*
X19935501Y90991535D01*
X20024471Y90858381D01*
X20085758Y90710422D01*
X20117000Y90553355D01*
X20117000Y90393205D01*
X20085758Y90236138D01*
X20024471Y90088179D01*
X19935501Y89955025D01*
X19822255Y89841779D01*
X19689101Y89752809D01*
X19541142Y89691522D01*
X19384075Y89660280D01*
X19223925Y89660280D01*
X19066858Y89691522D01*
X18918899Y89752809D01*
X18785745Y89841779D01*
X18672499Y89955025D01*
X18583529Y90088179D01*
X18522242Y90236138D01*
X18491000Y90393205D01*
X18491000Y90553355D01*
X18522242Y90710422D01*
X18583529Y90858381D01*
X18672499Y90991535D01*
X18785745Y91104781D01*
X18918899Y91193751D01*
X19066858Y91255038D01*
X19223925Y91286280D01*
X19384075Y91286280D01*
X19541142Y91255038D01*
X19541142Y91255038D01*
G37*
G36*
X17697403Y96916641D02*
G01*
X17763587Y96910123D01*
X17933426Y96858603D01*
X18089951Y96774938D01*
X18125689Y96745608D01*
X18227146Y96662346D01*
X18310408Y96560889D01*
X18339738Y96525151D01*
X18423403Y96368626D01*
X18474923Y96198787D01*
X18492319Y96022160D01*
X18474923Y95845533D01*
X18423403Y95675694D01*
X18339738Y95519169D01*
X18310408Y95483431D01*
X18227146Y95381974D01*
X18125689Y95298712D01*
X18089951Y95269382D01*
X17933426Y95185717D01*
X17763587Y95134197D01*
X17697402Y95127678D01*
X17631220Y95121160D01*
X17542700Y95121160D01*
X17476518Y95127678D01*
X17410333Y95134197D01*
X17240494Y95185717D01*
X17083969Y95269382D01*
X17048231Y95298712D01*
X16946774Y95381974D01*
X16863512Y95483431D01*
X16834182Y95519169D01*
X16750517Y95675694D01*
X16698997Y95845533D01*
X16681601Y96022160D01*
X16698997Y96198787D01*
X16750517Y96368626D01*
X16834182Y96525151D01*
X16863512Y96560889D01*
X16946774Y96662346D01*
X17048231Y96745608D01*
X17083969Y96774938D01*
X17240494Y96858603D01*
X17410333Y96910123D01*
X17476517Y96916641D01*
X17542700Y96923160D01*
X17631220Y96923160D01*
X17697403Y96916641D01*
X17697403Y96916641D01*
G37*
G36*
X10867960Y95121160D02*
G01*
X9065960Y95121160D01*
X9065960Y96923160D01*
X10867960Y96923160D01*
X10867960Y95121160D01*
X10867960Y95121160D01*
G37*
G36*
X15157403Y96916641D02*
G01*
X15223587Y96910123D01*
X15393426Y96858603D01*
X15549951Y96774938D01*
X15585689Y96745608D01*
X15687146Y96662346D01*
X15770408Y96560889D01*
X15799738Y96525151D01*
X15883403Y96368626D01*
X15934923Y96198787D01*
X15952319Y96022160D01*
X15934923Y95845533D01*
X15883403Y95675694D01*
X15799738Y95519169D01*
X15770408Y95483431D01*
X15687146Y95381974D01*
X15585689Y95298712D01*
X15549951Y95269382D01*
X15393426Y95185717D01*
X15223587Y95134197D01*
X15157402Y95127678D01*
X15091220Y95121160D01*
X15002700Y95121160D01*
X14936518Y95127678D01*
X14870333Y95134197D01*
X14700494Y95185717D01*
X14543969Y95269382D01*
X14508231Y95298712D01*
X14406774Y95381974D01*
X14323512Y95483431D01*
X14294182Y95519169D01*
X14210517Y95675694D01*
X14158997Y95845533D01*
X14141601Y96022160D01*
X14158997Y96198787D01*
X14210517Y96368626D01*
X14294182Y96525151D01*
X14323512Y96560889D01*
X14406774Y96662346D01*
X14508231Y96745608D01*
X14543969Y96774938D01*
X14700494Y96858603D01*
X14870333Y96910123D01*
X14936517Y96916641D01*
X15002700Y96923160D01*
X15091220Y96923160D01*
X15157403Y96916641D01*
X15157403Y96916641D01*
G37*
G36*
X12617403Y96916641D02*
G01*
X12683587Y96910123D01*
X12853426Y96858603D01*
X13009951Y96774938D01*
X13045689Y96745608D01*
X13147146Y96662346D01*
X13230408Y96560889D01*
X13259738Y96525151D01*
X13343403Y96368626D01*
X13394923Y96198787D01*
X13412319Y96022160D01*
X13394923Y95845533D01*
X13343403Y95675694D01*
X13259738Y95519169D01*
X13230408Y95483431D01*
X13147146Y95381974D01*
X13045689Y95298712D01*
X13009951Y95269382D01*
X12853426Y95185717D01*
X12683587Y95134197D01*
X12617402Y95127678D01*
X12551220Y95121160D01*
X12462700Y95121160D01*
X12396518Y95127678D01*
X12330333Y95134197D01*
X12160494Y95185717D01*
X12003969Y95269382D01*
X11968231Y95298712D01*
X11866774Y95381974D01*
X11783512Y95483431D01*
X11754182Y95519169D01*
X11670517Y95675694D01*
X11618997Y95845533D01*
X11601601Y96022160D01*
X11618997Y96198787D01*
X11670517Y96368626D01*
X11754182Y96525151D01*
X11783512Y96560889D01*
X11866774Y96662346D01*
X11968231Y96745608D01*
X12003969Y96774938D01*
X12160494Y96858603D01*
X12330333Y96910123D01*
X12396517Y96916641D01*
X12462700Y96923160D01*
X12551220Y96923160D01*
X12617403Y96916641D01*
X12617403Y96916641D01*
G37*
M02*
